ISO-10303-21;
HEADER;
/* Generated by software containing ST-Developer
 * from STEP Tools, Inc. (www.steptools.com) 
 */

FILE_DESCRIPTION(
/* description */ (''),
/* implementation_level */ '2;1');

FILE_NAME(
/* name */ 'SK-13D08-G-5-E.step',
/* time_stamp */ '2026-08-08T14:12:02-07:00',
/* author */ (''),
/* organization */ (''),
/* preprocessor_version */ 'ST-DEVELOPER v20.1',
/* originating_system */ 'Autodesk Translation Framework v15.8.0.0',
/* authorisation */ '');

FILE_SCHEMA (('AUTOMOTIVE_DESIGN { 1 0 10303 214 3 1 1 }','INTEGRATED_CNC_SCHEMA'));
ENDSEC;

DATA;
#10=MECHANICAL_DESIGN_GEOMETRIC_PRESENTATION_REPRESENTATION('',(#13),#1157);
#11=SHAPE_REPRESENTATION_RELATIONSHIP('SRR','None',#1164,#12);
#12=ADVANCED_BREP_SHAPE_REPRESENTATION('',(#14),#1156);
#13=STYLED_ITEM('',(#1173),#14);
#14=MANIFOLD_SOLID_BREP('Body1',#725);
#15=FACE_BOUND('',#88,.T.);
#16=FACE_BOUND('',#89,.T.);
#17=FACE_BOUND('',#90,.T.);
#18=FACE_BOUND('',#91,.T.);
#19=FACE_BOUND('',#101,.T.);
#20=FACE_OUTER_BOUND('',#59,.T.);
#21=FACE_OUTER_BOUND('',#60,.T.);
#22=FACE_OUTER_BOUND('',#61,.T.);
#23=FACE_OUTER_BOUND('',#62,.T.);
#24=FACE_OUTER_BOUND('',#63,.T.);
#25=FACE_OUTER_BOUND('',#64,.T.);
#26=FACE_OUTER_BOUND('',#65,.T.);
#27=FACE_OUTER_BOUND('',#66,.T.);
#28=FACE_OUTER_BOUND('',#67,.T.);
#29=FACE_OUTER_BOUND('',#68,.T.);
#30=FACE_OUTER_BOUND('',#69,.T.);
#31=FACE_OUTER_BOUND('',#70,.T.);
#32=FACE_OUTER_BOUND('',#71,.T.);
#33=FACE_OUTER_BOUND('',#72,.T.);
#34=FACE_OUTER_BOUND('',#73,.T.);
#35=FACE_OUTER_BOUND('',#74,.T.);
#36=FACE_OUTER_BOUND('',#75,.T.);
#37=FACE_OUTER_BOUND('',#76,.T.);
#38=FACE_OUTER_BOUND('',#77,.T.);
#39=FACE_OUTER_BOUND('',#78,.T.);
#40=FACE_OUTER_BOUND('',#79,.T.);
#41=FACE_OUTER_BOUND('',#80,.T.);
#42=FACE_OUTER_BOUND('',#81,.T.);
#43=FACE_OUTER_BOUND('',#82,.T.);
#44=FACE_OUTER_BOUND('',#83,.T.);
#45=FACE_OUTER_BOUND('',#84,.T.);
#46=FACE_OUTER_BOUND('',#85,.T.);
#47=FACE_OUTER_BOUND('',#86,.T.);
#48=FACE_OUTER_BOUND('',#87,.T.);
#49=FACE_OUTER_BOUND('',#92,.T.);
#50=FACE_OUTER_BOUND('',#93,.T.);
#51=FACE_OUTER_BOUND('',#94,.T.);
#52=FACE_OUTER_BOUND('',#95,.T.);
#53=FACE_OUTER_BOUND('',#96,.T.);
#54=FACE_OUTER_BOUND('',#97,.T.);
#55=FACE_OUTER_BOUND('',#98,.T.);
#56=FACE_OUTER_BOUND('',#99,.T.);
#57=FACE_OUTER_BOUND('',#100,.T.);
#58=FACE_OUTER_BOUND('',#102,.T.);
#59=EDGE_LOOP('',(#455,#456,#457,#458));
#60=EDGE_LOOP('',(#459,#460,#461,#462));
#61=EDGE_LOOP('',(#463,#464,#465,#466));
#62=EDGE_LOOP('',(#467,#468,#469,#470));
#63=EDGE_LOOP('',(#471,#472,#473,#474));
#64=EDGE_LOOP('',(#475,#476,#477,#478));
#65=EDGE_LOOP('',(#479,#480,#481,#482));
#66=EDGE_LOOP('',(#483,#484,#485,#486));
#67=EDGE_LOOP('',(#487,#488,#489,#490));
#68=EDGE_LOOP('',(#491,#492,#493,#494));
#69=EDGE_LOOP('',(#495,#496,#497,#498));
#70=EDGE_LOOP('',(#499,#500,#501,#502));
#71=EDGE_LOOP('',(#503,#504,#505,#506));
#72=EDGE_LOOP('',(#507,#508,#509,#510));
#73=EDGE_LOOP('',(#511,#512,#513,#514));
#74=EDGE_LOOP('',(#515,#516,#517,#518));
#75=EDGE_LOOP('',(#519,#520,#521,#522));
#76=EDGE_LOOP('',(#523,#524,#525,#526));
#77=EDGE_LOOP('',(#527,#528,#529,#530));
#78=EDGE_LOOP('',(#531,#532,#533,#534));
#79=EDGE_LOOP('',(#535,#536,#537,#538));
#80=EDGE_LOOP('',(#539,#540,#541,#542));
#81=EDGE_LOOP('',(#543,#544,#545,#546));
#82=EDGE_LOOP('',(#547,#548,#549,#550));
#83=EDGE_LOOP('',(#551,#552,#553,#554));
#84=EDGE_LOOP('',(#555,#556,#557,#558));
#85=EDGE_LOOP('',(#559,#560,#561,#562));
#86=EDGE_LOOP('',(#563,#564,#565,#566));
#87=EDGE_LOOP('',(#567,#568,#569,#570,#571,#572,#573,#574,#575,#576,#577,
#578));
#88=EDGE_LOOP('',(#579,#580,#581,#582));
#89=EDGE_LOOP('',(#583,#584,#585,#586));
#90=EDGE_LOOP('',(#587,#588,#589,#590));
#91=EDGE_LOOP('',(#591,#592,#593,#594));
#92=EDGE_LOOP('',(#595,#596,#597,#598));
#93=EDGE_LOOP('',(#599,#600,#601,#602));
#94=EDGE_LOOP('',(#603,#604,#605,#606));
#95=EDGE_LOOP('',(#607,#608,#609,#610));
#96=EDGE_LOOP('',(#611,#612,#613,#614));
#97=EDGE_LOOP('',(#615,#616,#617,#618,#619,#620,#621,#622));
#98=EDGE_LOOP('',(#623,#624,#625,#626));
#99=EDGE_LOOP('',(#627,#628,#629,#630,#631,#632,#633,#634));
#100=EDGE_LOOP('',(#635,#636,#637,#638));
#101=EDGE_LOOP('',(#639,#640,#641,#642));
#102=EDGE_LOOP('',(#643,#644,#645,#646));
#103=LINE('',#958,#199);
#104=LINE('',#960,#200);
#105=LINE('',#962,#201);
#106=LINE('',#963,#202);
#107=LINE('',#966,#203);
#108=LINE('',#968,#204);
#109=LINE('',#969,#205);
#110=LINE('',#972,#206);
#111=LINE('',#974,#207);
#112=LINE('',#975,#208);
#113=LINE('',#977,#209);
#114=LINE('',#978,#210);
#115=LINE('',#983,#211);
#116=LINE('',#985,#212);
#117=LINE('',#987,#213);
#118=LINE('',#988,#214);
#119=LINE('',#991,#215);
#120=LINE('',#993,#216);
#121=LINE('',#994,#217);
#122=LINE('',#997,#218);
#123=LINE('',#999,#219);
#124=LINE('',#1000,#220);
#125=LINE('',#1002,#221);
#126=LINE('',#1003,#222);
#127=LINE('',#1008,#223);
#128=LINE('',#1010,#224);
#129=LINE('',#1012,#225);
#130=LINE('',#1013,#226);
#131=LINE('',#1016,#227);
#132=LINE('',#1018,#228);
#133=LINE('',#1019,#229);
#134=LINE('',#1022,#230);
#135=LINE('',#1024,#231);
#136=LINE('',#1025,#232);
#137=LINE('',#1027,#233);
#138=LINE('',#1028,#234);
#139=LINE('',#1033,#235);
#140=LINE('',#1035,#236);
#141=LINE('',#1037,#237);
#142=LINE('',#1038,#238);
#143=LINE('',#1041,#239);
#144=LINE('',#1043,#240);
#145=LINE('',#1044,#241);
#146=LINE('',#1047,#242);
#147=LINE('',#1049,#243);
#148=LINE('',#1050,#244);
#149=LINE('',#1052,#245);
#150=LINE('',#1053,#246);
#151=LINE('',#1058,#247);
#152=LINE('',#1060,#248);
#153=LINE('',#1062,#249);
#154=LINE('',#1063,#250);
#155=LINE('',#1066,#251);
#156=LINE('',#1068,#252);
#157=LINE('',#1069,#253);
#158=LINE('',#1072,#254);
#159=LINE('',#1074,#255);
#160=LINE('',#1075,#256);
#161=LINE('',#1077,#257);
#162=LINE('',#1081,#258);
#163=LINE('',#1083,#259);
#164=LINE('',#1085,#260);
#165=LINE('',#1086,#261);
#166=LINE('',#1089,#262);
#167=LINE('',#1091,#263);
#168=LINE('',#1092,#264);
#169=LINE('',#1095,#265);
#170=LINE('',#1097,#266);
#171=LINE('',#1098,#267);
#172=LINE('',#1100,#268);
#173=LINE('',#1103,#269);
#174=LINE('',#1105,#270);
#175=LINE('',#1106,#271);
#176=LINE('',#1108,#272);
#177=LINE('',#1110,#273);
#178=LINE('',#1111,#274);
#179=LINE('',#1115,#275);
#180=LINE('',#1117,#276);
#181=LINE('',#1119,#277);
#182=LINE('',#1120,#278);
#183=LINE('',#1123,#279);
#184=LINE('',#1125,#280);
#185=LINE('',#1126,#281);
#186=LINE('',#1129,#282);
#187=LINE('',#1131,#283);
#188=LINE('',#1132,#284);
#189=LINE('',#1134,#285);
#190=LINE('',#1135,#286);
#191=LINE('',#1139,#287);
#192=LINE('',#1141,#288);
#193=LINE('',#1142,#289);
#194=LINE('',#1145,#290);
#195=LINE('',#1146,#291);
#196=LINE('',#1149,#292);
#197=LINE('',#1150,#293);
#198=LINE('',#1152,#294);
#199=VECTOR('',#782,10.);
#200=VECTOR('',#783,10.);
#201=VECTOR('',#784,10.);
#202=VECTOR('',#785,10.);
#203=VECTOR('',#788,10.);
#204=VECTOR('',#789,10.);
#205=VECTOR('',#790,10.);
#206=VECTOR('',#793,10.);
#207=VECTOR('',#794,10.);
#208=VECTOR('',#795,10.);
#209=VECTOR('',#798,10.);
#210=VECTOR('',#799,10.);
#211=VECTOR('',#804,10.);
#212=VECTOR('',#805,10.);
#213=VECTOR('',#806,10.);
#214=VECTOR('',#807,10.);
#215=VECTOR('',#810,10.);
#216=VECTOR('',#811,10.);
#217=VECTOR('',#812,10.);
#218=VECTOR('',#815,10.);
#219=VECTOR('',#816,10.);
#220=VECTOR('',#817,10.);
#221=VECTOR('',#820,10.);
#222=VECTOR('',#821,10.);
#223=VECTOR('',#826,10.);
#224=VECTOR('',#827,10.);
#225=VECTOR('',#828,10.);
#226=VECTOR('',#829,10.);
#227=VECTOR('',#832,10.);
#228=VECTOR('',#833,10.);
#229=VECTOR('',#834,10.);
#230=VECTOR('',#837,10.);
#231=VECTOR('',#838,10.);
#232=VECTOR('',#839,10.);
#233=VECTOR('',#842,10.);
#234=VECTOR('',#843,10.);
#235=VECTOR('',#848,10.);
#236=VECTOR('',#849,10.);
#237=VECTOR('',#850,10.);
#238=VECTOR('',#851,10.);
#239=VECTOR('',#854,10.);
#240=VECTOR('',#855,10.);
#241=VECTOR('',#856,10.);
#242=VECTOR('',#859,10.);
#243=VECTOR('',#860,10.);
#244=VECTOR('',#861,10.);
#245=VECTOR('',#864,10.);
#246=VECTOR('',#865,10.);
#247=VECTOR('',#870,10.);
#248=VECTOR('',#871,10.);
#249=VECTOR('',#872,10.);
#250=VECTOR('',#873,10.);
#251=VECTOR('',#876,10.);
#252=VECTOR('',#877,10.);
#253=VECTOR('',#878,10.);
#254=VECTOR('',#881,10.);
#255=VECTOR('',#882,10.);
#256=VECTOR('',#883,10.);
#257=VECTOR('',#886,10.);
#258=VECTOR('',#889,10.);
#259=VECTOR('',#890,10.);
#260=VECTOR('',#891,10.);
#261=VECTOR('',#892,10.);
#262=VECTOR('',#895,10.);
#263=VECTOR('',#896,10.);
#264=VECTOR('',#897,10.);
#265=VECTOR('',#900,10.);
#266=VECTOR('',#901,10.);
#267=VECTOR('',#902,10.);
#268=VECTOR('',#905,10.);
#269=VECTOR('',#908,10.);
#270=VECTOR('',#909,10.);
#271=VECTOR('',#910,10.);
#272=VECTOR('',#911,10.);
#273=VECTOR('',#912,10.);
#274=VECTOR('',#913,10.);
#275=VECTOR('',#916,10.);
#276=VECTOR('',#917,10.);
#277=VECTOR('',#918,10.);
#278=VECTOR('',#919,10.);
#279=VECTOR('',#922,10.);
#280=VECTOR('',#923,10.);
#281=VECTOR('',#924,10.);
#282=VECTOR('',#927,10.);
#283=VECTOR('',#928,10.);
#284=VECTOR('',#929,10.);
#285=VECTOR('',#932,10.);
#286=VECTOR('',#933,10.);
#287=VECTOR('',#938,10.);
#288=VECTOR('',#939,10.);
#289=VECTOR('',#940,10.);
#290=VECTOR('',#943,10.);
#291=VECTOR('',#944,10.);
#292=VECTOR('',#947,10.);
#293=VECTOR('',#948,10.);
#294=VECTOR('',#951,10.);
#295=VERTEX_POINT('',#956);
#296=VERTEX_POINT('',#957);
#297=VERTEX_POINT('',#959);
#298=VERTEX_POINT('',#961);
#299=VERTEX_POINT('',#965);
#300=VERTEX_POINT('',#967);
#301=VERTEX_POINT('',#971);
#302=VERTEX_POINT('',#973);
#303=VERTEX_POINT('',#981);
#304=VERTEX_POINT('',#982);
#305=VERTEX_POINT('',#984);
#306=VERTEX_POINT('',#986);
#307=VERTEX_POINT('',#990);
#308=VERTEX_POINT('',#992);
#309=VERTEX_POINT('',#996);
#310=VERTEX_POINT('',#998);
#311=VERTEX_POINT('',#1006);
#312=VERTEX_POINT('',#1007);
#313=VERTEX_POINT('',#1009);
#314=VERTEX_POINT('',#1011);
#315=VERTEX_POINT('',#1015);
#316=VERTEX_POINT('',#1017);
#317=VERTEX_POINT('',#1021);
#318=VERTEX_POINT('',#1023);
#319=VERTEX_POINT('',#1031);
#320=VERTEX_POINT('',#1032);
#321=VERTEX_POINT('',#1034);
#322=VERTEX_POINT('',#1036);
#323=VERTEX_POINT('',#1040);
#324=VERTEX_POINT('',#1042);
#325=VERTEX_POINT('',#1046);
#326=VERTEX_POINT('',#1048);
#327=VERTEX_POINT('',#1056);
#328=VERTEX_POINT('',#1057);
#329=VERTEX_POINT('',#1059);
#330=VERTEX_POINT('',#1061);
#331=VERTEX_POINT('',#1065);
#332=VERTEX_POINT('',#1067);
#333=VERTEX_POINT('',#1071);
#334=VERTEX_POINT('',#1073);
#335=VERTEX_POINT('',#1079);
#336=VERTEX_POINT('',#1080);
#337=VERTEX_POINT('',#1082);
#338=VERTEX_POINT('',#1084);
#339=VERTEX_POINT('',#1088);
#340=VERTEX_POINT('',#1090);
#341=VERTEX_POINT('',#1094);
#342=VERTEX_POINT('',#1096);
#343=VERTEX_POINT('',#1102);
#344=VERTEX_POINT('',#1104);
#345=VERTEX_POINT('',#1107);
#346=VERTEX_POINT('',#1109);
#347=VERTEX_POINT('',#1113);
#348=VERTEX_POINT('',#1114);
#349=VERTEX_POINT('',#1116);
#350=VERTEX_POINT('',#1118);
#351=VERTEX_POINT('',#1122);
#352=VERTEX_POINT('',#1124);
#353=VERTEX_POINT('',#1128);
#354=VERTEX_POINT('',#1130);
#355=VERTEX_POINT('',#1138);
#356=VERTEX_POINT('',#1140);
#357=VERTEX_POINT('',#1144);
#358=VERTEX_POINT('',#1148);
#359=EDGE_CURVE('',#295,#296,#103,.T.);
#360=EDGE_CURVE('',#295,#297,#104,.T.);
#361=EDGE_CURVE('',#298,#297,#105,.T.);
#362=EDGE_CURVE('',#296,#298,#106,.T.);
#363=EDGE_CURVE('',#296,#299,#107,.T.);
#364=EDGE_CURVE('',#300,#298,#108,.T.);
#365=EDGE_CURVE('',#299,#300,#109,.T.);
#366=EDGE_CURVE('',#299,#301,#110,.T.);
#367=EDGE_CURVE('',#302,#300,#111,.T.);
#368=EDGE_CURVE('',#301,#302,#112,.T.);
#369=EDGE_CURVE('',#301,#295,#113,.T.);
#370=EDGE_CURVE('',#297,#302,#114,.T.);
#371=EDGE_CURVE('',#303,#304,#115,.T.);
#372=EDGE_CURVE('',#303,#305,#116,.T.);
#373=EDGE_CURVE('',#306,#305,#117,.T.);
#374=EDGE_CURVE('',#304,#306,#118,.T.);
#375=EDGE_CURVE('',#304,#307,#119,.T.);
#376=EDGE_CURVE('',#308,#306,#120,.T.);
#377=EDGE_CURVE('',#307,#308,#121,.T.);
#378=EDGE_CURVE('',#307,#309,#122,.T.);
#379=EDGE_CURVE('',#310,#308,#123,.T.);
#380=EDGE_CURVE('',#309,#310,#124,.T.);
#381=EDGE_CURVE('',#309,#303,#125,.T.);
#382=EDGE_CURVE('',#305,#310,#126,.T.);
#383=EDGE_CURVE('',#311,#312,#127,.T.);
#384=EDGE_CURVE('',#311,#313,#128,.T.);
#385=EDGE_CURVE('',#314,#313,#129,.T.);
#386=EDGE_CURVE('',#312,#314,#130,.T.);
#387=EDGE_CURVE('',#312,#315,#131,.T.);
#388=EDGE_CURVE('',#316,#314,#132,.T.);
#389=EDGE_CURVE('',#315,#316,#133,.T.);
#390=EDGE_CURVE('',#315,#317,#134,.T.);
#391=EDGE_CURVE('',#318,#316,#135,.T.);
#392=EDGE_CURVE('',#317,#318,#136,.T.);
#393=EDGE_CURVE('',#317,#311,#137,.T.);
#394=EDGE_CURVE('',#313,#318,#138,.T.);
#395=EDGE_CURVE('',#319,#320,#139,.T.);
#396=EDGE_CURVE('',#319,#321,#140,.T.);
#397=EDGE_CURVE('',#322,#321,#141,.T.);
#398=EDGE_CURVE('',#320,#322,#142,.T.);
#399=EDGE_CURVE('',#320,#323,#143,.T.);
#400=EDGE_CURVE('',#324,#322,#144,.T.);
#401=EDGE_CURVE('',#323,#324,#145,.T.);
#402=EDGE_CURVE('',#323,#325,#146,.T.);
#403=EDGE_CURVE('',#326,#324,#147,.T.);
#404=EDGE_CURVE('',#325,#326,#148,.T.);
#405=EDGE_CURVE('',#325,#319,#149,.T.);
#406=EDGE_CURVE('',#321,#326,#150,.T.);
#407=EDGE_CURVE('',#327,#328,#151,.T.);
#408=EDGE_CURVE('',#327,#329,#152,.T.);
#409=EDGE_CURVE('',#330,#329,#153,.T.);
#410=EDGE_CURVE('',#328,#330,#154,.T.);
#411=EDGE_CURVE('',#328,#331,#155,.T.);
#412=EDGE_CURVE('',#332,#330,#156,.T.);
#413=EDGE_CURVE('',#331,#332,#157,.T.);
#414=EDGE_CURVE('',#331,#333,#158,.T.);
#415=EDGE_CURVE('',#334,#332,#159,.T.);
#416=EDGE_CURVE('',#333,#334,#160,.T.);
#417=EDGE_CURVE('',#329,#334,#161,.T.);
#418=EDGE_CURVE('',#335,#336,#162,.T.);
#419=EDGE_CURVE('',#335,#337,#163,.T.);
#420=EDGE_CURVE('',#338,#337,#164,.T.);
#421=EDGE_CURVE('',#336,#338,#165,.T.);
#422=EDGE_CURVE('',#336,#339,#166,.T.);
#423=EDGE_CURVE('',#340,#338,#167,.T.);
#424=EDGE_CURVE('',#339,#340,#168,.T.);
#425=EDGE_CURVE('',#339,#341,#169,.T.);
#426=EDGE_CURVE('',#342,#340,#170,.T.);
#427=EDGE_CURVE('',#341,#342,#171,.T.);
#428=EDGE_CURVE('',#337,#342,#172,.T.);
#429=EDGE_CURVE('',#343,#333,#173,.T.);
#430=EDGE_CURVE('',#344,#343,#174,.T.);
#431=EDGE_CURVE('',#335,#344,#175,.T.);
#432=EDGE_CURVE('',#345,#341,#176,.T.);
#433=EDGE_CURVE('',#346,#345,#177,.T.);
#434=EDGE_CURVE('',#327,#346,#178,.T.);
#435=EDGE_CURVE('',#347,#348,#179,.T.);
#436=EDGE_CURVE('',#347,#349,#180,.T.);
#437=EDGE_CURVE('',#350,#349,#181,.T.);
#438=EDGE_CURVE('',#348,#350,#182,.T.);
#439=EDGE_CURVE('',#348,#351,#183,.T.);
#440=EDGE_CURVE('',#352,#350,#184,.T.);
#441=EDGE_CURVE('',#351,#352,#185,.T.);
#442=EDGE_CURVE('',#351,#353,#186,.T.);
#443=EDGE_CURVE('',#354,#352,#187,.T.);
#444=EDGE_CURVE('',#353,#354,#188,.T.);
#445=EDGE_CURVE('',#353,#347,#189,.T.);
#446=EDGE_CURVE('',#349,#354,#190,.T.);
#447=EDGE_CURVE('',#344,#355,#191,.T.);
#448=EDGE_CURVE('',#356,#355,#192,.T.);
#449=EDGE_CURVE('',#345,#356,#193,.T.);
#450=EDGE_CURVE('',#357,#356,#194,.T.);
#451=EDGE_CURVE('',#346,#357,#195,.T.);
#452=EDGE_CURVE('',#358,#357,#196,.T.);
#453=EDGE_CURVE('',#343,#358,#197,.T.);
#454=EDGE_CURVE('',#355,#358,#198,.T.);
#455=ORIENTED_EDGE('',*,*,#359,.F.);
#456=ORIENTED_EDGE('',*,*,#360,.T.);
#457=ORIENTED_EDGE('',*,*,#361,.F.);
#458=ORIENTED_EDGE('',*,*,#362,.F.);
#459=ORIENTED_EDGE('',*,*,#363,.F.);
#460=ORIENTED_EDGE('',*,*,#362,.T.);
#461=ORIENTED_EDGE('',*,*,#364,.F.);
#462=ORIENTED_EDGE('',*,*,#365,.F.);
#463=ORIENTED_EDGE('',*,*,#366,.F.);
#464=ORIENTED_EDGE('',*,*,#365,.T.);
#465=ORIENTED_EDGE('',*,*,#367,.F.);
#466=ORIENTED_EDGE('',*,*,#368,.F.);
#467=ORIENTED_EDGE('',*,*,#369,.F.);
#468=ORIENTED_EDGE('',*,*,#368,.T.);
#469=ORIENTED_EDGE('',*,*,#370,.F.);
#470=ORIENTED_EDGE('',*,*,#360,.F.);
#471=ORIENTED_EDGE('',*,*,#370,.T.);
#472=ORIENTED_EDGE('',*,*,#367,.T.);
#473=ORIENTED_EDGE('',*,*,#364,.T.);
#474=ORIENTED_EDGE('',*,*,#361,.T.);
#475=ORIENTED_EDGE('',*,*,#371,.F.);
#476=ORIENTED_EDGE('',*,*,#372,.T.);
#477=ORIENTED_EDGE('',*,*,#373,.F.);
#478=ORIENTED_EDGE('',*,*,#374,.F.);
#479=ORIENTED_EDGE('',*,*,#375,.F.);
#480=ORIENTED_EDGE('',*,*,#374,.T.);
#481=ORIENTED_EDGE('',*,*,#376,.F.);
#482=ORIENTED_EDGE('',*,*,#377,.F.);
#483=ORIENTED_EDGE('',*,*,#378,.F.);
#484=ORIENTED_EDGE('',*,*,#377,.T.);
#485=ORIENTED_EDGE('',*,*,#379,.F.);
#486=ORIENTED_EDGE('',*,*,#380,.F.);
#487=ORIENTED_EDGE('',*,*,#381,.F.);
#488=ORIENTED_EDGE('',*,*,#380,.T.);
#489=ORIENTED_EDGE('',*,*,#382,.F.);
#490=ORIENTED_EDGE('',*,*,#372,.F.);
#491=ORIENTED_EDGE('',*,*,#382,.T.);
#492=ORIENTED_EDGE('',*,*,#379,.T.);
#493=ORIENTED_EDGE('',*,*,#376,.T.);
#494=ORIENTED_EDGE('',*,*,#373,.T.);
#495=ORIENTED_EDGE('',*,*,#383,.F.);
#496=ORIENTED_EDGE('',*,*,#384,.T.);
#497=ORIENTED_EDGE('',*,*,#385,.F.);
#498=ORIENTED_EDGE('',*,*,#386,.F.);
#499=ORIENTED_EDGE('',*,*,#387,.F.);
#500=ORIENTED_EDGE('',*,*,#386,.T.);
#501=ORIENTED_EDGE('',*,*,#388,.F.);
#502=ORIENTED_EDGE('',*,*,#389,.F.);
#503=ORIENTED_EDGE('',*,*,#390,.F.);
#504=ORIENTED_EDGE('',*,*,#389,.T.);
#505=ORIENTED_EDGE('',*,*,#391,.F.);
#506=ORIENTED_EDGE('',*,*,#392,.F.);
#507=ORIENTED_EDGE('',*,*,#393,.F.);
#508=ORIENTED_EDGE('',*,*,#392,.T.);
#509=ORIENTED_EDGE('',*,*,#394,.F.);
#510=ORIENTED_EDGE('',*,*,#384,.F.);
#511=ORIENTED_EDGE('',*,*,#394,.T.);
#512=ORIENTED_EDGE('',*,*,#391,.T.);
#513=ORIENTED_EDGE('',*,*,#388,.T.);
#514=ORIENTED_EDGE('',*,*,#385,.T.);
#515=ORIENTED_EDGE('',*,*,#395,.F.);
#516=ORIENTED_EDGE('',*,*,#396,.T.);
#517=ORIENTED_EDGE('',*,*,#397,.F.);
#518=ORIENTED_EDGE('',*,*,#398,.F.);
#519=ORIENTED_EDGE('',*,*,#399,.F.);
#520=ORIENTED_EDGE('',*,*,#398,.T.);
#521=ORIENTED_EDGE('',*,*,#400,.F.);
#522=ORIENTED_EDGE('',*,*,#401,.F.);
#523=ORIENTED_EDGE('',*,*,#402,.F.);
#524=ORIENTED_EDGE('',*,*,#401,.T.);
#525=ORIENTED_EDGE('',*,*,#403,.F.);
#526=ORIENTED_EDGE('',*,*,#404,.F.);
#527=ORIENTED_EDGE('',*,*,#405,.F.);
#528=ORIENTED_EDGE('',*,*,#404,.T.);
#529=ORIENTED_EDGE('',*,*,#406,.F.);
#530=ORIENTED_EDGE('',*,*,#396,.F.);
#531=ORIENTED_EDGE('',*,*,#406,.T.);
#532=ORIENTED_EDGE('',*,*,#403,.T.);
#533=ORIENTED_EDGE('',*,*,#400,.T.);
#534=ORIENTED_EDGE('',*,*,#397,.T.);
#535=ORIENTED_EDGE('',*,*,#407,.F.);
#536=ORIENTED_EDGE('',*,*,#408,.T.);
#537=ORIENTED_EDGE('',*,*,#409,.F.);
#538=ORIENTED_EDGE('',*,*,#410,.F.);
#539=ORIENTED_EDGE('',*,*,#411,.F.);
#540=ORIENTED_EDGE('',*,*,#410,.T.);
#541=ORIENTED_EDGE('',*,*,#412,.F.);
#542=ORIENTED_EDGE('',*,*,#413,.F.);
#543=ORIENTED_EDGE('',*,*,#414,.F.);
#544=ORIENTED_EDGE('',*,*,#413,.T.);
#545=ORIENTED_EDGE('',*,*,#415,.F.);
#546=ORIENTED_EDGE('',*,*,#416,.F.);
#547=ORIENTED_EDGE('',*,*,#417,.T.);
#548=ORIENTED_EDGE('',*,*,#415,.T.);
#549=ORIENTED_EDGE('',*,*,#412,.T.);
#550=ORIENTED_EDGE('',*,*,#409,.T.);
#551=ORIENTED_EDGE('',*,*,#418,.F.);
#552=ORIENTED_EDGE('',*,*,#419,.T.);
#553=ORIENTED_EDGE('',*,*,#420,.F.);
#554=ORIENTED_EDGE('',*,*,#421,.F.);
#555=ORIENTED_EDGE('',*,*,#422,.F.);
#556=ORIENTED_EDGE('',*,*,#421,.T.);
#557=ORIENTED_EDGE('',*,*,#423,.F.);
#558=ORIENTED_EDGE('',*,*,#424,.F.);
#559=ORIENTED_EDGE('',*,*,#425,.F.);
#560=ORIENTED_EDGE('',*,*,#424,.T.);
#561=ORIENTED_EDGE('',*,*,#426,.F.);
#562=ORIENTED_EDGE('',*,*,#427,.F.);
#563=ORIENTED_EDGE('',*,*,#426,.T.);
#564=ORIENTED_EDGE('',*,*,#423,.T.);
#565=ORIENTED_EDGE('',*,*,#420,.T.);
#566=ORIENTED_EDGE('',*,*,#428,.T.);
#567=ORIENTED_EDGE('',*,*,#414,.T.);
#568=ORIENTED_EDGE('',*,*,#429,.F.);
#569=ORIENTED_EDGE('',*,*,#430,.F.);
#570=ORIENTED_EDGE('',*,*,#431,.F.);
#571=ORIENTED_EDGE('',*,*,#418,.T.);
#572=ORIENTED_EDGE('',*,*,#422,.T.);
#573=ORIENTED_EDGE('',*,*,#425,.T.);
#574=ORIENTED_EDGE('',*,*,#432,.F.);
#575=ORIENTED_EDGE('',*,*,#433,.F.);
#576=ORIENTED_EDGE('',*,*,#434,.F.);
#577=ORIENTED_EDGE('',*,*,#407,.T.);
#578=ORIENTED_EDGE('',*,*,#411,.T.);
#579=ORIENTED_EDGE('',*,*,#359,.T.);
#580=ORIENTED_EDGE('',*,*,#363,.T.);
#581=ORIENTED_EDGE('',*,*,#366,.T.);
#582=ORIENTED_EDGE('',*,*,#369,.T.);
#583=ORIENTED_EDGE('',*,*,#371,.T.);
#584=ORIENTED_EDGE('',*,*,#375,.T.);
#585=ORIENTED_EDGE('',*,*,#378,.T.);
#586=ORIENTED_EDGE('',*,*,#381,.T.);
#587=ORIENTED_EDGE('',*,*,#383,.T.);
#588=ORIENTED_EDGE('',*,*,#387,.T.);
#589=ORIENTED_EDGE('',*,*,#390,.T.);
#590=ORIENTED_EDGE('',*,*,#393,.T.);
#591=ORIENTED_EDGE('',*,*,#395,.T.);
#592=ORIENTED_EDGE('',*,*,#399,.T.);
#593=ORIENTED_EDGE('',*,*,#402,.T.);
#594=ORIENTED_EDGE('',*,*,#405,.T.);
#595=ORIENTED_EDGE('',*,*,#435,.F.);
#596=ORIENTED_EDGE('',*,*,#436,.T.);
#597=ORIENTED_EDGE('',*,*,#437,.F.);
#598=ORIENTED_EDGE('',*,*,#438,.F.);
#599=ORIENTED_EDGE('',*,*,#439,.F.);
#600=ORIENTED_EDGE('',*,*,#438,.T.);
#601=ORIENTED_EDGE('',*,*,#440,.F.);
#602=ORIENTED_EDGE('',*,*,#441,.F.);
#603=ORIENTED_EDGE('',*,*,#442,.F.);
#604=ORIENTED_EDGE('',*,*,#441,.T.);
#605=ORIENTED_EDGE('',*,*,#443,.F.);
#606=ORIENTED_EDGE('',*,*,#444,.F.);
#607=ORIENTED_EDGE('',*,*,#445,.F.);
#608=ORIENTED_EDGE('',*,*,#444,.T.);
#609=ORIENTED_EDGE('',*,*,#446,.F.);
#610=ORIENTED_EDGE('',*,*,#436,.F.);
#611=ORIENTED_EDGE('',*,*,#446,.T.);
#612=ORIENTED_EDGE('',*,*,#443,.T.);
#613=ORIENTED_EDGE('',*,*,#440,.T.);
#614=ORIENTED_EDGE('',*,*,#437,.T.);
#615=ORIENTED_EDGE('',*,*,#432,.T.);
#616=ORIENTED_EDGE('',*,*,#427,.T.);
#617=ORIENTED_EDGE('',*,*,#428,.F.);
#618=ORIENTED_EDGE('',*,*,#419,.F.);
#619=ORIENTED_EDGE('',*,*,#431,.T.);
#620=ORIENTED_EDGE('',*,*,#447,.T.);
#621=ORIENTED_EDGE('',*,*,#448,.F.);
#622=ORIENTED_EDGE('',*,*,#449,.F.);
#623=ORIENTED_EDGE('',*,*,#433,.T.);
#624=ORIENTED_EDGE('',*,*,#449,.T.);
#625=ORIENTED_EDGE('',*,*,#450,.F.);
#626=ORIENTED_EDGE('',*,*,#451,.F.);
#627=ORIENTED_EDGE('',*,*,#429,.T.);
#628=ORIENTED_EDGE('',*,*,#416,.T.);
#629=ORIENTED_EDGE('',*,*,#417,.F.);
#630=ORIENTED_EDGE('',*,*,#408,.F.);
#631=ORIENTED_EDGE('',*,*,#434,.T.);
#632=ORIENTED_EDGE('',*,*,#451,.T.);
#633=ORIENTED_EDGE('',*,*,#452,.F.);
#634=ORIENTED_EDGE('',*,*,#453,.F.);
#635=ORIENTED_EDGE('',*,*,#430,.T.);
#636=ORIENTED_EDGE('',*,*,#453,.T.);
#637=ORIENTED_EDGE('',*,*,#454,.F.);
#638=ORIENTED_EDGE('',*,*,#447,.F.);
#639=ORIENTED_EDGE('',*,*,#435,.T.);
#640=ORIENTED_EDGE('',*,*,#439,.T.);
#641=ORIENTED_EDGE('',*,*,#442,.T.);
#642=ORIENTED_EDGE('',*,*,#445,.T.);
#643=ORIENTED_EDGE('',*,*,#454,.T.);
#644=ORIENTED_EDGE('',*,*,#452,.T.);
#645=ORIENTED_EDGE('',*,*,#450,.T.);
#646=ORIENTED_EDGE('',*,*,#448,.T.);
#647=PLANE('',#739);
#648=PLANE('',#740);
#649=PLANE('',#741);
#650=PLANE('',#742);
#651=PLANE('',#743);
#652=PLANE('',#744);
#653=PLANE('',#745);
#654=PLANE('',#746);
#655=PLANE('',#747);
#656=PLANE('',#748);
#657=PLANE('',#749);
#658=PLANE('',#750);
#659=PLANE('',#751);
#660=PLANE('',#752);
#661=PLANE('',#753);
#662=PLANE('',#754);
#663=PLANE('',#755);
#664=PLANE('',#756);
#665=PLANE('',#757);
#666=PLANE('',#758);
#667=PLANE('',#759);
#668=PLANE('',#760);
#669=PLANE('',#761);
#670=PLANE('',#762);
#671=PLANE('',#763);
#672=PLANE('',#764);
#673=PLANE('',#765);
#674=PLANE('',#766);
#675=PLANE('',#767);
#676=PLANE('',#768);
#677=PLANE('',#769);
#678=PLANE('',#770);
#679=PLANE('',#771);
#680=PLANE('',#772);
#681=PLANE('',#773);
#682=PLANE('',#774);
#683=PLANE('',#775);
#684=PLANE('',#776);
#685=PLANE('',#777);
#686=ADVANCED_FACE('',(#20),#647,.T.);
#687=ADVANCED_FACE('',(#21),#648,.T.);
#688=ADVANCED_FACE('',(#22),#649,.T.);
#689=ADVANCED_FACE('',(#23),#650,.T.);
#690=ADVANCED_FACE('',(#24),#651,.T.);
#691=ADVANCED_FACE('',(#25),#652,.T.);
#692=ADVANCED_FACE('',(#26),#653,.T.);
#693=ADVANCED_FACE('',(#27),#654,.T.);
#694=ADVANCED_FACE('',(#28),#655,.T.);
#695=ADVANCED_FACE('',(#29),#656,.T.);
#696=ADVANCED_FACE('',(#30),#657,.T.);
#697=ADVANCED_FACE('',(#31),#658,.T.);
#698=ADVANCED_FACE('',(#32),#659,.T.);
#699=ADVANCED_FACE('',(#33),#660,.T.);
#700=ADVANCED_FACE('',(#34),#661,.T.);
#701=ADVANCED_FACE('',(#35),#662,.T.);
#702=ADVANCED_FACE('',(#36),#663,.T.);
#703=ADVANCED_FACE('',(#37),#664,.T.);
#704=ADVANCED_FACE('',(#38),#665,.T.);
#705=ADVANCED_FACE('',(#39),#666,.T.);
#706=ADVANCED_FACE('',(#40),#667,.T.);
#707=ADVANCED_FACE('',(#41),#668,.T.);
#708=ADVANCED_FACE('',(#42),#669,.T.);
#709=ADVANCED_FACE('',(#43),#670,.T.);
#710=ADVANCED_FACE('',(#44),#671,.T.);
#711=ADVANCED_FACE('',(#45),#672,.T.);
#712=ADVANCED_FACE('',(#46),#673,.T.);
#713=ADVANCED_FACE('',(#47),#674,.T.);
#714=ADVANCED_FACE('',(#48,#15,#16,#17,#18),#675,.F.);
#715=ADVANCED_FACE('',(#49),#676,.T.);
#716=ADVANCED_FACE('',(#50),#677,.T.);
#717=ADVANCED_FACE('',(#51),#678,.T.);
#718=ADVANCED_FACE('',(#52),#679,.T.);
#719=ADVANCED_FACE('',(#53),#680,.T.);
#720=ADVANCED_FACE('',(#54),#681,.T.);
#721=ADVANCED_FACE('',(#55),#682,.T.);
#722=ADVANCED_FACE('',(#56),#683,.T.);
#723=ADVANCED_FACE('',(#57,#19),#684,.T.);
#724=ADVANCED_FACE('',(#58),#685,.T.);
#725=CLOSED_SHELL('',(#686,#687,#688,#689,#690,#691,#692,#693,#694,#695,
#696,#697,#698,#699,#700,#701,#702,#703,#704,#705,#706,#707,#708,#709,#710,
#711,#712,#713,#714,#715,#716,#717,#718,#719,#720,#721,#722,#723,#724));
#726=DERIVED_UNIT_ELEMENT(#728,1.);
#727=DERIVED_UNIT_ELEMENT(#1159,-3.);
#728=(
MASS_UNIT()
NAMED_UNIT(*)
SI_UNIT(.KILO.,.GRAM.)
);
#729=DERIVED_UNIT((#726,#727));
#730=MEASURE_REPRESENTATION_ITEM('density measure',
POSITIVE_RATIO_MEASURE(7850.),#729);
#731=PROPERTY_DEFINITION_REPRESENTATION(#736,#733);
#732=PROPERTY_DEFINITION_REPRESENTATION(#737,#734);
#733=REPRESENTATION('material name',(#735),#1156);
#734=REPRESENTATION('density',(#730),#1156);
#735=DESCRIPTIVE_REPRESENTATION_ITEM('Steel','Steel');
#736=PROPERTY_DEFINITION('material property','material name',#1166);
#737=PROPERTY_DEFINITION('material property','density of part',#1166);
#738=AXIS2_PLACEMENT_3D('',#954,#778,#779);
#739=AXIS2_PLACEMENT_3D('',#955,#780,#781);
#740=AXIS2_PLACEMENT_3D('',#964,#786,#787);
#741=AXIS2_PLACEMENT_3D('',#970,#791,#792);
#742=AXIS2_PLACEMENT_3D('',#976,#796,#797);
#743=AXIS2_PLACEMENT_3D('',#979,#800,#801);
#744=AXIS2_PLACEMENT_3D('',#980,#802,#803);
#745=AXIS2_PLACEMENT_3D('',#989,#808,#809);
#746=AXIS2_PLACEMENT_3D('',#995,#813,#814);
#747=AXIS2_PLACEMENT_3D('',#1001,#818,#819);
#748=AXIS2_PLACEMENT_3D('',#1004,#822,#823);
#749=AXIS2_PLACEMENT_3D('',#1005,#824,#825);
#750=AXIS2_PLACEMENT_3D('',#1014,#830,#831);
#751=AXIS2_PLACEMENT_3D('',#1020,#835,#836);
#752=AXIS2_PLACEMENT_3D('',#1026,#840,#841);
#753=AXIS2_PLACEMENT_3D('',#1029,#844,#845);
#754=AXIS2_PLACEMENT_3D('',#1030,#846,#847);
#755=AXIS2_PLACEMENT_3D('',#1039,#852,#853);
#756=AXIS2_PLACEMENT_3D('',#1045,#857,#858);
#757=AXIS2_PLACEMENT_3D('',#1051,#862,#863);
#758=AXIS2_PLACEMENT_3D('',#1054,#866,#867);
#759=AXIS2_PLACEMENT_3D('',#1055,#868,#869);
#760=AXIS2_PLACEMENT_3D('',#1064,#874,#875);
#761=AXIS2_PLACEMENT_3D('',#1070,#879,#880);
#762=AXIS2_PLACEMENT_3D('',#1076,#884,#885);
#763=AXIS2_PLACEMENT_3D('',#1078,#887,#888);
#764=AXIS2_PLACEMENT_3D('',#1087,#893,#894);
#765=AXIS2_PLACEMENT_3D('',#1093,#898,#899);
#766=AXIS2_PLACEMENT_3D('',#1099,#903,#904);
#767=AXIS2_PLACEMENT_3D('',#1101,#906,#907);
#768=AXIS2_PLACEMENT_3D('',#1112,#914,#915);
#769=AXIS2_PLACEMENT_3D('',#1121,#920,#921);
#770=AXIS2_PLACEMENT_3D('',#1127,#925,#926);
#771=AXIS2_PLACEMENT_3D('',#1133,#930,#931);
#772=AXIS2_PLACEMENT_3D('',#1136,#934,#935);
#773=AXIS2_PLACEMENT_3D('',#1137,#936,#937);
#774=AXIS2_PLACEMENT_3D('',#1143,#941,#942);
#775=AXIS2_PLACEMENT_3D('',#1147,#945,#946);
#776=AXIS2_PLACEMENT_3D('',#1151,#949,#950);
#777=AXIS2_PLACEMENT_3D('',#1153,#952,#953);
#778=DIRECTION('axis',(0.,0.,1.));
#779=DIRECTION('refdir',(1.,0.,0.));
#780=DIRECTION('center_axis',(-1.,0.,0.));
#781=DIRECTION('ref_axis',(0.,1.,0.));
#782=DIRECTION('',(0.,-1.,0.));
#783=DIRECTION('',(0.,0.,-1.));
#784=DIRECTION('',(0.,1.,0.));
#785=DIRECTION('',(0.,0.,-1.));
#786=DIRECTION('center_axis',(0.,-1.,0.));
#787=DIRECTION('ref_axis',(-1.,0.,0.));
#788=DIRECTION('',(1.,0.,0.));
#789=DIRECTION('',(-1.,0.,0.));
#790=DIRECTION('',(0.,0.,-1.));
#791=DIRECTION('center_axis',(1.,0.,0.));
#792=DIRECTION('ref_axis',(0.,-1.,0.));
#793=DIRECTION('',(0.,1.,0.));
#794=DIRECTION('',(0.,-1.,0.));
#795=DIRECTION('',(0.,0.,-1.));
#796=DIRECTION('center_axis',(0.,1.,0.));
#797=DIRECTION('ref_axis',(1.,0.,0.));
#798=DIRECTION('',(-1.,0.,0.));
#799=DIRECTION('',(1.,0.,0.));
#800=DIRECTION('center_axis',(0.,0.,-1.));
#801=DIRECTION('ref_axis',(-1.,0.,0.));
#802=DIRECTION('center_axis',(0.,-1.,0.));
#803=DIRECTION('ref_axis',(-1.,0.,0.));
#804=DIRECTION('',(1.,0.,0.));
#805=DIRECTION('',(0.,0.,-1.));
#806=DIRECTION('',(-1.,0.,0.));
#807=DIRECTION('',(0.,0.,-1.));
#808=DIRECTION('center_axis',(1.,0.,0.));
#809=DIRECTION('ref_axis',(0.,-1.,0.));
#810=DIRECTION('',(0.,1.,0.));
#811=DIRECTION('',(0.,-1.,0.));
#812=DIRECTION('',(0.,0.,-1.));
#813=DIRECTION('center_axis',(0.,1.,0.));
#814=DIRECTION('ref_axis',(1.,0.,0.));
#815=DIRECTION('',(-1.,0.,0.));
#816=DIRECTION('',(1.,0.,0.));
#817=DIRECTION('',(0.,0.,-1.));
#818=DIRECTION('center_axis',(-1.,0.,0.));
#819=DIRECTION('ref_axis',(0.,1.,0.));
#820=DIRECTION('',(0.,-1.,0.));
#821=DIRECTION('',(0.,1.,0.));
#822=DIRECTION('center_axis',(0.,0.,-1.));
#823=DIRECTION('ref_axis',(-1.,0.,0.));
#824=DIRECTION('center_axis',(0.,-1.,0.));
#825=DIRECTION('ref_axis',(-1.,0.,0.));
#826=DIRECTION('',(1.,0.,0.));
#827=DIRECTION('',(0.,0.,-1.));
#828=DIRECTION('',(-1.,0.,0.));
#829=DIRECTION('',(0.,0.,-1.));
#830=DIRECTION('center_axis',(1.,0.,0.));
#831=DIRECTION('ref_axis',(0.,-1.,0.));
#832=DIRECTION('',(0.,1.,0.));
#833=DIRECTION('',(0.,-1.,0.));
#834=DIRECTION('',(0.,0.,-1.));
#835=DIRECTION('center_axis',(0.,1.,0.));
#836=DIRECTION('ref_axis',(1.,0.,0.));
#837=DIRECTION('',(-1.,0.,0.));
#838=DIRECTION('',(1.,0.,0.));
#839=DIRECTION('',(0.,0.,-1.));
#840=DIRECTION('center_axis',(-1.,0.,0.));
#841=DIRECTION('ref_axis',(0.,1.,0.));
#842=DIRECTION('',(0.,-1.,0.));
#843=DIRECTION('',(0.,1.,0.));
#844=DIRECTION('center_axis',(0.,0.,-1.));
#845=DIRECTION('ref_axis',(-1.,0.,0.));
#846=DIRECTION('center_axis',(0.,-1.,0.));
#847=DIRECTION('ref_axis',(-1.,0.,0.));
#848=DIRECTION('',(1.,0.,0.));
#849=DIRECTION('',(0.,0.,-1.));
#850=DIRECTION('',(-1.,0.,0.));
#851=DIRECTION('',(0.,0.,-1.));
#852=DIRECTION('center_axis',(1.,0.,0.));
#853=DIRECTION('ref_axis',(0.,-1.,0.));
#854=DIRECTION('',(0.,1.,0.));
#855=DIRECTION('',(0.,-1.,0.));
#856=DIRECTION('',(0.,0.,-1.));
#857=DIRECTION('center_axis',(0.,1.,0.));
#858=DIRECTION('ref_axis',(1.,0.,0.));
#859=DIRECTION('',(-1.,0.,0.));
#860=DIRECTION('',(1.,0.,0.));
#861=DIRECTION('',(0.,0.,-1.));
#862=DIRECTION('center_axis',(-1.,0.,0.));
#863=DIRECTION('ref_axis',(0.,1.,0.));
#864=DIRECTION('',(0.,-1.,0.));
#865=DIRECTION('',(0.,1.,0.));
#866=DIRECTION('center_axis',(0.,0.,-1.));
#867=DIRECTION('ref_axis',(-1.,0.,0.));
#868=DIRECTION('center_axis',(0.,1.,0.));
#869=DIRECTION('ref_axis',(1.,0.,0.));
#870=DIRECTION('',(-1.,0.,0.));
#871=DIRECTION('',(0.,0.,-1.));
#872=DIRECTION('',(1.,0.,0.));
#873=DIRECTION('',(0.,0.,-1.));
#874=DIRECTION('center_axis',(-1.,0.,0.));
#875=DIRECTION('ref_axis',(0.,1.,0.));
#876=DIRECTION('',(0.,-1.,0.));
#877=DIRECTION('',(0.,1.,0.));
#878=DIRECTION('',(0.,0.,-1.));
#879=DIRECTION('center_axis',(0.,-1.,0.));
#880=DIRECTION('ref_axis',(-1.,0.,0.));
#881=DIRECTION('',(1.,0.,0.));
#882=DIRECTION('',(-1.,0.,0.));
#883=DIRECTION('',(0.,0.,-1.));
#884=DIRECTION('center_axis',(0.,0.,-1.));
#885=DIRECTION('ref_axis',(-1.,0.,0.));
#886=DIRECTION('',(0.,-1.,0.));
#887=DIRECTION('center_axis',(0.,-1.,0.));
#888=DIRECTION('ref_axis',(-1.,0.,0.));
#889=DIRECTION('',(1.,0.,0.));
#890=DIRECTION('',(0.,0.,-1.));
#891=DIRECTION('',(-1.,0.,0.));
#892=DIRECTION('',(0.,0.,-1.));
#893=DIRECTION('center_axis',(1.,0.,0.));
#894=DIRECTION('ref_axis',(0.,-1.,0.));
#895=DIRECTION('',(0.,1.,0.));
#896=DIRECTION('',(0.,-1.,0.));
#897=DIRECTION('',(0.,0.,-1.));
#898=DIRECTION('center_axis',(0.,1.,0.));
#899=DIRECTION('ref_axis',(1.,0.,0.));
#900=DIRECTION('',(-1.,0.,0.));
#901=DIRECTION('',(1.,0.,0.));
#902=DIRECTION('',(0.,0.,-1.));
#903=DIRECTION('center_axis',(0.,0.,-1.));
#904=DIRECTION('ref_axis',(-1.,0.,0.));
#905=DIRECTION('',(0.,1.,0.));
#906=DIRECTION('center_axis',(0.,0.,1.));
#907=DIRECTION('ref_axis',(1.,0.,0.));
#908=DIRECTION('',(0.,1.,0.));
#909=DIRECTION('',(1.,0.,0.));
#910=DIRECTION('',(0.,-1.,0.));
#911=DIRECTION('',(0.,-1.,0.));
#912=DIRECTION('',(-1.,0.,0.));
#913=DIRECTION('',(0.,1.,0.));
#914=DIRECTION('center_axis',(-1.,0.,0.));
#915=DIRECTION('ref_axis',(0.,0.,-1.));
#916=DIRECTION('',(0.,0.,1.));
#917=DIRECTION('',(0.,-1.,0.));
#918=DIRECTION('',(0.,0.,-1.));
#919=DIRECTION('',(0.,-1.,0.));
#920=DIRECTION('center_axis',(0.,0.,1.));
#921=DIRECTION('ref_axis',(-1.,0.,0.));
#922=DIRECTION('',(1.,0.,0.));
#923=DIRECTION('',(-1.,0.,0.));
#924=DIRECTION('',(0.,-1.,0.));
#925=DIRECTION('center_axis',(1.,0.,0.));
#926=DIRECTION('ref_axis',(0.,0.,1.));
#927=DIRECTION('',(0.,0.,-1.));
#928=DIRECTION('',(0.,0.,1.));
#929=DIRECTION('',(0.,-1.,0.));
#930=DIRECTION('center_axis',(0.,0.,-1.));
#931=DIRECTION('ref_axis',(1.,0.,0.));
#932=DIRECTION('',(-1.,0.,0.));
#933=DIRECTION('',(1.,0.,0.));
#934=DIRECTION('center_axis',(0.,-1.,0.));
#935=DIRECTION('ref_axis',(0.,0.,-1.));
#936=DIRECTION('center_axis',(-1.,0.,0.));
#937=DIRECTION('ref_axis',(0.,-1.,0.));
#938=DIRECTION('',(0.,0.,1.));
#939=DIRECTION('',(0.,-1.,0.));
#940=DIRECTION('',(0.,0.,1.));
#941=DIRECTION('center_axis',(0.,1.,0.));
#942=DIRECTION('ref_axis',(-1.,0.,0.));
#943=DIRECTION('',(-1.,0.,0.));
#944=DIRECTION('',(0.,0.,1.));
#945=DIRECTION('center_axis',(1.,0.,0.));
#946=DIRECTION('ref_axis',(0.,1.,0.));
#947=DIRECTION('',(0.,1.,0.));
#948=DIRECTION('',(0.,0.,1.));
#949=DIRECTION('center_axis',(0.,-1.,0.));
#950=DIRECTION('ref_axis',(1.,0.,0.));
#951=DIRECTION('',(1.,0.,0.));
#952=DIRECTION('center_axis',(0.,0.,1.));
#953=DIRECTION('ref_axis',(1.,0.,0.));
#954=CARTESIAN_POINT('',(0.,0.,0.));
#955=CARTESIAN_POINT('Origin',(11.75,1.65,0.));
#956=CARTESIAN_POINT('',(11.75,2.15,0.));
#957=CARTESIAN_POINT('',(11.75,1.65,0.));
#958=CARTESIAN_POINT('',(11.75,1.775,0.));
#959=CARTESIAN_POINT('',(11.75,2.15,-2.8));
#960=CARTESIAN_POINT('',(11.75,2.15,0.));
#961=CARTESIAN_POINT('',(11.75,1.65,-2.8));
#962=CARTESIAN_POINT('',(11.75,2.15,-2.8));
#963=CARTESIAN_POINT('',(11.75,1.65,0.));
#964=CARTESIAN_POINT('Origin',(12.25,1.65,0.));
#965=CARTESIAN_POINT('',(12.25,1.65,0.));
#966=CARTESIAN_POINT('',(10.125,1.65,0.));
#967=CARTESIAN_POINT('',(12.25,1.65,-2.8));
#968=CARTESIAN_POINT('',(11.75,1.65,-2.8));
#969=CARTESIAN_POINT('',(12.25,1.65,0.));
#970=CARTESIAN_POINT('Origin',(12.25,2.15,0.));
#971=CARTESIAN_POINT('',(12.25,2.15,0.));
#972=CARTESIAN_POINT('',(12.25,2.025,0.));
#973=CARTESIAN_POINT('',(12.25,2.15,-2.8));
#974=CARTESIAN_POINT('',(12.25,1.65,-2.8));
#975=CARTESIAN_POINT('',(12.25,2.15,0.));
#976=CARTESIAN_POINT('Origin',(11.75,2.15,0.));
#977=CARTESIAN_POINT('',(9.875,2.15,0.));
#978=CARTESIAN_POINT('',(12.25,2.15,-2.8));
#979=CARTESIAN_POINT('Origin',(12.,1.9,-2.8));
#980=CARTESIAN_POINT('Origin',(4.25,1.65,0.));
#981=CARTESIAN_POINT('',(3.75,1.65,0.));
#982=CARTESIAN_POINT('',(4.25,1.65,0.));
#983=CARTESIAN_POINT('',(6.125,1.65,0.));
#984=CARTESIAN_POINT('',(3.75,1.65,-2.8));
#985=CARTESIAN_POINT('',(3.75,1.65,0.));
#986=CARTESIAN_POINT('',(4.25,1.65,-2.8));
#987=CARTESIAN_POINT('',(3.75,1.65,-2.8));
#988=CARTESIAN_POINT('',(4.25,1.65,0.));
#989=CARTESIAN_POINT('Origin',(4.25,2.15,0.));
#990=CARTESIAN_POINT('',(4.25,2.15,0.));
#991=CARTESIAN_POINT('',(4.25,2.025,0.));
#992=CARTESIAN_POINT('',(4.25,2.15,-2.8));
#993=CARTESIAN_POINT('',(4.25,1.65,-2.8));
#994=CARTESIAN_POINT('',(4.25,2.15,0.));
#995=CARTESIAN_POINT('Origin',(3.75,2.15,0.));
#996=CARTESIAN_POINT('',(3.75,2.15,0.));
#997=CARTESIAN_POINT('',(5.875,2.15,0.));
#998=CARTESIAN_POINT('',(3.75,2.15,-2.8));
#999=CARTESIAN_POINT('',(4.25,2.15,-2.8));
#1000=CARTESIAN_POINT('',(3.75,2.15,0.));
#1001=CARTESIAN_POINT('Origin',(3.75,1.65,0.));
#1002=CARTESIAN_POINT('',(3.75,1.775,0.));
#1003=CARTESIAN_POINT('',(3.75,2.15,-2.8));
#1004=CARTESIAN_POINT('Origin',(4.,1.9,-2.8));
#1005=CARTESIAN_POINT('Origin',(8.25,1.65,0.));
#1006=CARTESIAN_POINT('',(7.75,1.65,0.));
#1007=CARTESIAN_POINT('',(8.25,1.65,0.));
#1008=CARTESIAN_POINT('',(8.125,1.65,0.));
#1009=CARTESIAN_POINT('',(7.75,1.65,-2.8));
#1010=CARTESIAN_POINT('',(7.75,1.65,0.));
#1011=CARTESIAN_POINT('',(8.25,1.65,-2.8));
#1012=CARTESIAN_POINT('',(7.75,1.65,-2.8));
#1013=CARTESIAN_POINT('',(8.25,1.65,0.));
#1014=CARTESIAN_POINT('Origin',(8.25,2.15,0.));
#1015=CARTESIAN_POINT('',(8.25,2.15,0.));
#1016=CARTESIAN_POINT('',(8.25,2.025,0.));
#1017=CARTESIAN_POINT('',(8.25,2.15,-2.8));
#1018=CARTESIAN_POINT('',(8.25,1.65,-2.8));
#1019=CARTESIAN_POINT('',(8.25,2.15,0.));
#1020=CARTESIAN_POINT('Origin',(7.75,2.15,0.));
#1021=CARTESIAN_POINT('',(7.75,2.15,0.));
#1022=CARTESIAN_POINT('',(7.875,2.15,0.));
#1023=CARTESIAN_POINT('',(7.75,2.15,-2.8));
#1024=CARTESIAN_POINT('',(8.25,2.15,-2.8));
#1025=CARTESIAN_POINT('',(7.75,2.15,0.));
#1026=CARTESIAN_POINT('Origin',(7.75,1.65,0.));
#1027=CARTESIAN_POINT('',(7.75,1.775,0.));
#1028=CARTESIAN_POINT('',(7.75,2.15,-2.8));
#1029=CARTESIAN_POINT('Origin',(8.,1.9,-2.8));
#1030=CARTESIAN_POINT('Origin',(6.25,1.65,0.));
#1031=CARTESIAN_POINT('',(5.75,1.65,0.));
#1032=CARTESIAN_POINT('',(6.25,1.65,0.));
#1033=CARTESIAN_POINT('',(7.125,1.65,0.));
#1034=CARTESIAN_POINT('',(5.75,1.65,-2.8));
#1035=CARTESIAN_POINT('',(5.75,1.65,0.));
#1036=CARTESIAN_POINT('',(6.25,1.65,-2.8));
#1037=CARTESIAN_POINT('',(5.75,1.65,-2.8));
#1038=CARTESIAN_POINT('',(6.25,1.65,0.));
#1039=CARTESIAN_POINT('Origin',(6.25,2.15,0.));
#1040=CARTESIAN_POINT('',(6.25,2.15,0.));
#1041=CARTESIAN_POINT('',(6.25,2.025,0.));
#1042=CARTESIAN_POINT('',(6.25,2.15,-2.8));
#1043=CARTESIAN_POINT('',(6.25,1.65,-2.8));
#1044=CARTESIAN_POINT('',(6.25,2.15,0.));
#1045=CARTESIAN_POINT('Origin',(5.75,2.15,0.));
#1046=CARTESIAN_POINT('',(5.75,2.15,0.));
#1047=CARTESIAN_POINT('',(6.875,2.15,0.));
#1048=CARTESIAN_POINT('',(5.75,2.15,-2.8));
#1049=CARTESIAN_POINT('',(6.25,2.15,-2.8));
#1050=CARTESIAN_POINT('',(5.75,2.15,0.));
#1051=CARTESIAN_POINT('Origin',(5.75,1.65,0.));
#1052=CARTESIAN_POINT('',(5.75,1.775,0.));
#1053=CARTESIAN_POINT('',(5.75,2.15,-2.8));
#1054=CARTESIAN_POINT('Origin',(6.,1.9,-2.8));
#1055=CARTESIAN_POINT('Origin',(15.7,2.575,0.));
#1056=CARTESIAN_POINT('',(16.,2.575,0.));
#1057=CARTESIAN_POINT('',(15.7,2.575,0.));
#1058=CARTESIAN_POINT('',(11.85,2.575,0.));
#1059=CARTESIAN_POINT('',(16.,2.575,-2.));
#1060=CARTESIAN_POINT('',(16.,2.575,0.));
#1061=CARTESIAN_POINT('',(15.7,2.575,-2.));
#1062=CARTESIAN_POINT('',(15.7,2.575,-2.));
#1063=CARTESIAN_POINT('',(15.7,2.575,0.));
#1064=CARTESIAN_POINT('Origin',(15.7,1.225,0.));
#1065=CARTESIAN_POINT('',(15.7,1.225,0.));
#1066=CARTESIAN_POINT('',(15.7,1.5625,0.));
#1067=CARTESIAN_POINT('',(15.7,1.225,-2.));
#1068=CARTESIAN_POINT('',(15.7,1.225,-2.));
#1069=CARTESIAN_POINT('',(15.7,1.225,0.));
#1070=CARTESIAN_POINT('Origin',(16.,1.225,0.));
#1071=CARTESIAN_POINT('',(16.,1.225,0.));
#1072=CARTESIAN_POINT('',(12.,1.225,0.));
#1073=CARTESIAN_POINT('',(16.,1.225,-2.));
#1074=CARTESIAN_POINT('',(16.,1.225,-2.));
#1075=CARTESIAN_POINT('',(16.,1.225,0.));
#1076=CARTESIAN_POINT('Origin',(15.85,1.9,-2.));
#1077=CARTESIAN_POINT('',(16.,2.575,-2.));
#1078=CARTESIAN_POINT('Origin',(0.3,1.225,0.));
#1079=CARTESIAN_POINT('',(0.,1.225,0.));
#1080=CARTESIAN_POINT('',(0.3,1.225,0.));
#1081=CARTESIAN_POINT('',(4.15,1.225,0.));
#1082=CARTESIAN_POINT('',(0.,1.225,-2.));
#1083=CARTESIAN_POINT('',(0.,1.225,0.));
#1084=CARTESIAN_POINT('',(0.3,1.225,-2.));
#1085=CARTESIAN_POINT('',(0.,1.225,-2.));
#1086=CARTESIAN_POINT('',(0.3,1.225,0.));
#1087=CARTESIAN_POINT('Origin',(0.3,2.575,0.));
#1088=CARTESIAN_POINT('',(0.3,2.575,0.));
#1089=CARTESIAN_POINT('',(0.3,2.2375,0.));
#1090=CARTESIAN_POINT('',(0.3,2.575,-2.));
#1091=CARTESIAN_POINT('',(0.3,1.225,-2.));
#1092=CARTESIAN_POINT('',(0.3,2.575,0.));
#1093=CARTESIAN_POINT('Origin',(0.,2.575,0.));
#1094=CARTESIAN_POINT('',(0.,2.575,0.));
#1095=CARTESIAN_POINT('',(4.,2.575,0.));
#1096=CARTESIAN_POINT('',(0.,2.575,-2.));
#1097=CARTESIAN_POINT('',(0.3,2.575,-2.));
#1098=CARTESIAN_POINT('',(0.,2.575,0.));
#1099=CARTESIAN_POINT('Origin',(0.15,1.9,-2.));
#1100=CARTESIAN_POINT('',(0.,2.575,-2.));
#1101=CARTESIAN_POINT('Origin',(8.,1.9,0.));
#1102=CARTESIAN_POINT('',(16.,0.,0.));
#1103=CARTESIAN_POINT('',(16.,0.,0.));
#1104=CARTESIAN_POINT('',(0.,0.,0.));
#1105=CARTESIAN_POINT('',(5.,0.,0.));
#1106=CARTESIAN_POINT('',(0.,3.8,0.));
#1107=CARTESIAN_POINT('',(0.,3.8,0.));
#1108=CARTESIAN_POINT('',(0.,3.8,0.));
#1109=CARTESIAN_POINT('',(16.,3.8,0.));
#1110=CARTESIAN_POINT('',(16.,3.8,0.));
#1111=CARTESIAN_POINT('',(16.,0.,0.));
#1112=CARTESIAN_POINT('Origin',(5.,0.,4.5));
#1113=CARTESIAN_POINT('',(5.,0.,2.5));
#1114=CARTESIAN_POINT('',(5.,0.,4.5));
#1115=CARTESIAN_POINT('',(5.,0.,2.25));
#1116=CARTESIAN_POINT('',(5.,-6.,2.5));
#1117=CARTESIAN_POINT('',(5.,0.,2.5));
#1118=CARTESIAN_POINT('',(5.,-6.,4.5));
#1119=CARTESIAN_POINT('',(5.,-6.,2.5));
#1120=CARTESIAN_POINT('',(5.,0.,4.5));
#1121=CARTESIAN_POINT('Origin',(7.,0.,4.5));
#1122=CARTESIAN_POINT('',(7.,0.,4.5));
#1123=CARTESIAN_POINT('',(3.5,0.,4.5));
#1124=CARTESIAN_POINT('',(7.,-6.,4.5));
#1125=CARTESIAN_POINT('',(5.,-6.,4.5));
#1126=CARTESIAN_POINT('',(7.,0.,4.5));
#1127=CARTESIAN_POINT('Origin',(7.,0.,2.5));
#1128=CARTESIAN_POINT('',(7.,0.,2.5));
#1129=CARTESIAN_POINT('',(7.,0.,1.25));
#1130=CARTESIAN_POINT('',(7.,-6.,2.5));
#1131=CARTESIAN_POINT('',(7.,-6.,4.5));
#1132=CARTESIAN_POINT('',(7.,0.,2.5));
#1133=CARTESIAN_POINT('Origin',(5.,0.,2.5));
#1134=CARTESIAN_POINT('',(2.5,0.,2.5));
#1135=CARTESIAN_POINT('',(7.,-6.,2.5));
#1136=CARTESIAN_POINT('Origin',(6.,-6.,3.5));
#1137=CARTESIAN_POINT('Origin',(0.,3.8,0.));
#1138=CARTESIAN_POINT('',(0.,0.,5.));
#1139=CARTESIAN_POINT('',(0.,0.,0.));
#1140=CARTESIAN_POINT('',(0.,3.8,5.));
#1141=CARTESIAN_POINT('',(0.,3.8,5.));
#1142=CARTESIAN_POINT('',(0.,3.8,0.));
#1143=CARTESIAN_POINT('Origin',(16.,3.8,0.));
#1144=CARTESIAN_POINT('',(16.,3.8,5.));
#1145=CARTESIAN_POINT('',(16.,3.8,5.));
#1146=CARTESIAN_POINT('',(16.,3.8,0.));
#1147=CARTESIAN_POINT('Origin',(16.,0.,0.));
#1148=CARTESIAN_POINT('',(16.,0.,5.));
#1149=CARTESIAN_POINT('',(16.,0.,5.));
#1150=CARTESIAN_POINT('',(16.,0.,0.));
#1151=CARTESIAN_POINT('Origin',(0.,0.,0.));
#1152=CARTESIAN_POINT('',(5.,0.,5.));
#1153=CARTESIAN_POINT('Origin',(8.,1.9,5.));
#1154=UNCERTAINTY_MEASURE_WITH_UNIT(LENGTH_MEASURE(0.01),#1158,
'DISTANCE_ACCURACY_VALUE',
'Maximum model space distance between geometric entities at asserted c
onnectivities');
#1155=UNCERTAINTY_MEASURE_WITH_UNIT(LENGTH_MEASURE(0.01),#1158,
'DISTANCE_ACCURACY_VALUE',
'Maximum model space distance between geometric entities at asserted c
onnectivities');
#1156=(
GEOMETRIC_REPRESENTATION_CONTEXT(3)
GLOBAL_UNCERTAINTY_ASSIGNED_CONTEXT((#1154))
GLOBAL_UNIT_ASSIGNED_CONTEXT((#1158,#1160,#1161))
REPRESENTATION_CONTEXT('','3D')
);
#1157=(
GEOMETRIC_REPRESENTATION_CONTEXT(3)
GLOBAL_UNCERTAINTY_ASSIGNED_CONTEXT((#1155))
GLOBAL_UNIT_ASSIGNED_CONTEXT((#1158,#1160,#1161))
REPRESENTATION_CONTEXT('','3D')
);
#1158=(
LENGTH_UNIT()
NAMED_UNIT(*)
SI_UNIT(.MILLI.,.METRE.)
);
#1159=(
LENGTH_UNIT()
NAMED_UNIT(*)
SI_UNIT($,.METRE.)
);
#1160=(
NAMED_UNIT(*)
PLANE_ANGLE_UNIT()
SI_UNIT($,.RADIAN.)
);
#1161=(
NAMED_UNIT(*)
SI_UNIT($,.STERADIAN.)
SOLID_ANGLE_UNIT()
);
#1162=SHAPE_DEFINITION_REPRESENTATION(#1163,#1164);
#1163=PRODUCT_DEFINITION_SHAPE('',$,#1166);
#1164=SHAPE_REPRESENTATION('',(#738),#1156);
#1165=PRODUCT_DEFINITION_CONTEXT('part definition',#1170,'design');
#1166=PRODUCT_DEFINITION('2026-08-08-12-51-11-700','SK-13D08-G-5-E',#1167,
#1165);
#1167=PRODUCT_DEFINITION_FORMATION('',$,#1172);
#1168=PRODUCT_RELATED_PRODUCT_CATEGORY('SK-13D08-G-5-E',
'SK-13D08-G-5-E',(#1172));
#1169=APPLICATION_PROTOCOL_DEFINITION('international standard',
'automotive_design',2009,#1170);
#1170=APPLICATION_CONTEXT(
'Core Data for Automotive Mechanical Design Process');
#1171=PRODUCT_CONTEXT('part definition',#1170,'mechanical');
#1172=PRODUCT('2026-08-08-12-51-11-700','SK-13D08-G-5-E',$,(#1171));
#1173=PRESENTATION_STYLE_ASSIGNMENT((#1174));
#1174=SURFACE_STYLE_USAGE(.BOTH.,#1175);
#1175=SURFACE_SIDE_STYLE('',(#1176));
#1176=SURFACE_STYLE_FILL_AREA(#1177);
#1177=FILL_AREA_STYLE('Steel - Satin',(#1178));
#1178=FILL_AREA_STYLE_COLOUR('Steel - Satin',#1179);
#1179=COLOUR_RGB('Steel - Satin',0.627450980392157,0.627450980392157,0.627450980392157);
ENDSEC;
END-ISO-10303-21;
