%TF.GenerationSoftware,KiCad,Pcbnew,10.0.5*%
%TF.CreationDate,2026-08-09T03:42:05-07:00*%
%TF.ProjectId,micro-keyer,6d696372-6f2d-46b6-9579-65722e6b6963,rev?*%
%TF.SameCoordinates,Original*%
%TF.FileFunction,Legend,Bot*%
%TF.FilePolarity,Positive*%
%FSLAX46Y46*%
G04 Gerber Fmt 4.6, Leading zero omitted, Abs format (unit mm)*
G04 Created by KiCad (PCBNEW 10.0.5) date 2026-08-09 03:42:05*
%MOMM*%
%LPD*%
G01*
G04 APERTURE LIST*
%ADD10C,0.300000*%
%ADD11C,0.150000*%
%ADD12C,0.120000*%
G04 APERTURE END LIST*
D10*
X160304510Y-77479400D02*
X161447368Y-77479400D01*
X163054510Y-77479400D02*
X164197368Y-77479400D01*
X163625939Y-78050828D02*
X163625939Y-76907971D01*
D11*
X147535714Y-91233009D02*
X147392857Y-91280628D01*
X147392857Y-91280628D02*
X147345238Y-91328247D01*
X147345238Y-91328247D02*
X147297619Y-91423485D01*
X147297619Y-91423485D02*
X147297619Y-91566342D01*
X147297619Y-91566342D02*
X147345238Y-91661580D01*
X147345238Y-91661580D02*
X147392857Y-91709200D01*
X147392857Y-91709200D02*
X147488095Y-91756819D01*
X147488095Y-91756819D02*
X147869047Y-91756819D01*
X147869047Y-91756819D02*
X147869047Y-90756819D01*
X147869047Y-90756819D02*
X147535714Y-90756819D01*
X147535714Y-90756819D02*
X147440476Y-90804438D01*
X147440476Y-90804438D02*
X147392857Y-90852057D01*
X147392857Y-90852057D02*
X147345238Y-90947295D01*
X147345238Y-90947295D02*
X147345238Y-91042533D01*
X147345238Y-91042533D02*
X147392857Y-91137771D01*
X147392857Y-91137771D02*
X147440476Y-91185390D01*
X147440476Y-91185390D02*
X147535714Y-91233009D01*
X147535714Y-91233009D02*
X147869047Y-91233009D01*
X147011904Y-90756819D02*
X146440476Y-90756819D01*
X146726190Y-91756819D02*
X146726190Y-90756819D01*
X145583333Y-91756819D02*
X146154761Y-91756819D01*
X145869047Y-91756819D02*
X145869047Y-90756819D01*
X145869047Y-90756819D02*
X145964285Y-90899676D01*
X145964285Y-90899676D02*
X146059523Y-90994914D01*
X146059523Y-90994914D02*
X146154761Y-91042533D01*
X162463333Y-82954819D02*
X162463333Y-83669104D01*
X162463333Y-83669104D02*
X162510952Y-83811961D01*
X162510952Y-83811961D02*
X162606190Y-83907200D01*
X162606190Y-83907200D02*
X162749047Y-83954819D01*
X162749047Y-83954819D02*
X162844285Y-83954819D01*
X161463333Y-83954819D02*
X162034761Y-83954819D01*
X161749047Y-83954819D02*
X161749047Y-82954819D01*
X161749047Y-82954819D02*
X161844285Y-83097676D01*
X161844285Y-83097676D02*
X161939523Y-83192914D01*
X161939523Y-83192914D02*
X162034761Y-83240533D01*
X147964285Y-86933009D02*
X147630952Y-86933009D01*
X147488095Y-87456819D02*
X147964285Y-87456819D01*
X147964285Y-87456819D02*
X147964285Y-86456819D01*
X147964285Y-86456819D02*
X147488095Y-86456819D01*
X147059523Y-87456819D02*
X147059523Y-86456819D01*
X147059523Y-86456819D02*
X146488095Y-87456819D01*
X146488095Y-87456819D02*
X146488095Y-86456819D01*
X145488095Y-87456819D02*
X146059523Y-87456819D01*
X145773809Y-87456819D02*
X145773809Y-86456819D01*
X145773809Y-86456819D02*
X145869047Y-86599676D01*
X145869047Y-86599676D02*
X145964285Y-86694914D01*
X145964285Y-86694914D02*
X146059523Y-86742533D01*
X151238095Y-88504438D02*
X151333333Y-88456819D01*
X151333333Y-88456819D02*
X151476190Y-88456819D01*
X151476190Y-88456819D02*
X151619047Y-88504438D01*
X151619047Y-88504438D02*
X151714285Y-88599676D01*
X151714285Y-88599676D02*
X151761904Y-88694914D01*
X151761904Y-88694914D02*
X151809523Y-88885390D01*
X151809523Y-88885390D02*
X151809523Y-89028247D01*
X151809523Y-89028247D02*
X151761904Y-89218723D01*
X151761904Y-89218723D02*
X151714285Y-89313961D01*
X151714285Y-89313961D02*
X151619047Y-89409200D01*
X151619047Y-89409200D02*
X151476190Y-89456819D01*
X151476190Y-89456819D02*
X151380952Y-89456819D01*
X151380952Y-89456819D02*
X151238095Y-89409200D01*
X151238095Y-89409200D02*
X151190476Y-89361580D01*
X151190476Y-89361580D02*
X151190476Y-89028247D01*
X151190476Y-89028247D02*
X151380952Y-89028247D01*
X150761904Y-89456819D02*
X150761904Y-88456819D01*
X150761904Y-88456819D02*
X150190476Y-89456819D01*
X150190476Y-89456819D02*
X150190476Y-88456819D01*
X149714285Y-89456819D02*
X149714285Y-88456819D01*
X149714285Y-88456819D02*
X149476190Y-88456819D01*
X149476190Y-88456819D02*
X149333333Y-88504438D01*
X149333333Y-88504438D02*
X149238095Y-88599676D01*
X149238095Y-88599676D02*
X149190476Y-88694914D01*
X149190476Y-88694914D02*
X149142857Y-88885390D01*
X149142857Y-88885390D02*
X149142857Y-89028247D01*
X149142857Y-89028247D02*
X149190476Y-89218723D01*
X149190476Y-89218723D02*
X149238095Y-89313961D01*
X149238095Y-89313961D02*
X149333333Y-89409200D01*
X149333333Y-89409200D02*
X149476190Y-89456819D01*
X149476190Y-89456819D02*
X149714285Y-89456819D01*
X148190476Y-89456819D02*
X148761904Y-89456819D01*
X148476190Y-89456819D02*
X148476190Y-88456819D01*
X148476190Y-88456819D02*
X148571428Y-88599676D01*
X148571428Y-88599676D02*
X148666666Y-88694914D01*
X148666666Y-88694914D02*
X148761904Y-88742533D01*
%TO.C,BT1*%
D12*
X147950000Y-93300000D02*
G75*
G02*
X145550000Y-93300000I-1200000J0D01*
G01*
X145550000Y-93300000D02*
G75*
G02*
X147950000Y-93300000I1200000J0D01*
G01*
%TO.C,J1*%
X160200000Y-79950000D02*
X160400000Y-79950000D01*
X160200000Y-80750000D02*
X160200000Y-79950000D01*
X160400000Y-79100000D02*
X162125000Y-79100000D01*
X160400000Y-79950000D02*
X160400000Y-79100000D01*
X160400000Y-80750000D02*
X160200000Y-80750000D01*
X160400000Y-81500000D02*
X160400000Y-80750000D01*
X162125000Y-81500000D02*
X160400000Y-81500000D01*
X162125000Y-81500000D02*
X163850000Y-81500000D01*
X163850000Y-79100000D02*
X162125000Y-79100000D01*
X163850000Y-79950000D02*
X163850000Y-79100000D01*
X163850000Y-80750000D02*
X164050000Y-80750000D01*
X163850000Y-81500000D02*
X163850000Y-80750000D01*
X164050000Y-79950000D02*
X163850000Y-79950000D01*
X164050000Y-80750000D02*
X164050000Y-79950000D01*
X164650000Y-82300000D02*
X163650000Y-82300000D01*
X164650000Y-82300000D02*
X164650000Y-81300000D01*
X159890000Y-78590000D02*
X164360000Y-78590000D01*
X164360000Y-82010000D01*
X159890000Y-82010000D01*
X159890000Y-78590000D01*
%TO.C,EN1*%
X147950000Y-89000000D02*
G75*
G02*
X145550000Y-89000000I-1200000J0D01*
G01*
X145550000Y-89000000D02*
G75*
G02*
X147950000Y-89000000I1200000J0D01*
G01*
%TO.C,GND1*%
X151200000Y-91000000D02*
G75*
G02*
X148800000Y-91000000I-1200000J0D01*
G01*
X148800000Y-91000000D02*
G75*
G02*
X151200000Y-91000000I1200000J0D01*
G01*
%TD*%
M02*
