%TF.GenerationSoftware,KiCad,Pcbnew,10.0.5*%
%TF.CreationDate,2026-08-09T14:48:34-07:00*%
%TF.ProjectId,micro-keyer,6d696372-6f2d-46b6-9579-65722e6b6963,rev?*%
%TF.SameCoordinates,Original*%
%TF.FileFunction,Legend,Top*%
%TF.FilePolarity,Positive*%
%FSLAX46Y46*%
G04 Gerber Fmt 4.6, Leading zero omitted, Abs format (unit mm)*
G04 Created by KiCad (PCBNEW 10.0.5) date 2026-08-09 14:48:34*
%MOMM*%
%LPD*%
G01*
G04 APERTURE LIST*
%ADD10C,0.300000*%
%ADD11C,0.150000*%
%ADD12C,0.100000*%
%ADD13C,0.101600*%
%ADD14C,0.120000*%
%ADD15C,0.127000*%
%ADD16C,0.504000*%
G04 APERTURE END LIST*
D10*
X142054510Y-111300828D02*
X142054510Y-109800828D01*
X142911653Y-111300828D02*
X142268796Y-110443685D01*
X142911653Y-109800828D02*
X142054510Y-110657971D01*
X144125939Y-111229400D02*
X143983082Y-111300828D01*
X143983082Y-111300828D02*
X143697368Y-111300828D01*
X143697368Y-111300828D02*
X143554510Y-111229400D01*
X143554510Y-111229400D02*
X143483082Y-111086542D01*
X143483082Y-111086542D02*
X143483082Y-110515114D01*
X143483082Y-110515114D02*
X143554510Y-110372257D01*
X143554510Y-110372257D02*
X143697368Y-110300828D01*
X143697368Y-110300828D02*
X143983082Y-110300828D01*
X143983082Y-110300828D02*
X144125939Y-110372257D01*
X144125939Y-110372257D02*
X144197368Y-110515114D01*
X144197368Y-110515114D02*
X144197368Y-110657971D01*
X144197368Y-110657971D02*
X143483082Y-110800828D01*
X144697367Y-110300828D02*
X145054510Y-111300828D01*
X145411653Y-110300828D02*
X145054510Y-111300828D01*
X145054510Y-111300828D02*
X144911653Y-111657971D01*
X144911653Y-111657971D02*
X144840224Y-111729400D01*
X144840224Y-111729400D02*
X144697367Y-111800828D01*
X144161653Y-114300828D02*
X143661653Y-113586542D01*
X143304510Y-114300828D02*
X143304510Y-112800828D01*
X143304510Y-112800828D02*
X143875939Y-112800828D01*
X143875939Y-112800828D02*
X144018796Y-112872257D01*
X144018796Y-112872257D02*
X144090225Y-112943685D01*
X144090225Y-112943685D02*
X144161653Y-113086542D01*
X144161653Y-113086542D02*
X144161653Y-113300828D01*
X144161653Y-113300828D02*
X144090225Y-113443685D01*
X144090225Y-113443685D02*
X144018796Y-113515114D01*
X144018796Y-113515114D02*
X143875939Y-113586542D01*
X143875939Y-113586542D02*
X143304510Y-113586542D01*
X145447368Y-114300828D02*
X145447368Y-113515114D01*
X145447368Y-113515114D02*
X145375939Y-113372257D01*
X145375939Y-113372257D02*
X145233082Y-113300828D01*
X145233082Y-113300828D02*
X144947368Y-113300828D01*
X144947368Y-113300828D02*
X144804510Y-113372257D01*
X145447368Y-114229400D02*
X145304510Y-114300828D01*
X145304510Y-114300828D02*
X144947368Y-114300828D01*
X144947368Y-114300828D02*
X144804510Y-114229400D01*
X144804510Y-114229400D02*
X144733082Y-114086542D01*
X144733082Y-114086542D02*
X144733082Y-113943685D01*
X144733082Y-113943685D02*
X144804510Y-113800828D01*
X144804510Y-113800828D02*
X144947368Y-113729400D01*
X144947368Y-113729400D02*
X145304510Y-113729400D01*
X145304510Y-113729400D02*
X145447368Y-113657971D01*
X146804511Y-114300828D02*
X146804511Y-112800828D01*
X146804511Y-114229400D02*
X146661653Y-114300828D01*
X146661653Y-114300828D02*
X146375939Y-114300828D01*
X146375939Y-114300828D02*
X146233082Y-114229400D01*
X146233082Y-114229400D02*
X146161653Y-114157971D01*
X146161653Y-114157971D02*
X146090225Y-114015114D01*
X146090225Y-114015114D02*
X146090225Y-113586542D01*
X146090225Y-113586542D02*
X146161653Y-113443685D01*
X146161653Y-113443685D02*
X146233082Y-113372257D01*
X146233082Y-113372257D02*
X146375939Y-113300828D01*
X146375939Y-113300828D02*
X146661653Y-113300828D01*
X146661653Y-113300828D02*
X146804511Y-113372257D01*
X147518796Y-114300828D02*
X147518796Y-113300828D01*
X147518796Y-112800828D02*
X147447368Y-112872257D01*
X147447368Y-112872257D02*
X147518796Y-112943685D01*
X147518796Y-112943685D02*
X147590225Y-112872257D01*
X147590225Y-112872257D02*
X147518796Y-112800828D01*
X147518796Y-112800828D02*
X147518796Y-112943685D01*
X148447368Y-114300828D02*
X148304511Y-114229400D01*
X148304511Y-114229400D02*
X148233082Y-114157971D01*
X148233082Y-114157971D02*
X148161654Y-114015114D01*
X148161654Y-114015114D02*
X148161654Y-113586542D01*
X148161654Y-113586542D02*
X148233082Y-113443685D01*
X148233082Y-113443685D02*
X148304511Y-113372257D01*
X148304511Y-113372257D02*
X148447368Y-113300828D01*
X148447368Y-113300828D02*
X148661654Y-113300828D01*
X148661654Y-113300828D02*
X148804511Y-113372257D01*
X148804511Y-113372257D02*
X148875940Y-113443685D01*
X148875940Y-113443685D02*
X148947368Y-113586542D01*
X148947368Y-113586542D02*
X148947368Y-114015114D01*
X148947368Y-114015114D02*
X148875940Y-114157971D01*
X148875940Y-114157971D02*
X148804511Y-114229400D01*
X148804511Y-114229400D02*
X148661654Y-114300828D01*
X148661654Y-114300828D02*
X148447368Y-114300828D01*
X160304510Y-78979400D02*
X161447368Y-78979400D01*
X163054510Y-78979400D02*
X164197368Y-78979400D01*
X163625939Y-79550828D02*
X163625939Y-78407971D01*
X165733082Y-105372257D02*
X166447368Y-105372257D01*
X165590225Y-105800828D02*
X166090225Y-104300828D01*
X166090225Y-104300828D02*
X166590225Y-105800828D01*
X167733082Y-104800828D02*
X167733082Y-105800828D01*
X167090224Y-104800828D02*
X167090224Y-105586542D01*
X167090224Y-105586542D02*
X167161653Y-105729400D01*
X167161653Y-105729400D02*
X167304510Y-105800828D01*
X167304510Y-105800828D02*
X167518796Y-105800828D01*
X167518796Y-105800828D02*
X167661653Y-105729400D01*
X167661653Y-105729400D02*
X167733082Y-105657971D01*
X169090225Y-105800828D02*
X169090225Y-104300828D01*
X169090225Y-105729400D02*
X168947367Y-105800828D01*
X168947367Y-105800828D02*
X168661653Y-105800828D01*
X168661653Y-105800828D02*
X168518796Y-105729400D01*
X168518796Y-105729400D02*
X168447367Y-105657971D01*
X168447367Y-105657971D02*
X168375939Y-105515114D01*
X168375939Y-105515114D02*
X168375939Y-105086542D01*
X168375939Y-105086542D02*
X168447367Y-104943685D01*
X168447367Y-104943685D02*
X168518796Y-104872257D01*
X168518796Y-104872257D02*
X168661653Y-104800828D01*
X168661653Y-104800828D02*
X168947367Y-104800828D01*
X168947367Y-104800828D02*
X169090225Y-104872257D01*
X169804510Y-105800828D02*
X169804510Y-104800828D01*
X169804510Y-104300828D02*
X169733082Y-104372257D01*
X169733082Y-104372257D02*
X169804510Y-104443685D01*
X169804510Y-104443685D02*
X169875939Y-104372257D01*
X169875939Y-104372257D02*
X169804510Y-104300828D01*
X169804510Y-104300828D02*
X169804510Y-104443685D01*
X170733082Y-105800828D02*
X170590225Y-105729400D01*
X170590225Y-105729400D02*
X170518796Y-105657971D01*
X170518796Y-105657971D02*
X170447368Y-105515114D01*
X170447368Y-105515114D02*
X170447368Y-105086542D01*
X170447368Y-105086542D02*
X170518796Y-104943685D01*
X170518796Y-104943685D02*
X170590225Y-104872257D01*
X170590225Y-104872257D02*
X170733082Y-104800828D01*
X170733082Y-104800828D02*
X170947368Y-104800828D01*
X170947368Y-104800828D02*
X171090225Y-104872257D01*
X171090225Y-104872257D02*
X171161654Y-104943685D01*
X171161654Y-104943685D02*
X171233082Y-105086542D01*
X171233082Y-105086542D02*
X171233082Y-105515114D01*
X171233082Y-105515114D02*
X171161654Y-105657971D01*
X171161654Y-105657971D02*
X171090225Y-105729400D01*
X171090225Y-105729400D02*
X170947368Y-105800828D01*
X170947368Y-105800828D02*
X170733082Y-105800828D01*
X168090225Y-76800828D02*
X168590225Y-78300828D01*
X168590225Y-78300828D02*
X169090225Y-76800828D01*
X169804510Y-78300828D02*
X169661653Y-78229400D01*
X169661653Y-78229400D02*
X169590224Y-78157971D01*
X169590224Y-78157971D02*
X169518796Y-78015114D01*
X169518796Y-78015114D02*
X169518796Y-77586542D01*
X169518796Y-77586542D02*
X169590224Y-77443685D01*
X169590224Y-77443685D02*
X169661653Y-77372257D01*
X169661653Y-77372257D02*
X169804510Y-77300828D01*
X169804510Y-77300828D02*
X170018796Y-77300828D01*
X170018796Y-77300828D02*
X170161653Y-77372257D01*
X170161653Y-77372257D02*
X170233082Y-77443685D01*
X170233082Y-77443685D02*
X170304510Y-77586542D01*
X170304510Y-77586542D02*
X170304510Y-78015114D01*
X170304510Y-78015114D02*
X170233082Y-78157971D01*
X170233082Y-78157971D02*
X170161653Y-78229400D01*
X170161653Y-78229400D02*
X170018796Y-78300828D01*
X170018796Y-78300828D02*
X169804510Y-78300828D01*
X171161653Y-78300828D02*
X171018796Y-78229400D01*
X171018796Y-78229400D02*
X170947367Y-78086542D01*
X170947367Y-78086542D02*
X170947367Y-76800828D01*
X172875938Y-78300828D02*
X172875938Y-76800828D01*
X173733081Y-78300828D02*
X173090224Y-77443685D01*
X173733081Y-76800828D02*
X172875938Y-77657971D01*
X174375938Y-77300828D02*
X174375938Y-78300828D01*
X174375938Y-77443685D02*
X174447367Y-77372257D01*
X174447367Y-77372257D02*
X174590224Y-77300828D01*
X174590224Y-77300828D02*
X174804510Y-77300828D01*
X174804510Y-77300828D02*
X174947367Y-77372257D01*
X174947367Y-77372257D02*
X175018796Y-77515114D01*
X175018796Y-77515114D02*
X175018796Y-78300828D01*
X175947367Y-78300828D02*
X175804510Y-78229400D01*
X175804510Y-78229400D02*
X175733081Y-78157971D01*
X175733081Y-78157971D02*
X175661653Y-78015114D01*
X175661653Y-78015114D02*
X175661653Y-77586542D01*
X175661653Y-77586542D02*
X175733081Y-77443685D01*
X175733081Y-77443685D02*
X175804510Y-77372257D01*
X175804510Y-77372257D02*
X175947367Y-77300828D01*
X175947367Y-77300828D02*
X176161653Y-77300828D01*
X176161653Y-77300828D02*
X176304510Y-77372257D01*
X176304510Y-77372257D02*
X176375939Y-77443685D01*
X176375939Y-77443685D02*
X176447367Y-77586542D01*
X176447367Y-77586542D02*
X176447367Y-78015114D01*
X176447367Y-78015114D02*
X176375939Y-78157971D01*
X176375939Y-78157971D02*
X176304510Y-78229400D01*
X176304510Y-78229400D02*
X176161653Y-78300828D01*
X176161653Y-78300828D02*
X175947367Y-78300828D01*
X177090224Y-78300828D02*
X177090224Y-76800828D01*
X177090224Y-77372257D02*
X177233082Y-77300828D01*
X177233082Y-77300828D02*
X177518796Y-77300828D01*
X177518796Y-77300828D02*
X177661653Y-77372257D01*
X177661653Y-77372257D02*
X177733082Y-77443685D01*
X177733082Y-77443685D02*
X177804510Y-77586542D01*
X177804510Y-77586542D02*
X177804510Y-78015114D01*
X177804510Y-78015114D02*
X177733082Y-78157971D01*
X177733082Y-78157971D02*
X177661653Y-78229400D01*
X177661653Y-78229400D02*
X177518796Y-78300828D01*
X177518796Y-78300828D02*
X177233082Y-78300828D01*
X177233082Y-78300828D02*
X177090224Y-78229400D01*
D11*
X137166666Y-101954819D02*
X137166666Y-102669104D01*
X137166666Y-102669104D02*
X137119047Y-102811961D01*
X137119047Y-102811961D02*
X137023809Y-102907200D01*
X137023809Y-102907200D02*
X136880952Y-102954819D01*
X136880952Y-102954819D02*
X136785714Y-102954819D01*
X137547619Y-101954819D02*
X138166666Y-101954819D01*
X138166666Y-101954819D02*
X137833333Y-102335771D01*
X137833333Y-102335771D02*
X137976190Y-102335771D01*
X137976190Y-102335771D02*
X138071428Y-102383390D01*
X138071428Y-102383390D02*
X138119047Y-102431009D01*
X138119047Y-102431009D02*
X138166666Y-102526247D01*
X138166666Y-102526247D02*
X138166666Y-102764342D01*
X138166666Y-102764342D02*
X138119047Y-102859580D01*
X138119047Y-102859580D02*
X138071428Y-102907200D01*
X138071428Y-102907200D02*
X137976190Y-102954819D01*
X137976190Y-102954819D02*
X137690476Y-102954819D01*
X137690476Y-102954819D02*
X137595238Y-102907200D01*
X137595238Y-102907200D02*
X137547619Y-102859580D01*
X137166666Y-113204819D02*
X137166666Y-113919104D01*
X137166666Y-113919104D02*
X137119047Y-114061961D01*
X137119047Y-114061961D02*
X137023809Y-114157200D01*
X137023809Y-114157200D02*
X136880952Y-114204819D01*
X136880952Y-114204819D02*
X136785714Y-114204819D01*
X138071428Y-113538152D02*
X138071428Y-114204819D01*
X137833333Y-113157200D02*
X137595238Y-113871485D01*
X137595238Y-113871485D02*
X138214285Y-113871485D01*
D12*
X164166667Y-119159800D02*
X164309524Y-119207419D01*
X164309524Y-119207419D02*
X164547619Y-119207419D01*
X164547619Y-119207419D02*
X164642857Y-119159800D01*
X164642857Y-119159800D02*
X164690476Y-119112180D01*
X164690476Y-119112180D02*
X164738095Y-119016942D01*
X164738095Y-119016942D02*
X164738095Y-118921704D01*
X164738095Y-118921704D02*
X164690476Y-118826466D01*
X164690476Y-118826466D02*
X164642857Y-118778847D01*
X164642857Y-118778847D02*
X164547619Y-118731228D01*
X164547619Y-118731228D02*
X164357143Y-118683609D01*
X164357143Y-118683609D02*
X164261905Y-118635990D01*
X164261905Y-118635990D02*
X164214286Y-118588371D01*
X164214286Y-118588371D02*
X164166667Y-118493133D01*
X164166667Y-118493133D02*
X164166667Y-118397895D01*
X164166667Y-118397895D02*
X164214286Y-118302657D01*
X164214286Y-118302657D02*
X164261905Y-118255038D01*
X164261905Y-118255038D02*
X164357143Y-118207419D01*
X164357143Y-118207419D02*
X164595238Y-118207419D01*
X164595238Y-118207419D02*
X164738095Y-118255038D01*
X165071429Y-118207419D02*
X165309524Y-119207419D01*
X165309524Y-119207419D02*
X165500000Y-118493133D01*
X165500000Y-118493133D02*
X165690476Y-119207419D01*
X165690476Y-119207419D02*
X165928572Y-118207419D01*
X166261905Y-118302657D02*
X166309524Y-118255038D01*
X166309524Y-118255038D02*
X166404762Y-118207419D01*
X166404762Y-118207419D02*
X166642857Y-118207419D01*
X166642857Y-118207419D02*
X166738095Y-118255038D01*
X166738095Y-118255038D02*
X166785714Y-118302657D01*
X166785714Y-118302657D02*
X166833333Y-118397895D01*
X166833333Y-118397895D02*
X166833333Y-118493133D01*
X166833333Y-118493133D02*
X166785714Y-118635990D01*
X166785714Y-118635990D02*
X166214286Y-119207419D01*
X166214286Y-119207419D02*
X166833333Y-119207419D01*
D11*
X165357200Y-109133332D02*
X165404819Y-108990475D01*
X165404819Y-108990475D02*
X165404819Y-108752380D01*
X165404819Y-108752380D02*
X165357200Y-108657142D01*
X165357200Y-108657142D02*
X165309580Y-108609523D01*
X165309580Y-108609523D02*
X165214342Y-108561904D01*
X165214342Y-108561904D02*
X165119104Y-108561904D01*
X165119104Y-108561904D02*
X165023866Y-108609523D01*
X165023866Y-108609523D02*
X164976247Y-108657142D01*
X164976247Y-108657142D02*
X164928628Y-108752380D01*
X164928628Y-108752380D02*
X164881009Y-108942856D01*
X164881009Y-108942856D02*
X164833390Y-109038094D01*
X164833390Y-109038094D02*
X164785771Y-109085713D01*
X164785771Y-109085713D02*
X164690533Y-109133332D01*
X164690533Y-109133332D02*
X164595295Y-109133332D01*
X164595295Y-109133332D02*
X164500057Y-109085713D01*
X164500057Y-109085713D02*
X164452438Y-109038094D01*
X164452438Y-109038094D02*
X164404819Y-108942856D01*
X164404819Y-108942856D02*
X164404819Y-108704761D01*
X164404819Y-108704761D02*
X164452438Y-108561904D01*
X164404819Y-108228570D02*
X165404819Y-107990475D01*
X165404819Y-107990475D02*
X164690533Y-107799999D01*
X164690533Y-107799999D02*
X165404819Y-107609523D01*
X165404819Y-107609523D02*
X164404819Y-107371428D01*
X165404819Y-106466666D02*
X165404819Y-107038094D01*
X165404819Y-106752380D02*
X164404819Y-106752380D01*
X164404819Y-106752380D02*
X164547676Y-106847618D01*
X164547676Y-106847618D02*
X164642914Y-106942856D01*
X164642914Y-106942856D02*
X164690533Y-107038094D01*
X177916666Y-104954819D02*
X177916666Y-105669104D01*
X177916666Y-105669104D02*
X177869047Y-105811961D01*
X177869047Y-105811961D02*
X177773809Y-105907200D01*
X177773809Y-105907200D02*
X177630952Y-105954819D01*
X177630952Y-105954819D02*
X177535714Y-105954819D01*
X178345238Y-105050057D02*
X178392857Y-105002438D01*
X178392857Y-105002438D02*
X178488095Y-104954819D01*
X178488095Y-104954819D02*
X178726190Y-104954819D01*
X178726190Y-104954819D02*
X178821428Y-105002438D01*
X178821428Y-105002438D02*
X178869047Y-105050057D01*
X178869047Y-105050057D02*
X178916666Y-105145295D01*
X178916666Y-105145295D02*
X178916666Y-105240533D01*
X178916666Y-105240533D02*
X178869047Y-105383390D01*
X178869047Y-105383390D02*
X178297619Y-105954819D01*
X178297619Y-105954819D02*
X178916666Y-105954819D01*
X177119047Y-92681009D02*
X177261904Y-92728628D01*
X177261904Y-92728628D02*
X177309523Y-92776247D01*
X177309523Y-92776247D02*
X177357142Y-92871485D01*
X177357142Y-92871485D02*
X177357142Y-93014342D01*
X177357142Y-93014342D02*
X177309523Y-93109580D01*
X177309523Y-93109580D02*
X177261904Y-93157200D01*
X177261904Y-93157200D02*
X177166666Y-93204819D01*
X177166666Y-93204819D02*
X176785714Y-93204819D01*
X176785714Y-93204819D02*
X176785714Y-92204819D01*
X176785714Y-92204819D02*
X177119047Y-92204819D01*
X177119047Y-92204819D02*
X177214285Y-92252438D01*
X177214285Y-92252438D02*
X177261904Y-92300057D01*
X177261904Y-92300057D02*
X177309523Y-92395295D01*
X177309523Y-92395295D02*
X177309523Y-92490533D01*
X177309523Y-92490533D02*
X177261904Y-92585771D01*
X177261904Y-92585771D02*
X177214285Y-92633390D01*
X177214285Y-92633390D02*
X177119047Y-92681009D01*
X177119047Y-92681009D02*
X176785714Y-92681009D01*
X177690476Y-92204819D02*
X178357142Y-92204819D01*
X178357142Y-92204819D02*
X177690476Y-93204819D01*
X177690476Y-93204819D02*
X178357142Y-93204819D01*
X179261904Y-93204819D02*
X178690476Y-93204819D01*
X178976190Y-93204819D02*
X178976190Y-92204819D01*
X178976190Y-92204819D02*
X178880952Y-92347676D01*
X178880952Y-92347676D02*
X178785714Y-92442914D01*
X178785714Y-92442914D02*
X178690476Y-92490533D01*
X159490057Y-90325238D02*
X159442438Y-90420476D01*
X159442438Y-90420476D02*
X159347200Y-90515714D01*
X159347200Y-90515714D02*
X159204342Y-90658571D01*
X159204342Y-90658571D02*
X159156723Y-90753809D01*
X159156723Y-90753809D02*
X159156723Y-90849047D01*
X159394819Y-90801428D02*
X159347200Y-90896666D01*
X159347200Y-90896666D02*
X159251961Y-90991904D01*
X159251961Y-90991904D02*
X159061485Y-91039523D01*
X159061485Y-91039523D02*
X158728152Y-91039523D01*
X158728152Y-91039523D02*
X158537676Y-90991904D01*
X158537676Y-90991904D02*
X158442438Y-90896666D01*
X158442438Y-90896666D02*
X158394819Y-90801428D01*
X158394819Y-90801428D02*
X158394819Y-90610952D01*
X158394819Y-90610952D02*
X158442438Y-90515714D01*
X158442438Y-90515714D02*
X158537676Y-90420476D01*
X158537676Y-90420476D02*
X158728152Y-90372857D01*
X158728152Y-90372857D02*
X159061485Y-90372857D01*
X159061485Y-90372857D02*
X159251961Y-90420476D01*
X159251961Y-90420476D02*
X159347200Y-90515714D01*
X159347200Y-90515714D02*
X159394819Y-90610952D01*
X159394819Y-90610952D02*
X159394819Y-90801428D01*
X159394819Y-89420476D02*
X159394819Y-89991904D01*
X159394819Y-89706190D02*
X158394819Y-89706190D01*
X158394819Y-89706190D02*
X158537676Y-89801428D01*
X158537676Y-89801428D02*
X158632914Y-89896666D01*
X158632914Y-89896666D02*
X158680533Y-89991904D01*
X160384761Y-98240057D02*
X160289523Y-98192438D01*
X160289523Y-98192438D02*
X160194285Y-98097200D01*
X160194285Y-98097200D02*
X160051428Y-97954342D01*
X160051428Y-97954342D02*
X159956190Y-97906723D01*
X159956190Y-97906723D02*
X159860952Y-97906723D01*
X159908571Y-98144819D02*
X159813333Y-98097200D01*
X159813333Y-98097200D02*
X159718095Y-98001961D01*
X159718095Y-98001961D02*
X159670476Y-97811485D01*
X159670476Y-97811485D02*
X159670476Y-97478152D01*
X159670476Y-97478152D02*
X159718095Y-97287676D01*
X159718095Y-97287676D02*
X159813333Y-97192438D01*
X159813333Y-97192438D02*
X159908571Y-97144819D01*
X159908571Y-97144819D02*
X160099047Y-97144819D01*
X160099047Y-97144819D02*
X160194285Y-97192438D01*
X160194285Y-97192438D02*
X160289523Y-97287676D01*
X160289523Y-97287676D02*
X160337142Y-97478152D01*
X160337142Y-97478152D02*
X160337142Y-97811485D01*
X160337142Y-97811485D02*
X160289523Y-98001961D01*
X160289523Y-98001961D02*
X160194285Y-98097200D01*
X160194285Y-98097200D02*
X160099047Y-98144819D01*
X160099047Y-98144819D02*
X159908571Y-98144819D01*
X160718095Y-97240057D02*
X160765714Y-97192438D01*
X160765714Y-97192438D02*
X160860952Y-97144819D01*
X160860952Y-97144819D02*
X161099047Y-97144819D01*
X161099047Y-97144819D02*
X161194285Y-97192438D01*
X161194285Y-97192438D02*
X161241904Y-97240057D01*
X161241904Y-97240057D02*
X161289523Y-97335295D01*
X161289523Y-97335295D02*
X161289523Y-97430533D01*
X161289523Y-97430533D02*
X161241904Y-97573390D01*
X161241904Y-97573390D02*
X160670476Y-98144819D01*
X160670476Y-98144819D02*
X161289523Y-98144819D01*
D12*
X134561905Y-73359800D02*
X134704762Y-73407419D01*
X134704762Y-73407419D02*
X134942857Y-73407419D01*
X134942857Y-73407419D02*
X135038095Y-73359800D01*
X135038095Y-73359800D02*
X135085714Y-73312180D01*
X135085714Y-73312180D02*
X135133333Y-73216942D01*
X135133333Y-73216942D02*
X135133333Y-73121704D01*
X135133333Y-73121704D02*
X135085714Y-73026466D01*
X135085714Y-73026466D02*
X135038095Y-72978847D01*
X135038095Y-72978847D02*
X134942857Y-72931228D01*
X134942857Y-72931228D02*
X134752381Y-72883609D01*
X134752381Y-72883609D02*
X134657143Y-72835990D01*
X134657143Y-72835990D02*
X134609524Y-72788371D01*
X134609524Y-72788371D02*
X134561905Y-72693133D01*
X134561905Y-72693133D02*
X134561905Y-72597895D01*
X134561905Y-72597895D02*
X134609524Y-72502657D01*
X134609524Y-72502657D02*
X134657143Y-72455038D01*
X134657143Y-72455038D02*
X134752381Y-72407419D01*
X134752381Y-72407419D02*
X134990476Y-72407419D01*
X134990476Y-72407419D02*
X135133333Y-72455038D01*
X135514286Y-73359800D02*
X135657143Y-73407419D01*
X135657143Y-73407419D02*
X135895238Y-73407419D01*
X135895238Y-73407419D02*
X135990476Y-73359800D01*
X135990476Y-73359800D02*
X136038095Y-73312180D01*
X136038095Y-73312180D02*
X136085714Y-73216942D01*
X136085714Y-73216942D02*
X136085714Y-73121704D01*
X136085714Y-73121704D02*
X136038095Y-73026466D01*
X136038095Y-73026466D02*
X135990476Y-72978847D01*
X135990476Y-72978847D02*
X135895238Y-72931228D01*
X135895238Y-72931228D02*
X135704762Y-72883609D01*
X135704762Y-72883609D02*
X135609524Y-72835990D01*
X135609524Y-72835990D02*
X135561905Y-72788371D01*
X135561905Y-72788371D02*
X135514286Y-72693133D01*
X135514286Y-72693133D02*
X135514286Y-72597895D01*
X135514286Y-72597895D02*
X135561905Y-72502657D01*
X135561905Y-72502657D02*
X135609524Y-72455038D01*
X135609524Y-72455038D02*
X135704762Y-72407419D01*
X135704762Y-72407419D02*
X135942857Y-72407419D01*
X135942857Y-72407419D02*
X136085714Y-72455038D01*
X136514286Y-73407419D02*
X136514286Y-72407419D01*
X136514286Y-72407419D02*
X136752381Y-72407419D01*
X136752381Y-72407419D02*
X136895238Y-72455038D01*
X136895238Y-72455038D02*
X136990476Y-72550276D01*
X136990476Y-72550276D02*
X137038095Y-72645514D01*
X137038095Y-72645514D02*
X137085714Y-72835990D01*
X137085714Y-72835990D02*
X137085714Y-72978847D01*
X137085714Y-72978847D02*
X137038095Y-73169323D01*
X137038095Y-73169323D02*
X136990476Y-73264561D01*
X136990476Y-73264561D02*
X136895238Y-73359800D01*
X136895238Y-73359800D02*
X136752381Y-73407419D01*
X136752381Y-73407419D02*
X136514286Y-73407419D01*
X138038095Y-73407419D02*
X137466667Y-73407419D01*
X137752381Y-73407419D02*
X137752381Y-72407419D01*
X137752381Y-72407419D02*
X137657143Y-72550276D01*
X137657143Y-72550276D02*
X137561905Y-72645514D01*
X137561905Y-72645514D02*
X137466667Y-72693133D01*
D13*
X134678668Y-91933809D02*
X135192715Y-91933809D01*
X135192715Y-91933809D02*
X135253191Y-91903571D01*
X135253191Y-91903571D02*
X135283430Y-91873333D01*
X135283430Y-91873333D02*
X135313668Y-91812857D01*
X135313668Y-91812857D02*
X135313668Y-91691904D01*
X135313668Y-91691904D02*
X135283430Y-91631428D01*
X135283430Y-91631428D02*
X135253191Y-91601190D01*
X135253191Y-91601190D02*
X135192715Y-91570952D01*
X135192715Y-91570952D02*
X134678668Y-91570952D01*
X135313668Y-90935952D02*
X135313668Y-91298809D01*
X135313668Y-91117381D02*
X134678668Y-91117381D01*
X134678668Y-91117381D02*
X134769382Y-91177857D01*
X134769382Y-91177857D02*
X134829858Y-91238333D01*
X134829858Y-91238333D02*
X134860096Y-91298809D01*
D11*
X165904761Y-78454819D02*
X165571428Y-77978628D01*
X165333333Y-78454819D02*
X165333333Y-77454819D01*
X165333333Y-77454819D02*
X165714285Y-77454819D01*
X165714285Y-77454819D02*
X165809523Y-77502438D01*
X165809523Y-77502438D02*
X165857142Y-77550057D01*
X165857142Y-77550057D02*
X165904761Y-77645295D01*
X165904761Y-77645295D02*
X165904761Y-77788152D01*
X165904761Y-77788152D02*
X165857142Y-77883390D01*
X165857142Y-77883390D02*
X165809523Y-77931009D01*
X165809523Y-77931009D02*
X165714285Y-77978628D01*
X165714285Y-77978628D02*
X165333333Y-77978628D01*
X166190476Y-77454819D02*
X166523809Y-78454819D01*
X166523809Y-78454819D02*
X166857142Y-77454819D01*
X167714285Y-78454819D02*
X167142857Y-78454819D01*
X167428571Y-78454819D02*
X167428571Y-77454819D01*
X167428571Y-77454819D02*
X167333333Y-77597676D01*
X167333333Y-77597676D02*
X167238095Y-77692914D01*
X167238095Y-77692914D02*
X167142857Y-77740533D01*
%TO.C,J3*%
D14*
X150600000Y-109600000D02*
X149400000Y-109600000D01*
X150600000Y-103400000D02*
X150600000Y-109600000D01*
X146200000Y-109600000D02*
X139700000Y-109600000D01*
X141700000Y-103400000D02*
X150600000Y-103400000D01*
X139700000Y-109600000D02*
X139700000Y-111600000D01*
X137100000Y-109600000D02*
X137100000Y-111600000D01*
X137100000Y-109600000D02*
X135900000Y-109600000D01*
X135900000Y-109600000D02*
X135900000Y-109100000D01*
X135900000Y-109100000D02*
X133400000Y-109100000D01*
X135900000Y-103900000D02*
X135900000Y-103400000D01*
X135900000Y-103400000D02*
X139100000Y-103400000D01*
X133400000Y-109100000D02*
X133400000Y-103900000D01*
X133400000Y-103900000D02*
X135900000Y-103900000D01*
%TO.C,J4*%
X150600000Y-120800000D02*
X149400000Y-120800000D01*
X150600000Y-114600000D02*
X150600000Y-120800000D01*
X146200000Y-120800000D02*
X139700000Y-120800000D01*
X141700000Y-114600000D02*
X150600000Y-114600000D01*
X139700000Y-120800000D02*
X139700000Y-122800000D01*
X137100000Y-120800000D02*
X137100000Y-122800000D01*
X137100000Y-120800000D02*
X135900000Y-120800000D01*
X135900000Y-120800000D02*
X135900000Y-120300000D01*
X135900000Y-120300000D02*
X133400000Y-120300000D01*
X135900000Y-115100000D02*
X135900000Y-114600000D01*
X135900000Y-114600000D02*
X139100000Y-114600000D01*
X133400000Y-120300000D02*
X133400000Y-115100000D01*
X133400000Y-115100000D02*
X135900000Y-115100000D01*
%TO.C,SW2*%
D12*
X160700000Y-119250000D02*
X179200000Y-119250000D01*
X179200000Y-123750000D01*
X160700000Y-123750000D01*
X160700000Y-119250000D01*
%TO.C,SW1*%
D14*
X160750000Y-112500000D02*
G75*
G02*
X154750000Y-112500000I-3000000J0D01*
G01*
X154750000Y-112500000D02*
G75*
G02*
X160750000Y-112500000I3000000J0D01*
G01*
X163650000Y-118600000D02*
X161250000Y-118600000D01*
X163650000Y-114500000D02*
X163650000Y-118600000D01*
X163650000Y-110500000D02*
X163650000Y-106400000D01*
X163650000Y-106400000D02*
X151850000Y-106400000D01*
X161850000Y-105300000D02*
X161550000Y-105000000D01*
X161850000Y-104700000D02*
X161850000Y-105300000D01*
X161550000Y-105000000D02*
X161850000Y-104700000D01*
X159050000Y-118600000D02*
X156450000Y-118600000D01*
X158250000Y-112500000D02*
X157250000Y-112500000D01*
X157750000Y-112000000D02*
X157750000Y-113000000D01*
X154250000Y-118600000D02*
X151850000Y-118600000D01*
X151850000Y-118600000D02*
X151850000Y-114500000D01*
X151850000Y-110500000D02*
X151850000Y-106400000D01*
%TO.C,J2*%
X170950000Y-117860000D02*
X178969200Y-117860000D01*
X167750000Y-106140000D02*
X178969200Y-106140000D01*
X165440000Y-117860000D02*
X167950000Y-117860000D01*
X165440000Y-117860000D02*
X165440000Y-109300000D01*
%TO.C,BZ1*%
X178480000Y-98250000D02*
G75*
G02*
X166020000Y-98250000I-6230000J0D01*
G01*
X166020000Y-98250000D02*
G75*
G02*
X178480000Y-98250000I6230000J0D01*
G01*
X165850000Y-99749999D02*
G75*
G02*
X165850000Y-96750000I6400000J1499999D01*
G01*
%TO.C,Q1*%
X164350000Y-92030000D02*
X164350000Y-88430000D01*
X159900000Y-90230000D02*
G75*
G02*
X164338478Y-88391522I2600000J0D01*
G01*
X164338478Y-92068478D02*
G75*
G02*
X159899999Y-90230000I-1838478J1838478D01*
G01*
%TO.C,Q2*%
X158680000Y-103100000D02*
X162280000Y-103100000D01*
X158641522Y-103088478D02*
G75*
G02*
X160480000Y-98649999I1838478J1838478D01*
G01*
X160480000Y-98650000D02*
G75*
G02*
X162318478Y-103088478I0J-2600000D01*
G01*
%TO.C,SSD1*%
D12*
X137300000Y-77950000D02*
X164600000Y-77950000D01*
X164600000Y-105250000D01*
X137300000Y-105250000D01*
X137300000Y-77950000D01*
%TO.C,U1*%
D15*
X133681177Y-95497284D02*
X133681177Y-87502012D01*
X134181177Y-87002012D02*
X135725189Y-87001000D01*
X135722189Y-95998000D02*
X134180905Y-95997284D01*
D12*
X135734189Y-84515000D02*
X135734189Y-98485000D01*
X154784189Y-82610000D02*
X137639189Y-82610000D01*
X154784189Y-100390000D02*
X137639189Y-100390000D01*
X156689189Y-98485000D02*
X156689189Y-84515000D01*
D15*
X133681177Y-87502012D02*
G75*
G02*
X134181177Y-87001988I500012J12D01*
G01*
X134180905Y-95997284D02*
G75*
G02*
X133681205Y-95497284I384J500084D01*
G01*
D12*
X135734189Y-84515000D02*
G75*
G02*
X137639189Y-82610000I1905000J0D01*
G01*
X137635189Y-100390000D02*
G75*
G02*
X135730189Y-98485000I0J1905000D01*
G01*
X154784189Y-82610000D02*
G75*
G02*
X156689189Y-84515000I-1J-1905001D01*
G01*
X156689189Y-98485000D02*
G75*
G02*
X154784189Y-100390000I-1905001J1D01*
G01*
D16*
X136390177Y-100616012D02*
G75*
G02*
X135886177Y-100616012I-252000J0D01*
G01*
X135886177Y-100616012D02*
G75*
G02*
X136390177Y-100616012I252000J0D01*
G01*
X137113177Y-99399012D02*
G75*
G02*
X136609177Y-99399012I-252000J0D01*
G01*
X136609177Y-99399012D02*
G75*
G02*
X137113177Y-99399012I252000J0D01*
G01*
%TO.C,RV1*%
D14*
X167155000Y-78580000D02*
X167155000Y-81050000D01*
X167155000Y-78580000D02*
X171821000Y-78580000D01*
X167155000Y-83450000D02*
X167155000Y-83880000D01*
X167155000Y-85621000D02*
X167155000Y-86380000D01*
X167155000Y-88120000D02*
X167155000Y-90920000D01*
X167155000Y-90920000D02*
X171821000Y-90920000D01*
X175730000Y-78580000D02*
X178745000Y-78580000D01*
X175730000Y-90920000D02*
X178745000Y-90920000D01*
X178745000Y-78580000D02*
X178745000Y-90920000D01*
X168775000Y-82750000D02*
X170275000Y-82750000D01*
X170275000Y-86750000D01*
X168775000Y-86750000D01*
X168775000Y-82750000D01*
X177275000Y-82750000D02*
X178775000Y-82750000D01*
X178775000Y-86750000D01*
X177275000Y-86750000D01*
X177275000Y-82750000D01*
%TD*%
M02*
