M48
; DRILL file KiCad 10.0.5-1-g226df246f3 date 2026-08-24T22:53:26
; FORMAT={-:-/ absolute / metric / decimal}
; #@! TF.CreationDate,2026-08-24T22:53:26-07:00
; #@! TF.GenerationSoftware,Kicad,Pcbnew,10.0.5-1-g226df246f3
; #@! TF.FileFunction,Plated,1,2,PTH
FMAT,2
METRIC
; #@! TA.AperFunction,Plated,PTH,ViaDrill
T1C0.300
; #@! TA.AperFunction,Plated,PTH,ComponentDrill
T2C0.500
; #@! TA.AperFunction,Plated,PTH,ComponentDrill
T3C0.750
; #@! TA.AperFunction,Plated,PTH,ComponentDrill
T4C0.760
; #@! TA.AperFunction,Plated,PTH,ComponentDrill
T5C0.800
; #@! TA.AperFunction,Plated,PTH,ComponentDrill
T6C0.900
; #@! TA.AperFunction,Plated,PTH,ComponentDrill
T7C1.000
; #@! TA.AperFunction,Plated,PTH,ComponentDrill
T8C1.500
%
G90
G05
T1
X136.7Y-88.1
X140.1Y-108.2
X140.15Y-94.85
X142.5Y-102.25
X142.55Y-106.2
X146.5Y-85.25
X146.95Y-101.95
X148.3Y-104.55
X148.792Y-85.982
X148.8Y-88.1
X150.936Y-97.707
X151.8Y-85.9
X153.5Y-90.5
X153.5Y-92.5
X153.75Y-86.9
X154.05Y-96.75
X156.1Y-88.55
X156.1Y-96.2
X160.0Y-96.75
X163.75Y-94.0
X164.3Y-98.8
X170.75Y-115.85
T2
X161.5Y-82.25
X162.75Y-82.25
T3
X159.21Y-101.25
X160.48Y-101.25
X160.75Y-90.96
X160.75Y-92.23
X160.75Y-93.5
X161.75Y-101.25
T4
X175.13Y-114.21
X175.13Y-116.75
X175.13Y-119.29
T5
X154.75Y-109.75
X158.75Y-109.75
X161.25Y-109.75
T6
X159.15Y-120.75
X161.15Y-120.75
X163.15Y-120.75
T7
X147.5Y-79.5
X150.0Y-79.5
X152.5Y-79.5
X155.0Y-79.5
X170.0Y-78.05
X170.0Y-92.55
X172.5Y-92.55
X175.0Y-78.05
X175.0Y-92.55
T8
X157.05Y-120.75
X165.25Y-120.75
T7
G00X166.6Y-99.3
M15
G01X166.6Y-100.3
M16
G05
G00X169.9Y-109.0
M15
G01X168.9Y-109.0
M16
G05
G00X171.6Y-106.5
M15
G01X170.6Y-106.5
M16
G05
G00X174.7Y-99.5
M15
G01X173.7Y-99.5
M16
G05
G00X177.7Y-104.5
M15
G01X177.7Y-103.5
M16
G05
T8
G00X166.9Y-85.7
M15
G01X166.9Y-84.4
M16
G05
G00X178.1Y-85.7
M15
G01X178.1Y-84.4
M16
G05
M30
