%TF.GenerationSoftware,KiCad,Pcbnew,10.0.6*%
%TF.CreationDate,2026-09-07T21:33:30-07:00*%
%TF.ProjectId,micro-keyer,6d696372-6f2d-46b6-9579-65722e6b6963,rev?*%
%TF.SameCoordinates,Original*%
%TF.FileFunction,Copper,L2,Bot*%
%TF.FilePolarity,Positive*%
%FSLAX46Y46*%
G04 Gerber Fmt 4.6, Leading zero omitted, Abs format (unit mm)*
G04 Created by KiCad (PCBNEW 10.0.6) date 2026-09-07 21:33:30*
%MOMM*%
%LPD*%
G01*
G04 APERTURE LIST*
G04 Aperture macros list*
%AMRoundRect*
0 Rectangle with rounded corners*
0 $1 Rounding radius*
0 $2 $3 $4 $5 $6 $7 $8 $9 X,Y pos of 4 corners*
0 Add a 4 corners polygon primitive as box body*
4,1,4,$2,$3,$4,$5,$6,$7,$8,$9,$2,$3,0*
0 Add four circle primitives for the rounded corners*
1,1,$1+$1,$2,$3*
1,1,$1+$1,$4,$5*
1,1,$1+$1,$6,$7*
1,1,$1+$1,$8,$9*
0 Add four rect primitives between the rounded corners*
20,1,$1+$1,$2,$3,$4,$5,0*
20,1,$1+$1,$4,$5,$6,$7,0*
20,1,$1+$1,$6,$7,$8,$9,0*
20,1,$1+$1,$8,$9,$2,$3,0*%
%AMFreePoly0*
4,1,6,1.000000,0.000000,0.500000,-0.750000,-0.500000,-0.750000,-0.500000,0.750000,0.500000,0.750000,1.000000,0.000000,1.000000,0.000000,$1*%
%AMFreePoly1*
4,1,6,0.500000,-0.750000,-0.650000,-0.750000,-0.150000,0.000000,-0.650000,0.750000,0.500000,0.750000,0.500000,-0.750000,0.500000,-0.750000,$1*%
G04 Aperture macros list end*
%TA.AperFunction,ComponentPad*%
%ADD10R,1.160000X1.160000*%
%TD*%
%TA.AperFunction,ComponentPad*%
%ADD11C,1.160000*%
%TD*%
%TA.AperFunction,ComponentPad*%
%ADD12R,1.500000X1.050000*%
%TD*%
%TA.AperFunction,ComponentPad*%
%ADD13O,1.500000X1.050000*%
%TD*%
%TA.AperFunction,ComponentPad*%
%ADD14O,2.200000X3.500000*%
%TD*%
%TA.AperFunction,ComponentPad*%
%ADD15R,1.500000X2.500000*%
%TD*%
%TA.AperFunction,ComponentPad*%
%ADD16O,1.500000X2.500000*%
%TD*%
%TA.AperFunction,ComponentPad*%
%ADD17R,1.050000X1.500000*%
%TD*%
%TA.AperFunction,ComponentPad*%
%ADD18O,1.050000X1.500000*%
%TD*%
%TA.AperFunction,ComponentPad*%
%ADD19R,2.000000X2.000000*%
%TD*%
%TA.AperFunction,ComponentPad*%
%ADD20C,2.000000*%
%TD*%
%TA.AperFunction,ComponentPad*%
%ADD21R,2.000000X3.200000*%
%TD*%
%TA.AperFunction,ComponentPad*%
%ADD22RoundRect,0.190500X-0.444500X-0.444500X0.444500X-0.444500X0.444500X0.444500X-0.444500X0.444500X0*%
%TD*%
%TA.AperFunction,ComponentPad*%
%ADD23RoundRect,0.250000X-0.750000X-0.750000X0.750000X-0.750000X0.750000X0.750000X-0.750000X0.750000X0*%
%TD*%
%TA.AperFunction,ComponentPad*%
%ADD24O,2.500000X3.500000*%
%TD*%
%TA.AperFunction,ComponentPad*%
%ADD25O,3.000000X1.500000*%
%TD*%
%TA.AperFunction,ComponentPad*%
%ADD26O,3.500000X2.500000*%
%TD*%
%TA.AperFunction,ComponentPad*%
%ADD27O,2.100000X3.100000*%
%TD*%
%TA.AperFunction,SMDPad,CuDef*%
%ADD28C,2.000000*%
%TD*%
%TA.AperFunction,SMDPad,CuDef*%
%ADD29FreePoly0,180.000000*%
%TD*%
%TA.AperFunction,SMDPad,CuDef*%
%ADD30FreePoly1,180.000000*%
%TD*%
%TA.AperFunction,ComponentPad*%
%ADD31RoundRect,0.200000X0.200000X0.450000X-0.200000X0.450000X-0.200000X-0.450000X0.200000X-0.450000X0*%
%TD*%
%TA.AperFunction,ComponentPad*%
%ADD32O,0.800000X1.300000*%
%TD*%
%TA.AperFunction,ViaPad*%
%ADD33C,0.600000*%
%TD*%
%TA.AperFunction,Conductor*%
%ADD34C,0.200000*%
%TD*%
G04 APERTURE END LIST*
D10*
%TO.P,RV1,1,1_1*%
%TO.N,/AAudio*%
X175130000Y-114210000D03*
D11*
%TO.P,RV1,2,2_2*%
%TO.N,Net-(Q1-E)*%
X175130000Y-116750000D03*
%TO.P,RV1,3,3_3*%
%TO.N,unconnected-(RV1-Pad3)*%
X175130000Y-119290000D03*
%TD*%
D12*
%TO.P,Q1,1,E_1*%
%TO.N,Net-(Q1-E)*%
X160750000Y-93500000D03*
D13*
%TO.P,Q1,2,B_2*%
%TO.N,/PWM*%
X160750000Y-92230000D03*
%TO.P,Q1,3,C_3*%
%TO.N,+3V3*%
X160750000Y-90960000D03*
%TD*%
D14*
%TO.P,SW3,*%
%TO.N,*%
X157050000Y-120750000D03*
X165250000Y-120750000D03*
D15*
%TO.P,SW3,1,A_1*%
%TO.N,GND*%
X159150000Y-120750000D03*
D16*
%TO.P,SW3,2,B_2*%
%TO.N,Net-(SW3-B)*%
X161150000Y-120750000D03*
%TO.P,SW3,3,C_3*%
%TO.N,unconnected-(SW3-C-Pad3)*%
X163150000Y-120750000D03*
%TD*%
D17*
%TO.P,Q2,1,S_1*%
%TO.N,GND*%
X159210000Y-101250000D03*
D18*
%TO.P,Q2,2,G_2*%
%TO.N,/Radio Controll*%
X160480000Y-101250000D03*
%TO.P,Q2,3,D_3*%
%TO.N,Net-(Q2-D)*%
X161750000Y-101250000D03*
%TD*%
D19*
%TO.P,SW1,A,A_A*%
%TO.N,/Rot A*%
X170000000Y-92550000D03*
D20*
%TO.P,SW1,B,B_B*%
%TO.N,/Rot B*%
X175000000Y-92550000D03*
%TO.P,SW1,C,C_C*%
%TO.N,GND*%
X172500000Y-92550000D03*
D21*
%TO.P,SW1,MP,MP_MP*%
X166900000Y-85050000D03*
X178100000Y-85050000D03*
D20*
%TO.P,SW1,S1,S1_S1*%
%TO.N,/Rot SW*%
X175000000Y-78050000D03*
%TO.P,SW1,S2,S2_S2*%
%TO.N,GND*%
X170000000Y-78050000D03*
%TD*%
D22*
%TO.P,BZ1,1,+_1*%
%TO.N,Net-(BZ1-+)*%
X154750000Y-109750000D03*
%TO.P,BZ1,2,-_2*%
%TO.N,GND*%
X158750000Y-109750000D03*
X161250000Y-109750000D03*
%TD*%
D23*
%TO.P,SSD1,1,GND_1*%
%TO.N,/ssd1306_P1*%
X147500000Y-79500000D03*
D20*
%TO.P,SSD1,2,VCC_2*%
%TO.N,/ssd1306_P2*%
X150000000Y-79500000D03*
%TO.P,SSD1,3,SCL_3*%
%TO.N,Net-(SSD1-SCL)*%
X152500000Y-79500000D03*
%TO.P,SSD1,4,SDA_4*%
%TO.N,Net-(SSD1-SDA)*%
X155000000Y-79500000D03*
%TD*%
D24*
%TO.P,J2,G*%
%TO.N,GND*%
X177700000Y-104000000D03*
D25*
%TO.P,J2,S1*%
%TO.N,/AAudio*%
X169400000Y-109000000D03*
D26*
%TO.P,J2,SN1*%
%TO.N,Net-(BZ1-+)*%
X171100000Y-106500000D03*
%TO.P,J2,T1*%
%TO.N,/AAudio*%
X174200000Y-99500000D03*
D27*
%TO.P,J2,TN1*%
%TO.N,Net-(BZ1-+)*%
X166600000Y-99800000D03*
%TD*%
D28*
%TO.P,TP1,1,1_1*%
%TO.N,Net-(U1-D7)*%
X147350000Y-89650000D03*
%TD*%
D29*
%TO.P,JP3,1,A_1*%
%TO.N,+3V3*%
X169725000Y-113000000D03*
D30*
%TO.P,JP3,2,B_2*%
%TO.N,/ssd1306_P2*%
X168275000Y-113000000D03*
%TD*%
D28*
%TO.P,TP2,1,1_1*%
%TO.N,Net-(U1-D6)*%
X147350000Y-93100000D03*
%TD*%
D31*
%TO.P,J1,1,Pin_1_1*%
%TO.N,Net-(J1-Pin_1)*%
X162750000Y-82250000D03*
D32*
%TO.P,J1,2,Pin_2_2*%
%TO.N,Net-(J1-Pin_2)*%
X161500000Y-82250000D03*
%TD*%
D29*
%TO.P,JP2,1,A_1*%
%TO.N,GND*%
X163725000Y-116000000D03*
D30*
%TO.P,JP2,2,B_2*%
%TO.N,/ssd1306_P1*%
X162275000Y-116000000D03*
%TD*%
D29*
%TO.P,JP1,1,A_1*%
%TO.N,+3V3*%
X163725000Y-113000000D03*
D30*
%TO.P,JP1,2,B_2*%
%TO.N,/ssd1306_P1*%
X162275000Y-113000000D03*
%TD*%
D29*
%TO.P,JP4,1,A_1*%
%TO.N,GND*%
X169725000Y-116000000D03*
D30*
%TO.P,JP4,2,B_2*%
%TO.N,/ssd1306_P2*%
X168275000Y-116000000D03*
%TD*%
D33*
%TO.N,*%
X156100000Y-88550000D03*
%TO.N,+3V3*%
X164300000Y-98800000D03*
%TO.N,GND*%
X145250000Y-104550000D03*
X155750000Y-94000000D03*
X153750000Y-86900000D03*
X140100000Y-108200000D03*
X136700000Y-88100000D03*
X170750000Y-115850000D03*
X146000000Y-101750000D03*
%TO.N,Net-(SW3-B)*%
X140150000Y-94850000D03*
%TO.N,/Radio Controll*%
X148792444Y-85982420D03*
X160000000Y-96750000D03*
%TO.N,/Dah*%
X142200000Y-106000000D03*
X142400000Y-102800000D03*
%TO.N,/Rot A*%
X150935577Y-97707500D03*
X163750000Y-94000000D03*
%TO.N,/Rot B*%
X151800000Y-85900000D03*
%TO.N,/Rot SW*%
X146500000Y-85250000D03*
%TO.N,Net-(U1-D6)*%
X154050000Y-96750000D03*
%TO.N,Net-(U1-D7)*%
X148800000Y-88100000D03*
%TO.N,Net-(J1-Pin_1)*%
X153500000Y-92500000D03*
%TO.N,Net-(J1-Pin_2)*%
X153500000Y-90500000D03*
%TD*%
%TO.N,Net-(Q1-E)*%
D34*
X173950000Y-115570000D02*
X175130000Y-116750000D01*
X164400000Y-93400000D02*
X173950000Y-102950000D01*
X160850000Y-93400000D02*
X164400000Y-93400000D01*
X173950000Y-102950000D02*
X173950000Y-115570000D01*
X160750000Y-93500000D02*
X160850000Y-93400000D01*
%TO.N,+3V3*%
X164300000Y-106950000D02*
X169725000Y-112375000D01*
X171650000Y-117500000D02*
X171650000Y-114925000D01*
X171650000Y-114925000D02*
X169725000Y-113000000D01*
X169725000Y-112375000D02*
X169725000Y-113000000D01*
X170800000Y-118350000D02*
X171650000Y-117500000D01*
X163725000Y-114075000D02*
X168000000Y-118350000D01*
X164300000Y-98800000D02*
X164300000Y-106950000D01*
X163725000Y-113000000D02*
X163725000Y-114075000D01*
X168000000Y-118350000D02*
X170800000Y-118350000D01*
%TO.N,Net-(SW3-B)*%
X154500000Y-118050000D02*
X159050000Y-118050000D01*
X161150000Y-120150000D02*
X161150000Y-120750000D01*
X145952944Y-109552944D02*
X146002944Y-109552944D01*
X146002944Y-109552944D02*
X154500000Y-118050000D01*
X159050000Y-118050000D02*
X161150000Y-120150000D01*
X140150000Y-94850000D02*
X140150000Y-98350000D01*
X144250000Y-102450000D02*
X144250000Y-107850000D01*
X144250000Y-107850000D02*
X145952944Y-109552944D01*
X140150000Y-98350000D02*
X144250000Y-102450000D01*
%TO.N,/Radio Controll*%
X156500000Y-93250000D02*
X160000000Y-96750000D01*
X150900000Y-91000000D02*
X153150000Y-93250000D01*
X150900000Y-88089976D02*
X150900000Y-91000000D01*
X153150000Y-93250000D02*
X156500000Y-93250000D01*
X148792444Y-85982420D02*
X150900000Y-88089976D01*
%TO.N,/Dah*%
X142200000Y-106000000D02*
X142400000Y-105800000D01*
X142400000Y-105800000D02*
X142400000Y-102800000D01*
%TO.N,/Rot A*%
X150935577Y-97707500D02*
X159891029Y-97707500D01*
X163598529Y-94000000D02*
X163750000Y-94000000D01*
X159891029Y-97707500D02*
X163598529Y-94000000D01*
%TO.N,/Rot B*%
X166350000Y-81300000D02*
X158065686Y-81300000D01*
X158065686Y-81300000D02*
X153465686Y-85900000D01*
X175000000Y-92550000D02*
X175000000Y-89950000D01*
X153465686Y-85900000D02*
X151800000Y-85900000D01*
X175000000Y-89950000D02*
X166350000Y-81300000D01*
%TO.N,/Rot SW*%
X146500000Y-85250000D02*
X153550000Y-85250000D01*
X153550000Y-85250000D02*
X158600000Y-80200000D01*
X158600000Y-80200000D02*
X172850000Y-80200000D01*
X172850000Y-80200000D02*
X175000000Y-78050000D01*
%TO.N,/ssd1306_P1*%
X141900000Y-94750000D02*
X141900000Y-85100000D01*
X162275000Y-113000000D02*
X162275000Y-116000000D01*
X160150000Y-113000000D02*
X141900000Y-94750000D01*
X162275000Y-113000000D02*
X160150000Y-113000000D01*
X141900000Y-85100000D02*
X147500000Y-79500000D01*
%TO.N,/ssd1306_P2*%
X168275000Y-113000000D02*
X162390685Y-107115685D01*
X144400000Y-85100000D02*
X150000000Y-79500000D01*
X162390685Y-107115685D02*
X157515685Y-107115685D01*
X157515685Y-107115685D02*
X144400000Y-94000000D01*
X144400000Y-94000000D02*
X144400000Y-85100000D01*
X168275000Y-113000000D02*
X168275000Y-116000000D01*
%TO.N,Net-(U1-D6)*%
X151450000Y-94150000D02*
X148350000Y-94150000D01*
X154050000Y-96750000D02*
X151450000Y-94150000D01*
X148350000Y-94150000D02*
X147350000Y-93150000D01*
%TO.N,Net-(U1-D7)*%
X147350000Y-89550000D02*
X147350000Y-89650000D01*
X148800000Y-88100000D02*
X147350000Y-89550000D01*
%TO.N,Net-(J1-Pin_1)*%
X153500000Y-92500000D02*
X155950000Y-92500000D01*
X158700000Y-89750000D02*
X158700000Y-87900000D01*
X162750000Y-83850000D02*
X162750000Y-82250000D01*
X158700000Y-87900000D02*
X162750000Y-83850000D01*
X155950000Y-92500000D02*
X158700000Y-89750000D01*
%TO.N,Net-(J1-Pin_2)*%
X157800000Y-86700000D02*
X161500000Y-83000000D01*
X153500000Y-90500000D02*
X156350000Y-90500000D01*
X161500000Y-83000000D02*
X161500000Y-82250000D01*
X156350000Y-90500000D02*
X157800000Y-89050000D01*
X157800000Y-89050000D02*
X157800000Y-86700000D01*
%TD*%
%TA.AperFunction,Conductor*%
%TO.N,GND*%
G36*
X173945150Y-76770185D02*
G01*
X173990905Y-76822989D01*
X174000849Y-76892147D01*
X173971824Y-76955703D01*
X173965792Y-76962181D01*
X173855485Y-77072487D01*
X173855485Y-77072488D01*
X173855483Y-77072490D01*
X173827186Y-77111438D01*
X173716657Y-77263566D01*
X173609433Y-77474003D01*
X173536446Y-77698631D01*
X173499500Y-77931902D01*
X173499500Y-78168097D01*
X173536447Y-78401369D01*
X173536447Y-78401372D01*
X173577450Y-78527564D01*
X173579445Y-78597405D01*
X173547200Y-78653563D01*
X172637584Y-79563181D01*
X172576261Y-79596666D01*
X172549903Y-79599500D01*
X158520940Y-79599500D01*
X158480019Y-79610464D01*
X158480019Y-79610465D01*
X158442751Y-79620451D01*
X158368214Y-79640423D01*
X158368209Y-79640426D01*
X158231290Y-79719475D01*
X158231282Y-79719481D01*
X158119478Y-79831286D01*
X153337584Y-84613181D01*
X153276261Y-84646666D01*
X153249903Y-84649500D01*
X147079766Y-84649500D01*
X147012727Y-84629815D01*
X147010875Y-84628602D01*
X146879185Y-84540609D01*
X146879172Y-84540602D01*
X146733501Y-84480264D01*
X146733489Y-84480261D01*
X146578845Y-84449500D01*
X146578842Y-84449500D01*
X146421158Y-84449500D01*
X146421155Y-84449500D01*
X146266510Y-84480261D01*
X146266507Y-84480262D01*
X146266506Y-84480262D01*
X146266503Y-84480263D01*
X146176757Y-84517436D01*
X146163811Y-84522799D01*
X146094341Y-84530267D01*
X146031862Y-84498991D01*
X145996210Y-84438902D01*
X145998705Y-84369077D01*
X146028676Y-84320558D01*
X149396437Y-80952796D01*
X149457758Y-80919313D01*
X149522433Y-80922547D01*
X149648632Y-80963553D01*
X149736110Y-80977408D01*
X149881903Y-81000500D01*
X149881908Y-81000500D01*
X150118097Y-81000500D01*
X150351368Y-80963553D01*
X150390439Y-80950858D01*
X150575992Y-80890568D01*
X150786433Y-80783343D01*
X150977510Y-80644517D01*
X151144517Y-80477510D01*
X151149682Y-80470401D01*
X151205012Y-80427735D01*
X151274625Y-80421756D01*
X151336420Y-80454362D01*
X151350318Y-80470401D01*
X151355483Y-80477510D01*
X151522490Y-80644517D01*
X151713567Y-80783343D01*
X151747860Y-80800816D01*
X151924003Y-80890566D01*
X151924005Y-80890566D01*
X151924008Y-80890568D01*
X152012476Y-80919313D01*
X152148631Y-80963553D01*
X152381903Y-81000500D01*
X152381908Y-81000500D01*
X152618097Y-81000500D01*
X152851368Y-80963553D01*
X152890439Y-80950858D01*
X153075992Y-80890568D01*
X153286433Y-80783343D01*
X153477510Y-80644517D01*
X153644517Y-80477510D01*
X153649682Y-80470401D01*
X153705012Y-80427735D01*
X153774625Y-80421756D01*
X153836420Y-80454362D01*
X153850318Y-80470401D01*
X153855483Y-80477510D01*
X154022490Y-80644517D01*
X154213567Y-80783343D01*
X154247860Y-80800816D01*
X154424003Y-80890566D01*
X154424005Y-80890566D01*
X154424008Y-80890568D01*
X154512476Y-80919313D01*
X154648631Y-80963553D01*
X154881903Y-81000500D01*
X154881908Y-81000500D01*
X155118097Y-81000500D01*
X155351368Y-80963553D01*
X155390439Y-80950858D01*
X155575992Y-80890568D01*
X155786433Y-80783343D01*
X155977510Y-80644517D01*
X156144517Y-80477510D01*
X156283343Y-80286433D01*
X156390568Y-80075992D01*
X156463553Y-79851368D01*
X156496963Y-79640426D01*
X156500500Y-79618097D01*
X156500500Y-79381902D01*
X156463553Y-79148631D01*
X156390566Y-78924003D01*
X156283342Y-78713566D01*
X156273479Y-78699991D01*
X156144517Y-78522490D01*
X155977510Y-78355483D01*
X155786433Y-78216657D01*
X155575996Y-78109433D01*
X155351368Y-78036446D01*
X155118097Y-77999500D01*
X155118092Y-77999500D01*
X154881908Y-77999500D01*
X154881903Y-77999500D01*
X154648631Y-78036446D01*
X154424003Y-78109433D01*
X154213566Y-78216657D01*
X154167674Y-78250000D01*
X154022490Y-78355483D01*
X154022488Y-78355485D01*
X154022487Y-78355485D01*
X153855482Y-78522490D01*
X153850315Y-78529603D01*
X153794983Y-78572266D01*
X153725370Y-78578242D01*
X153663576Y-78545634D01*
X153649685Y-78529603D01*
X153644517Y-78522490D01*
X153477512Y-78355485D01*
X153477510Y-78355483D01*
X153286433Y-78216657D01*
X153075996Y-78109433D01*
X152851368Y-78036446D01*
X152618097Y-77999500D01*
X152618092Y-77999500D01*
X152381908Y-77999500D01*
X152381903Y-77999500D01*
X152148631Y-78036446D01*
X151924003Y-78109433D01*
X151713566Y-78216657D01*
X151667674Y-78250000D01*
X151522490Y-78355483D01*
X151522488Y-78355485D01*
X151522487Y-78355485D01*
X151355482Y-78522490D01*
X151350315Y-78529603D01*
X151294983Y-78572266D01*
X151225370Y-78578242D01*
X151163576Y-78545634D01*
X151149685Y-78529603D01*
X151144517Y-78522490D01*
X150977512Y-78355485D01*
X150977510Y-78355483D01*
X150786433Y-78216657D01*
X150575996Y-78109433D01*
X150351368Y-78036446D01*
X150118097Y-77999500D01*
X150118092Y-77999500D01*
X149881908Y-77999500D01*
X149881903Y-77999500D01*
X149648631Y-78036446D01*
X149424003Y-78109433D01*
X149213563Y-78216659D01*
X149038130Y-78344119D01*
X148972324Y-78367599D01*
X148904270Y-78351774D01*
X148859707Y-78308898D01*
X148842712Y-78281344D01*
X148718656Y-78157288D01*
X148569334Y-78065186D01*
X148402797Y-78010001D01*
X148402795Y-78010000D01*
X148300010Y-77999500D01*
X146699998Y-77999500D01*
X146699981Y-77999501D01*
X146597203Y-78010000D01*
X146597200Y-78010001D01*
X146430668Y-78065185D01*
X146430663Y-78065187D01*
X146281342Y-78157289D01*
X146157289Y-78281342D01*
X146065187Y-78430663D01*
X146065185Y-78430668D01*
X146037349Y-78514670D01*
X146010001Y-78597203D01*
X146010001Y-78597204D01*
X146010000Y-78597204D01*
X145999500Y-78699983D01*
X145999500Y-80099902D01*
X145979815Y-80166941D01*
X145963181Y-80187583D01*
X141419481Y-84731282D01*
X141419477Y-84731287D01*
X141408572Y-84750177D01*
X141397428Y-84769480D01*
X141340423Y-84868215D01*
X141299499Y-85020943D01*
X141299499Y-85020945D01*
X141299499Y-85189046D01*
X141299500Y-85189059D01*
X141299500Y-94663330D01*
X141299499Y-94663348D01*
X141299499Y-94829054D01*
X141299498Y-94829054D01*
X141340423Y-94981785D01*
X141369358Y-95031900D01*
X141369359Y-95031904D01*
X141369360Y-95031904D01*
X141419479Y-95118714D01*
X141419481Y-95118717D01*
X141538349Y-95237585D01*
X141538355Y-95237590D01*
X154703583Y-108402819D01*
X154737068Y-108464142D01*
X154732084Y-108533834D01*
X154690212Y-108589767D01*
X154624748Y-108614184D01*
X154615902Y-108614500D01*
X154249645Y-108614500D01*
X154180033Y-108620825D01*
X154180022Y-108620828D01*
X154019824Y-108670747D01*
X154019820Y-108670749D01*
X153876222Y-108757556D01*
X153876217Y-108757560D01*
X153757560Y-108876217D01*
X153757556Y-108876222D01*
X153670750Y-109019819D01*
X153620826Y-109180032D01*
X153614500Y-109249655D01*
X153614500Y-110250354D01*
X153620825Y-110319966D01*
X153620828Y-110319977D01*
X153670747Y-110480175D01*
X153670749Y-110480179D01*
X153757556Y-110623777D01*
X153757560Y-110623782D01*
X153876217Y-110742439D01*
X153876222Y-110742443D01*
X153996815Y-110815343D01*
X154019822Y-110829251D01*
X154180029Y-110879173D01*
X154249653Y-110885500D01*
X155250346Y-110885499D01*
X155250353Y-110885499D01*
X155319966Y-110879174D01*
X155319969Y-110879173D01*
X155319971Y-110879173D01*
X155480178Y-110829251D01*
X155554089Y-110784570D01*
X155623777Y-110742443D01*
X155623778Y-110742441D01*
X155623783Y-110742439D01*
X155742439Y-110623783D01*
X155829251Y-110480178D01*
X155879173Y-110319971D01*
X155885500Y-110250347D01*
X155885499Y-109884095D01*
X155905183Y-109817058D01*
X155957987Y-109771303D01*
X156027146Y-109761359D01*
X156090701Y-109790384D01*
X156097180Y-109796416D01*
X159781284Y-113480520D01*
X159781286Y-113480521D01*
X159781290Y-113480524D01*
X159918209Y-113559573D01*
X159918216Y-113559577D01*
X160070943Y-113600501D01*
X160070945Y-113600501D01*
X160236654Y-113600501D01*
X160236670Y-113600500D01*
X161145500Y-113600500D01*
X161212539Y-113620185D01*
X161258294Y-113672989D01*
X161269500Y-113724500D01*
X161269500Y-113750002D01*
X161274644Y-113821940D01*
X161315182Y-113959994D01*
X161392967Y-114081030D01*
X161392971Y-114081034D01*
X161497611Y-114171706D01*
X161501706Y-114175254D01*
X161501710Y-114175256D01*
X161501712Y-114175257D01*
X161602011Y-114221062D01*
X161654815Y-114266816D01*
X161674500Y-114333856D01*
X161674500Y-114665206D01*
X161654815Y-114732245D01*
X161602011Y-114778000D01*
X161585437Y-114784182D01*
X161565010Y-114790180D01*
X161565005Y-114790182D01*
X161443969Y-114867967D01*
X161443965Y-114867971D01*
X161349750Y-114976700D01*
X161349744Y-114976709D01*
X161289976Y-115107580D01*
X161289975Y-115107585D01*
X161269500Y-115249999D01*
X161269500Y-116750002D01*
X161274644Y-116821940D01*
X161315182Y-116959994D01*
X161392967Y-117081030D01*
X161392971Y-117081034D01*
X161501700Y-117175249D01*
X161501706Y-117175254D01*
X161542174Y-117193735D01*
X161632580Y-117235023D01*
X161632583Y-117235023D01*
X161632584Y-117235024D01*
X161775000Y-117255500D01*
X161775003Y-117255500D01*
X162924998Y-117255500D01*
X162925000Y-117255500D01*
X162925002Y-117255499D01*
X162925021Y-117255499D01*
X163005330Y-117249076D01*
X163005332Y-117249075D01*
X163005338Y-117249075D01*
X163142689Y-117206226D01*
X163262405Y-117126415D01*
X163354786Y-117016110D01*
X163412348Y-116884246D01*
X163418581Y-116835037D01*
X163430429Y-116741509D01*
X163430429Y-116741506D01*
X163407562Y-116599454D01*
X163345601Y-116469599D01*
X163078389Y-116068782D01*
X163057582Y-116002084D01*
X163076137Y-115934723D01*
X163078390Y-115931217D01*
X163148618Y-115825875D01*
X163345601Y-115530401D01*
X163384819Y-115459992D01*
X163425355Y-115321940D01*
X163425355Y-115178060D01*
X163384819Y-115040008D01*
X163307031Y-114918968D01*
X163282236Y-114897483D01*
X163198299Y-114824750D01*
X163198297Y-114824748D01*
X163198294Y-114824746D01*
X163198290Y-114824744D01*
X163067419Y-114764976D01*
X163067415Y-114764975D01*
X162981853Y-114752674D01*
X162918297Y-114723649D01*
X162880523Y-114664871D01*
X162875500Y-114629936D01*
X162875500Y-114373938D01*
X162895185Y-114306899D01*
X162947989Y-114261144D01*
X162989616Y-114250333D01*
X163005326Y-114249076D01*
X163005326Y-114249075D01*
X163005338Y-114249075D01*
X163018044Y-114245110D01*
X163087899Y-114243934D01*
X163147306Y-114280713D01*
X163162360Y-114301481D01*
X163175649Y-114324498D01*
X163175651Y-114324500D01*
X163244477Y-114443712D01*
X163244481Y-114443717D01*
X163363349Y-114562585D01*
X163363355Y-114562590D01*
X167515139Y-118714374D01*
X167515149Y-118714385D01*
X167519479Y-118718715D01*
X167519480Y-118718716D01*
X167631284Y-118830520D01*
X167704736Y-118872927D01*
X167704737Y-118872928D01*
X167768209Y-118909574D01*
X167768212Y-118909576D01*
X167768214Y-118909576D01*
X167768215Y-118909577D01*
X167920943Y-118950501D01*
X167920946Y-118950501D01*
X168086653Y-118950501D01*
X168086669Y-118950500D01*
X170713331Y-118950500D01*
X170713347Y-118950501D01*
X170720943Y-118950501D01*
X170879054Y-118950501D01*
X170879057Y-118950501D01*
X171031785Y-118909577D01*
X171095264Y-118872927D01*
X171168716Y-118830520D01*
X171280520Y-118718716D01*
X171280520Y-118718714D01*
X171290724Y-118708511D01*
X171290727Y-118708506D01*
X172130520Y-117868716D01*
X172209577Y-117731784D01*
X172250501Y-117579057D01*
X172250501Y-117420942D01*
X172250501Y-117413347D01*
X172250500Y-117413329D01*
X172250500Y-114845945D01*
X172250500Y-114845943D01*
X172224697Y-114749645D01*
X172209577Y-114693215D01*
X172209575Y-114693212D01*
X172209575Y-114693210D01*
X172209574Y-114693209D01*
X172175723Y-114634578D01*
X172175721Y-114634576D01*
X172173042Y-114629936D01*
X172130520Y-114556284D01*
X172018716Y-114444480D01*
X172018715Y-114444479D01*
X172014385Y-114440149D01*
X172014374Y-114440139D01*
X170766819Y-113192584D01*
X170733334Y-113131261D01*
X170730500Y-113104903D01*
X170730500Y-112250000D01*
X170730500Y-112249999D01*
X170725355Y-112178060D01*
X170684819Y-112040008D01*
X170607031Y-111918968D01*
X170548173Y-111867967D01*
X170498299Y-111824750D01*
X170498297Y-111824748D01*
X170498294Y-111824746D01*
X170498290Y-111824744D01*
X170367419Y-111764976D01*
X170367414Y-111764975D01*
X170225000Y-111744500D01*
X169995098Y-111744500D01*
X169928059Y-111724815D01*
X169907417Y-111708181D01*
X168661417Y-110462181D01*
X168627932Y-110400858D01*
X168632916Y-110331166D01*
X168674788Y-110275233D01*
X168740252Y-110250816D01*
X168749098Y-110250500D01*
X170248422Y-110250500D01*
X170442826Y-110219709D01*
X170630025Y-110158884D01*
X170805405Y-110069524D01*
X170964646Y-109953828D01*
X171103828Y-109814646D01*
X171219524Y-109655405D01*
X171308884Y-109480025D01*
X171369709Y-109292826D01*
X171376547Y-109249653D01*
X171400500Y-109098422D01*
X171400500Y-108901577D01*
X171369709Y-108707173D01*
X171308882Y-108519970D01*
X171263445Y-108430795D01*
X171250549Y-108362125D01*
X171276826Y-108297385D01*
X171333932Y-108257128D01*
X171373930Y-108250500D01*
X171714727Y-108250500D01*
X171714734Y-108250500D01*
X171942238Y-108220548D01*
X172163887Y-108161158D01*
X172375888Y-108073344D01*
X172574612Y-107958611D01*
X172756661Y-107818919D01*
X172756665Y-107818914D01*
X172756670Y-107818911D01*
X172918911Y-107656670D01*
X172918914Y-107656665D01*
X172918919Y-107656661D01*
X173058611Y-107474612D01*
X173118114Y-107371548D01*
X173168680Y-107323335D01*
X173237287Y-107310111D01*
X173302152Y-107336079D01*
X173342680Y-107392993D01*
X173349500Y-107433550D01*
X173349500Y-115483330D01*
X173349499Y-115483348D01*
X173349499Y-115649054D01*
X173349498Y-115649054D01*
X173390423Y-115801785D01*
X173404331Y-115825874D01*
X173404330Y-115825874D01*
X173404331Y-115825875D01*
X173469475Y-115938709D01*
X173469481Y-115938717D01*
X173588349Y-116057585D01*
X173588355Y-116057590D01*
X174024817Y-116494052D01*
X174058302Y-116555375D01*
X174059609Y-116601130D01*
X174049500Y-116664957D01*
X174049500Y-116835036D01*
X174076106Y-117003019D01*
X174128658Y-117164761D01*
X174128660Y-117164764D01*
X174128661Y-117164768D01*
X174205874Y-117316305D01*
X174305841Y-117453898D01*
X174426102Y-117574159D01*
X174563695Y-117674126D01*
X174715232Y-117751339D01*
X174876982Y-117803894D01*
X175044963Y-117830500D01*
X175044964Y-117830500D01*
X175215036Y-117830500D01*
X175215037Y-117830500D01*
X175383018Y-117803894D01*
X175544768Y-117751339D01*
X175696305Y-117674126D01*
X175833898Y-117574159D01*
X175954159Y-117453898D01*
X176054126Y-117316305D01*
X176131339Y-117164768D01*
X176183894Y-117003018D01*
X176210500Y-116835037D01*
X176210500Y-116664963D01*
X176183894Y-116496982D01*
X176131339Y-116335232D01*
X176054126Y-116183695D01*
X175954159Y-116046102D01*
X175833898Y-115925841D01*
X175696305Y-115825874D01*
X175544768Y-115748661D01*
X175544764Y-115748660D01*
X175544761Y-115748658D01*
X175383019Y-115696106D01*
X175299027Y-115682803D01*
X175215037Y-115669500D01*
X175044963Y-115669500D01*
X175044957Y-115669500D01*
X174981130Y-115679609D01*
X174911837Y-115670654D01*
X174874052Y-115644817D01*
X174731415Y-115502180D01*
X174697930Y-115440857D01*
X174702914Y-115371165D01*
X174744786Y-115315232D01*
X174810250Y-115290815D01*
X174819096Y-115290499D01*
X175757871Y-115290499D01*
X175757872Y-115290499D01*
X175817483Y-115284091D01*
X175952331Y-115233796D01*
X176067546Y-115147546D01*
X176153796Y-115032331D01*
X176204091Y-114897483D01*
X176210500Y-114837873D01*
X176210499Y-113582128D01*
X176204091Y-113522517D01*
X176188426Y-113480518D01*
X176153797Y-113387671D01*
X176153793Y-113387664D01*
X176067547Y-113272455D01*
X176067544Y-113272452D01*
X175952335Y-113186206D01*
X175952328Y-113186202D01*
X175817482Y-113135908D01*
X175817483Y-113135908D01*
X175757883Y-113129501D01*
X175757881Y-113129500D01*
X175757873Y-113129500D01*
X175757865Y-113129500D01*
X174674500Y-113129500D01*
X174607461Y-113109815D01*
X174561706Y-113057011D01*
X174550500Y-113005500D01*
X174550500Y-103039060D01*
X174550501Y-103039047D01*
X174550501Y-102870944D01*
X174550501Y-102870943D01*
X174509577Y-102718216D01*
X174477361Y-102662416D01*
X174430524Y-102581290D01*
X174430518Y-102581282D01*
X173284422Y-101435186D01*
X173250937Y-101373863D01*
X173255921Y-101304171D01*
X173297793Y-101248238D01*
X173363257Y-101223821D01*
X173388278Y-101224565D01*
X173585266Y-101250500D01*
X173585273Y-101250500D01*
X174814727Y-101250500D01*
X174814734Y-101250500D01*
X175042238Y-101220548D01*
X175263887Y-101161158D01*
X175475888Y-101073344D01*
X175674612Y-100958611D01*
X175856661Y-100818919D01*
X175856665Y-100818914D01*
X175856670Y-100818911D01*
X176018911Y-100656670D01*
X176018914Y-100656665D01*
X176018919Y-100656661D01*
X176158611Y-100474612D01*
X176273344Y-100275888D01*
X176361158Y-100063887D01*
X176420548Y-99842238D01*
X176450500Y-99614734D01*
X176450500Y-99385266D01*
X176420548Y-99157762D01*
X176361158Y-98936113D01*
X176273344Y-98724112D01*
X176158611Y-98525388D01*
X176158608Y-98525385D01*
X176158607Y-98525382D01*
X176018918Y-98343338D01*
X176018911Y-98343330D01*
X175856670Y-98181089D01*
X175856661Y-98181081D01*
X175674617Y-98041392D01*
X175475890Y-97926657D01*
X175475876Y-97926650D01*
X175263887Y-97838842D01*
X175042238Y-97779452D01*
X175004215Y-97774446D01*
X174814741Y-97749500D01*
X174814734Y-97749500D01*
X173585266Y-97749500D01*
X173585258Y-97749500D01*
X173368715Y-97778009D01*
X173357762Y-97779452D01*
X173264076Y-97804554D01*
X173136112Y-97838842D01*
X172924123Y-97926650D01*
X172924109Y-97926657D01*
X172725382Y-98041392D01*
X172543338Y-98181081D01*
X172381081Y-98343338D01*
X172241392Y-98525382D01*
X172126657Y-98724109D01*
X172126650Y-98724123D01*
X172038842Y-98936112D01*
X171979453Y-99157759D01*
X171979451Y-99157770D01*
X171949500Y-99385258D01*
X171949500Y-99614741D01*
X171975433Y-99811710D01*
X171964668Y-99880746D01*
X171918288Y-99933002D01*
X171851019Y-99951887D01*
X171784218Y-99931407D01*
X171764813Y-99915577D01*
X164887590Y-93038355D01*
X164887588Y-93038352D01*
X164768717Y-92919481D01*
X164768709Y-92919475D01*
X164678714Y-92867517D01*
X164678713Y-92867517D01*
X164631785Y-92840423D01*
X164479057Y-92799499D01*
X164320943Y-92799499D01*
X164313347Y-92799499D01*
X164313331Y-92799500D01*
X162053861Y-92799500D01*
X161986822Y-92779815D01*
X161949362Y-92739580D01*
X161949111Y-92739769D01*
X161947359Y-92737429D01*
X161945027Y-92734924D01*
X161943795Y-92732668D01*
X161942968Y-92731563D01*
X161942485Y-92730269D01*
X161939544Y-92724882D01*
X161940318Y-92724459D01*
X161918551Y-92666099D01*
X161927675Y-92609798D01*
X161961089Y-92529132D01*
X161961089Y-92529131D01*
X161961091Y-92529127D01*
X162000500Y-92331003D01*
X162000500Y-92128997D01*
X161961091Y-91930873D01*
X161883786Y-91744244D01*
X161830094Y-91663889D01*
X161824310Y-91645416D01*
X161813964Y-91629052D01*
X161814084Y-91612760D01*
X161809217Y-91597214D01*
X161814338Y-91578544D01*
X161814482Y-91559185D01*
X161826818Y-91533049D01*
X161827701Y-91529834D01*
X161829381Y-91527190D01*
X161829713Y-91526680D01*
X161846114Y-91502135D01*
X168499500Y-91502135D01*
X168499500Y-93597870D01*
X168499501Y-93597876D01*
X168505908Y-93657483D01*
X168556202Y-93792328D01*
X168556206Y-93792335D01*
X168642452Y-93907544D01*
X168642455Y-93907547D01*
X168757664Y-93993793D01*
X168757671Y-93993797D01*
X168892517Y-94044091D01*
X168892516Y-94044091D01*
X168899444Y-94044835D01*
X168952127Y-94050500D01*
X171047872Y-94050499D01*
X171107483Y-94044091D01*
X171242331Y-93993796D01*
X171357546Y-93907546D01*
X171443796Y-93792331D01*
X171494091Y-93657483D01*
X171500500Y-93597873D01*
X171500499Y-91502128D01*
X171494091Y-91442517D01*
X171480278Y-91405483D01*
X171443797Y-91307671D01*
X171443793Y-91307664D01*
X171357547Y-91192455D01*
X171357544Y-91192452D01*
X171242335Y-91106206D01*
X171242328Y-91106202D01*
X171107482Y-91055908D01*
X171107483Y-91055908D01*
X171047883Y-91049501D01*
X171047881Y-91049500D01*
X171047873Y-91049500D01*
X171047864Y-91049500D01*
X168952129Y-91049500D01*
X168952123Y-91049501D01*
X168892516Y-91055908D01*
X168757671Y-91106202D01*
X168757664Y-91106206D01*
X168642455Y-91192452D01*
X168642452Y-91192455D01*
X168556206Y-91307664D01*
X168556202Y-91307671D01*
X168505908Y-91442517D01*
X168501823Y-91480520D01*
X168499501Y-91502123D01*
X168499500Y-91502135D01*
X161846114Y-91502135D01*
X161883786Y-91445756D01*
X161961091Y-91259127D01*
X162000500Y-91061003D01*
X162000500Y-90858997D01*
X161961091Y-90660873D01*
X161883786Y-90474244D01*
X161883784Y-90474241D01*
X161883782Y-90474237D01*
X161771558Y-90306281D01*
X161628718Y-90163441D01*
X161460762Y-90051217D01*
X161460752Y-90051212D01*
X161274127Y-89973909D01*
X161274119Y-89973907D01*
X161076007Y-89934500D01*
X161076003Y-89934500D01*
X160423997Y-89934500D01*
X160423992Y-89934500D01*
X160225880Y-89973907D01*
X160225872Y-89973909D01*
X160039247Y-90051212D01*
X160039237Y-90051217D01*
X159871281Y-90163441D01*
X159728441Y-90306281D01*
X159616217Y-90474237D01*
X159616212Y-90474247D01*
X159538909Y-90660872D01*
X159538907Y-90660880D01*
X159499500Y-90858992D01*
X159499500Y-91061007D01*
X159538907Y-91259119D01*
X159538909Y-91259127D01*
X159616213Y-91445755D01*
X159669904Y-91526109D01*
X159690782Y-91592787D01*
X159672297Y-91660167D01*
X159669904Y-91663891D01*
X159616213Y-91744244D01*
X159538909Y-91930872D01*
X159538907Y-91930880D01*
X159499500Y-92128992D01*
X159499500Y-92331007D01*
X159538907Y-92529119D01*
X159538909Y-92529127D01*
X159572325Y-92609800D01*
X159579794Y-92679270D01*
X159560038Y-92724660D01*
X159560454Y-92724887D01*
X159557919Y-92729528D01*
X159557037Y-92731556D01*
X159556206Y-92732665D01*
X159556202Y-92732672D01*
X159505908Y-92867517D01*
X159499501Y-92927116D01*
X159499500Y-92927135D01*
X159499500Y-94072870D01*
X159499501Y-94072876D01*
X159505908Y-94132483D01*
X159556202Y-94267328D01*
X159556206Y-94267335D01*
X159642452Y-94382544D01*
X159642455Y-94382547D01*
X159757664Y-94468793D01*
X159757671Y-94468797D01*
X159892517Y-94519091D01*
X159892516Y-94519091D01*
X159899444Y-94519835D01*
X159952127Y-94525500D01*
X161547872Y-94525499D01*
X161607483Y-94519091D01*
X161742331Y-94468796D01*
X161857546Y-94382546D01*
X161943796Y-94267331D01*
X161994091Y-94132483D01*
X161996375Y-94111243D01*
X162023114Y-94046692D01*
X162080507Y-94006845D01*
X162119664Y-94000500D01*
X162449431Y-94000500D01*
X162516470Y-94020185D01*
X162562225Y-94072989D01*
X162572169Y-94142147D01*
X162543144Y-94205703D01*
X162537112Y-94212181D01*
X160648662Y-96100629D01*
X160587339Y-96134114D01*
X160517647Y-96129130D01*
X160492090Y-96116050D01*
X160379185Y-96040609D01*
X160379172Y-96040602D01*
X160233501Y-95980264D01*
X160233491Y-95980261D01*
X160078149Y-95949361D01*
X160016238Y-95916976D01*
X160014660Y-95915425D01*
X156987590Y-92888355D01*
X156987588Y-92888352D01*
X156868717Y-92769481D01*
X156868716Y-92769480D01*
X156793771Y-92726211D01*
X156745556Y-92675645D01*
X156732332Y-92607038D01*
X156758300Y-92542173D01*
X156768082Y-92531151D01*
X159058506Y-90240728D01*
X159058511Y-90240724D01*
X159068714Y-90230520D01*
X159068716Y-90230520D01*
X159180520Y-90118716D01*
X159232284Y-90029057D01*
X159259577Y-89981785D01*
X159300500Y-89829058D01*
X159300500Y-89670943D01*
X159300500Y-88200096D01*
X159320185Y-88133057D01*
X159336814Y-88112420D01*
X163118713Y-84330521D01*
X163118716Y-84330520D01*
X163230520Y-84218716D01*
X163280639Y-84131904D01*
X163309577Y-84081785D01*
X163350501Y-83929057D01*
X163350501Y-83770943D01*
X163350501Y-83763348D01*
X163350500Y-83763330D01*
X163350500Y-83341519D01*
X163370185Y-83274480D01*
X163386814Y-83253842D01*
X163505472Y-83135185D01*
X163593478Y-82989606D01*
X163644086Y-82827196D01*
X163650500Y-82756616D01*
X163650500Y-82024500D01*
X163670185Y-81957461D01*
X163722989Y-81911706D01*
X163774500Y-81900500D01*
X166049903Y-81900500D01*
X166116942Y-81920185D01*
X166137584Y-81936819D01*
X174363181Y-90162416D01*
X174396666Y-90223739D01*
X174399500Y-90250097D01*
X174399500Y-91095931D01*
X174379815Y-91162970D01*
X174331796Y-91206415D01*
X174213568Y-91266655D01*
X174079896Y-91363774D01*
X174022490Y-91405483D01*
X174022488Y-91405485D01*
X174022487Y-91405485D01*
X173855485Y-91572487D01*
X173855485Y-91572488D01*
X173855483Y-91572490D01*
X173837520Y-91597214D01*
X173716657Y-91763566D01*
X173609433Y-91974003D01*
X173536446Y-92198631D01*
X173499500Y-92431902D01*
X173499500Y-92668097D01*
X173536446Y-92901368D01*
X173609433Y-93125996D01*
X173716657Y-93336433D01*
X173855483Y-93527510D01*
X174022490Y-93694517D01*
X174213567Y-93833343D01*
X174285874Y-93870185D01*
X174424003Y-93940566D01*
X174424005Y-93940566D01*
X174424008Y-93940568D01*
X174544412Y-93979689D01*
X174648631Y-94013553D01*
X174881903Y-94050500D01*
X174881908Y-94050500D01*
X175118097Y-94050500D01*
X175351368Y-94013553D01*
X175372013Y-94006845D01*
X175575992Y-93940568D01*
X175786433Y-93833343D01*
X175977510Y-93694517D01*
X176144517Y-93527510D01*
X176283343Y-93336433D01*
X176390568Y-93125992D01*
X176463553Y-92901368D01*
X176466734Y-92881284D01*
X176500500Y-92668097D01*
X176500500Y-92431902D01*
X176463553Y-92198631D01*
X176390566Y-91974003D01*
X176334002Y-91862991D01*
X176283343Y-91763567D01*
X176144517Y-91572490D01*
X175977510Y-91405483D01*
X175833014Y-91300500D01*
X175786431Y-91266655D01*
X175668204Y-91206415D01*
X175617409Y-91158441D01*
X175600500Y-91095931D01*
X175600500Y-89870944D01*
X175600499Y-89870938D01*
X175597288Y-89858954D01*
X175594755Y-89849500D01*
X175559577Y-89718215D01*
X175530639Y-89668095D01*
X175480520Y-89581284D01*
X175368716Y-89469480D01*
X175368715Y-89469479D01*
X175364385Y-89465149D01*
X175364374Y-89465139D01*
X166911416Y-81012181D01*
X166877931Y-80950858D01*
X166882915Y-80881166D01*
X166924787Y-80825233D01*
X166990251Y-80800816D01*
X166999097Y-80800500D01*
X172763331Y-80800500D01*
X172763347Y-80800501D01*
X172770943Y-80800501D01*
X172929054Y-80800501D01*
X172929057Y-80800501D01*
X173081785Y-80759577D01*
X173131904Y-80730639D01*
X173218716Y-80680520D01*
X173330520Y-80568716D01*
X173330520Y-80568714D01*
X173340728Y-80558507D01*
X173340730Y-80558504D01*
X174396437Y-79502796D01*
X174457758Y-79469313D01*
X174522433Y-79472547D01*
X174648632Y-79513553D01*
X174736110Y-79527408D01*
X174881903Y-79550500D01*
X174881908Y-79550500D01*
X175118097Y-79550500D01*
X175351368Y-79513553D01*
X175384468Y-79502798D01*
X175575992Y-79440568D01*
X175786433Y-79333343D01*
X175977510Y-79194517D01*
X176144517Y-79027510D01*
X176283343Y-78836433D01*
X176390568Y-78625992D01*
X176463553Y-78401368D01*
X176500500Y-78168097D01*
X176500500Y-77931902D01*
X176463553Y-77698631D01*
X176429689Y-77594412D01*
X176390568Y-77474008D01*
X176390566Y-77474005D01*
X176390566Y-77474003D01*
X176283342Y-77263566D01*
X176282033Y-77261764D01*
X176144517Y-77072490D01*
X176034208Y-76962181D01*
X176000723Y-76900858D01*
X176005707Y-76831166D01*
X176047579Y-76775233D01*
X176113043Y-76750816D01*
X176121889Y-76750500D01*
X177934108Y-76750500D01*
X177995572Y-76750500D01*
X178004418Y-76750816D01*
X178204561Y-76765130D01*
X178222063Y-76767647D01*
X178413795Y-76809355D01*
X178430760Y-76814336D01*
X178614611Y-76882909D01*
X178630694Y-76890253D01*
X178802908Y-76984290D01*
X178817791Y-76993855D01*
X178974864Y-77111438D01*
X178988235Y-77123024D01*
X179126975Y-77261764D01*
X179138561Y-77275135D01*
X179256144Y-77432208D01*
X179265709Y-77447091D01*
X179359743Y-77619300D01*
X179367093Y-77635394D01*
X179435661Y-77819234D01*
X179440645Y-77836209D01*
X179482351Y-78027931D01*
X179484869Y-78045442D01*
X179499184Y-78245580D01*
X179499500Y-78254427D01*
X179499500Y-121995572D01*
X179499184Y-122004419D01*
X179484869Y-122204557D01*
X179482351Y-122222068D01*
X179440645Y-122413790D01*
X179435661Y-122430765D01*
X179367093Y-122614605D01*
X179359743Y-122630699D01*
X179265709Y-122802908D01*
X179256144Y-122817791D01*
X179138561Y-122974864D01*
X179126975Y-122988235D01*
X178988235Y-123126975D01*
X178974864Y-123138561D01*
X178817791Y-123256144D01*
X178802908Y-123265709D01*
X178630699Y-123359743D01*
X178614605Y-123367093D01*
X178430765Y-123435661D01*
X178413790Y-123440645D01*
X178222068Y-123482351D01*
X178204557Y-123484869D01*
X178023779Y-123497799D01*
X178004417Y-123499184D01*
X177995572Y-123499500D01*
X137504428Y-123499500D01*
X137495582Y-123499184D01*
X137473622Y-123497613D01*
X137295442Y-123484869D01*
X137277931Y-123482351D01*
X137086209Y-123440645D01*
X137069234Y-123435661D01*
X136885394Y-123367093D01*
X136869300Y-123359743D01*
X136697091Y-123265709D01*
X136682208Y-123256144D01*
X136525135Y-123138561D01*
X136511764Y-123126975D01*
X136373024Y-122988235D01*
X136361438Y-122974864D01*
X136243855Y-122817791D01*
X136234290Y-122802908D01*
X136140256Y-122630699D01*
X136132909Y-122614611D01*
X136064336Y-122430760D01*
X136059354Y-122413790D01*
X136058286Y-122408882D01*
X136017647Y-122222063D01*
X136015130Y-122204556D01*
X136005697Y-122072670D01*
X136000816Y-122004418D01*
X136000500Y-121995572D01*
X136000500Y-117613389D01*
X138399500Y-117613389D01*
X138399500Y-117786611D01*
X138426598Y-117957701D01*
X138480127Y-118122445D01*
X138558768Y-118276788D01*
X138660586Y-118416928D01*
X138783072Y-118539414D01*
X138923212Y-118641232D01*
X139077555Y-118719873D01*
X139242299Y-118773402D01*
X139413389Y-118800500D01*
X139413390Y-118800500D01*
X139586610Y-118800500D01*
X139586611Y-118800500D01*
X139757701Y-118773402D01*
X139922445Y-118719873D01*
X140076788Y-118641232D01*
X140216928Y-118539414D01*
X140339414Y-118416928D01*
X140441232Y-118276788D01*
X140519873Y-118122445D01*
X140573402Y-117957701D01*
X140600500Y-117786611D01*
X140600500Y-117613389D01*
X145399500Y-117613389D01*
X145399500Y-117786611D01*
X145426598Y-117957701D01*
X145480127Y-118122445D01*
X145558768Y-118276788D01*
X145660586Y-118416928D01*
X145783072Y-118539414D01*
X145923212Y-118641232D01*
X146077555Y-118719873D01*
X146242299Y-118773402D01*
X146413389Y-118800500D01*
X146413390Y-118800500D01*
X146586610Y-118800500D01*
X146586611Y-118800500D01*
X146757701Y-118773402D01*
X146922445Y-118719873D01*
X147076788Y-118641232D01*
X147216928Y-118539414D01*
X147339414Y-118416928D01*
X147441232Y-118276788D01*
X147519873Y-118122445D01*
X147573402Y-117957701D01*
X147600500Y-117786611D01*
X147600500Y-117613389D01*
X147573402Y-117442299D01*
X147519873Y-117277555D01*
X147441232Y-117123212D01*
X147339414Y-116983072D01*
X147216928Y-116860586D01*
X147076788Y-116758768D01*
X146922445Y-116680127D01*
X146757701Y-116626598D01*
X146757699Y-116626597D01*
X146757698Y-116626597D01*
X146596902Y-116601130D01*
X146586611Y-116599500D01*
X146413389Y-116599500D01*
X146403098Y-116601130D01*
X146242302Y-116626597D01*
X146077552Y-116680128D01*
X145923211Y-116758768D01*
X145843256Y-116816859D01*
X145783072Y-116860586D01*
X145783070Y-116860588D01*
X145783069Y-116860588D01*
X145660588Y-116983069D01*
X145660588Y-116983070D01*
X145660586Y-116983072D01*
X145616859Y-117043256D01*
X145558768Y-117123211D01*
X145480128Y-117277552D01*
X145426597Y-117442302D01*
X145406454Y-117569481D01*
X145399500Y-117613389D01*
X140600500Y-117613389D01*
X140573402Y-117442299D01*
X140519873Y-117277555D01*
X140441232Y-117123212D01*
X140339414Y-116983072D01*
X140216928Y-116860586D01*
X140076788Y-116758768D01*
X139922445Y-116680127D01*
X139757701Y-116626598D01*
X139757699Y-116626597D01*
X139757698Y-116626597D01*
X139596902Y-116601130D01*
X139586611Y-116599500D01*
X139413389Y-116599500D01*
X139403098Y-116601130D01*
X139242302Y-116626597D01*
X139077552Y-116680128D01*
X138923211Y-116758768D01*
X138843256Y-116816859D01*
X138783072Y-116860586D01*
X138783070Y-116860588D01*
X138783069Y-116860588D01*
X138660588Y-116983069D01*
X138660588Y-116983070D01*
X138660586Y-116983072D01*
X138616859Y-117043256D01*
X138558768Y-117123211D01*
X138480128Y-117277552D01*
X138426597Y-117442302D01*
X138406454Y-117569481D01*
X138399500Y-117613389D01*
X136000500Y-117613389D01*
X136000500Y-106413389D01*
X138399500Y-106413389D01*
X138399500Y-106586610D01*
X138426017Y-106754037D01*
X138426598Y-106757701D01*
X138480127Y-106922445D01*
X138558768Y-107076788D01*
X138660586Y-107216928D01*
X138783072Y-107339414D01*
X138923212Y-107441232D01*
X139077555Y-107519873D01*
X139242299Y-107573402D01*
X139413389Y-107600500D01*
X139413390Y-107600500D01*
X139586610Y-107600500D01*
X139586611Y-107600500D01*
X139757701Y-107573402D01*
X139922445Y-107519873D01*
X140076788Y-107441232D01*
X140216928Y-107339414D01*
X140339414Y-107216928D01*
X140441232Y-107076788D01*
X140519873Y-106922445D01*
X140573402Y-106757701D01*
X140600500Y-106586611D01*
X140600500Y-106413389D01*
X140573402Y-106242299D01*
X140519873Y-106077555D01*
X140441232Y-105923212D01*
X140339414Y-105783072D01*
X140216928Y-105660586D01*
X140076788Y-105558768D01*
X139922447Y-105480128D01*
X139922446Y-105480127D01*
X139922445Y-105480127D01*
X139757701Y-105426598D01*
X139757699Y-105426597D01*
X139757698Y-105426597D01*
X139626271Y-105405781D01*
X139586611Y-105399500D01*
X139413389Y-105399500D01*
X139373728Y-105405781D01*
X139242302Y-105426597D01*
X139077552Y-105480128D01*
X138923211Y-105558768D01*
X138843256Y-105616859D01*
X138783072Y-105660586D01*
X138783070Y-105660588D01*
X138783069Y-105660588D01*
X138660588Y-105783069D01*
X138660588Y-105783070D01*
X138660586Y-105783072D01*
X138616859Y-105843256D01*
X138558768Y-105923211D01*
X138480128Y-106077552D01*
X138426597Y-106242302D01*
X138399500Y-106413389D01*
X136000500Y-106413389D01*
X136000500Y-94771153D01*
X139349500Y-94771153D01*
X139349500Y-94928846D01*
X139380261Y-95083489D01*
X139380264Y-95083501D01*
X139440602Y-95229172D01*
X139440609Y-95229185D01*
X139528602Y-95360874D01*
X139549480Y-95427551D01*
X139549500Y-95429765D01*
X139549500Y-98263330D01*
X139549499Y-98263348D01*
X139549499Y-98429054D01*
X139549498Y-98429054D01*
X139590423Y-98581785D01*
X139606861Y-98610256D01*
X139606860Y-98610256D01*
X139606861Y-98610257D01*
X139669475Y-98718709D01*
X139669481Y-98718717D01*
X139788349Y-98837585D01*
X139788355Y-98837590D01*
X142785966Y-101835201D01*
X142819451Y-101896524D01*
X142814467Y-101966216D01*
X142772595Y-102022149D01*
X142707131Y-102046566D01*
X142650835Y-102037444D01*
X142633501Y-102030264D01*
X142633489Y-102030261D01*
X142478845Y-101999500D01*
X142478842Y-101999500D01*
X142321158Y-101999500D01*
X142321155Y-101999500D01*
X142166510Y-102030261D01*
X142166498Y-102030264D01*
X142020827Y-102090602D01*
X142020814Y-102090609D01*
X141889711Y-102178210D01*
X141889707Y-102178213D01*
X141778213Y-102289707D01*
X141778210Y-102289711D01*
X141690609Y-102420814D01*
X141690602Y-102420827D01*
X141630264Y-102566498D01*
X141630261Y-102566510D01*
X141599500Y-102721153D01*
X141599500Y-102878846D01*
X141630261Y-103033489D01*
X141630264Y-103033501D01*
X141690602Y-103179172D01*
X141690609Y-103179185D01*
X141778602Y-103310874D01*
X141799480Y-103377551D01*
X141799500Y-103379765D01*
X141799500Y-105238572D01*
X141779815Y-105305611D01*
X141744392Y-105341674D01*
X141689707Y-105378213D01*
X141578213Y-105489707D01*
X141578210Y-105489711D01*
X141490609Y-105620814D01*
X141490602Y-105620827D01*
X141430264Y-105766498D01*
X141430261Y-105766510D01*
X141399500Y-105921153D01*
X141399500Y-106078846D01*
X141430261Y-106233489D01*
X141430264Y-106233501D01*
X141490602Y-106379172D01*
X141490609Y-106379185D01*
X141578210Y-106510288D01*
X141578213Y-106510292D01*
X141689707Y-106621786D01*
X141689711Y-106621789D01*
X141820814Y-106709390D01*
X141820827Y-106709397D01*
X141937445Y-106757701D01*
X141966503Y-106769737D01*
X142121153Y-106800499D01*
X142121156Y-106800500D01*
X142121158Y-106800500D01*
X142278844Y-106800500D01*
X142278845Y-106800499D01*
X142433497Y-106769737D01*
X142579179Y-106709394D01*
X142710289Y-106621789D01*
X142821789Y-106510289D01*
X142909394Y-106379179D01*
X142969737Y-106233497D01*
X143000500Y-106078842D01*
X143000500Y-105921158D01*
X143000500Y-105921156D01*
X142999903Y-105915098D01*
X143000850Y-105915004D01*
X142999838Y-105884084D01*
X143000499Y-105879062D01*
X143000501Y-105879057D01*
X143000501Y-105720942D01*
X143000501Y-105713347D01*
X143000500Y-105713329D01*
X143000500Y-103379765D01*
X143020185Y-103312726D01*
X143021398Y-103310874D01*
X143109390Y-103179185D01*
X143109390Y-103179184D01*
X143109394Y-103179179D01*
X143169737Y-103033497D01*
X143200500Y-102878842D01*
X143200500Y-102721158D01*
X143200500Y-102721155D01*
X143200499Y-102721153D01*
X143172677Y-102581284D01*
X143169737Y-102566503D01*
X143162555Y-102549166D01*
X143155087Y-102479697D01*
X143186362Y-102417218D01*
X143246451Y-102381566D01*
X143316276Y-102384060D01*
X143364798Y-102414033D01*
X143613181Y-102662416D01*
X143646666Y-102723739D01*
X143649500Y-102750097D01*
X143649500Y-107763330D01*
X143649499Y-107763348D01*
X143649499Y-107929054D01*
X143649498Y-107929054D01*
X143649499Y-107929057D01*
X143690423Y-108081785D01*
X143708658Y-108113368D01*
X143749206Y-108183600D01*
X143769479Y-108218715D01*
X143888349Y-108337585D01*
X143888354Y-108337589D01*
X145584228Y-110033464D01*
X145688394Y-110093604D01*
X145714074Y-110113309D01*
X154015139Y-118414374D01*
X154015149Y-118414385D01*
X154019479Y-118418715D01*
X154019480Y-118418716D01*
X154131284Y-118530520D01*
X154218095Y-118580639D01*
X154218097Y-118580641D01*
X154256151Y-118602611D01*
X154268215Y-118609577D01*
X154420943Y-118650501D01*
X154420946Y-118650501D01*
X154586653Y-118650501D01*
X154586669Y-118650500D01*
X155940499Y-118650500D01*
X156007538Y-118670185D01*
X156053293Y-118722989D01*
X156063237Y-118792147D01*
X156034212Y-118855703D01*
X156013382Y-118874820D01*
X156007345Y-118879205D01*
X155829205Y-119057345D01*
X155829201Y-119057350D01*
X155681132Y-119261151D01*
X155566760Y-119485616D01*
X155488910Y-119725214D01*
X155449500Y-119974038D01*
X155449500Y-121525961D01*
X155488910Y-121774785D01*
X155566760Y-122014383D01*
X155598999Y-122077654D01*
X155663659Y-122204557D01*
X155681132Y-122238848D01*
X155829201Y-122442649D01*
X155829205Y-122442654D01*
X156007345Y-122620794D01*
X156007350Y-122620798D01*
X156020978Y-122630699D01*
X156211155Y-122768870D01*
X156354184Y-122841747D01*
X156435616Y-122883239D01*
X156435618Y-122883239D01*
X156435621Y-122883241D01*
X156675215Y-122961090D01*
X156924038Y-123000500D01*
X156924039Y-123000500D01*
X157175961Y-123000500D01*
X157175962Y-123000500D01*
X157424785Y-122961090D01*
X157664379Y-122883241D01*
X157888845Y-122768870D01*
X158092656Y-122620793D01*
X158270793Y-122442656D01*
X158418870Y-122238845D01*
X158533241Y-122014379D01*
X158611090Y-121774785D01*
X158650500Y-121525962D01*
X158650500Y-119974038D01*
X158611090Y-119725215D01*
X158533241Y-119485621D01*
X158533239Y-119485618D01*
X158533239Y-119485616D01*
X158476895Y-119375036D01*
X158418870Y-119261155D01*
X158365298Y-119187419D01*
X158270798Y-119057350D01*
X158270794Y-119057345D01*
X158092654Y-118879205D01*
X158086618Y-118874820D01*
X158043951Y-118819491D01*
X158037970Y-118749878D01*
X158070575Y-118688082D01*
X158131413Y-118653723D01*
X158159501Y-118650500D01*
X158749903Y-118650500D01*
X158816942Y-118670185D01*
X158837584Y-118686819D01*
X159920125Y-119769360D01*
X159953610Y-119830683D01*
X159950375Y-119895359D01*
X159930291Y-119957169D01*
X159930291Y-119957172D01*
X159899500Y-120151577D01*
X159899500Y-121348422D01*
X159930290Y-121542826D01*
X159991117Y-121730029D01*
X160080476Y-121905405D01*
X160196172Y-122064646D01*
X160335354Y-122203828D01*
X160494595Y-122319524D01*
X160564704Y-122355246D01*
X160669970Y-122408882D01*
X160669972Y-122408882D01*
X160669975Y-122408884D01*
X160770317Y-122441487D01*
X160857173Y-122469709D01*
X161051578Y-122500500D01*
X161051583Y-122500500D01*
X161248422Y-122500500D01*
X161442826Y-122469709D01*
X161498710Y-122451551D01*
X161630025Y-122408884D01*
X161805405Y-122319524D01*
X161964646Y-122203828D01*
X162062319Y-122106155D01*
X162123642Y-122072670D01*
X162193334Y-122077654D01*
X162237681Y-122106155D01*
X162335354Y-122203828D01*
X162494595Y-122319524D01*
X162564704Y-122355246D01*
X162669970Y-122408882D01*
X162669972Y-122408882D01*
X162669975Y-122408884D01*
X162770317Y-122441487D01*
X162857173Y-122469709D01*
X163051578Y-122500500D01*
X163051583Y-122500500D01*
X163248422Y-122500500D01*
X163442826Y-122469709D01*
X163498710Y-122451551D01*
X163630025Y-122408884D01*
X163805405Y-122319524D01*
X163805409Y-122319520D01*
X163809087Y-122317647D01*
X163877756Y-122304751D01*
X163942497Y-122331027D01*
X163965699Y-122355245D01*
X164029207Y-122442656D01*
X164029209Y-122442658D01*
X164207345Y-122620794D01*
X164207350Y-122620798D01*
X164220978Y-122630699D01*
X164411155Y-122768870D01*
X164554184Y-122841747D01*
X164635616Y-122883239D01*
X164635618Y-122883239D01*
X164635621Y-122883241D01*
X164875215Y-122961090D01*
X165124038Y-123000500D01*
X165124039Y-123000500D01*
X165375961Y-123000500D01*
X165375962Y-123000500D01*
X165624785Y-122961090D01*
X165864379Y-122883241D01*
X166088845Y-122768870D01*
X166292656Y-122620793D01*
X166470793Y-122442656D01*
X166618870Y-122238845D01*
X166733241Y-122014379D01*
X166811090Y-121774785D01*
X166850500Y-121525962D01*
X166850500Y-119974038D01*
X166811090Y-119725215D01*
X166733241Y-119485621D01*
X166733239Y-119485618D01*
X166733239Y-119485616D01*
X166676895Y-119375036D01*
X166618870Y-119261155D01*
X166606667Y-119244359D01*
X166578044Y-119204963D01*
X174049500Y-119204963D01*
X174049500Y-119375036D01*
X174076106Y-119543019D01*
X174128658Y-119704761D01*
X174128660Y-119704764D01*
X174128661Y-119704768D01*
X174205874Y-119856305D01*
X174305841Y-119993898D01*
X174426102Y-120114159D01*
X174563695Y-120214126D01*
X174715232Y-120291339D01*
X174876982Y-120343894D01*
X175044963Y-120370500D01*
X175044964Y-120370500D01*
X175215036Y-120370500D01*
X175215037Y-120370500D01*
X175383018Y-120343894D01*
X175544768Y-120291339D01*
X175696305Y-120214126D01*
X175833898Y-120114159D01*
X175954159Y-119993898D01*
X176054126Y-119856305D01*
X176131339Y-119704768D01*
X176183894Y-119543018D01*
X176210500Y-119375037D01*
X176210500Y-119204963D01*
X176183894Y-119036982D01*
X176131339Y-118875232D01*
X176054126Y-118723695D01*
X175954159Y-118586102D01*
X175833898Y-118465841D01*
X175696305Y-118365874D01*
X175544768Y-118288661D01*
X175544764Y-118288660D01*
X175544761Y-118288658D01*
X175383019Y-118236106D01*
X175299027Y-118222803D01*
X175215037Y-118209500D01*
X175044963Y-118209500D01*
X174988969Y-118218368D01*
X174876980Y-118236106D01*
X174715238Y-118288658D01*
X174563694Y-118365874D01*
X174426099Y-118465843D01*
X174305843Y-118586099D01*
X174205874Y-118723694D01*
X174170995Y-118792147D01*
X174129836Y-118872927D01*
X174128658Y-118875238D01*
X174076106Y-119036980D01*
X174049500Y-119204963D01*
X166578044Y-119204963D01*
X166470798Y-119057350D01*
X166470794Y-119057345D01*
X166292654Y-118879205D01*
X166292649Y-118879201D01*
X166088848Y-118731132D01*
X166088847Y-118731131D01*
X166088845Y-118731130D01*
X166018747Y-118695413D01*
X165864383Y-118616760D01*
X165624785Y-118538910D01*
X165571813Y-118530520D01*
X165375962Y-118499500D01*
X165124038Y-118499500D01*
X164999626Y-118519205D01*
X164875214Y-118538910D01*
X164635616Y-118616760D01*
X164411151Y-118731132D01*
X164207350Y-118879201D01*
X164207345Y-118879205D01*
X164029209Y-119057341D01*
X164029202Y-119057350D01*
X163965699Y-119144753D01*
X163910369Y-119187419D01*
X163840756Y-119193397D01*
X163809087Y-119182352D01*
X163630029Y-119091117D01*
X163442826Y-119030290D01*
X163248422Y-118999500D01*
X163248417Y-118999500D01*
X163051583Y-118999500D01*
X163051578Y-118999500D01*
X162857173Y-119030290D01*
X162669970Y-119091117D01*
X162494594Y-119180476D01*
X162406668Y-119244359D01*
X162335354Y-119296172D01*
X162335352Y-119296174D01*
X162335351Y-119296174D01*
X162237681Y-119393845D01*
X162176358Y-119427330D01*
X162106666Y-119422346D01*
X162062319Y-119393845D01*
X161964648Y-119296174D01*
X161964646Y-119296172D01*
X161805405Y-119180476D01*
X161630029Y-119091117D01*
X161442826Y-119030290D01*
X161248422Y-118999500D01*
X161248417Y-118999500D01*
X161051583Y-118999500D01*
X160938871Y-119017351D01*
X160869578Y-119008395D01*
X160831793Y-118982558D01*
X159537590Y-117688355D01*
X159537588Y-117688352D01*
X159418717Y-117569481D01*
X159418716Y-117569480D01*
X159331904Y-117519360D01*
X159331904Y-117519359D01*
X159331900Y-117519358D01*
X159281785Y-117490423D01*
X159129057Y-117449499D01*
X158970943Y-117449499D01*
X158963347Y-117449499D01*
X158963331Y-117449500D01*
X154800097Y-117449500D01*
X154733058Y-117429815D01*
X154712416Y-117413181D01*
X146490534Y-109191299D01*
X146490532Y-109191296D01*
X146371661Y-109072425D01*
X146371660Y-109072424D01*
X146280550Y-109019822D01*
X146280548Y-109019820D01*
X146267491Y-109012281D01*
X146241813Y-108992577D01*
X144886819Y-107637583D01*
X144853334Y-107576260D01*
X144850500Y-107549902D01*
X144850500Y-106413389D01*
X145399500Y-106413389D01*
X145399500Y-106586610D01*
X145426017Y-106754037D01*
X145426598Y-106757701D01*
X145480127Y-106922445D01*
X145558768Y-107076788D01*
X145660586Y-107216928D01*
X145783072Y-107339414D01*
X145923212Y-107441232D01*
X146077555Y-107519873D01*
X146242299Y-107573402D01*
X146413389Y-107600500D01*
X146413390Y-107600500D01*
X146586610Y-107600500D01*
X146586611Y-107600500D01*
X146757701Y-107573402D01*
X146922445Y-107519873D01*
X147076788Y-107441232D01*
X147216928Y-107339414D01*
X147339414Y-107216928D01*
X147441232Y-107076788D01*
X147519873Y-106922445D01*
X147573402Y-106757701D01*
X147600500Y-106586611D01*
X147600500Y-106413389D01*
X147573402Y-106242299D01*
X147519873Y-106077555D01*
X147441232Y-105923212D01*
X147339414Y-105783072D01*
X147216928Y-105660586D01*
X147076788Y-105558768D01*
X146922447Y-105480128D01*
X146922446Y-105480127D01*
X146922445Y-105480127D01*
X146757701Y-105426598D01*
X146757699Y-105426597D01*
X146757698Y-105426597D01*
X146626271Y-105405781D01*
X146586611Y-105399500D01*
X146413389Y-105399500D01*
X146373728Y-105405781D01*
X146242302Y-105426597D01*
X146077552Y-105480128D01*
X145923211Y-105558768D01*
X145843256Y-105616859D01*
X145783072Y-105660586D01*
X145783070Y-105660588D01*
X145783069Y-105660588D01*
X145660588Y-105783069D01*
X145660588Y-105783070D01*
X145660586Y-105783072D01*
X145616859Y-105843256D01*
X145558768Y-105923211D01*
X145480128Y-106077552D01*
X145426597Y-106242302D01*
X145399500Y-106413389D01*
X144850500Y-106413389D01*
X144850500Y-102539060D01*
X144850501Y-102539047D01*
X144850501Y-102370944D01*
X144850501Y-102370943D01*
X144809577Y-102218216D01*
X144809573Y-102218209D01*
X144730524Y-102081290D01*
X144730518Y-102081282D01*
X140786819Y-98137583D01*
X140753334Y-98076260D01*
X140750500Y-98049902D01*
X140750500Y-95429765D01*
X140770185Y-95362726D01*
X140771398Y-95360874D01*
X140859390Y-95229185D01*
X140859390Y-95229184D01*
X140859394Y-95229179D01*
X140919737Y-95083497D01*
X140950500Y-94928842D01*
X140950500Y-94771158D01*
X140950500Y-94771155D01*
X140950499Y-94771153D01*
X140929055Y-94663348D01*
X140919737Y-94616503D01*
X140919735Y-94616498D01*
X140859397Y-94470827D01*
X140859390Y-94470814D01*
X140771789Y-94339711D01*
X140771786Y-94339707D01*
X140660292Y-94228213D01*
X140660288Y-94228210D01*
X140529185Y-94140609D01*
X140529172Y-94140602D01*
X140383501Y-94080264D01*
X140383489Y-94080261D01*
X140228845Y-94049500D01*
X140228842Y-94049500D01*
X140071158Y-94049500D01*
X140071155Y-94049500D01*
X139916510Y-94080261D01*
X139916498Y-94080264D01*
X139770827Y-94140602D01*
X139770814Y-94140609D01*
X139639711Y-94228210D01*
X139639707Y-94228213D01*
X139528213Y-94339707D01*
X139528210Y-94339711D01*
X139440609Y-94470814D01*
X139440602Y-94470827D01*
X139380264Y-94616498D01*
X139380261Y-94616510D01*
X139349500Y-94771153D01*
X136000500Y-94771153D01*
X136000500Y-78254427D01*
X136000816Y-78245581D01*
X136007131Y-78157288D01*
X136015130Y-78045436D01*
X136017646Y-78027938D01*
X136059356Y-77836200D01*
X136064335Y-77819242D01*
X136132911Y-77635382D01*
X136140251Y-77619310D01*
X136234294Y-77447083D01*
X136243850Y-77432214D01*
X136361443Y-77275128D01*
X136373017Y-77261771D01*
X136511771Y-77123017D01*
X136525128Y-77111443D01*
X136682214Y-76993850D01*
X136697083Y-76984294D01*
X136869310Y-76890251D01*
X136885382Y-76882911D01*
X137069242Y-76814335D01*
X137086200Y-76809356D01*
X137277938Y-76767646D01*
X137295436Y-76765130D01*
X137495582Y-76750816D01*
X137504428Y-76750500D01*
X137565892Y-76750500D01*
X173878111Y-76750500D01*
X173945150Y-76770185D01*
G37*
%TD.AperFunction*%
%TA.AperFunction,Conductor*%
G36*
X169225000Y-114255500D02*
G01*
X170079903Y-114255500D01*
X170146942Y-114275185D01*
X170167584Y-114291819D01*
X171013181Y-115137416D01*
X171046666Y-115198739D01*
X171049500Y-115225097D01*
X171049500Y-117199902D01*
X171029815Y-117266941D01*
X171013181Y-117287583D01*
X170587584Y-117713181D01*
X170526261Y-117746666D01*
X170499903Y-117749500D01*
X168300097Y-117749500D01*
X168233058Y-117729815D01*
X168212416Y-117713181D01*
X167966416Y-117467181D01*
X167932931Y-117405858D01*
X167937915Y-117336166D01*
X167979787Y-117280233D01*
X168045251Y-117255816D01*
X168054097Y-117255500D01*
X168924998Y-117255500D01*
X168925000Y-117255500D01*
X168925002Y-117255499D01*
X168925021Y-117255499D01*
X169005330Y-117249076D01*
X169005332Y-117249075D01*
X169005338Y-117249075D01*
X169142689Y-117206226D01*
X169262405Y-117126415D01*
X169354786Y-117016110D01*
X169412348Y-116884246D01*
X169418581Y-116835037D01*
X169430429Y-116741509D01*
X169430429Y-116741506D01*
X169407562Y-116599454D01*
X169345601Y-116469599D01*
X169078389Y-116068782D01*
X169057582Y-116002084D01*
X169076137Y-115934723D01*
X169078390Y-115931217D01*
X169148618Y-115825875D01*
X169345601Y-115530401D01*
X169384819Y-115459992D01*
X169425355Y-115321940D01*
X169425355Y-115178060D01*
X169384819Y-115040008D01*
X169307031Y-114918968D01*
X169282236Y-114897483D01*
X169198299Y-114824750D01*
X169198297Y-114824748D01*
X169198294Y-114824746D01*
X169198290Y-114824744D01*
X169067419Y-114764976D01*
X169067415Y-114764975D01*
X168981853Y-114752674D01*
X168918297Y-114723649D01*
X168880523Y-114664871D01*
X168875500Y-114629936D01*
X168875500Y-114373938D01*
X168895185Y-114306899D01*
X168947989Y-114261144D01*
X168989616Y-114250333D01*
X169005326Y-114249076D01*
X169005326Y-114249075D01*
X169005338Y-114249075D01*
X169033740Y-114240213D01*
X169088316Y-114235848D01*
X169225000Y-114255500D01*
G37*
%TD.AperFunction*%
%TA.AperFunction,Conductor*%
G36*
X147417942Y-81020184D02*
G01*
X147463697Y-81072988D01*
X147473641Y-81142146D01*
X147444616Y-81205702D01*
X147438584Y-81212180D01*
X143919481Y-84731282D01*
X143919477Y-84731287D01*
X143908572Y-84750177D01*
X143897428Y-84769480D01*
X143840423Y-84868215D01*
X143799499Y-85020943D01*
X143799499Y-85020945D01*
X143799499Y-85189046D01*
X143799500Y-85189059D01*
X143799500Y-93913330D01*
X143799499Y-93913348D01*
X143799499Y-94079054D01*
X143799498Y-94079054D01*
X143799822Y-94080263D01*
X143840423Y-94231785D01*
X143843405Y-94236950D01*
X143847772Y-94244515D01*
X143847774Y-94244517D01*
X143919477Y-94368712D01*
X143919481Y-94368717D01*
X144038349Y-94487585D01*
X144038354Y-94487589D01*
X157146969Y-107596205D01*
X157146971Y-107596206D01*
X157146975Y-107596209D01*
X157218638Y-107637583D01*
X157283901Y-107675262D01*
X157436628Y-107716186D01*
X157436630Y-107716186D01*
X157602339Y-107716186D01*
X157602355Y-107716185D01*
X162090588Y-107716185D01*
X162157627Y-107735870D01*
X162178269Y-107752504D01*
X167233181Y-112807416D01*
X167266666Y-112868739D01*
X167269500Y-112895097D01*
X167269500Y-113750002D01*
X167274644Y-113821940D01*
X167315182Y-113959994D01*
X167392967Y-114081030D01*
X167392971Y-114081034D01*
X167497611Y-114171706D01*
X167501706Y-114175254D01*
X167501710Y-114175256D01*
X167501712Y-114175257D01*
X167602011Y-114221062D01*
X167654815Y-114266816D01*
X167674500Y-114333856D01*
X167674500Y-114665206D01*
X167654815Y-114732245D01*
X167602011Y-114778000D01*
X167585437Y-114784182D01*
X167565010Y-114790180D01*
X167565005Y-114790182D01*
X167443969Y-114867967D01*
X167443965Y-114867971D01*
X167349750Y-114976700D01*
X167349744Y-114976709D01*
X167289976Y-115107580D01*
X167289975Y-115107585D01*
X167269500Y-115249999D01*
X167269500Y-116470903D01*
X167249815Y-116537942D01*
X167197011Y-116583697D01*
X167127853Y-116593641D01*
X167064297Y-116564616D01*
X167057819Y-116558584D01*
X164670941Y-114171706D01*
X164637456Y-114110383D01*
X164642440Y-114040691D01*
X164647014Y-114031564D01*
X164646570Y-114031361D01*
X164710023Y-113892419D01*
X164710024Y-113892414D01*
X164730500Y-113750000D01*
X164730500Y-112250000D01*
X164725355Y-112178060D01*
X164684819Y-112040008D01*
X164607031Y-111918968D01*
X164548173Y-111867967D01*
X164498299Y-111824750D01*
X164498297Y-111824748D01*
X164498294Y-111824746D01*
X164498290Y-111824744D01*
X164367419Y-111764976D01*
X164367414Y-111764975D01*
X164225000Y-111744500D01*
X163225000Y-111744500D01*
X163224984Y-111744500D01*
X163161481Y-111748506D01*
X163150613Y-111751499D01*
X163114889Y-111761340D01*
X163064316Y-111764530D01*
X162925000Y-111744500D01*
X161775000Y-111744500D01*
X161774997Y-111744500D01*
X161703059Y-111749644D01*
X161565005Y-111790182D01*
X161443969Y-111867967D01*
X161443965Y-111867971D01*
X161349750Y-111976700D01*
X161349744Y-111976709D01*
X161289976Y-112107580D01*
X161289975Y-112107585D01*
X161269500Y-112249999D01*
X161269500Y-112275500D01*
X161249815Y-112342539D01*
X161197011Y-112388294D01*
X161145500Y-112399500D01*
X160450098Y-112399500D01*
X160383059Y-112379815D01*
X160362417Y-112363181D01*
X142536819Y-94537583D01*
X142503334Y-94476260D01*
X142500500Y-94449902D01*
X142500500Y-85400096D01*
X142520185Y-85333057D01*
X142536814Y-85312420D01*
X146812416Y-81036817D01*
X146873739Y-81003333D01*
X146900097Y-81000499D01*
X147350903Y-81000499D01*
X147417942Y-81020184D01*
G37*
%TD.AperFunction*%
%TA.AperFunction,Conductor*%
G36*
X145701571Y-84750177D02*
G01*
X145757504Y-84792049D01*
X145781921Y-84857513D01*
X145772798Y-84913811D01*
X145730263Y-85016503D01*
X145730262Y-85016506D01*
X145730262Y-85016507D01*
X145730261Y-85016510D01*
X145699500Y-85171153D01*
X145699500Y-85328846D01*
X145730261Y-85483489D01*
X145730264Y-85483501D01*
X145790602Y-85629172D01*
X145790609Y-85629185D01*
X145878210Y-85760288D01*
X145878213Y-85760292D01*
X145989707Y-85871786D01*
X145989711Y-85871789D01*
X146120814Y-85959390D01*
X146120827Y-85959397D01*
X146266498Y-86019735D01*
X146266503Y-86019737D01*
X146421153Y-86050499D01*
X146421156Y-86050500D01*
X146421158Y-86050500D01*
X146578844Y-86050500D01*
X146578845Y-86050499D01*
X146733497Y-86019737D01*
X146879179Y-85959394D01*
X146933663Y-85922989D01*
X147010875Y-85871398D01*
X147077553Y-85850520D01*
X147079766Y-85850500D01*
X147867944Y-85850500D01*
X147934983Y-85870185D01*
X147980738Y-85922989D01*
X147991944Y-85974500D01*
X147991944Y-86061266D01*
X148022705Y-86215909D01*
X148022708Y-86215921D01*
X148083046Y-86361592D01*
X148083053Y-86361605D01*
X148170654Y-86492708D01*
X148170657Y-86492712D01*
X148282151Y-86604206D01*
X148282155Y-86604209D01*
X148413258Y-86691810D01*
X148413271Y-86691817D01*
X148558942Y-86752155D01*
X148558947Y-86752157D01*
X148623591Y-86765015D01*
X148714293Y-86783058D01*
X148776204Y-86815443D01*
X148777783Y-86816994D01*
X149065957Y-87105168D01*
X149099442Y-87166491D01*
X149094458Y-87236183D01*
X149052586Y-87292116D01*
X148987122Y-87316533D01*
X148954085Y-87314466D01*
X148878846Y-87299500D01*
X148878842Y-87299500D01*
X148721158Y-87299500D01*
X148721155Y-87299500D01*
X148566510Y-87330261D01*
X148566498Y-87330264D01*
X148420827Y-87390602D01*
X148420814Y-87390609D01*
X148289711Y-87478210D01*
X148289707Y-87478213D01*
X148178213Y-87589707D01*
X148178210Y-87589711D01*
X148090609Y-87720814D01*
X148090602Y-87720827D01*
X148030264Y-87866498D01*
X148030261Y-87866508D01*
X147999362Y-88021848D01*
X147966977Y-88083759D01*
X147965426Y-88085337D01*
X147878087Y-88172676D01*
X147816764Y-88206161D01*
X147752089Y-88202926D01*
X147701371Y-88186447D01*
X147468097Y-88149500D01*
X147468092Y-88149500D01*
X147231908Y-88149500D01*
X147231903Y-88149500D01*
X146998631Y-88186446D01*
X146774003Y-88259433D01*
X146563566Y-88366657D01*
X146454550Y-88445862D01*
X146372490Y-88505483D01*
X146372488Y-88505485D01*
X146372487Y-88505485D01*
X146205485Y-88672487D01*
X146205485Y-88672488D01*
X146205483Y-88672490D01*
X146169667Y-88721786D01*
X146066657Y-88863566D01*
X145959433Y-89074003D01*
X145886446Y-89298631D01*
X145849500Y-89531902D01*
X145849500Y-89768097D01*
X145886446Y-90001368D01*
X145959433Y-90225996D01*
X146058871Y-90421153D01*
X146066657Y-90436433D01*
X146205483Y-90627510D01*
X146372490Y-90794517D01*
X146563567Y-90933343D01*
X146662991Y-90984002D01*
X146774003Y-91040566D01*
X146774005Y-91040566D01*
X146774008Y-91040568D01*
X146836913Y-91061007D01*
X146998631Y-91113553D01*
X147231903Y-91150500D01*
X147231908Y-91150500D01*
X147468097Y-91150500D01*
X147701368Y-91113553D01*
X147925992Y-91040568D01*
X148136433Y-90933343D01*
X148327510Y-90794517D01*
X148494517Y-90627510D01*
X148633343Y-90436433D01*
X148740568Y-90225992D01*
X148813553Y-90001368D01*
X148824144Y-89934500D01*
X148850500Y-89768097D01*
X148850500Y-89531902D01*
X148821768Y-89350499D01*
X148813553Y-89298632D01*
X148813552Y-89298628D01*
X148813552Y-89298627D01*
X148748026Y-89096959D01*
X148746031Y-89027118D01*
X148778276Y-88970960D01*
X148814663Y-88934573D01*
X148875986Y-88901088D01*
X148878153Y-88900637D01*
X148878842Y-88900500D01*
X149033497Y-88869737D01*
X149179179Y-88809394D01*
X149310289Y-88721789D01*
X149421789Y-88610289D01*
X149509394Y-88479179D01*
X149512719Y-88471153D01*
X149523067Y-88446166D01*
X149569737Y-88333497D01*
X149600500Y-88178842D01*
X149600500Y-88021158D01*
X149600500Y-88021155D01*
X149585533Y-87945915D01*
X149591760Y-87876324D01*
X149634622Y-87821146D01*
X149700512Y-87797901D01*
X149768509Y-87813968D01*
X149794831Y-87834042D01*
X150263181Y-88302392D01*
X150296666Y-88363715D01*
X150299500Y-88390073D01*
X150299500Y-90913330D01*
X150299499Y-90913348D01*
X150299499Y-91079054D01*
X150299498Y-91079054D01*
X150306773Y-91106204D01*
X150340423Y-91231785D01*
X150347421Y-91243906D01*
X150347422Y-91243909D01*
X150347423Y-91243909D01*
X150419477Y-91368712D01*
X150419481Y-91368717D01*
X150538349Y-91487585D01*
X150538354Y-91487589D01*
X152781284Y-93730520D01*
X152781286Y-93730521D01*
X152781290Y-93730524D01*
X152918209Y-93809573D01*
X152918216Y-93809577D01*
X153070943Y-93850501D01*
X153070945Y-93850501D01*
X153236654Y-93850501D01*
X153236670Y-93850500D01*
X156199903Y-93850500D01*
X156266942Y-93870185D01*
X156287584Y-93886819D01*
X159165425Y-96764660D01*
X159198910Y-96825983D01*
X159199361Y-96828149D01*
X159225352Y-96958808D01*
X159219125Y-97028399D01*
X159176263Y-97083577D01*
X159110373Y-97106822D01*
X159103735Y-97107000D01*
X154946265Y-97107000D01*
X154879226Y-97087315D01*
X154833471Y-97034511D01*
X154823527Y-96965353D01*
X154824648Y-96958808D01*
X154850500Y-96828844D01*
X154850500Y-96671155D01*
X154850499Y-96671153D01*
X154819738Y-96516510D01*
X154819737Y-96516503D01*
X154819735Y-96516498D01*
X154759397Y-96370827D01*
X154759390Y-96370814D01*
X154671789Y-96239711D01*
X154671786Y-96239707D01*
X154560292Y-96128213D01*
X154560288Y-96128210D01*
X154429185Y-96040609D01*
X154429172Y-96040602D01*
X154283501Y-95980264D01*
X154283491Y-95980261D01*
X154128149Y-95949361D01*
X154066238Y-95916976D01*
X154064660Y-95915425D01*
X151937590Y-93788355D01*
X151937588Y-93788352D01*
X151818717Y-93669481D01*
X151818709Y-93669475D01*
X151730789Y-93618715D01*
X151730788Y-93618715D01*
X151710077Y-93606757D01*
X151681785Y-93590423D01*
X151529057Y-93549499D01*
X151370943Y-93549499D01*
X151363347Y-93549499D01*
X151363331Y-93549500D01*
X148943196Y-93549500D01*
X148876157Y-93529815D01*
X148830402Y-93477011D01*
X148820458Y-93407853D01*
X148820723Y-93406102D01*
X148850500Y-93218097D01*
X148850500Y-92981902D01*
X148813553Y-92748631D01*
X148779689Y-92644412D01*
X148740568Y-92524008D01*
X148740566Y-92524005D01*
X148740566Y-92524003D01*
X148642229Y-92331007D01*
X148633343Y-92313567D01*
X148494517Y-92122490D01*
X148327510Y-91955483D01*
X148136433Y-91816657D01*
X148085311Y-91790609D01*
X147925996Y-91709433D01*
X147701368Y-91636446D01*
X147468097Y-91599500D01*
X147468092Y-91599500D01*
X147231908Y-91599500D01*
X147231903Y-91599500D01*
X146998631Y-91636446D01*
X146774003Y-91709433D01*
X146563566Y-91816657D01*
X146499532Y-91863181D01*
X146372490Y-91955483D01*
X146372488Y-91955485D01*
X146372487Y-91955485D01*
X146205485Y-92122487D01*
X146205485Y-92122488D01*
X146205483Y-92122490D01*
X146150163Y-92198631D01*
X146066657Y-92313566D01*
X145959433Y-92524003D01*
X145886446Y-92748631D01*
X145849500Y-92981902D01*
X145849500Y-93218097D01*
X145886446Y-93451368D01*
X145959433Y-93675996D01*
X146027495Y-93809573D01*
X146066657Y-93886433D01*
X146205483Y-94077510D01*
X146372490Y-94244517D01*
X146563567Y-94383343D01*
X146613932Y-94409005D01*
X146774003Y-94490566D01*
X146774005Y-94490566D01*
X146774008Y-94490568D01*
X146881511Y-94525498D01*
X146998631Y-94563553D01*
X147231903Y-94600500D01*
X147231908Y-94600500D01*
X147468097Y-94600500D01*
X147642533Y-94572871D01*
X147701368Y-94563553D01*
X147789828Y-94534809D01*
X147859665Y-94532814D01*
X147915824Y-94565060D01*
X147981284Y-94630520D01*
X147981286Y-94630521D01*
X147981290Y-94630524D01*
X148038113Y-94663330D01*
X148118216Y-94709577D01*
X148270943Y-94750501D01*
X148270945Y-94750501D01*
X148436654Y-94750501D01*
X148436670Y-94750500D01*
X151149903Y-94750500D01*
X151216942Y-94770185D01*
X151237584Y-94786819D01*
X153215425Y-96764660D01*
X153248910Y-96825983D01*
X153249361Y-96828149D01*
X153275352Y-96958808D01*
X153269125Y-97028399D01*
X153226263Y-97083577D01*
X153160373Y-97106822D01*
X153153735Y-97107000D01*
X151515343Y-97107000D01*
X151448304Y-97087315D01*
X151446452Y-97086102D01*
X151314762Y-96998109D01*
X151314749Y-96998102D01*
X151169078Y-96937764D01*
X151169066Y-96937761D01*
X151014422Y-96907000D01*
X151014419Y-96907000D01*
X150856735Y-96907000D01*
X150856732Y-96907000D01*
X150702087Y-96937761D01*
X150702075Y-96937764D01*
X150556404Y-96998102D01*
X150556391Y-96998109D01*
X150425288Y-97085710D01*
X150425284Y-97085713D01*
X150313790Y-97197207D01*
X150313787Y-97197211D01*
X150226186Y-97328314D01*
X150226179Y-97328327D01*
X150165841Y-97473998D01*
X150165838Y-97474010D01*
X150135077Y-97628653D01*
X150135077Y-97786346D01*
X150165838Y-97940989D01*
X150165841Y-97941001D01*
X150226179Y-98086672D01*
X150226186Y-98086685D01*
X150313787Y-98217788D01*
X150313790Y-98217792D01*
X150425284Y-98329286D01*
X150425288Y-98329289D01*
X150556391Y-98416890D01*
X150556404Y-98416897D01*
X150702075Y-98477235D01*
X150702080Y-98477237D01*
X150856730Y-98507999D01*
X150856733Y-98508000D01*
X150856735Y-98508000D01*
X151014421Y-98508000D01*
X151014422Y-98507999D01*
X151169074Y-98477237D01*
X151314756Y-98416894D01*
X151424839Y-98343339D01*
X151446452Y-98328898D01*
X151513130Y-98308020D01*
X151515343Y-98308000D01*
X159804360Y-98308000D01*
X159804376Y-98308001D01*
X159811972Y-98308001D01*
X159970083Y-98308001D01*
X159970086Y-98308001D01*
X160122814Y-98267077D01*
X160172933Y-98238139D01*
X160259745Y-98188020D01*
X160371549Y-98076216D01*
X160371549Y-98076214D01*
X160381757Y-98066007D01*
X160381758Y-98066004D01*
X163610945Y-94836819D01*
X163672268Y-94803334D01*
X163698626Y-94800500D01*
X163828844Y-94800500D01*
X163828845Y-94800499D01*
X163983497Y-94769737D01*
X164129179Y-94709394D01*
X164260289Y-94621789D01*
X164371789Y-94510289D01*
X164403709Y-94462516D01*
X164457320Y-94417713D01*
X164526645Y-94409005D01*
X164589673Y-94439159D01*
X164594492Y-94443727D01*
X173313181Y-103162416D01*
X173346666Y-103223739D01*
X173349500Y-103250097D01*
X173349500Y-105566449D01*
X173329815Y-105633488D01*
X173277011Y-105679243D01*
X173207853Y-105689187D01*
X173144297Y-105660162D01*
X173118113Y-105628449D01*
X173058611Y-105525388D01*
X173058608Y-105525385D01*
X173058607Y-105525382D01*
X172918918Y-105343338D01*
X172918911Y-105343330D01*
X172756670Y-105181089D01*
X172756661Y-105181081D01*
X172574617Y-105041392D01*
X172375890Y-104926657D01*
X172375876Y-104926650D01*
X172163887Y-104838842D01*
X171942238Y-104779452D01*
X171904215Y-104774446D01*
X171714741Y-104749500D01*
X171714734Y-104749500D01*
X170485266Y-104749500D01*
X170485258Y-104749500D01*
X170268715Y-104778009D01*
X170257762Y-104779452D01*
X170164076Y-104804554D01*
X170036112Y-104838842D01*
X169824123Y-104926650D01*
X169824109Y-104926657D01*
X169625382Y-105041392D01*
X169443338Y-105181081D01*
X169281081Y-105343338D01*
X169141392Y-105525382D01*
X169026657Y-105724109D01*
X169026650Y-105724123D01*
X168938842Y-105936112D01*
X168879453Y-106157759D01*
X168879451Y-106157770D01*
X168849500Y-106385258D01*
X168849500Y-106614741D01*
X168869907Y-106769737D01*
X168879452Y-106842238D01*
X168938842Y-107063887D01*
X169026650Y-107275876D01*
X169026657Y-107275890D01*
X169120014Y-107437590D01*
X169141389Y-107474612D01*
X169199161Y-107549902D01*
X169199247Y-107550013D01*
X169224441Y-107615183D01*
X169210403Y-107683627D01*
X169161589Y-107733617D01*
X169100871Y-107749500D01*
X168551578Y-107749500D01*
X168357173Y-107780290D01*
X168169970Y-107841117D01*
X167994594Y-107930476D01*
X167903741Y-107996485D01*
X167835354Y-108046172D01*
X167835352Y-108046174D01*
X167835351Y-108046174D01*
X167696174Y-108185351D01*
X167696174Y-108185352D01*
X167696172Y-108185354D01*
X167670602Y-108220548D01*
X167580476Y-108344594D01*
X167491117Y-108519970D01*
X167430290Y-108707173D01*
X167399499Y-108901579D01*
X167399118Y-108906433D01*
X167397903Y-108906337D01*
X167379815Y-108967941D01*
X167327011Y-109013696D01*
X167257853Y-109023640D01*
X167194297Y-108994615D01*
X167187819Y-108988583D01*
X164936819Y-106737583D01*
X164903334Y-106676260D01*
X164900500Y-106649902D01*
X164900500Y-100869901D01*
X164920185Y-100802862D01*
X164972989Y-100757107D01*
X165042147Y-100747163D01*
X165105703Y-100776188D01*
X165142429Y-100831581D01*
X165163096Y-100895185D01*
X165253872Y-101073344D01*
X165273896Y-101112642D01*
X165417339Y-101310076D01*
X165417343Y-101310081D01*
X165589918Y-101482656D01*
X165589923Y-101482660D01*
X165718400Y-101576003D01*
X165787361Y-101626106D01*
X166004815Y-101736904D01*
X166236924Y-101812321D01*
X166477973Y-101850500D01*
X166477974Y-101850500D01*
X166722026Y-101850500D01*
X166722027Y-101850500D01*
X166963076Y-101812321D01*
X167195185Y-101736904D01*
X167412639Y-101626106D01*
X167610083Y-101482655D01*
X167782655Y-101310083D01*
X167926106Y-101112639D01*
X168036904Y-100895185D01*
X168112321Y-100663076D01*
X168150500Y-100422027D01*
X168150500Y-99177973D01*
X168112321Y-98936924D01*
X168036904Y-98704815D01*
X167926106Y-98487361D01*
X167883744Y-98429054D01*
X167782660Y-98289923D01*
X167782656Y-98289918D01*
X167610081Y-98117343D01*
X167610076Y-98117339D01*
X167412642Y-97973896D01*
X167412641Y-97973895D01*
X167412639Y-97973894D01*
X167195185Y-97863096D01*
X166963076Y-97787679D01*
X166963074Y-97787678D01*
X166963072Y-97787678D01*
X166794769Y-97761021D01*
X166722027Y-97749500D01*
X166477973Y-97749500D01*
X166422093Y-97758350D01*
X166236927Y-97787678D01*
X166004812Y-97863097D01*
X165787357Y-97973896D01*
X165589923Y-98117339D01*
X165589918Y-98117343D01*
X165417343Y-98289918D01*
X165417339Y-98289923D01*
X165273894Y-98487359D01*
X165265313Y-98504201D01*
X165217338Y-98554996D01*
X165149517Y-98571791D01*
X165083383Y-98549253D01*
X165040268Y-98495357D01*
X165009397Y-98420827D01*
X165009390Y-98420814D01*
X164921789Y-98289711D01*
X164921786Y-98289707D01*
X164810292Y-98178213D01*
X164810288Y-98178210D01*
X164679185Y-98090609D01*
X164679172Y-98090602D01*
X164533501Y-98030264D01*
X164533489Y-98030261D01*
X164378845Y-97999500D01*
X164378842Y-97999500D01*
X164221158Y-97999500D01*
X164221155Y-97999500D01*
X164066510Y-98030261D01*
X164066498Y-98030264D01*
X163920827Y-98090602D01*
X163920814Y-98090609D01*
X163789711Y-98178210D01*
X163789707Y-98178213D01*
X163678213Y-98289707D01*
X163678210Y-98289711D01*
X163590609Y-98420814D01*
X163590602Y-98420827D01*
X163530264Y-98566498D01*
X163530261Y-98566510D01*
X163499500Y-98721153D01*
X163499500Y-98878846D01*
X163530261Y-99033489D01*
X163530264Y-99033501D01*
X163590602Y-99179172D01*
X163590609Y-99179185D01*
X163678602Y-99310874D01*
X163699480Y-99377551D01*
X163699500Y-99379765D01*
X163699500Y-106863330D01*
X163699499Y-106863348D01*
X163699499Y-107029054D01*
X163699498Y-107029054D01*
X163740424Y-107181787D01*
X163760712Y-107216926D01*
X163760713Y-107216929D01*
X163819475Y-107318709D01*
X163819481Y-107318717D01*
X163938349Y-107437585D01*
X163938355Y-107437590D01*
X168033583Y-111532819D01*
X168067068Y-111594142D01*
X168062084Y-111663834D01*
X168020212Y-111719767D01*
X167954748Y-111744184D01*
X167945902Y-111744500D01*
X167920097Y-111744500D01*
X167853058Y-111724815D01*
X167832416Y-111708181D01*
X162878275Y-106754040D01*
X162878273Y-106754037D01*
X162759402Y-106635166D01*
X162759401Y-106635165D01*
X162628478Y-106559577D01*
X162622470Y-106556108D01*
X162469742Y-106515184D01*
X162311628Y-106515184D01*
X162304032Y-106515184D01*
X162304016Y-106515185D01*
X157815783Y-106515185D01*
X157748744Y-106495500D01*
X157728102Y-106478866D01*
X152173228Y-100923992D01*
X159454500Y-100923992D01*
X159454500Y-101576007D01*
X159493907Y-101774119D01*
X159493909Y-101774127D01*
X159571212Y-101960752D01*
X159571217Y-101960762D01*
X159683441Y-102128718D01*
X159826281Y-102271558D01*
X159994237Y-102383782D01*
X159994241Y-102383784D01*
X159994244Y-102383786D01*
X160180873Y-102461091D01*
X160378992Y-102500499D01*
X160378996Y-102500500D01*
X160378997Y-102500500D01*
X160581004Y-102500500D01*
X160581005Y-102500499D01*
X160779127Y-102461091D01*
X160965756Y-102383786D01*
X161046110Y-102330094D01*
X161112786Y-102309217D01*
X161180166Y-102327701D01*
X161183865Y-102330078D01*
X161264244Y-102383786D01*
X161450873Y-102461091D01*
X161648992Y-102500499D01*
X161648996Y-102500500D01*
X161648997Y-102500500D01*
X161851004Y-102500500D01*
X161851005Y-102500499D01*
X162049127Y-102461091D01*
X162235756Y-102383786D01*
X162403718Y-102271558D01*
X162546558Y-102128718D01*
X162607545Y-102037444D01*
X162658782Y-101960762D01*
X162658782Y-101960761D01*
X162658786Y-101960756D01*
X162736091Y-101774127D01*
X162775500Y-101576003D01*
X162775500Y-100923997D01*
X162736091Y-100725873D01*
X162658786Y-100539244D01*
X162658784Y-100539241D01*
X162658782Y-100539237D01*
X162546558Y-100371281D01*
X162403718Y-100228441D01*
X162235762Y-100116217D01*
X162235752Y-100116212D01*
X162049127Y-100038909D01*
X162049119Y-100038907D01*
X161851007Y-99999500D01*
X161851003Y-99999500D01*
X161648997Y-99999500D01*
X161648992Y-99999500D01*
X161450880Y-100038907D01*
X161450872Y-100038909D01*
X161264244Y-100116213D01*
X161183891Y-100169904D01*
X161117213Y-100190782D01*
X161049833Y-100172297D01*
X161046109Y-100169904D01*
X160965755Y-100116213D01*
X160779127Y-100038909D01*
X160779119Y-100038907D01*
X160581007Y-99999500D01*
X160581003Y-99999500D01*
X160378997Y-99999500D01*
X160378992Y-99999500D01*
X160180880Y-100038907D01*
X160180872Y-100038909D01*
X159994247Y-100116212D01*
X159994237Y-100116217D01*
X159826281Y-100228441D01*
X159683441Y-100371281D01*
X159571217Y-100539237D01*
X159571212Y-100539247D01*
X159493909Y-100725872D01*
X159493907Y-100725880D01*
X159454500Y-100923992D01*
X152173228Y-100923992D01*
X145036819Y-93787583D01*
X145003334Y-93726260D01*
X145000500Y-93699902D01*
X145000500Y-85400096D01*
X145020185Y-85333057D01*
X145036814Y-85312420D01*
X145570557Y-84778676D01*
X145631879Y-84745193D01*
X145701571Y-84750177D01*
G37*
%TD.AperFunction*%
%TA.AperFunction,Conductor*%
G36*
X160542539Y-81920185D02*
G01*
X160588294Y-81972989D01*
X160599500Y-82024500D01*
X160599500Y-82588695D01*
X160634103Y-82762658D01*
X160634106Y-82762667D01*
X160676791Y-82865719D01*
X160684260Y-82935189D01*
X160652984Y-82997668D01*
X160649911Y-83000852D01*
X157431286Y-86219478D01*
X157319481Y-86331282D01*
X157319479Y-86331284D01*
X157301982Y-86361592D01*
X157291054Y-86380520D01*
X157240423Y-86468215D01*
X157199499Y-86620943D01*
X157199499Y-86620945D01*
X157199499Y-86789046D01*
X157199500Y-86789059D01*
X157199500Y-88749902D01*
X157179815Y-88816941D01*
X157163185Y-88837579D01*
X157100264Y-88900500D01*
X157064798Y-88935966D01*
X157003474Y-88969450D01*
X156933783Y-88964466D01*
X156877850Y-88922594D01*
X156853433Y-88857129D01*
X156862556Y-88800833D01*
X156869737Y-88783497D01*
X156900500Y-88628842D01*
X156900500Y-88471158D01*
X156900500Y-88471155D01*
X156900499Y-88471153D01*
X156873117Y-88333497D01*
X156869737Y-88316503D01*
X156832419Y-88226408D01*
X156809397Y-88170827D01*
X156809390Y-88170814D01*
X156721789Y-88039711D01*
X156721786Y-88039707D01*
X156610291Y-87928212D01*
X156610288Y-87928210D01*
X156479185Y-87840609D01*
X156479172Y-87840602D01*
X156333501Y-87780264D01*
X156333489Y-87780261D01*
X156178845Y-87749500D01*
X156178842Y-87749500D01*
X156021158Y-87749500D01*
X156021155Y-87749500D01*
X155866510Y-87780261D01*
X155866498Y-87780264D01*
X155720827Y-87840602D01*
X155720814Y-87840609D01*
X155589711Y-87928210D01*
X155589709Y-87928212D01*
X155478213Y-88039707D01*
X155478210Y-88039711D01*
X155390609Y-88170814D01*
X155390602Y-88170827D01*
X155330264Y-88316498D01*
X155330261Y-88316510D01*
X155299500Y-88471153D01*
X155299500Y-88628846D01*
X155330261Y-88783489D01*
X155330264Y-88783501D01*
X155390602Y-88929172D01*
X155390609Y-88929185D01*
X155478210Y-89060288D01*
X155478213Y-89060292D01*
X155589707Y-89171786D01*
X155589711Y-89171789D01*
X155720814Y-89259390D01*
X155720827Y-89259397D01*
X155849169Y-89312557D01*
X155866503Y-89319737D01*
X156021153Y-89350499D01*
X156021156Y-89350500D01*
X156021158Y-89350500D01*
X156178844Y-89350500D01*
X156178845Y-89350499D01*
X156333497Y-89319737D01*
X156350831Y-89312556D01*
X156420300Y-89305087D01*
X156482779Y-89336361D01*
X156518433Y-89396449D01*
X156515940Y-89466274D01*
X156485966Y-89514798D01*
X156137584Y-89863181D01*
X156076261Y-89896666D01*
X156049903Y-89899500D01*
X154079766Y-89899500D01*
X154012727Y-89879815D01*
X154010875Y-89878602D01*
X153879185Y-89790609D01*
X153879172Y-89790602D01*
X153733501Y-89730264D01*
X153733489Y-89730261D01*
X153578845Y-89699500D01*
X153578842Y-89699500D01*
X153421158Y-89699500D01*
X153421155Y-89699500D01*
X153266510Y-89730261D01*
X153266498Y-89730264D01*
X153120827Y-89790602D01*
X153120814Y-89790609D01*
X152989711Y-89878210D01*
X152989707Y-89878213D01*
X152878213Y-89989707D01*
X152878210Y-89989711D01*
X152790609Y-90120814D01*
X152790602Y-90120827D01*
X152730264Y-90266498D01*
X152730261Y-90266510D01*
X152699500Y-90421153D01*
X152699500Y-90578846D01*
X152730261Y-90733489D01*
X152730264Y-90733501D01*
X152790602Y-90879172D01*
X152790609Y-90879185D01*
X152878210Y-91010288D01*
X152878213Y-91010292D01*
X152989707Y-91121786D01*
X152989711Y-91121789D01*
X153120814Y-91209390D01*
X153120827Y-91209397D01*
X153240888Y-91259127D01*
X153266503Y-91269737D01*
X153421153Y-91300499D01*
X153421156Y-91300500D01*
X153421158Y-91300500D01*
X153578844Y-91300500D01*
X153578845Y-91300499D01*
X153733497Y-91269737D01*
X153879179Y-91209394D01*
X153904530Y-91192455D01*
X154010875Y-91121398D01*
X154077553Y-91100520D01*
X154079766Y-91100500D01*
X156200902Y-91100500D01*
X156267941Y-91120185D01*
X156313696Y-91172989D01*
X156323640Y-91242147D01*
X156294615Y-91305703D01*
X156288583Y-91312181D01*
X155737584Y-91863181D01*
X155676261Y-91896666D01*
X155649903Y-91899500D01*
X154079766Y-91899500D01*
X154012727Y-91879815D01*
X154010875Y-91878602D01*
X153879185Y-91790609D01*
X153879172Y-91790602D01*
X153733501Y-91730264D01*
X153733489Y-91730261D01*
X153578845Y-91699500D01*
X153578842Y-91699500D01*
X153421158Y-91699500D01*
X153421155Y-91699500D01*
X153266510Y-91730261D01*
X153266498Y-91730264D01*
X153120827Y-91790602D01*
X153120814Y-91790609D01*
X152989711Y-91878210D01*
X152896259Y-91971662D01*
X152834935Y-92005146D01*
X152765244Y-92000162D01*
X152720897Y-91971661D01*
X151536819Y-90787583D01*
X151503334Y-90726260D01*
X151500500Y-90699902D01*
X151500500Y-88010921D01*
X151500499Y-88010917D01*
X151478339Y-87928211D01*
X151459577Y-87858191D01*
X151396824Y-87749500D01*
X151380520Y-87721260D01*
X151268716Y-87609456D01*
X151268715Y-87609455D01*
X151264385Y-87605125D01*
X151264374Y-87605115D01*
X149721440Y-86062181D01*
X149687955Y-86000858D01*
X149692939Y-85931166D01*
X149734811Y-85875233D01*
X149800275Y-85850816D01*
X149809121Y-85850500D01*
X150875500Y-85850500D01*
X150942539Y-85870185D01*
X150988294Y-85922989D01*
X150999500Y-85974500D01*
X150999500Y-85978846D01*
X151030261Y-86133489D01*
X151030264Y-86133501D01*
X151090602Y-86279172D01*
X151090609Y-86279185D01*
X151178210Y-86410288D01*
X151178213Y-86410292D01*
X151289707Y-86521786D01*
X151289711Y-86521789D01*
X151420814Y-86609390D01*
X151420827Y-86609397D01*
X151566498Y-86669735D01*
X151566503Y-86669737D01*
X151677471Y-86691810D01*
X151721153Y-86700499D01*
X151721156Y-86700500D01*
X151721158Y-86700500D01*
X151878844Y-86700500D01*
X151878845Y-86700499D01*
X152033497Y-86669737D01*
X152179179Y-86609394D01*
X152186943Y-86604206D01*
X152310875Y-86521398D01*
X152377553Y-86500520D01*
X152379766Y-86500500D01*
X153379017Y-86500500D01*
X153379033Y-86500501D01*
X153386629Y-86500501D01*
X153544740Y-86500501D01*
X153544743Y-86500501D01*
X153697471Y-86459577D01*
X153747590Y-86430639D01*
X153834402Y-86380520D01*
X153946206Y-86268716D01*
X153946206Y-86268714D01*
X153956414Y-86258507D01*
X153956415Y-86258504D01*
X158278102Y-81936819D01*
X158339425Y-81903334D01*
X158365783Y-81900500D01*
X160475500Y-81900500D01*
X160542539Y-81920185D01*
G37*
%TD.AperFunction*%
%TD*%
M02*
