%TF.GenerationSoftware,KiCad,Pcbnew,10.0.5*%
%TF.CreationDate,2026-08-09T20:38:01-07:00*%
%TF.ProjectId,micro-keyer,6d696372-6f2d-46b6-9579-65722e6b6963,rev?*%
%TF.SameCoordinates,Original*%
%TF.FileFunction,Copper,L1,Top*%
%TF.FilePolarity,Positive*%
%FSLAX46Y46*%
G04 Gerber Fmt 4.6, Leading zero omitted, Abs format (unit mm)*
G04 Created by KiCad (PCBNEW 10.0.5) date 2026-08-09 20:38:01*
%MOMM*%
%LPD*%
G01*
G04 APERTURE LIST*
G04 Aperture macros list*
%AMRoundRect*
0 Rectangle with rounded corners*
0 $1 Rounding radius*
0 $2 $3 $4 $5 $6 $7 $8 $9 X,Y pos of 4 corners*
0 Add a 4 corners polygon primitive as box body*
4,1,4,$2,$3,$4,$5,$6,$7,$8,$9,$2,$3,0*
0 Add four circle primitives for the rounded corners*
1,1,$1+$1,$2,$3*
1,1,$1+$1,$4,$5*
1,1,$1+$1,$6,$7*
1,1,$1+$1,$8,$9*
0 Add four rect primitives between the rounded corners*
20,1,$1+$1,$2,$3,$4,$5,0*
20,1,$1+$1,$4,$5,$6,$7,0*
20,1,$1+$1,$6,$7,$8,$9,0*
20,1,$1+$1,$8,$9,$2,$3,0*%
G04 Aperture macros list end*
%TA.AperFunction,ComponentPad*%
%ADD10R,1.160000X1.160000*%
%TD*%
%TA.AperFunction,ComponentPad*%
%ADD11C,1.160000*%
%TD*%
%TA.AperFunction,ComponentPad*%
%ADD12R,1.500000X1.050000*%
%TD*%
%TA.AperFunction,ComponentPad*%
%ADD13O,1.500000X1.050000*%
%TD*%
%TA.AperFunction,ComponentPad*%
%ADD14RoundRect,0.300000X-0.700000X-0.700000X0.700000X-0.700000X0.700000X0.700000X-0.700000X0.700000X0*%
%TD*%
%TA.AperFunction,ComponentPad*%
%ADD15RoundRect,0.190500X-0.444500X-0.444500X0.444500X-0.444500X0.444500X0.444500X-0.444500X0.444500X0*%
%TD*%
%TA.AperFunction,SMDPad,CuDef*%
%ADD16RoundRect,0.250000X0.325000X0.650000X-0.325000X0.650000X-0.325000X-0.650000X0.325000X-0.650000X0*%
%TD*%
%TA.AperFunction,ComponentPad*%
%ADD17R,1.050000X1.500000*%
%TD*%
%TA.AperFunction,ComponentPad*%
%ADD18O,1.050000X1.500000*%
%TD*%
%TA.AperFunction,SMDPad,CuDef*%
%ADD19RoundRect,0.250000X-0.325000X-0.650000X0.325000X-0.650000X0.325000X0.650000X-0.325000X0.650000X0*%
%TD*%
%TA.AperFunction,ComponentPad*%
%ADD20R,2.000000X2.000000*%
%TD*%
%TA.AperFunction,ComponentPad*%
%ADD21C,2.000000*%
%TD*%
%TA.AperFunction,ComponentPad*%
%ADD22R,2.000000X3.200000*%
%TD*%
%TA.AperFunction,SMDPad,CuDef*%
%ADD23R,2.200000X2.800000*%
%TD*%
%TA.AperFunction,SMDPad,CuDef*%
%ADD24R,2.800000X2.800000*%
%TD*%
%TA.AperFunction,ComponentPad*%
%ADD25RoundRect,0.250000X-0.750000X-0.750000X0.750000X-0.750000X0.750000X0.750000X-0.750000X0.750000X0*%
%TD*%
%TA.AperFunction,SMDPad,CuDef*%
%ADD26RoundRect,0.200000X-0.800000X1.175000X-0.800000X-1.175000X0.800000X-1.175000X0.800000X1.175000X0*%
%TD*%
%TA.AperFunction,SMDPad,CuDef*%
%ADD27RoundRect,0.200000X0.800000X-1.175000X0.800000X1.175000X-0.800000X1.175000X-0.800000X-1.175000X0*%
%TD*%
%TA.AperFunction,SMDPad,CuDef*%
%ADD28C,1.700000*%
%TD*%
%TA.AperFunction,SMDPad,CuDef*%
%ADD29RoundRect,0.110000X-1.140000X-0.440000X1.140000X-0.440000X1.140000X0.440000X-1.140000X0.440000X0*%
%TD*%
%TA.AperFunction,ComponentPad*%
%ADD30O,2.500000X3.500000*%
%TD*%
%TA.AperFunction,ComponentPad*%
%ADD31O,3.000000X1.500000*%
%TD*%
%TA.AperFunction,ComponentPad*%
%ADD32O,3.500000X2.500000*%
%TD*%
%TA.AperFunction,ComponentPad*%
%ADD33O,2.100000X3.100000*%
%TD*%
%TA.AperFunction,ComponentPad*%
%ADD34RoundRect,0.200000X0.200000X0.450000X-0.200000X0.450000X-0.200000X-0.450000X0.200000X-0.450000X0*%
%TD*%
%TA.AperFunction,ComponentPad*%
%ADD35O,0.800000X1.300000*%
%TD*%
%TA.AperFunction,ViaPad*%
%ADD36C,0.600000*%
%TD*%
%TA.AperFunction,Conductor*%
%ADD37C,0.200000*%
%TD*%
G04 APERTURE END LIST*
D10*
%TO.P,RV1,1,1_1*%
%TO.N,unconnected-(RV1-Pad1)*%
X175380000Y-114210000D03*
D11*
%TO.P,RV1,2,2_2*%
%TO.N,Net-(Q1-E)*%
X175380000Y-116750000D03*
%TO.P,RV1,3,3_3*%
%TO.N,/AAudio*%
X175380000Y-119290000D03*
%TD*%
D12*
%TO.P,Q1,1,E_1*%
%TO.N,Net-(Q1-E)*%
X160750000Y-93500000D03*
D13*
%TO.P,Q1,2,B_2*%
%TO.N,/PWM*%
X160750000Y-92230000D03*
%TO.P,Q1,3,C_3*%
%TO.N,+3V3*%
X160750000Y-90960000D03*
%TD*%
D14*
%TO.P,SW2,*%
%TO.N,*%
X153850000Y-120500000D03*
X169850000Y-120500000D03*
D15*
%TO.P,SW2,1,1_1*%
%TO.N,/MIDI*%
X157750000Y-120500000D03*
%TO.P,SW2,2,2_2*%
%TO.N,/HID*%
X159750000Y-120500000D03*
%TO.P,SW2,3,3_3*%
%TO.N,GND*%
X161750000Y-120500000D03*
%TO.P,SW2,4,4_4*%
%TO.N,/SERIAL*%
X165750000Y-120500000D03*
%TD*%
D16*
%TO.P,C1,1*%
%TO.N,+3V3*%
X143200000Y-79250000D03*
%TO.P,C1,2*%
%TO.N,GND*%
X140250000Y-79250000D03*
%TD*%
D17*
%TO.P,Q2,1,S_1*%
%TO.N,GND*%
X159210000Y-101250000D03*
D18*
%TO.P,Q2,2,G_2*%
%TO.N,/Radio Controll*%
X160480000Y-101250000D03*
%TO.P,Q2,3,D_3*%
%TO.N,Net-(Q2-D)*%
X161750000Y-101250000D03*
%TD*%
D19*
%TO.P,C2,1*%
%TO.N,+3V3*%
X160000000Y-84000000D03*
%TO.P,C2,2*%
%TO.N,GND*%
X162950000Y-84000000D03*
%TD*%
D20*
%TO.P,SW1,A,A_A*%
%TO.N,/Rot A*%
X170000000Y-93000000D03*
D21*
%TO.P,SW1,B,B_B*%
%TO.N,/Rot B*%
X175000000Y-93000000D03*
%TO.P,SW1,C,C_C*%
%TO.N,GND*%
X172500000Y-93000000D03*
D22*
%TO.P,SW1,MP,MP_MP*%
X166900000Y-85500000D03*
X178100000Y-85500000D03*
D21*
%TO.P,SW1,S1,S1_S1*%
%TO.N,/Rot SW*%
X175000000Y-78500000D03*
%TO.P,SW1,S2,S2_S2*%
%TO.N,GND*%
X170000000Y-78500000D03*
%TD*%
D23*
%TO.P,J3,R*%
%TO.N,/Dah*%
X140400000Y-102800000D03*
%TO.P,J3,S*%
%TO.N,GND*%
X138400000Y-110200000D03*
D24*
%TO.P,J3,T*%
%TO.N,/Dit*%
X147800000Y-110200000D03*
%TD*%
D15*
%TO.P,BZ1,1,+_1*%
%TO.N,Net-(BZ1-+)*%
X156750000Y-111250000D03*
%TO.P,BZ1,2,-_2*%
%TO.N,GND*%
X160750000Y-111250000D03*
%TD*%
D25*
%TO.P,SSD1,1,GND_1*%
%TO.N,GND*%
X147500000Y-79500000D03*
D21*
%TO.P,SSD1,2,VCC_2*%
%TO.N,+3V3*%
X150000000Y-79500000D03*
%TO.P,SSD1,3,SCL_3*%
%TO.N,Net-(SSD1-SCL)*%
X152500000Y-79500000D03*
%TO.P,SSD1,4,SDA_4*%
%TO.N,Net-(SSD1-SDA)*%
X155000000Y-79500000D03*
%TD*%
D26*
%TO.P,U1,1,D0_1*%
%TO.N,/Dit*%
X138655189Y-99582500D03*
%TO.P,U1,2,D1_2*%
%TO.N,/Dah*%
X141195189Y-99582500D03*
%TO.P,U1,3,D2_3*%
%TO.N,/PWM*%
X143735189Y-99582500D03*
%TO.P,U1,4,D3_4*%
%TO.N,/Rot A*%
X146275189Y-99582500D03*
%TO.P,U1,5,D4_5*%
%TO.N,Net-(SSD1-SDA)*%
X148815189Y-99582500D03*
%TO.P,U1,6,D5_6*%
%TO.N,Net-(SSD1-SCL)*%
X151355189Y-99582500D03*
%TO.P,U1,7,D6_7*%
%TO.N,/Rot B*%
X153895189Y-99582500D03*
D27*
%TO.P,U1,8,D7_8*%
%TO.N,/SERIAL*%
X153895189Y-83417500D03*
%TO.P,U1,9,D8_9*%
%TO.N,/HID*%
X151355189Y-83417500D03*
%TO.P,U1,10,D9_10*%
%TO.N,/Radio Controll*%
X148815189Y-83417500D03*
%TO.P,U1,11,D10_11*%
%TO.N,/Rot SW*%
X146275189Y-83417500D03*
%TO.P,U1,12,3V3_OUT_12*%
%TO.N,+3V3*%
X143735189Y-83417500D03*
%TO.P,U1,13,GND_13*%
%TO.N,GND*%
X141195189Y-83417500D03*
%TO.P,U1,14,VBUS_14*%
%TO.N,unconnected-(U1-VBUS-Pad14)*%
X138655189Y-83417500D03*
D28*
%TO.P,U1,15,D11_15*%
%TO.N,unconnected-(U1-D11-Pad15)*%
X142465189Y-86499006D03*
%TO.P,U1,16,D12_16*%
%TO.N,unconnected-(U1-D12-Pad16)*%
X145005189Y-86499006D03*
%TO.P,U1,17,D13_17*%
%TO.N,unconnected-(U1-D13-Pad17)*%
X147545189Y-86499006D03*
%TO.P,U1,18,D14_18*%
%TO.N,unconnected-(U1-D14-Pad18)*%
X150085189Y-86499006D03*
%TO.P,U1,19,D15_19*%
%TO.N,unconnected-(U1-D15-Pad19)*%
X150085189Y-96659006D03*
%TO.P,U1,20,D16_20*%
%TO.N,unconnected-(U1-D16-Pad20)*%
X147545189Y-96659006D03*
%TO.P,U1,21,D17_21*%
%TO.N,unconnected-(U1-D17-Pad21)*%
X145005189Y-96659006D03*
%TO.P,U1,22,D18_22*%
%TO.N,unconnected-(U1-D18-Pad22)*%
X142465189Y-96659006D03*
%TO.P,U1,23,SWDIO_23*%
%TO.N,unconnected-(U1-SWDIO-Pad23)*%
X137625189Y-92770000D03*
%TO.P,U1,24,SWDCLK_24*%
%TO.N,unconnected-(U1-SWDCLK-Pad24)*%
X137625189Y-90230000D03*
%TO.P,U1,25,EN_25*%
%TO.N,unconnected-(U1-EN-Pad25)*%
X140165189Y-92770000D03*
%TO.P,U1,26,GND_26*%
%TO.N,unconnected-(U1-GND-Pad26)*%
X140165189Y-90230000D03*
%TO.P,U1,27,BOOT_27*%
%TO.N,unconnected-(U1-BOOT-Pad27)*%
X142705189Y-92770000D03*
%TO.P,U1,28,3V3_OUT_28*%
%TO.N,unconnected-(U1-3V3_OUT-Pad28)*%
X142705189Y-90230000D03*
D29*
%TO.P,U1,29,VBAT_29*%
%TO.N,Net-(J1-Pin_1)*%
X151250000Y-92500000D03*
%TO.P,U1,30,GND_30*%
%TO.N,Net-(J1-Pin_2)*%
X151250000Y-90500000D03*
%TD*%
D23*
%TO.P,J4,R*%
%TO.N,Net-(Q2-D)*%
X140400000Y-114000000D03*
%TO.P,J4,S*%
%TO.N,GND*%
X138400000Y-121400000D03*
D24*
%TO.P,J4,T*%
%TO.N,Net-(Q2-D)*%
X147800000Y-121400000D03*
%TD*%
D30*
%TO.P,J2,G*%
%TO.N,GND*%
X177850000Y-104000000D03*
D31*
%TO.P,J2,S1*%
%TO.N,/AAudio*%
X169550000Y-109000000D03*
D32*
%TO.P,J2,SN1*%
%TO.N,Net-(BZ1-+)*%
X171250000Y-106500000D03*
%TO.P,J2,T1*%
%TO.N,/AAudio*%
X174350000Y-99500000D03*
D33*
%TO.P,J2,TN1*%
%TO.N,Net-(BZ1-+)*%
X166750000Y-99800000D03*
%TD*%
D19*
%TO.P,C3,1*%
%TO.N,+3V3*%
X160000000Y-86600000D03*
%TO.P,C3,2*%
%TO.N,GND*%
X162950000Y-86600000D03*
%TD*%
D34*
%TO.P,J1,1,Pin_1_1*%
%TO.N,Net-(J1-Pin_1)*%
X162750000Y-80250000D03*
D35*
%TO.P,J1,2,Pin_2_2*%
%TO.N,Net-(J1-Pin_2)*%
X161500000Y-80250000D03*
%TD*%
D36*
%TO.N,/HID*%
X147250000Y-94250000D03*
%TO.N,GND*%
X150750000Y-94750000D03*
X156000000Y-96000000D03*
X163500000Y-96500000D03*
X143750000Y-104250000D03*
X157000000Y-102500000D03*
%TO.N,/SERIAL*%
X148500000Y-94250000D03*
%TO.N,/Radio Controll*%
X148750000Y-85500000D03*
X160000000Y-96750000D03*
%TO.N,/Rot A*%
X152000000Y-96500000D03*
X163750000Y-94000000D03*
%TO.N,/Rot B*%
X162250000Y-95750000D03*
X155750000Y-98250000D03*
%TO.N,/Rot SW*%
X146500000Y-85250000D03*
%TO.N,Net-(J1-Pin_1)*%
X153500000Y-92500000D03*
%TO.N,Net-(J1-Pin_2)*%
X153500000Y-90500000D03*
%TD*%
%TO.N,/AAudio*%
D37*
X172250000Y-109000000D02*
X169550000Y-109000000D01*
X173630000Y-119290000D02*
X169550000Y-115210000D01*
X175380000Y-119290000D02*
X173630000Y-119290000D01*
X174350000Y-106900000D02*
X172250000Y-109000000D01*
X174350000Y-99500000D02*
X174350000Y-106900000D01*
X169550000Y-115210000D02*
X169550000Y-109000000D01*
%TO.N,/PWM*%
X145677689Y-102900000D02*
X155415686Y-102900000D01*
X158500000Y-99815686D02*
X158500000Y-93250000D01*
X143735189Y-100957500D02*
X145677689Y-102900000D01*
X143735189Y-99582500D02*
X143735189Y-100957500D01*
X158500000Y-93250000D02*
X159500000Y-92250000D01*
X160730000Y-92250000D02*
X160750000Y-92230000D01*
X155415686Y-102900000D02*
X158500000Y-99815686D01*
X159500000Y-92250000D02*
X160730000Y-92250000D01*
%TO.N,+3V3*%
X143735189Y-83417500D02*
X143735189Y-82042500D01*
X144117503Y-81660186D02*
X147989814Y-81660186D01*
X160000000Y-86600000D02*
X160000000Y-90210000D01*
X159710000Y-90960000D02*
X160750000Y-90960000D01*
X143735189Y-82042500D02*
X144117503Y-81660186D01*
X155950000Y-78200000D02*
X158500000Y-80750000D01*
X158500000Y-89750000D02*
X159710000Y-90960000D01*
X147989814Y-81660186D02*
X151450000Y-78200000D01*
X143200000Y-79250000D02*
X143200000Y-82882311D01*
X160000000Y-90210000D02*
X160750000Y-90960000D01*
X160000000Y-86600000D02*
X160000000Y-83250000D01*
X151450000Y-78200000D02*
X155950000Y-78200000D01*
X143200000Y-82882311D02*
X143735189Y-83417500D01*
X158500000Y-80750000D02*
X158500000Y-89750000D01*
%TO.N,/HID*%
X151355189Y-83417500D02*
X151355189Y-86855352D01*
X151355189Y-86855352D02*
X147250000Y-90960541D01*
X147250000Y-90960541D02*
X147250000Y-94250000D01*
%TO.N,/SERIAL*%
X153895189Y-83417500D02*
X153895189Y-85604811D01*
X165900000Y-121500000D02*
X165850000Y-121500000D01*
X153895189Y-85604811D02*
X148500000Y-91000000D01*
X148500000Y-91000000D02*
X148500000Y-94250000D01*
%TO.N,/Radio Controll*%
X148750000Y-85500000D02*
X148750000Y-85250000D01*
X148750000Y-85250000D02*
X148815189Y-85184811D01*
X160480000Y-101250000D02*
X160480000Y-97230000D01*
X160480000Y-97230000D02*
X160000000Y-96750000D01*
X148815189Y-85184811D02*
X148815189Y-83417500D01*
%TO.N,Net-(Q2-D)*%
X161750000Y-101475000D02*
X159725000Y-103500000D01*
X150500000Y-118950000D02*
X148050000Y-121400000D01*
X151750000Y-103500000D02*
X150500000Y-104750000D01*
X159725000Y-103500000D02*
X151750000Y-103500000D01*
X161750000Y-101250000D02*
X161750000Y-101475000D01*
X150500000Y-104750000D02*
X150500000Y-118950000D01*
X140650000Y-114000000D02*
X148050000Y-121400000D01*
%TO.N,/Rot A*%
X163750000Y-94000000D02*
X164250000Y-94000000D01*
X164250000Y-94000000D02*
X165250000Y-93000000D01*
X165250000Y-93000000D02*
X170000000Y-93000000D01*
X147901035Y-97809006D02*
X150690994Y-97809006D01*
X146275189Y-99434852D02*
X147901035Y-97809006D01*
X146275189Y-99582500D02*
X146275189Y-99434852D01*
X150690994Y-97809006D02*
X152000000Y-96500000D01*
%TO.N,/Rot B*%
X173000000Y-95000000D02*
X175000000Y-93000000D01*
X163000000Y-95000000D02*
X173000000Y-95000000D01*
X155227689Y-98250000D02*
X153895189Y-99582500D01*
X155750000Y-98250000D02*
X155227689Y-98250000D01*
X162250000Y-95750000D02*
X163000000Y-95000000D01*
%TO.N,/Rot SW*%
X146275189Y-85025189D02*
X146500000Y-85250000D01*
X146275189Y-83417500D02*
X146275189Y-85025189D01*
%TO.N,/Dah*%
X141195189Y-102004811D02*
X140400000Y-102800000D01*
X141195189Y-99582500D02*
X141195189Y-102004811D01*
%TO.N,/Dit*%
X137500000Y-100737689D02*
X137500000Y-107250000D01*
X138655189Y-99582500D02*
X137500000Y-100737689D01*
X138500000Y-108250000D02*
X145850000Y-108250000D01*
X145850000Y-108250000D02*
X147800000Y-110200000D01*
X137500000Y-107250000D02*
X138500000Y-108250000D01*
%TO.N,Net-(BZ1-+)*%
X171250000Y-104300000D02*
X166750000Y-99800000D01*
X156750000Y-109800000D02*
X166750000Y-99800000D01*
X171250000Y-106500000D02*
X171250000Y-104300000D01*
X156750000Y-111250000D02*
X156750000Y-109800000D01*
%TO.N,Net-(SSD1-SCL)*%
X155195189Y-82029852D02*
X155195189Y-94367500D01*
X151355189Y-98207500D02*
X151355189Y-99582500D01*
X152650000Y-79500000D02*
X152665337Y-79500000D01*
X152665337Y-79500000D02*
X155195189Y-82029852D01*
X155195189Y-94367500D02*
X151355189Y-98207500D01*
%TO.N,Net-(SSD1-SDA)*%
X158000000Y-82350000D02*
X158000000Y-99750000D01*
X150000000Y-102500000D02*
X148815189Y-101315189D01*
X155150000Y-79500000D02*
X158000000Y-82350000D01*
X158000000Y-99750000D02*
X155250000Y-102500000D01*
X148815189Y-101315189D02*
X148815189Y-99582500D01*
X155250000Y-102500000D02*
X150000000Y-102500000D01*
%TO.N,Net-(J1-Pin_1)*%
X153500000Y-92500000D02*
X151250000Y-92500000D01*
%TO.N,Net-(J1-Pin_2)*%
X153500000Y-90500000D02*
X151250000Y-90500000D01*
%TD*%
%TA.AperFunction,Conductor*%
%TO.N,GND*%
G36*
X179442539Y-76770185D02*
G01*
X179488294Y-76822989D01*
X179499500Y-76874500D01*
X179499500Y-122875500D01*
X179479815Y-122942539D01*
X179427011Y-122988294D01*
X179375500Y-122999500D01*
X149822244Y-122999500D01*
X149755205Y-122979815D01*
X149709450Y-122927011D01*
X149698954Y-122862247D01*
X149700500Y-122847873D01*
X149700499Y-120650095D01*
X149720184Y-120583057D01*
X149736813Y-120562420D01*
X150544195Y-119755039D01*
X152349500Y-119755039D01*
X152349500Y-121244960D01*
X152364630Y-121379249D01*
X152364631Y-121379254D01*
X152424211Y-121549523D01*
X152520184Y-121702262D01*
X152647738Y-121829816D01*
X152800478Y-121925789D01*
X152956890Y-121980520D01*
X152970745Y-121985368D01*
X152970750Y-121985369D01*
X153061246Y-121995565D01*
X153105040Y-122000499D01*
X153105043Y-122000500D01*
X153105046Y-122000500D01*
X154594957Y-122000500D01*
X154594958Y-122000499D01*
X154662104Y-121992934D01*
X154729249Y-121985369D01*
X154729252Y-121985368D01*
X154729255Y-121985368D01*
X154899522Y-121925789D01*
X155052262Y-121829816D01*
X155179816Y-121702262D01*
X155275789Y-121549522D01*
X155335368Y-121379255D01*
X155335986Y-121373777D01*
X155350499Y-121244960D01*
X155350500Y-121244956D01*
X155350500Y-119999655D01*
X156614500Y-119999655D01*
X156614500Y-121000354D01*
X156620825Y-121069966D01*
X156620828Y-121069977D01*
X156670747Y-121230175D01*
X156670749Y-121230179D01*
X156757556Y-121373777D01*
X156757560Y-121373782D01*
X156876217Y-121492439D01*
X156876222Y-121492443D01*
X156976682Y-121553172D01*
X157019822Y-121579251D01*
X157180029Y-121629173D01*
X157249653Y-121635500D01*
X158250346Y-121635499D01*
X158250353Y-121635499D01*
X158319966Y-121629174D01*
X158319969Y-121629173D01*
X158319971Y-121629173D01*
X158480178Y-121579251D01*
X158554089Y-121534570D01*
X158623777Y-121492443D01*
X158623778Y-121492441D01*
X158623783Y-121492439D01*
X158662319Y-121453903D01*
X158723642Y-121420418D01*
X158793334Y-121425402D01*
X158837681Y-121453903D01*
X158876217Y-121492439D01*
X158876222Y-121492443D01*
X158976682Y-121553172D01*
X159019822Y-121579251D01*
X159180029Y-121629173D01*
X159249653Y-121635500D01*
X160250346Y-121635499D01*
X160250353Y-121635499D01*
X160319966Y-121629174D01*
X160319969Y-121629173D01*
X160319971Y-121629173D01*
X160480178Y-121579251D01*
X160554089Y-121534570D01*
X160623777Y-121492443D01*
X160623778Y-121492441D01*
X160623783Y-121492439D01*
X160742439Y-121373783D01*
X160750001Y-121361275D01*
X160770254Y-121327770D01*
X160829251Y-121230178D01*
X160879173Y-121069971D01*
X160885500Y-121000347D01*
X160885499Y-119999655D01*
X164614500Y-119999655D01*
X164614500Y-121000354D01*
X164620825Y-121069966D01*
X164620828Y-121069977D01*
X164670747Y-121230175D01*
X164670749Y-121230179D01*
X164757556Y-121373777D01*
X164757560Y-121373782D01*
X164876217Y-121492439D01*
X164876222Y-121492443D01*
X164976682Y-121553172D01*
X165019822Y-121579251D01*
X165180029Y-121629173D01*
X165180035Y-121629173D01*
X165180037Y-121629174D01*
X165186464Y-121630453D01*
X165186164Y-121631960D01*
X165243813Y-121654730D01*
X165284605Y-121711455D01*
X165287388Y-121720458D01*
X165290422Y-121731782D01*
X165290426Y-121731790D01*
X165369475Y-121868709D01*
X165369479Y-121868714D01*
X165369480Y-121868716D01*
X165481284Y-121980520D01*
X165481286Y-121980521D01*
X165481290Y-121980524D01*
X165618209Y-122059573D01*
X165618216Y-122059577D01*
X165770943Y-122100500D01*
X165770945Y-122100500D01*
X165979055Y-122100500D01*
X165979057Y-122100500D01*
X166131784Y-122059577D01*
X166268716Y-121980520D01*
X166380520Y-121868716D01*
X166459577Y-121731784D01*
X166491450Y-121612830D01*
X166527814Y-121553172D01*
X166547067Y-121538814D01*
X166623783Y-121492439D01*
X166742439Y-121373783D01*
X166750001Y-121361275D01*
X166770254Y-121327770D01*
X166829251Y-121230178D01*
X166879173Y-121069971D01*
X166885500Y-121000347D01*
X166885499Y-119999654D01*
X166885499Y-119999653D01*
X166885499Y-119999645D01*
X166879174Y-119930033D01*
X166879172Y-119930025D01*
X166835058Y-119788458D01*
X166829251Y-119769822D01*
X166820317Y-119755043D01*
X166820315Y-119755039D01*
X168349500Y-119755039D01*
X168349500Y-121244960D01*
X168364630Y-121379249D01*
X168364631Y-121379254D01*
X168424211Y-121549523D01*
X168520184Y-121702262D01*
X168647738Y-121829816D01*
X168800478Y-121925789D01*
X168956890Y-121980520D01*
X168970745Y-121985368D01*
X168970750Y-121985369D01*
X169061246Y-121995565D01*
X169105040Y-122000499D01*
X169105043Y-122000500D01*
X169105046Y-122000500D01*
X170594957Y-122000500D01*
X170594958Y-122000499D01*
X170662104Y-121992934D01*
X170729249Y-121985369D01*
X170729252Y-121985368D01*
X170729255Y-121985368D01*
X170899522Y-121925789D01*
X171052262Y-121829816D01*
X171179816Y-121702262D01*
X171275789Y-121549522D01*
X171335368Y-121379255D01*
X171335986Y-121373777D01*
X171350499Y-121244960D01*
X171350500Y-121244956D01*
X171350500Y-119755043D01*
X171350499Y-119755039D01*
X171335369Y-119620750D01*
X171335368Y-119620745D01*
X171319220Y-119574596D01*
X171275789Y-119450478D01*
X171179816Y-119297738D01*
X171052262Y-119170184D01*
X170899523Y-119074211D01*
X170729254Y-119014631D01*
X170729249Y-119014630D01*
X170594960Y-118999500D01*
X170594954Y-118999500D01*
X169105046Y-118999500D01*
X169105039Y-118999500D01*
X168970750Y-119014630D01*
X168970745Y-119014631D01*
X168800476Y-119074211D01*
X168647737Y-119170184D01*
X168520184Y-119297737D01*
X168424211Y-119450476D01*
X168364631Y-119620745D01*
X168364630Y-119620750D01*
X168349500Y-119755039D01*
X166820315Y-119755039D01*
X166742443Y-119626222D01*
X166742439Y-119626217D01*
X166623782Y-119507560D01*
X166623777Y-119507556D01*
X166480180Y-119420750D01*
X166480179Y-119420749D01*
X166480178Y-119420749D01*
X166319971Y-119370827D01*
X166319969Y-119370826D01*
X166319967Y-119370826D01*
X166271221Y-119366396D01*
X166250347Y-119364500D01*
X166250344Y-119364500D01*
X165249645Y-119364500D01*
X165180033Y-119370825D01*
X165180022Y-119370828D01*
X165019824Y-119420747D01*
X165019820Y-119420749D01*
X164876222Y-119507556D01*
X164876217Y-119507560D01*
X164757560Y-119626217D01*
X164757556Y-119626222D01*
X164670750Y-119769819D01*
X164670750Y-119769820D01*
X164670749Y-119769822D01*
X164664942Y-119788458D01*
X164620826Y-119930032D01*
X164614500Y-119999655D01*
X160885499Y-119999655D01*
X160885499Y-119999654D01*
X160885499Y-119999653D01*
X160885499Y-119999645D01*
X160879174Y-119930033D01*
X160879171Y-119930022D01*
X160829252Y-119769824D01*
X160829250Y-119769820D01*
X160742443Y-119626222D01*
X160742439Y-119626217D01*
X160623782Y-119507560D01*
X160623777Y-119507556D01*
X160480180Y-119420750D01*
X160480179Y-119420749D01*
X160480178Y-119420749D01*
X160319971Y-119370827D01*
X160319969Y-119370826D01*
X160319967Y-119370826D01*
X160271221Y-119366396D01*
X160250347Y-119364500D01*
X160250344Y-119364500D01*
X159249645Y-119364500D01*
X159180033Y-119370825D01*
X159180022Y-119370828D01*
X159019824Y-119420747D01*
X159019820Y-119420749D01*
X158876222Y-119507556D01*
X158876216Y-119507561D01*
X158837680Y-119546097D01*
X158776357Y-119579582D01*
X158706665Y-119574596D01*
X158662320Y-119546097D01*
X158623783Y-119507561D01*
X158623777Y-119507556D01*
X158480180Y-119420750D01*
X158480179Y-119420749D01*
X158480178Y-119420749D01*
X158319971Y-119370827D01*
X158319969Y-119370826D01*
X158319967Y-119370826D01*
X158271221Y-119366396D01*
X158250347Y-119364500D01*
X158250344Y-119364500D01*
X157249645Y-119364500D01*
X157180033Y-119370825D01*
X157180022Y-119370828D01*
X157019824Y-119420747D01*
X157019820Y-119420749D01*
X156876222Y-119507556D01*
X156876217Y-119507560D01*
X156757560Y-119626217D01*
X156757556Y-119626222D01*
X156670750Y-119769819D01*
X156670750Y-119769820D01*
X156670749Y-119769822D01*
X156664942Y-119788458D01*
X156620826Y-119930032D01*
X156614500Y-119999655D01*
X155350500Y-119999655D01*
X155350500Y-119755043D01*
X155350499Y-119755039D01*
X155335369Y-119620750D01*
X155335368Y-119620745D01*
X155319220Y-119574596D01*
X155275789Y-119450478D01*
X155179816Y-119297738D01*
X155052262Y-119170184D01*
X154899523Y-119074211D01*
X154729254Y-119014631D01*
X154729249Y-119014630D01*
X154594960Y-118999500D01*
X154594954Y-118999500D01*
X153105046Y-118999500D01*
X153105039Y-118999500D01*
X152970750Y-119014630D01*
X152970745Y-119014631D01*
X152800476Y-119074211D01*
X152647737Y-119170184D01*
X152520184Y-119297737D01*
X152424211Y-119450476D01*
X152364631Y-119620745D01*
X152364630Y-119620750D01*
X152349500Y-119755039D01*
X150544195Y-119755039D01*
X150858506Y-119440728D01*
X150858511Y-119440724D01*
X150868714Y-119430520D01*
X150868716Y-119430520D01*
X150980520Y-119318716D01*
X151047168Y-119203278D01*
X151059577Y-119181785D01*
X151100500Y-119029058D01*
X151100500Y-118870943D01*
X151100500Y-110749655D01*
X155614500Y-110749655D01*
X155614500Y-111750354D01*
X155620825Y-111819966D01*
X155620828Y-111819977D01*
X155670747Y-111980175D01*
X155670749Y-111980179D01*
X155757556Y-112123777D01*
X155757560Y-112123782D01*
X155876217Y-112242439D01*
X155876222Y-112242443D01*
X155996815Y-112315343D01*
X156019822Y-112329251D01*
X156180029Y-112379173D01*
X156249653Y-112385500D01*
X157250346Y-112385499D01*
X157250353Y-112385499D01*
X157319966Y-112379174D01*
X157319969Y-112379173D01*
X157319971Y-112379173D01*
X157480178Y-112329251D01*
X157623757Y-112242455D01*
X157623777Y-112242443D01*
X157623778Y-112242441D01*
X157623783Y-112242439D01*
X157742439Y-112123783D01*
X157760389Y-112094091D01*
X157790792Y-112043797D01*
X157829251Y-111980178D01*
X157879173Y-111819971D01*
X157885500Y-111750347D01*
X157885499Y-110749654D01*
X157885499Y-110749653D01*
X157885499Y-110749645D01*
X157879174Y-110680033D01*
X157879171Y-110680022D01*
X157829252Y-110519824D01*
X157829250Y-110519820D01*
X157742443Y-110376222D01*
X157742439Y-110376217D01*
X157623782Y-110257560D01*
X157623777Y-110257556D01*
X157480179Y-110170749D01*
X157473337Y-110167670D01*
X157474330Y-110165461D01*
X157425953Y-110133220D01*
X157397991Y-110069189D01*
X157409086Y-110000206D01*
X157433322Y-109965912D01*
X165767354Y-101631880D01*
X165828675Y-101598397D01*
X165898367Y-101603381D01*
X165927918Y-101619245D01*
X165937361Y-101626106D01*
X166154815Y-101736904D01*
X166386924Y-101812321D01*
X166627973Y-101850500D01*
X166627974Y-101850500D01*
X166872026Y-101850500D01*
X166872027Y-101850500D01*
X167113076Y-101812321D01*
X167345185Y-101736904D01*
X167562639Y-101626106D01*
X167572076Y-101619249D01*
X167637877Y-101595766D01*
X167705932Y-101611585D01*
X167732647Y-101631882D01*
X170613181Y-104512416D01*
X170646666Y-104573739D01*
X170649500Y-104600097D01*
X170649500Y-104638881D01*
X170629815Y-104705920D01*
X170577011Y-104751675D01*
X170541686Y-104761820D01*
X170430617Y-104776442D01*
X170407762Y-104779452D01*
X170314076Y-104804554D01*
X170186112Y-104838842D01*
X169974123Y-104926650D01*
X169974109Y-104926657D01*
X169775382Y-105041392D01*
X169593338Y-105181081D01*
X169431081Y-105343338D01*
X169291392Y-105525382D01*
X169176657Y-105724109D01*
X169176650Y-105724123D01*
X169088842Y-105936112D01*
X169029453Y-106157759D01*
X169029451Y-106157770D01*
X168999500Y-106385258D01*
X168999500Y-106614741D01*
X169013631Y-106722068D01*
X169029452Y-106842238D01*
X169081794Y-107037583D01*
X169088842Y-107063887D01*
X169176650Y-107275876D01*
X169176656Y-107275888D01*
X169291389Y-107474612D01*
X169295915Y-107480511D01*
X169349247Y-107550013D01*
X169374441Y-107615183D01*
X169360403Y-107683627D01*
X169311589Y-107733617D01*
X169250871Y-107749500D01*
X168701578Y-107749500D01*
X168507173Y-107780290D01*
X168319970Y-107841117D01*
X168144594Y-107930476D01*
X168053741Y-107996485D01*
X167985354Y-108046172D01*
X167985352Y-108046174D01*
X167985351Y-108046174D01*
X167846174Y-108185351D01*
X167846174Y-108185352D01*
X167846172Y-108185354D01*
X167843999Y-108188345D01*
X167730476Y-108344594D01*
X167641117Y-108519970D01*
X167580290Y-108707173D01*
X167549500Y-108901577D01*
X167549500Y-109098422D01*
X167580290Y-109292826D01*
X167641117Y-109480029D01*
X167728544Y-109651614D01*
X167730476Y-109655405D01*
X167846172Y-109814646D01*
X167985354Y-109953828D01*
X168144595Y-110069524D01*
X168227455Y-110111743D01*
X168319970Y-110158882D01*
X168319972Y-110158882D01*
X168319975Y-110158884D01*
X168356492Y-110170749D01*
X168507173Y-110219709D01*
X168701578Y-110250500D01*
X168701583Y-110250500D01*
X168825500Y-110250500D01*
X168892539Y-110270185D01*
X168938294Y-110322989D01*
X168949500Y-110374500D01*
X168949500Y-115123330D01*
X168949499Y-115123348D01*
X168949499Y-115289054D01*
X168949498Y-115289054D01*
X168990423Y-115441785D01*
X168993935Y-115447867D01*
X168993936Y-115447873D01*
X168993938Y-115447873D01*
X169069477Y-115578712D01*
X169069481Y-115578717D01*
X169188349Y-115697585D01*
X169188355Y-115697590D01*
X173145139Y-119654374D01*
X173145149Y-119654385D01*
X173149479Y-119658715D01*
X173149480Y-119658716D01*
X173261284Y-119770520D01*
X173261286Y-119770521D01*
X173261290Y-119770524D01*
X173398209Y-119849573D01*
X173398216Y-119849577D01*
X173510019Y-119879534D01*
X173550942Y-119890500D01*
X173550943Y-119890500D01*
X174417537Y-119890500D01*
X174484576Y-119910185D01*
X174517853Y-119941612D01*
X174555841Y-119993898D01*
X174676102Y-120114159D01*
X174813695Y-120214126D01*
X174965232Y-120291339D01*
X175126982Y-120343894D01*
X175294963Y-120370500D01*
X175294964Y-120370500D01*
X175465036Y-120370500D01*
X175465037Y-120370500D01*
X175633018Y-120343894D01*
X175794768Y-120291339D01*
X175946305Y-120214126D01*
X176083898Y-120114159D01*
X176204159Y-119993898D01*
X176304126Y-119856305D01*
X176381339Y-119704768D01*
X176433894Y-119543018D01*
X176460500Y-119375037D01*
X176460500Y-119204963D01*
X176433894Y-119036982D01*
X176381339Y-118875232D01*
X176304126Y-118723695D01*
X176204159Y-118586102D01*
X176083898Y-118465841D01*
X175946305Y-118365874D01*
X175794768Y-118288661D01*
X175794764Y-118288660D01*
X175794761Y-118288658D01*
X175633019Y-118236106D01*
X175549027Y-118222803D01*
X175465037Y-118209500D01*
X175294963Y-118209500D01*
X175238969Y-118218368D01*
X175126980Y-118236106D01*
X174965238Y-118288658D01*
X174813694Y-118365874D01*
X174676099Y-118465843D01*
X174555843Y-118586099D01*
X174555841Y-118586102D01*
X174517853Y-118638386D01*
X174462525Y-118681051D01*
X174417537Y-118689500D01*
X173930097Y-118689500D01*
X173863058Y-118669815D01*
X173842416Y-118653181D01*
X171854198Y-116664963D01*
X174299500Y-116664963D01*
X174299500Y-116835036D01*
X174326106Y-117003019D01*
X174378658Y-117164761D01*
X174378660Y-117164764D01*
X174378661Y-117164768D01*
X174455874Y-117316305D01*
X174555841Y-117453898D01*
X174676102Y-117574159D01*
X174813695Y-117674126D01*
X174965232Y-117751339D01*
X175126982Y-117803894D01*
X175294963Y-117830500D01*
X175294964Y-117830500D01*
X175465036Y-117830500D01*
X175465037Y-117830500D01*
X175633018Y-117803894D01*
X175794768Y-117751339D01*
X175946305Y-117674126D01*
X176083898Y-117574159D01*
X176204159Y-117453898D01*
X176304126Y-117316305D01*
X176381339Y-117164768D01*
X176433894Y-117003018D01*
X176460500Y-116835037D01*
X176460500Y-116664963D01*
X176433894Y-116496982D01*
X176381339Y-116335232D01*
X176304126Y-116183695D01*
X176204159Y-116046102D01*
X176083898Y-115925841D01*
X175946305Y-115825874D01*
X175794768Y-115748661D01*
X175794764Y-115748660D01*
X175794761Y-115748658D01*
X175633019Y-115696106D01*
X175549027Y-115682803D01*
X175465037Y-115669500D01*
X175294963Y-115669500D01*
X175238969Y-115678368D01*
X175126980Y-115696106D01*
X174965238Y-115748658D01*
X174813694Y-115825874D01*
X174676099Y-115925843D01*
X174555843Y-116046099D01*
X174455874Y-116183694D01*
X174378658Y-116335238D01*
X174326106Y-116496980D01*
X174299500Y-116664963D01*
X171854198Y-116664963D01*
X170186819Y-114997584D01*
X170153334Y-114936261D01*
X170150500Y-114909903D01*
X170150500Y-113582135D01*
X174299500Y-113582135D01*
X174299500Y-114837870D01*
X174299501Y-114837876D01*
X174305908Y-114897483D01*
X174356202Y-115032328D01*
X174356206Y-115032335D01*
X174442452Y-115147544D01*
X174442455Y-115147547D01*
X174557664Y-115233793D01*
X174557671Y-115233797D01*
X174692517Y-115284091D01*
X174692516Y-115284091D01*
X174699444Y-115284835D01*
X174752127Y-115290500D01*
X176007872Y-115290499D01*
X176067483Y-115284091D01*
X176202331Y-115233796D01*
X176317546Y-115147546D01*
X176403796Y-115032331D01*
X176454091Y-114897483D01*
X176460500Y-114837873D01*
X176460499Y-113582128D01*
X176454091Y-113522517D01*
X176403796Y-113387669D01*
X176403795Y-113387668D01*
X176403793Y-113387664D01*
X176317547Y-113272455D01*
X176317544Y-113272452D01*
X176202335Y-113186206D01*
X176202328Y-113186202D01*
X176067482Y-113135908D01*
X176067483Y-113135908D01*
X176007883Y-113129501D01*
X176007881Y-113129500D01*
X176007873Y-113129500D01*
X176007864Y-113129500D01*
X174752129Y-113129500D01*
X174752123Y-113129501D01*
X174692516Y-113135908D01*
X174557671Y-113186202D01*
X174557664Y-113186206D01*
X174442455Y-113272452D01*
X174442452Y-113272455D01*
X174356206Y-113387664D01*
X174356202Y-113387671D01*
X174305908Y-113522517D01*
X174299501Y-113582116D01*
X174299501Y-113582123D01*
X174299500Y-113582135D01*
X170150500Y-113582135D01*
X170150500Y-110374500D01*
X170170185Y-110307461D01*
X170222989Y-110261706D01*
X170274500Y-110250500D01*
X170398422Y-110250500D01*
X170592826Y-110219709D01*
X170780025Y-110158884D01*
X170955405Y-110069524D01*
X171114646Y-109953828D01*
X171253828Y-109814646D01*
X171369524Y-109655405D01*
X171369524Y-109655403D01*
X171372278Y-109651614D01*
X171427608Y-109608949D01*
X171472596Y-109600500D01*
X172163331Y-109600500D01*
X172163347Y-109600501D01*
X172170943Y-109600501D01*
X172329054Y-109600501D01*
X172329057Y-109600501D01*
X172481785Y-109559577D01*
X172531904Y-109530639D01*
X172618716Y-109480520D01*
X172730520Y-109368716D01*
X172730520Y-109368714D01*
X172740728Y-109358507D01*
X172740730Y-109358504D01*
X174708506Y-107390728D01*
X174708511Y-107390724D01*
X174718714Y-107380520D01*
X174718716Y-107380520D01*
X174830520Y-107268716D01*
X174909577Y-107131784D01*
X174950500Y-106979057D01*
X174950500Y-101361118D01*
X174970185Y-101294079D01*
X175022989Y-101248324D01*
X175058311Y-101238180D01*
X175192238Y-101220548D01*
X175413887Y-101161158D01*
X175625888Y-101073344D01*
X175824612Y-100958611D01*
X176006661Y-100818919D01*
X176006665Y-100818914D01*
X176006670Y-100818911D01*
X176168911Y-100656670D01*
X176168914Y-100656665D01*
X176168919Y-100656661D01*
X176308611Y-100474612D01*
X176423344Y-100275888D01*
X176511158Y-100063887D01*
X176570548Y-99842238D01*
X176600500Y-99614734D01*
X176600500Y-99385266D01*
X176570548Y-99157762D01*
X176511158Y-98936113D01*
X176461190Y-98815480D01*
X176423349Y-98724123D01*
X176423346Y-98724117D01*
X176423344Y-98724112D01*
X176308611Y-98525388D01*
X176308608Y-98525385D01*
X176308607Y-98525382D01*
X176174710Y-98350886D01*
X176168919Y-98343339D01*
X176168918Y-98343338D01*
X176168911Y-98343330D01*
X176006670Y-98181089D01*
X176006661Y-98181081D01*
X175824617Y-98041392D01*
X175625890Y-97926657D01*
X175625876Y-97926650D01*
X175413887Y-97838842D01*
X175396913Y-97834294D01*
X175192238Y-97779452D01*
X175154215Y-97774446D01*
X174964741Y-97749500D01*
X174964734Y-97749500D01*
X173735266Y-97749500D01*
X173735258Y-97749500D01*
X173518715Y-97778009D01*
X173507762Y-97779452D01*
X173414076Y-97804554D01*
X173286112Y-97838842D01*
X173074123Y-97926650D01*
X173074109Y-97926657D01*
X172875382Y-98041392D01*
X172693338Y-98181081D01*
X172531081Y-98343338D01*
X172391392Y-98525382D01*
X172276657Y-98724109D01*
X172276650Y-98724123D01*
X172188842Y-98936112D01*
X172129453Y-99157759D01*
X172129451Y-99157770D01*
X172099500Y-99385258D01*
X172099500Y-99614741D01*
X172114548Y-99729033D01*
X172129452Y-99842238D01*
X172129453Y-99842240D01*
X172188842Y-100063887D01*
X172276650Y-100275876D01*
X172276657Y-100275890D01*
X172391392Y-100474617D01*
X172531081Y-100656661D01*
X172531089Y-100656670D01*
X172693330Y-100818911D01*
X172693338Y-100818918D01*
X172875382Y-100958607D01*
X172875385Y-100958608D01*
X172875388Y-100958611D01*
X173074112Y-101073344D01*
X173074117Y-101073346D01*
X173074123Y-101073349D01*
X173165480Y-101111190D01*
X173286113Y-101161158D01*
X173507762Y-101220548D01*
X173641686Y-101238179D01*
X173705582Y-101266445D01*
X173744053Y-101324770D01*
X173749500Y-101361118D01*
X173749500Y-106599902D01*
X173729815Y-106666941D01*
X173713181Y-106687583D01*
X173712181Y-106688583D01*
X173650858Y-106722068D01*
X173581166Y-106717084D01*
X173525233Y-106675212D01*
X173500816Y-106609748D01*
X173500500Y-106600902D01*
X173500500Y-106385272D01*
X173500499Y-106385258D01*
X173499057Y-106374312D01*
X173470548Y-106157762D01*
X173411158Y-105936113D01*
X173323344Y-105724112D01*
X173208611Y-105525388D01*
X173208608Y-105525385D01*
X173208607Y-105525382D01*
X173068918Y-105343338D01*
X173068911Y-105343330D01*
X172906670Y-105181089D01*
X172906661Y-105181081D01*
X172724617Y-105041392D01*
X172525890Y-104926657D01*
X172525876Y-104926650D01*
X172313887Y-104838842D01*
X172092238Y-104779452D01*
X172036425Y-104772104D01*
X171958314Y-104761820D01*
X171894418Y-104733553D01*
X171855947Y-104675228D01*
X171850500Y-104638881D01*
X171850500Y-104389059D01*
X171850501Y-104389046D01*
X171850501Y-104220945D01*
X171850501Y-104220943D01*
X171809577Y-104068215D01*
X171758946Y-103980520D01*
X171730520Y-103931284D01*
X171618716Y-103819480D01*
X171618715Y-103819479D01*
X171614385Y-103815149D01*
X171614374Y-103815139D01*
X168334341Y-100535106D01*
X168300856Y-100473783D01*
X168299550Y-100428023D01*
X168300500Y-100422027D01*
X168300500Y-99177973D01*
X168262321Y-98936924D01*
X168186904Y-98704815D01*
X168076106Y-98487361D01*
X168057779Y-98462136D01*
X167932660Y-98289923D01*
X167932656Y-98289918D01*
X167760081Y-98117343D01*
X167760076Y-98117339D01*
X167562642Y-97973896D01*
X167562641Y-97973895D01*
X167562639Y-97973894D01*
X167345185Y-97863096D01*
X167113076Y-97787679D01*
X167113074Y-97787678D01*
X167113072Y-97787678D01*
X166944769Y-97761021D01*
X166872027Y-97749500D01*
X166627973Y-97749500D01*
X166572093Y-97758350D01*
X166386927Y-97787678D01*
X166154812Y-97863097D01*
X165937357Y-97973896D01*
X165739923Y-98117339D01*
X165739918Y-98117343D01*
X165567343Y-98289918D01*
X165567339Y-98289923D01*
X165423896Y-98487357D01*
X165313097Y-98704812D01*
X165237678Y-98936927D01*
X165224562Y-99019738D01*
X165199500Y-99177973D01*
X165199500Y-100422027D01*
X165200450Y-100428029D01*
X165191495Y-100497320D01*
X165165658Y-100535104D01*
X156381286Y-109319478D01*
X156269481Y-109431282D01*
X156269479Y-109431284D01*
X156249499Y-109465891D01*
X156241054Y-109480520D01*
X156190423Y-109568215D01*
X156149499Y-109720943D01*
X156149499Y-109720945D01*
X156149499Y-109889046D01*
X156149500Y-109889059D01*
X156149500Y-110039099D01*
X156129815Y-110106138D01*
X156077011Y-110151893D01*
X156062398Y-110157481D01*
X156019822Y-110170749D01*
X156019819Y-110170750D01*
X155876222Y-110257556D01*
X155876217Y-110257560D01*
X155757560Y-110376217D01*
X155757556Y-110376222D01*
X155670750Y-110519819D01*
X155620826Y-110680032D01*
X155614500Y-110749655D01*
X151100500Y-110749655D01*
X151100500Y-105050097D01*
X151120185Y-104983058D01*
X151136819Y-104962416D01*
X151962416Y-104136819D01*
X152023739Y-104103334D01*
X152050097Y-104100500D01*
X159638331Y-104100500D01*
X159638347Y-104100501D01*
X159645943Y-104100501D01*
X159804054Y-104100501D01*
X159804057Y-104100501D01*
X159956785Y-104059577D01*
X160006904Y-104030639D01*
X160093716Y-103980520D01*
X160205520Y-103868716D01*
X160205520Y-103868714D01*
X160215728Y-103858507D01*
X160215730Y-103858504D01*
X161539355Y-102534878D01*
X161600676Y-102501395D01*
X161642822Y-102501018D01*
X161642932Y-102499903D01*
X161648995Y-102500500D01*
X161648997Y-102500500D01*
X161851004Y-102500500D01*
X161851005Y-102500499D01*
X162049127Y-102461091D01*
X162235756Y-102383786D01*
X162403718Y-102271558D01*
X162546558Y-102128718D01*
X162658786Y-101960756D01*
X162736091Y-101774127D01*
X162775500Y-101576003D01*
X162775500Y-100923997D01*
X162736091Y-100725873D01*
X162658786Y-100539244D01*
X162658784Y-100539241D01*
X162658782Y-100539237D01*
X162546558Y-100371281D01*
X162403718Y-100228441D01*
X162235762Y-100116217D01*
X162235752Y-100116212D01*
X162049127Y-100038909D01*
X162049119Y-100038907D01*
X161851007Y-99999500D01*
X161851003Y-99999500D01*
X161648997Y-99999500D01*
X161648992Y-99999500D01*
X161450880Y-100038907D01*
X161450872Y-100038909D01*
X161264235Y-100116217D01*
X161262947Y-100116906D01*
X161262194Y-100117062D01*
X161258616Y-100118545D01*
X161258334Y-100117866D01*
X161194544Y-100131145D01*
X161129301Y-100106141D01*
X161087934Y-100049834D01*
X161080500Y-100007545D01*
X161080500Y-97319060D01*
X161080501Y-97319047D01*
X161080501Y-97150944D01*
X161080501Y-97150943D01*
X161039577Y-96998216D01*
X161026315Y-96975245D01*
X160960524Y-96861290D01*
X160960518Y-96861282D01*
X160834573Y-96735337D01*
X160801088Y-96674014D01*
X160800637Y-96671847D01*
X160769738Y-96516510D01*
X160769737Y-96516503D01*
X160709794Y-96371786D01*
X160709397Y-96370827D01*
X160709390Y-96370814D01*
X160621789Y-96239711D01*
X160621786Y-96239707D01*
X160510292Y-96128213D01*
X160510288Y-96128210D01*
X160379185Y-96040609D01*
X160379172Y-96040602D01*
X160233501Y-95980264D01*
X160233489Y-95980261D01*
X160078845Y-95949500D01*
X160078842Y-95949500D01*
X159921158Y-95949500D01*
X159921155Y-95949500D01*
X159766510Y-95980261D01*
X159766498Y-95980264D01*
X159620827Y-96040602D01*
X159620814Y-96040609D01*
X159489711Y-96128210D01*
X159489707Y-96128213D01*
X159378213Y-96239707D01*
X159378210Y-96239711D01*
X159327602Y-96315451D01*
X159273989Y-96360256D01*
X159204664Y-96368963D01*
X159141637Y-96338808D01*
X159104918Y-96279365D01*
X159100500Y-96246560D01*
X159100500Y-95671153D01*
X161449500Y-95671153D01*
X161449500Y-95828846D01*
X161480261Y-95983489D01*
X161480264Y-95983501D01*
X161540602Y-96129172D01*
X161540609Y-96129185D01*
X161628210Y-96260288D01*
X161628213Y-96260292D01*
X161739707Y-96371786D01*
X161739711Y-96371789D01*
X161870814Y-96459390D01*
X161870827Y-96459397D01*
X162008683Y-96516498D01*
X162016503Y-96519737D01*
X162171153Y-96550499D01*
X162171156Y-96550500D01*
X162171158Y-96550500D01*
X162328844Y-96550500D01*
X162328845Y-96550499D01*
X162483497Y-96519737D01*
X162629179Y-96459394D01*
X162760289Y-96371789D01*
X162871789Y-96260289D01*
X162959394Y-96129179D01*
X163019737Y-95983497D01*
X163040680Y-95878210D01*
X163050638Y-95828150D01*
X163083023Y-95766239D01*
X163084467Y-95764767D01*
X163212418Y-95636816D01*
X163273739Y-95603334D01*
X163300097Y-95600500D01*
X172913331Y-95600500D01*
X172913347Y-95600501D01*
X172920943Y-95600501D01*
X173079054Y-95600501D01*
X173079057Y-95600501D01*
X173231785Y-95559577D01*
X173281904Y-95530639D01*
X173368716Y-95480520D01*
X173480520Y-95368716D01*
X173480520Y-95368714D01*
X173490728Y-95358507D01*
X173490730Y-95358504D01*
X174396437Y-94452796D01*
X174457758Y-94419313D01*
X174522433Y-94422547D01*
X174648632Y-94463553D01*
X174736110Y-94477408D01*
X174881903Y-94500500D01*
X174881908Y-94500500D01*
X175118097Y-94500500D01*
X175351368Y-94463553D01*
X175422548Y-94440425D01*
X175575992Y-94390568D01*
X175786433Y-94283343D01*
X175977510Y-94144517D01*
X176144517Y-93977510D01*
X176283343Y-93786433D01*
X176390568Y-93575992D01*
X176463553Y-93351368D01*
X176473177Y-93290606D01*
X176500500Y-93118097D01*
X176500500Y-92881902D01*
X176463553Y-92648631D01*
X176400234Y-92453757D01*
X176390568Y-92424008D01*
X176390566Y-92424005D01*
X176390566Y-92424003D01*
X176310315Y-92266503D01*
X176283343Y-92213567D01*
X176144517Y-92022490D01*
X175977510Y-91855483D01*
X175786433Y-91716657D01*
X175575996Y-91609433D01*
X175351368Y-91536446D01*
X175118097Y-91499500D01*
X175118092Y-91499500D01*
X174881908Y-91499500D01*
X174881903Y-91499500D01*
X174648631Y-91536446D01*
X174424003Y-91609433D01*
X174213566Y-91716657D01*
X174140861Y-91769481D01*
X174022490Y-91855483D01*
X174022488Y-91855485D01*
X174022487Y-91855485D01*
X173855485Y-92022487D01*
X173855485Y-92022488D01*
X173855483Y-92022490D01*
X173795862Y-92104550D01*
X173716657Y-92213566D01*
X173609433Y-92424003D01*
X173536446Y-92648631D01*
X173499500Y-92881902D01*
X173499500Y-93118097D01*
X173536447Y-93351369D01*
X173536447Y-93351372D01*
X173577450Y-93477564D01*
X173579445Y-93547405D01*
X173547200Y-93603563D01*
X172787584Y-94363181D01*
X172726261Y-94396666D01*
X172699903Y-94399500D01*
X171563769Y-94399500D01*
X171496730Y-94379815D01*
X171450975Y-94327011D01*
X171441031Y-94257853D01*
X171447587Y-94232167D01*
X171455547Y-94210822D01*
X171494091Y-94107483D01*
X171500500Y-94047873D01*
X171500499Y-91952128D01*
X171494091Y-91892517D01*
X171493605Y-91891215D01*
X171443797Y-91757671D01*
X171443793Y-91757664D01*
X171357547Y-91642455D01*
X171357544Y-91642452D01*
X171242335Y-91556206D01*
X171242328Y-91556202D01*
X171107482Y-91505908D01*
X171107483Y-91505908D01*
X171047883Y-91499501D01*
X171047881Y-91499500D01*
X171047873Y-91499500D01*
X171047864Y-91499500D01*
X168952129Y-91499500D01*
X168952123Y-91499501D01*
X168892516Y-91505908D01*
X168757671Y-91556202D01*
X168757664Y-91556206D01*
X168642455Y-91642452D01*
X168642452Y-91642455D01*
X168556206Y-91757664D01*
X168556202Y-91757671D01*
X168505908Y-91892517D01*
X168501785Y-91930872D01*
X168499501Y-91952123D01*
X168499500Y-91952135D01*
X168499500Y-92275500D01*
X168479815Y-92342539D01*
X168427011Y-92388294D01*
X168375500Y-92399500D01*
X165336670Y-92399500D01*
X165336654Y-92399499D01*
X165329058Y-92399499D01*
X165170943Y-92399499D01*
X165094579Y-92419961D01*
X165018214Y-92440423D01*
X165018209Y-92440426D01*
X164881290Y-92519475D01*
X164881282Y-92519481D01*
X164174315Y-93226448D01*
X164112992Y-93259933D01*
X164043300Y-93254949D01*
X164039182Y-93253328D01*
X163983501Y-93230264D01*
X163983489Y-93230261D01*
X163828845Y-93199500D01*
X163828842Y-93199500D01*
X163671158Y-93199500D01*
X163671155Y-93199500D01*
X163516510Y-93230261D01*
X163516498Y-93230264D01*
X163370827Y-93290602D01*
X163370814Y-93290609D01*
X163239711Y-93378210D01*
X163239707Y-93378213D01*
X163128213Y-93489707D01*
X163128210Y-93489711D01*
X163040609Y-93620814D01*
X163040602Y-93620827D01*
X162980264Y-93766498D01*
X162980261Y-93766510D01*
X162949500Y-93921153D01*
X162949500Y-94078846D01*
X162979998Y-94232167D01*
X162980263Y-94233497D01*
X162982119Y-94237978D01*
X162989588Y-94307445D01*
X162958314Y-94369925D01*
X162899652Y-94405204D01*
X162860957Y-94415572D01*
X162768210Y-94440424D01*
X162768209Y-94440425D01*
X162728154Y-94463552D01*
X162728152Y-94463553D01*
X162631290Y-94519475D01*
X162631282Y-94519481D01*
X162235339Y-94915425D01*
X162174016Y-94948910D01*
X162171850Y-94949361D01*
X162016508Y-94980261D01*
X162016498Y-94980264D01*
X161870827Y-95040602D01*
X161870814Y-95040609D01*
X161739711Y-95128210D01*
X161739707Y-95128213D01*
X161628213Y-95239707D01*
X161628210Y-95239711D01*
X161540609Y-95370814D01*
X161540602Y-95370827D01*
X161480264Y-95516498D01*
X161480261Y-95516510D01*
X161449500Y-95671153D01*
X159100500Y-95671153D01*
X159100500Y-93550097D01*
X159120185Y-93483058D01*
X159136813Y-93462421D01*
X159287822Y-93311412D01*
X159349142Y-93277930D01*
X159418833Y-93282914D01*
X159474767Y-93324785D01*
X159499184Y-93390250D01*
X159499500Y-93399096D01*
X159499501Y-94072868D01*
X159499501Y-94072876D01*
X159505908Y-94132483D01*
X159556202Y-94267328D01*
X159556206Y-94267335D01*
X159642452Y-94382544D01*
X159642455Y-94382547D01*
X159757664Y-94468793D01*
X159757671Y-94468797D01*
X159892517Y-94519091D01*
X159892516Y-94519091D01*
X159896135Y-94519480D01*
X159952127Y-94525500D01*
X161547872Y-94525499D01*
X161607483Y-94519091D01*
X161742331Y-94468796D01*
X161857546Y-94382546D01*
X161943796Y-94267331D01*
X161994091Y-94132483D01*
X162000500Y-94072873D01*
X162000499Y-92927128D01*
X161994091Y-92867517D01*
X161944106Y-92733501D01*
X161943797Y-92732671D01*
X161943796Y-92732670D01*
X161943796Y-92732669D01*
X161942967Y-92731562D01*
X161942485Y-92730268D01*
X161939546Y-92724886D01*
X161940319Y-92724463D01*
X161918551Y-92666099D01*
X161927675Y-92609798D01*
X161961089Y-92529132D01*
X161961089Y-92529131D01*
X161961091Y-92529127D01*
X162000500Y-92331003D01*
X162000500Y-92128997D01*
X161961091Y-91930873D01*
X161883786Y-91744244D01*
X161830094Y-91663889D01*
X161809217Y-91597214D01*
X161827701Y-91529834D01*
X161830078Y-91526134D01*
X161883786Y-91445756D01*
X161961091Y-91259127D01*
X162000500Y-91061003D01*
X162000500Y-90858997D01*
X161961091Y-90660873D01*
X161883786Y-90474244D01*
X161883784Y-90474241D01*
X161883782Y-90474237D01*
X161771558Y-90306281D01*
X161628718Y-90163441D01*
X161460762Y-90051217D01*
X161460752Y-90051212D01*
X161274127Y-89973909D01*
X161274119Y-89973907D01*
X161076007Y-89934500D01*
X161076003Y-89934500D01*
X160724500Y-89934500D01*
X160657461Y-89914815D01*
X160611706Y-89862011D01*
X160600500Y-89810500D01*
X160600500Y-88031057D01*
X160620185Y-87964018D01*
X160659401Y-87925520D01*
X160793656Y-87842712D01*
X160917712Y-87718656D01*
X161009814Y-87569334D01*
X161064999Y-87402797D01*
X161075500Y-87300009D01*
X161075499Y-85899992D01*
X161064999Y-85797203D01*
X161009814Y-85630666D01*
X160917712Y-85481344D01*
X160824049Y-85387681D01*
X160790564Y-85326358D01*
X160795548Y-85256666D01*
X160824049Y-85212319D01*
X160870663Y-85165705D01*
X160917712Y-85118656D01*
X161009814Y-84969334D01*
X161064999Y-84802797D01*
X161075500Y-84700009D01*
X161075499Y-83299992D01*
X161064999Y-83197203D01*
X161009814Y-83030666D01*
X160917712Y-82881344D01*
X160793656Y-82757288D01*
X160700888Y-82700069D01*
X160644336Y-82665187D01*
X160644331Y-82665185D01*
X160597935Y-82649811D01*
X160477797Y-82610001D01*
X160477795Y-82610000D01*
X160375010Y-82599500D01*
X159624998Y-82599500D01*
X159624980Y-82599501D01*
X159522203Y-82610000D01*
X159522200Y-82610001D01*
X159355668Y-82665185D01*
X159355659Y-82665190D01*
X159289596Y-82705937D01*
X159222203Y-82724377D01*
X159155540Y-82703454D01*
X159110771Y-82649811D01*
X159100500Y-82600398D01*
X159100500Y-80839060D01*
X159100501Y-80839047D01*
X159100501Y-80670944D01*
X159088851Y-80627465D01*
X159059577Y-80518216D01*
X159059573Y-80518209D01*
X158980524Y-80381290D01*
X158980518Y-80381282D01*
X158592134Y-79992898D01*
X158510540Y-79911304D01*
X160599500Y-79911304D01*
X160599500Y-80588695D01*
X160634103Y-80762658D01*
X160634106Y-80762667D01*
X160701983Y-80926540D01*
X160701990Y-80926553D01*
X160800535Y-81074034D01*
X160800538Y-81074038D01*
X160925961Y-81199461D01*
X160925965Y-81199464D01*
X161073446Y-81298009D01*
X161073459Y-81298016D01*
X161151447Y-81330319D01*
X161237334Y-81365894D01*
X161237336Y-81365894D01*
X161237341Y-81365896D01*
X161411304Y-81400499D01*
X161411307Y-81400500D01*
X161411309Y-81400500D01*
X161588693Y-81400500D01*
X161588694Y-81400499D01*
X161646682Y-81388964D01*
X161762658Y-81365896D01*
X161762661Y-81365894D01*
X161762666Y-81365894D01*
X161926547Y-81298013D01*
X161983838Y-81259731D01*
X162050510Y-81238854D01*
X162116873Y-81256716D01*
X162260394Y-81343478D01*
X162422804Y-81394086D01*
X162493384Y-81400500D01*
X162493387Y-81400500D01*
X163006613Y-81400500D01*
X163006616Y-81400500D01*
X163077196Y-81394086D01*
X163239606Y-81343478D01*
X163385185Y-81255472D01*
X163505472Y-81135185D01*
X163593478Y-80989606D01*
X163644086Y-80827196D01*
X163650500Y-80756616D01*
X163650500Y-79743384D01*
X163644086Y-79672804D01*
X163593478Y-79510394D01*
X163505472Y-79364815D01*
X163505470Y-79364813D01*
X163505469Y-79364811D01*
X163385188Y-79244530D01*
X163314820Y-79201991D01*
X163239606Y-79156522D01*
X163077196Y-79105914D01*
X163077194Y-79105913D01*
X163077192Y-79105913D01*
X163027778Y-79101423D01*
X163006616Y-79099500D01*
X162493384Y-79099500D01*
X162474145Y-79101248D01*
X162422807Y-79105913D01*
X162422804Y-79105914D01*
X162285715Y-79148632D01*
X162260391Y-79156523D01*
X162116875Y-79243281D01*
X162049321Y-79261117D01*
X161983834Y-79240265D01*
X161926555Y-79201991D01*
X161926540Y-79201983D01*
X161762667Y-79134106D01*
X161762658Y-79134103D01*
X161588694Y-79099500D01*
X161588691Y-79099500D01*
X161411309Y-79099500D01*
X161411306Y-79099500D01*
X161237341Y-79134103D01*
X161237332Y-79134106D01*
X161073459Y-79201983D01*
X161073446Y-79201990D01*
X160925965Y-79300535D01*
X160925961Y-79300538D01*
X160800538Y-79425961D01*
X160800535Y-79425965D01*
X160701990Y-79573446D01*
X160701983Y-79573459D01*
X160634106Y-79737332D01*
X160634103Y-79737341D01*
X160599500Y-79911304D01*
X158510540Y-79911304D01*
X157839501Y-79240265D01*
X156981137Y-78381902D01*
X173499500Y-78381902D01*
X173499500Y-78618097D01*
X173536446Y-78851368D01*
X173609433Y-79075996D01*
X173693133Y-79240265D01*
X173716657Y-79286433D01*
X173855483Y-79477510D01*
X174022490Y-79644517D01*
X174213567Y-79783343D01*
X174312991Y-79834002D01*
X174424003Y-79890566D01*
X174424005Y-79890566D01*
X174424008Y-79890568D01*
X174542369Y-79929026D01*
X174648631Y-79963553D01*
X174881903Y-80000500D01*
X174881908Y-80000500D01*
X175118097Y-80000500D01*
X175351368Y-79963553D01*
X175393055Y-79950008D01*
X175575992Y-79890568D01*
X175786433Y-79783343D01*
X175977510Y-79644517D01*
X176144517Y-79477510D01*
X176283343Y-79286433D01*
X176390568Y-79075992D01*
X176463553Y-78851368D01*
X176500500Y-78618097D01*
X176500500Y-78381902D01*
X176463553Y-78148631D01*
X176390566Y-77924003D01*
X176286356Y-77719481D01*
X176283343Y-77713567D01*
X176144517Y-77522490D01*
X175977510Y-77355483D01*
X175786433Y-77216657D01*
X175575996Y-77109433D01*
X175351368Y-77036446D01*
X175118097Y-76999500D01*
X175118092Y-76999500D01*
X174881908Y-76999500D01*
X174881903Y-76999500D01*
X174648631Y-77036446D01*
X174424003Y-77109433D01*
X174213566Y-77216657D01*
X174104550Y-77295862D01*
X174022490Y-77355483D01*
X174022488Y-77355485D01*
X174022487Y-77355485D01*
X173855485Y-77522487D01*
X173855485Y-77522488D01*
X173855483Y-77522490D01*
X173799533Y-77599499D01*
X173716657Y-77713566D01*
X173609433Y-77924003D01*
X173536446Y-78148631D01*
X173499500Y-78381902D01*
X156981137Y-78381902D01*
X156437589Y-77838354D01*
X156437588Y-77838352D01*
X156318717Y-77719481D01*
X156318716Y-77719480D01*
X156231904Y-77669360D01*
X156231904Y-77669359D01*
X156231900Y-77669358D01*
X156181785Y-77640423D01*
X156029057Y-77599499D01*
X155870943Y-77599499D01*
X155863347Y-77599499D01*
X155863331Y-77599500D01*
X151536669Y-77599500D01*
X151536653Y-77599499D01*
X151529057Y-77599499D01*
X151370943Y-77599499D01*
X151263587Y-77628265D01*
X151218210Y-77640424D01*
X151218209Y-77640425D01*
X151168096Y-77669359D01*
X151168095Y-77669360D01*
X151124689Y-77694420D01*
X151081285Y-77719479D01*
X151081282Y-77719481D01*
X150969478Y-77831286D01*
X150716104Y-78084659D01*
X150654781Y-78118144D01*
X150585089Y-78113160D01*
X150580555Y-78111167D01*
X150580501Y-78111299D01*
X150576002Y-78109436D01*
X150575996Y-78109434D01*
X150575992Y-78109432D01*
X150479672Y-78078135D01*
X150351368Y-78036446D01*
X150118097Y-77999500D01*
X150118092Y-77999500D01*
X149881908Y-77999500D01*
X149881903Y-77999500D01*
X149648631Y-78036446D01*
X149424003Y-78109433D01*
X149213566Y-78216657D01*
X149125466Y-78280666D01*
X149022490Y-78355483D01*
X149022488Y-78355485D01*
X149022487Y-78355485D01*
X148855485Y-78522487D01*
X148855485Y-78522488D01*
X148855483Y-78522490D01*
X148795862Y-78604550D01*
X148716657Y-78713566D01*
X148609433Y-78924003D01*
X148536446Y-79148631D01*
X148499500Y-79381902D01*
X148499500Y-79618097D01*
X148536446Y-79851368D01*
X148568500Y-79950016D01*
X148609432Y-80075992D01*
X148609434Y-80075996D01*
X148609436Y-80076002D01*
X148611299Y-80080501D01*
X148609200Y-80081370D01*
X148620358Y-80140806D01*
X148594077Y-80205545D01*
X148584659Y-80216104D01*
X147777398Y-81023367D01*
X147716075Y-81056852D01*
X147689717Y-81059686D01*
X144204173Y-81059686D01*
X144204157Y-81059685D01*
X144196561Y-81059685D01*
X144038446Y-81059685D01*
X143956592Y-81081617D01*
X143886744Y-81079955D01*
X143828882Y-81040793D01*
X143801377Y-80976565D01*
X143800500Y-80961843D01*
X143800500Y-80681057D01*
X143820185Y-80614018D01*
X143859401Y-80575520D01*
X143993656Y-80492712D01*
X144117712Y-80368656D01*
X144209814Y-80219334D01*
X144264999Y-80052797D01*
X144275500Y-79950009D01*
X144275499Y-78549992D01*
X144272689Y-78522488D01*
X144264999Y-78447203D01*
X144264998Y-78447200D01*
X144243360Y-78381902D01*
X144209814Y-78280666D01*
X144117712Y-78131344D01*
X143993656Y-78007288D01*
X143844334Y-77915186D01*
X143677797Y-77860001D01*
X143677795Y-77860000D01*
X143575010Y-77849500D01*
X142824998Y-77849500D01*
X142824980Y-77849501D01*
X142722203Y-77860000D01*
X142722200Y-77860001D01*
X142555668Y-77915185D01*
X142555663Y-77915187D01*
X142406342Y-78007289D01*
X142282289Y-78131342D01*
X142190187Y-78280663D01*
X142190186Y-78280666D01*
X142135001Y-78447203D01*
X142135001Y-78447204D01*
X142135000Y-78447204D01*
X142124500Y-78549983D01*
X142124500Y-79950001D01*
X142124501Y-79950018D01*
X142135000Y-80052796D01*
X142135001Y-80052799D01*
X142142687Y-80075992D01*
X142190186Y-80219334D01*
X142282288Y-80368656D01*
X142406344Y-80492712D01*
X142540597Y-80575519D01*
X142587321Y-80627465D01*
X142599500Y-80681057D01*
X142599500Y-81556944D01*
X142579815Y-81623983D01*
X142539651Y-81663060D01*
X142500003Y-81687028D01*
X142499999Y-81687031D01*
X142379719Y-81807311D01*
X142291711Y-81952893D01*
X142241102Y-82115307D01*
X142234689Y-82185886D01*
X142234689Y-84649113D01*
X142241102Y-84719692D01*
X142241102Y-84719694D01*
X142241103Y-84719696D01*
X142291711Y-84882106D01*
X142349173Y-84977160D01*
X142367009Y-85044712D01*
X142345492Y-85111186D01*
X142291451Y-85155474D01*
X142262455Y-85163781D01*
X142148948Y-85181759D01*
X141946774Y-85247450D01*
X141757368Y-85343957D01*
X141585402Y-85468896D01*
X141435079Y-85619219D01*
X141310140Y-85791185D01*
X141213633Y-85980591D01*
X141147942Y-86182766D01*
X141114689Y-86392719D01*
X141114689Y-86605292D01*
X141147942Y-86815245D01*
X141213633Y-87017420D01*
X141310140Y-87206826D01*
X141435079Y-87378792D01*
X141585402Y-87529115D01*
X141757368Y-87654054D01*
X141757370Y-87654055D01*
X141757373Y-87654057D01*
X141946777Y-87750563D01*
X142148946Y-87816252D01*
X142358902Y-87849506D01*
X142358903Y-87849506D01*
X142571475Y-87849506D01*
X142571476Y-87849506D01*
X142781432Y-87816252D01*
X142983601Y-87750563D01*
X143173005Y-87654057D01*
X143194978Y-87638092D01*
X143344975Y-87529115D01*
X143344977Y-87529112D01*
X143344981Y-87529110D01*
X143495293Y-87378798D01*
X143495295Y-87378794D01*
X143495298Y-87378792D01*
X143620237Y-87206826D01*
X143620236Y-87206826D01*
X143620240Y-87206822D01*
X143624703Y-87198060D01*
X143672677Y-87147265D01*
X143740497Y-87130469D01*
X143806633Y-87153005D01*
X143845675Y-87198062D01*
X143850140Y-87206826D01*
X143975079Y-87378792D01*
X144125402Y-87529115D01*
X144297368Y-87654054D01*
X144297370Y-87654055D01*
X144297373Y-87654057D01*
X144486777Y-87750563D01*
X144688946Y-87816252D01*
X144898902Y-87849506D01*
X144898903Y-87849506D01*
X145111475Y-87849506D01*
X145111476Y-87849506D01*
X145321432Y-87816252D01*
X145523601Y-87750563D01*
X145713005Y-87654057D01*
X145734978Y-87638092D01*
X145884975Y-87529115D01*
X145884977Y-87529112D01*
X145884981Y-87529110D01*
X146035293Y-87378798D01*
X146035295Y-87378794D01*
X146035298Y-87378792D01*
X146160237Y-87206826D01*
X146160236Y-87206826D01*
X146160240Y-87206822D01*
X146164703Y-87198060D01*
X146212677Y-87147265D01*
X146280497Y-87130469D01*
X146346633Y-87153005D01*
X146385675Y-87198062D01*
X146390140Y-87206826D01*
X146515079Y-87378792D01*
X146665402Y-87529115D01*
X146837368Y-87654054D01*
X146837370Y-87654055D01*
X146837373Y-87654057D01*
X147026777Y-87750563D01*
X147228946Y-87816252D01*
X147438902Y-87849506D01*
X147438903Y-87849506D01*
X147651475Y-87849506D01*
X147651476Y-87849506D01*
X147861432Y-87816252D01*
X148063601Y-87750563D01*
X148253005Y-87654057D01*
X148274978Y-87638092D01*
X148424975Y-87529115D01*
X148424977Y-87529112D01*
X148424981Y-87529110D01*
X148575293Y-87378798D01*
X148575295Y-87378794D01*
X148575298Y-87378792D01*
X148700237Y-87206826D01*
X148700236Y-87206826D01*
X148700240Y-87206822D01*
X148704703Y-87198060D01*
X148752677Y-87147265D01*
X148820497Y-87130469D01*
X148886633Y-87153005D01*
X148925675Y-87198062D01*
X148930140Y-87206826D01*
X149055079Y-87378792D01*
X149205402Y-87529115D01*
X149377371Y-87654056D01*
X149377373Y-87654057D01*
X149443833Y-87687920D01*
X149494628Y-87735892D01*
X149511424Y-87803713D01*
X149488887Y-87869848D01*
X149475219Y-87886085D01*
X146881286Y-90480019D01*
X146769481Y-90591823D01*
X146769480Y-90591825D01*
X146729612Y-90660880D01*
X146719361Y-90678635D01*
X146719359Y-90678637D01*
X146690425Y-90728750D01*
X146690424Y-90728751D01*
X146674544Y-90788013D01*
X146649499Y-90881484D01*
X146649499Y-90881486D01*
X146649499Y-91049587D01*
X146649500Y-91049600D01*
X146649500Y-93670234D01*
X146629815Y-93737273D01*
X146628602Y-93739125D01*
X146540609Y-93870814D01*
X146540602Y-93870827D01*
X146480264Y-94016498D01*
X146480261Y-94016510D01*
X146449500Y-94171153D01*
X146449500Y-94328846D01*
X146480261Y-94483489D01*
X146480264Y-94483501D01*
X146540602Y-94629172D01*
X146540609Y-94629185D01*
X146628210Y-94760288D01*
X146628213Y-94760292D01*
X146739707Y-94871786D01*
X146739711Y-94871789D01*
X146870814Y-94959390D01*
X146870827Y-94959397D01*
X147016498Y-95019735D01*
X147016503Y-95019737D01*
X147171153Y-95050499D01*
X147171156Y-95050500D01*
X147171158Y-95050500D01*
X147328844Y-95050500D01*
X147328845Y-95050499D01*
X147483497Y-95019737D01*
X147629179Y-94959394D01*
X147760289Y-94871789D01*
X147760292Y-94871786D01*
X147787319Y-94844760D01*
X147848642Y-94811275D01*
X147918334Y-94816259D01*
X147962681Y-94844760D01*
X147989707Y-94871786D01*
X147989711Y-94871789D01*
X148120814Y-94959390D01*
X148120827Y-94959397D01*
X148266498Y-95019735D01*
X148266503Y-95019737D01*
X148421153Y-95050499D01*
X148421156Y-95050500D01*
X148421158Y-95050500D01*
X148578844Y-95050500D01*
X148578845Y-95050499D01*
X148733497Y-95019737D01*
X148879179Y-94959394D01*
X149010289Y-94871789D01*
X149121789Y-94760289D01*
X149209394Y-94629179D01*
X149269737Y-94483497D01*
X149300500Y-94328842D01*
X149300500Y-94171158D01*
X149300500Y-94171155D01*
X149300499Y-94171153D01*
X149280950Y-94072873D01*
X149269737Y-94016503D01*
X149231857Y-93925051D01*
X149209397Y-93870827D01*
X149209390Y-93870814D01*
X149121398Y-93739125D01*
X149100520Y-93672447D01*
X149100500Y-93670234D01*
X149100500Y-91300097D01*
X149120185Y-91233058D01*
X149136819Y-91212416D01*
X149188959Y-91160276D01*
X149311360Y-91037874D01*
X149372681Y-91004391D01*
X149442372Y-91009375D01*
X149498306Y-91051246D01*
X149518115Y-91090962D01*
X149545256Y-91184381D01*
X149545257Y-91184384D01*
X149623774Y-91317150D01*
X149623781Y-91317159D01*
X149718941Y-91412319D01*
X149752426Y-91473642D01*
X149747442Y-91543334D01*
X149718941Y-91587681D01*
X149623781Y-91682840D01*
X149623774Y-91682849D01*
X149545257Y-91815615D01*
X149545256Y-91815618D01*
X149502224Y-91963733D01*
X149502223Y-91963739D01*
X149499500Y-91998342D01*
X149499500Y-93001657D01*
X149502223Y-93036260D01*
X149502224Y-93036266D01*
X149545256Y-93184381D01*
X149545257Y-93184384D01*
X149545258Y-93184386D01*
X149560045Y-93209390D01*
X149623774Y-93317150D01*
X149623781Y-93317159D01*
X149732840Y-93426218D01*
X149732844Y-93426221D01*
X149732846Y-93426223D01*
X149865614Y-93504742D01*
X149904675Y-93516090D01*
X150013733Y-93547775D01*
X150013736Y-93547775D01*
X150013738Y-93547776D01*
X150048350Y-93550500D01*
X150048358Y-93550500D01*
X152451642Y-93550500D01*
X152451650Y-93550500D01*
X152486262Y-93547776D01*
X152486264Y-93547775D01*
X152486266Y-93547775D01*
X152525323Y-93536427D01*
X152634386Y-93504742D01*
X152767154Y-93426223D01*
X152876223Y-93317154D01*
X152924490Y-93235538D01*
X152975558Y-93187855D01*
X153044300Y-93175351D01*
X153100114Y-93195558D01*
X153106014Y-93199500D01*
X153120816Y-93209391D01*
X153120827Y-93209397D01*
X153230801Y-93254949D01*
X153266503Y-93269737D01*
X153421153Y-93300499D01*
X153421156Y-93300500D01*
X153421158Y-93300500D01*
X153578844Y-93300500D01*
X153578845Y-93300499D01*
X153733497Y-93269737D01*
X153879179Y-93209394D01*
X154010289Y-93121789D01*
X154121789Y-93010289D01*
X154209394Y-92879179D01*
X154269737Y-92733497D01*
X154300500Y-92578842D01*
X154300500Y-92421158D01*
X154300500Y-92421155D01*
X154300499Y-92421153D01*
X154293963Y-92388294D01*
X154269737Y-92266503D01*
X154263558Y-92251585D01*
X154209397Y-92120827D01*
X154209390Y-92120814D01*
X154121789Y-91989711D01*
X154121786Y-91989707D01*
X154010292Y-91878213D01*
X154010288Y-91878210D01*
X153879185Y-91790609D01*
X153879172Y-91790602D01*
X153733501Y-91730264D01*
X153733489Y-91730261D01*
X153578845Y-91699500D01*
X153578842Y-91699500D01*
X153421158Y-91699500D01*
X153421155Y-91699500D01*
X153266510Y-91730261D01*
X153266498Y-91730264D01*
X153120827Y-91790602D01*
X153120814Y-91790609D01*
X153100113Y-91804442D01*
X153033435Y-91825320D01*
X152966055Y-91806835D01*
X152924490Y-91764461D01*
X152920474Y-91757671D01*
X152876223Y-91682846D01*
X152876221Y-91682844D01*
X152876218Y-91682840D01*
X152781059Y-91587681D01*
X152747574Y-91526358D01*
X152752558Y-91456666D01*
X152781059Y-91412319D01*
X152876218Y-91317159D01*
X152876223Y-91317154D01*
X152924490Y-91235538D01*
X152975558Y-91187855D01*
X153044300Y-91175351D01*
X153100114Y-91195558D01*
X153110538Y-91202523D01*
X153120816Y-91209391D01*
X153120827Y-91209397D01*
X153266498Y-91269735D01*
X153266503Y-91269737D01*
X153419132Y-91300097D01*
X153421153Y-91300499D01*
X153421156Y-91300500D01*
X153421158Y-91300500D01*
X153578844Y-91300500D01*
X153578845Y-91300499D01*
X153733497Y-91269737D01*
X153879179Y-91209394D01*
X154010289Y-91121789D01*
X154121789Y-91010289D01*
X154209394Y-90879179D01*
X154269737Y-90733497D01*
X154300500Y-90578842D01*
X154300500Y-90421158D01*
X154300500Y-90421155D01*
X154300499Y-90421153D01*
X154283618Y-90336286D01*
X154269737Y-90266503D01*
X154210592Y-90123713D01*
X154209397Y-90120827D01*
X154209390Y-90120814D01*
X154121789Y-89989711D01*
X154121786Y-89989707D01*
X154010292Y-89878213D01*
X154010288Y-89878210D01*
X153879185Y-89790609D01*
X153879172Y-89790602D01*
X153733501Y-89730264D01*
X153733489Y-89730261D01*
X153578845Y-89699500D01*
X153578842Y-89699500D01*
X153421158Y-89699500D01*
X153421155Y-89699500D01*
X153266510Y-89730261D01*
X153266498Y-89730264D01*
X153120827Y-89790602D01*
X153120814Y-89790609D01*
X153100113Y-89804442D01*
X153033435Y-89825320D01*
X152966055Y-89806835D01*
X152924490Y-89764461D01*
X152876225Y-89682849D01*
X152876218Y-89682840D01*
X152767159Y-89573781D01*
X152767150Y-89573774D01*
X152634384Y-89495257D01*
X152634381Y-89495256D01*
X152486266Y-89452224D01*
X152486260Y-89452223D01*
X152451657Y-89449500D01*
X152451650Y-89449500D01*
X151199097Y-89449500D01*
X151132058Y-89429815D01*
X151086303Y-89377011D01*
X151076359Y-89307853D01*
X151105384Y-89244297D01*
X151111416Y-89237819D01*
X151469735Y-88879500D01*
X154253695Y-86095538D01*
X154253700Y-86095535D01*
X154263903Y-86085331D01*
X154263905Y-86085331D01*
X154375709Y-85973527D01*
X154375709Y-85973526D01*
X154381456Y-85967780D01*
X154383477Y-85969801D01*
X154428730Y-85936753D01*
X154498476Y-85932591D01*
X154559399Y-85966798D01*
X154592158Y-86028512D01*
X154594689Y-86053438D01*
X154594689Y-94067402D01*
X154575004Y-94134441D01*
X154558370Y-94155083D01*
X152760447Y-95953006D01*
X152699124Y-95986491D01*
X152629432Y-95981507D01*
X152585085Y-95953006D01*
X152510292Y-95878213D01*
X152510288Y-95878210D01*
X152379185Y-95790609D01*
X152379172Y-95790602D01*
X152233501Y-95730264D01*
X152233489Y-95730261D01*
X152078845Y-95699500D01*
X152078842Y-95699500D01*
X151921158Y-95699500D01*
X151921155Y-95699500D01*
X151766510Y-95730261D01*
X151766498Y-95730264D01*
X151620827Y-95790602D01*
X151620814Y-95790609D01*
X151489711Y-95878210D01*
X151417170Y-95950751D01*
X151355846Y-95984235D01*
X151286155Y-95979250D01*
X151230221Y-95937379D01*
X151229171Y-95935954D01*
X151115298Y-95779219D01*
X150964975Y-95628896D01*
X150793009Y-95503957D01*
X150603603Y-95407450D01*
X150603602Y-95407449D01*
X150603601Y-95407449D01*
X150401432Y-95341760D01*
X150401430Y-95341759D01*
X150401429Y-95341759D01*
X150240146Y-95316214D01*
X150191476Y-95308506D01*
X149978902Y-95308506D01*
X149930231Y-95316214D01*
X149768949Y-95341759D01*
X149566774Y-95407450D01*
X149377368Y-95503957D01*
X149205402Y-95628896D01*
X149055079Y-95779219D01*
X148930138Y-95951188D01*
X148925673Y-95959952D01*
X148877698Y-96010748D01*
X148809877Y-96027542D01*
X148743742Y-96005004D01*
X148704705Y-95959952D01*
X148700239Y-95951188D01*
X148575298Y-95779219D01*
X148424975Y-95628896D01*
X148253009Y-95503957D01*
X148063603Y-95407450D01*
X148063602Y-95407449D01*
X148063601Y-95407449D01*
X147861432Y-95341760D01*
X147861430Y-95341759D01*
X147861429Y-95341759D01*
X147700146Y-95316214D01*
X147651476Y-95308506D01*
X147438902Y-95308506D01*
X147390231Y-95316214D01*
X147228949Y-95341759D01*
X147026774Y-95407450D01*
X146837368Y-95503957D01*
X146665402Y-95628896D01*
X146515079Y-95779219D01*
X146390138Y-95951188D01*
X146385673Y-95959952D01*
X146337698Y-96010748D01*
X146269877Y-96027542D01*
X146203742Y-96005004D01*
X146164705Y-95959952D01*
X146160239Y-95951188D01*
X146035298Y-95779219D01*
X145884975Y-95628896D01*
X145713009Y-95503957D01*
X145523603Y-95407450D01*
X145523602Y-95407449D01*
X145523601Y-95407449D01*
X145321432Y-95341760D01*
X145321430Y-95341759D01*
X145321429Y-95341759D01*
X145160146Y-95316214D01*
X145111476Y-95308506D01*
X144898902Y-95308506D01*
X144850231Y-95316214D01*
X144688949Y-95341759D01*
X144486774Y-95407450D01*
X144297368Y-95503957D01*
X144125402Y-95628896D01*
X143975079Y-95779219D01*
X143850138Y-95951188D01*
X143845673Y-95959952D01*
X143797698Y-96010748D01*
X143729877Y-96027542D01*
X143663742Y-96005004D01*
X143624705Y-95959952D01*
X143620239Y-95951188D01*
X143495298Y-95779219D01*
X143344975Y-95628896D01*
X143173009Y-95503957D01*
X142983603Y-95407450D01*
X142983602Y-95407449D01*
X142983601Y-95407449D01*
X142781432Y-95341760D01*
X142781430Y-95341759D01*
X142781429Y-95341759D01*
X142620146Y-95316214D01*
X142571476Y-95308506D01*
X142358902Y-95308506D01*
X142310231Y-95316214D01*
X142148949Y-95341759D01*
X141946774Y-95407450D01*
X141757368Y-95503957D01*
X141585402Y-95628896D01*
X141435079Y-95779219D01*
X141310140Y-95951185D01*
X141213633Y-96140591D01*
X141147942Y-96342766D01*
X141114689Y-96552719D01*
X141114689Y-96765292D01*
X141129893Y-96861290D01*
X141147943Y-96975249D01*
X141213632Y-97177418D01*
X141285795Y-97319047D01*
X141310140Y-97366825D01*
X141414245Y-97510115D01*
X141437725Y-97575921D01*
X141421899Y-97643975D01*
X141371793Y-97692670D01*
X141313927Y-97707000D01*
X140338573Y-97707000D01*
X140319334Y-97708748D01*
X140267996Y-97713413D01*
X140105582Y-97764022D01*
X139989339Y-97834294D01*
X139921784Y-97852130D01*
X139861039Y-97834294D01*
X139744795Y-97764022D01*
X139698191Y-97749500D01*
X139582385Y-97713414D01*
X139582383Y-97713413D01*
X139582381Y-97713413D01*
X139532967Y-97708923D01*
X139511805Y-97707000D01*
X137798573Y-97707000D01*
X137779334Y-97708748D01*
X137727996Y-97713413D01*
X137565582Y-97764022D01*
X137420000Y-97852030D01*
X137299719Y-97972311D01*
X137211711Y-98117893D01*
X137161102Y-98280307D01*
X137156692Y-98328842D01*
X137155376Y-98343330D01*
X137154689Y-98350886D01*
X137154689Y-100182402D01*
X137135004Y-100249441D01*
X137118370Y-100270083D01*
X137019481Y-100368971D01*
X137019479Y-100368973D01*
X137000320Y-100402158D01*
X136992222Y-100416186D01*
X136940423Y-100505904D01*
X136899499Y-100658632D01*
X136899499Y-100658634D01*
X136899499Y-100826735D01*
X136899500Y-100826748D01*
X136899500Y-107163330D01*
X136899499Y-107163348D01*
X136899499Y-107329054D01*
X136899498Y-107329054D01*
X136940423Y-107481786D01*
X136940424Y-107481787D01*
X136962413Y-107519873D01*
X137019480Y-107618716D01*
X137019482Y-107618718D01*
X137138349Y-107737585D01*
X137138354Y-107737589D01*
X138131284Y-108730520D01*
X138131286Y-108730521D01*
X138131290Y-108730524D01*
X138168710Y-108752128D01*
X138268216Y-108809577D01*
X138420943Y-108850501D01*
X138420945Y-108850501D01*
X138586654Y-108850501D01*
X138586670Y-108850500D01*
X145549903Y-108850500D01*
X145616942Y-108870185D01*
X145637584Y-108886819D01*
X145863181Y-109112416D01*
X145896666Y-109173739D01*
X145899500Y-109200097D01*
X145899500Y-111647870D01*
X145899501Y-111647876D01*
X145905908Y-111707483D01*
X145956202Y-111842328D01*
X145956206Y-111842335D01*
X146042452Y-111957544D01*
X146042455Y-111957547D01*
X146157664Y-112043793D01*
X146157671Y-112043797D01*
X146292517Y-112094091D01*
X146292516Y-112094091D01*
X146299444Y-112094835D01*
X146352127Y-112100500D01*
X149247872Y-112100499D01*
X149307483Y-112094091D01*
X149442331Y-112043796D01*
X149557546Y-111957546D01*
X149643796Y-111842331D01*
X149648777Y-111828973D01*
X149659318Y-111800715D01*
X149701189Y-111744781D01*
X149766653Y-111720364D01*
X149834926Y-111735215D01*
X149884332Y-111784620D01*
X149899500Y-111844048D01*
X149899500Y-118649902D01*
X149879815Y-118716941D01*
X149863181Y-118737583D01*
X149137583Y-119463181D01*
X149076260Y-119496666D01*
X149049902Y-119499500D01*
X147050097Y-119499500D01*
X146983058Y-119479815D01*
X146962416Y-119463181D01*
X146510860Y-119011625D01*
X146477375Y-118950302D01*
X146482359Y-118880610D01*
X146524231Y-118824677D01*
X146582054Y-118802874D01*
X146581799Y-118801262D01*
X146586610Y-118800500D01*
X146586611Y-118800500D01*
X146757701Y-118773402D01*
X146922445Y-118719873D01*
X147076788Y-118641232D01*
X147216928Y-118539414D01*
X147339414Y-118416928D01*
X147441232Y-118276788D01*
X147519873Y-118122445D01*
X147573402Y-117957701D01*
X147600500Y-117786611D01*
X147600500Y-117613389D01*
X147573402Y-117442299D01*
X147519873Y-117277555D01*
X147441232Y-117123212D01*
X147339414Y-116983072D01*
X147216928Y-116860586D01*
X147076788Y-116758768D01*
X146922445Y-116680127D01*
X146757701Y-116626598D01*
X146757699Y-116626597D01*
X146757698Y-116626597D01*
X146626271Y-116605781D01*
X146586611Y-116599500D01*
X146413389Y-116599500D01*
X146373728Y-116605781D01*
X146242302Y-116626597D01*
X146077552Y-116680128D01*
X145923211Y-116758768D01*
X145843256Y-116816859D01*
X145783072Y-116860586D01*
X145783070Y-116860588D01*
X145783069Y-116860588D01*
X145660588Y-116983069D01*
X145660588Y-116983070D01*
X145660586Y-116983072D01*
X145646094Y-117003019D01*
X145558768Y-117123211D01*
X145480128Y-117277552D01*
X145426597Y-117442302D01*
X145398738Y-117618201D01*
X145397109Y-117617943D01*
X145374760Y-117676514D01*
X145318512Y-117717963D01*
X145248785Y-117722422D01*
X145188374Y-117689139D01*
X142036818Y-114537583D01*
X142003333Y-114476260D01*
X142000499Y-114449902D01*
X142000499Y-112552129D01*
X142000498Y-112552123D01*
X142000497Y-112552116D01*
X141994091Y-112492517D01*
X141954176Y-112385500D01*
X141943797Y-112357671D01*
X141943793Y-112357664D01*
X141857547Y-112242455D01*
X141857544Y-112242452D01*
X141742335Y-112156206D01*
X141742328Y-112156202D01*
X141607482Y-112105908D01*
X141607483Y-112105908D01*
X141547883Y-112099501D01*
X141547881Y-112099500D01*
X141547873Y-112099500D01*
X141547864Y-112099500D01*
X139252129Y-112099500D01*
X139252123Y-112099501D01*
X139192516Y-112105908D01*
X139057671Y-112156202D01*
X139057664Y-112156206D01*
X138942455Y-112242452D01*
X138942452Y-112242455D01*
X138856206Y-112357664D01*
X138856202Y-112357671D01*
X138805908Y-112492517D01*
X138799501Y-112552116D01*
X138799501Y-112552123D01*
X138799500Y-112552135D01*
X138799501Y-115447867D01*
X138799501Y-115447873D01*
X138805908Y-115507483D01*
X138856202Y-115642328D01*
X138856206Y-115642335D01*
X138942452Y-115757544D01*
X138942455Y-115757547D01*
X139057664Y-115843793D01*
X139057671Y-115843797D01*
X139192517Y-115894091D01*
X139192516Y-115894091D01*
X139199444Y-115894835D01*
X139252127Y-115900500D01*
X141547872Y-115900499D01*
X141598026Y-115895107D01*
X141607484Y-115894091D01*
X141610848Y-115893296D01*
X141613540Y-115893440D01*
X141615197Y-115893262D01*
X141615225Y-115893530D01*
X141680618Y-115897030D01*
X141727054Y-115926289D01*
X145863181Y-120062416D01*
X145896666Y-120123739D01*
X145899500Y-120150097D01*
X145899500Y-122847870D01*
X145899501Y-122847878D01*
X145901046Y-122862248D01*
X145888639Y-122931007D01*
X145841027Y-122982143D01*
X145777756Y-122999500D01*
X136124500Y-122999500D01*
X136057461Y-122979815D01*
X136011706Y-122927011D01*
X136000500Y-122875500D01*
X136000500Y-117613389D01*
X138399500Y-117613389D01*
X138399500Y-117786610D01*
X138420888Y-117921653D01*
X138426598Y-117957701D01*
X138480127Y-118122445D01*
X138558768Y-118276788D01*
X138660586Y-118416928D01*
X138783072Y-118539414D01*
X138923212Y-118641232D01*
X139077555Y-118719873D01*
X139242299Y-118773402D01*
X139413389Y-118800500D01*
X139413390Y-118800500D01*
X139586610Y-118800500D01*
X139586611Y-118800500D01*
X139757701Y-118773402D01*
X139922445Y-118719873D01*
X140076788Y-118641232D01*
X140216928Y-118539414D01*
X140339414Y-118416928D01*
X140441232Y-118276788D01*
X140519873Y-118122445D01*
X140573402Y-117957701D01*
X140600500Y-117786611D01*
X140600500Y-117613389D01*
X140573402Y-117442299D01*
X140519873Y-117277555D01*
X140441232Y-117123212D01*
X140339414Y-116983072D01*
X140216928Y-116860586D01*
X140076788Y-116758768D01*
X139922445Y-116680127D01*
X139757701Y-116626598D01*
X139757699Y-116626597D01*
X139757698Y-116626597D01*
X139626271Y-116605781D01*
X139586611Y-116599500D01*
X139413389Y-116599500D01*
X139373728Y-116605781D01*
X139242302Y-116626597D01*
X139077552Y-116680128D01*
X138923211Y-116758768D01*
X138843256Y-116816859D01*
X138783072Y-116860586D01*
X138783070Y-116860588D01*
X138783069Y-116860588D01*
X138660588Y-116983069D01*
X138660588Y-116983070D01*
X138660586Y-116983072D01*
X138646094Y-117003019D01*
X138558768Y-117123211D01*
X138480128Y-117277552D01*
X138426597Y-117442302D01*
X138399500Y-117613389D01*
X136000500Y-117613389D01*
X136000500Y-90123713D01*
X136274689Y-90123713D01*
X136274689Y-90336286D01*
X136288130Y-90421153D01*
X136307943Y-90546243D01*
X136368783Y-90733489D01*
X136373633Y-90748414D01*
X136470140Y-90937820D01*
X136595079Y-91109786D01*
X136745402Y-91260109D01*
X136917371Y-91385050D01*
X136926135Y-91389516D01*
X136976931Y-91437491D01*
X136993725Y-91505312D01*
X136971187Y-91571447D01*
X136926135Y-91610484D01*
X136917371Y-91614949D01*
X136745402Y-91739890D01*
X136595079Y-91890213D01*
X136470140Y-92062179D01*
X136373633Y-92251585D01*
X136373632Y-92251587D01*
X136373632Y-92251588D01*
X136357816Y-92300264D01*
X136307942Y-92453760D01*
X136283228Y-92609798D01*
X136274689Y-92663713D01*
X136274689Y-92876287D01*
X136282742Y-92927129D01*
X136300026Y-93036262D01*
X136307943Y-93086243D01*
X136370226Y-93277930D01*
X136373633Y-93288414D01*
X136470140Y-93477820D01*
X136595079Y-93649786D01*
X136745402Y-93800109D01*
X136917368Y-93925048D01*
X136917370Y-93925049D01*
X136917373Y-93925051D01*
X137106777Y-94021557D01*
X137308946Y-94087246D01*
X137518902Y-94120500D01*
X137518903Y-94120500D01*
X137731475Y-94120500D01*
X137731476Y-94120500D01*
X137941432Y-94087246D01*
X138143601Y-94021557D01*
X138333005Y-93925051D01*
X138354978Y-93909086D01*
X138504975Y-93800109D01*
X138504977Y-93800106D01*
X138504981Y-93800104D01*
X138655293Y-93649792D01*
X138655295Y-93649788D01*
X138655298Y-93649786D01*
X138780237Y-93477820D01*
X138780236Y-93477820D01*
X138780240Y-93477816D01*
X138784703Y-93469054D01*
X138832677Y-93418259D01*
X138900497Y-93401463D01*
X138966633Y-93423999D01*
X139005675Y-93469056D01*
X139010140Y-93477820D01*
X139135079Y-93649786D01*
X139285402Y-93800109D01*
X139457368Y-93925048D01*
X139457370Y-93925049D01*
X139457373Y-93925051D01*
X139646777Y-94021557D01*
X139848946Y-94087246D01*
X140058902Y-94120500D01*
X140058903Y-94120500D01*
X140271475Y-94120500D01*
X140271476Y-94120500D01*
X140481432Y-94087246D01*
X140683601Y-94021557D01*
X140873005Y-93925051D01*
X140894978Y-93909086D01*
X141044975Y-93800109D01*
X141044977Y-93800106D01*
X141044981Y-93800104D01*
X141195293Y-93649792D01*
X141195295Y-93649788D01*
X141195298Y-93649786D01*
X141320237Y-93477820D01*
X141320236Y-93477820D01*
X141320240Y-93477816D01*
X141324703Y-93469054D01*
X141372677Y-93418259D01*
X141440497Y-93401463D01*
X141506633Y-93423999D01*
X141545675Y-93469056D01*
X141550140Y-93477820D01*
X141675079Y-93649786D01*
X141825402Y-93800109D01*
X141997368Y-93925048D01*
X141997370Y-93925049D01*
X141997373Y-93925051D01*
X142186777Y-94021557D01*
X142388946Y-94087246D01*
X142598902Y-94120500D01*
X142598903Y-94120500D01*
X142811475Y-94120500D01*
X142811476Y-94120500D01*
X143021432Y-94087246D01*
X143223601Y-94021557D01*
X143413005Y-93925051D01*
X143434978Y-93909086D01*
X143584975Y-93800109D01*
X143584977Y-93800106D01*
X143584981Y-93800104D01*
X143735293Y-93649792D01*
X143735295Y-93649788D01*
X143735298Y-93649786D01*
X143860237Y-93477820D01*
X143860236Y-93477820D01*
X143860240Y-93477816D01*
X143956746Y-93288412D01*
X144022435Y-93086243D01*
X144055689Y-92876287D01*
X144055689Y-92663713D01*
X144022435Y-92453757D01*
X143956746Y-92251588D01*
X143860240Y-92062184D01*
X143860238Y-92062181D01*
X143860237Y-92062179D01*
X143735298Y-91890213D01*
X143584975Y-91739890D01*
X143413009Y-91614951D01*
X143412304Y-91614591D01*
X143404243Y-91610485D01*
X143353448Y-91562512D01*
X143336652Y-91494692D01*
X143359188Y-91428556D01*
X143404243Y-91389515D01*
X143413005Y-91385051D01*
X143490548Y-91328713D01*
X143584975Y-91260109D01*
X143584977Y-91260106D01*
X143584981Y-91260104D01*
X143735293Y-91109792D01*
X143735295Y-91109788D01*
X143735298Y-91109786D01*
X143860237Y-90937820D01*
X143860236Y-90937820D01*
X143860240Y-90937816D01*
X143956746Y-90748412D01*
X144022435Y-90546243D01*
X144055689Y-90336287D01*
X144055689Y-90123713D01*
X144022435Y-89913757D01*
X143956746Y-89711588D01*
X143860240Y-89522184D01*
X143860238Y-89522181D01*
X143860237Y-89522179D01*
X143735298Y-89350213D01*
X143584975Y-89199890D01*
X143413009Y-89074951D01*
X143223603Y-88978444D01*
X143223602Y-88978443D01*
X143223601Y-88978443D01*
X143021432Y-88912754D01*
X143021430Y-88912753D01*
X143021429Y-88912753D01*
X142860146Y-88887208D01*
X142811476Y-88879500D01*
X142598902Y-88879500D01*
X142550231Y-88887208D01*
X142388949Y-88912753D01*
X142186774Y-88978444D01*
X141997368Y-89074951D01*
X141825402Y-89199890D01*
X141675079Y-89350213D01*
X141550138Y-89522182D01*
X141545673Y-89530946D01*
X141497698Y-89581742D01*
X141429877Y-89598536D01*
X141363742Y-89575998D01*
X141324705Y-89530946D01*
X141320239Y-89522182D01*
X141195298Y-89350213D01*
X141044975Y-89199890D01*
X140873009Y-89074951D01*
X140683603Y-88978444D01*
X140683602Y-88978443D01*
X140683601Y-88978443D01*
X140481432Y-88912754D01*
X140481430Y-88912753D01*
X140481429Y-88912753D01*
X140320146Y-88887208D01*
X140271476Y-88879500D01*
X140058902Y-88879500D01*
X140010231Y-88887208D01*
X139848949Y-88912753D01*
X139646774Y-88978444D01*
X139457368Y-89074951D01*
X139285402Y-89199890D01*
X139135079Y-89350213D01*
X139010138Y-89522182D01*
X139005673Y-89530946D01*
X138957698Y-89581742D01*
X138889877Y-89598536D01*
X138823742Y-89575998D01*
X138784705Y-89530946D01*
X138780239Y-89522182D01*
X138655298Y-89350213D01*
X138504975Y-89199890D01*
X138333009Y-89074951D01*
X138143603Y-88978444D01*
X138143602Y-88978443D01*
X138143601Y-88978443D01*
X137941432Y-88912754D01*
X137941430Y-88912753D01*
X137941429Y-88912753D01*
X137780146Y-88887208D01*
X137731476Y-88879500D01*
X137518902Y-88879500D01*
X137470231Y-88887208D01*
X137308949Y-88912753D01*
X137106774Y-88978444D01*
X136917368Y-89074951D01*
X136745402Y-89199890D01*
X136595079Y-89350213D01*
X136470140Y-89522179D01*
X136373633Y-89711585D01*
X136307942Y-89913760D01*
X136274689Y-90123713D01*
X136000500Y-90123713D01*
X136000500Y-82185886D01*
X137154689Y-82185886D01*
X137154689Y-84649113D01*
X137161102Y-84719692D01*
X137161102Y-84719694D01*
X137161103Y-84719696D01*
X137211711Y-84882106D01*
X137264442Y-84969334D01*
X137299719Y-85027688D01*
X137420000Y-85147969D01*
X137420002Y-85147970D01*
X137420004Y-85147972D01*
X137565583Y-85235978D01*
X137727993Y-85286586D01*
X137798573Y-85293000D01*
X137798576Y-85293000D01*
X139511802Y-85293000D01*
X139511805Y-85293000D01*
X139582385Y-85286586D01*
X139744795Y-85235978D01*
X139890374Y-85147972D01*
X140010661Y-85027685D01*
X140098667Y-84882106D01*
X140149275Y-84719696D01*
X140155689Y-84649116D01*
X140155689Y-82185884D01*
X140149275Y-82115304D01*
X140098667Y-81952894D01*
X140010661Y-81807315D01*
X140010659Y-81807313D01*
X140010658Y-81807311D01*
X139890377Y-81687030D01*
X139861038Y-81669294D01*
X139744795Y-81599022D01*
X139582385Y-81548414D01*
X139582383Y-81548413D01*
X139582381Y-81548413D01*
X139532967Y-81543923D01*
X139511805Y-81542000D01*
X137798573Y-81542000D01*
X137779334Y-81543748D01*
X137727996Y-81548413D01*
X137565582Y-81599022D01*
X137420000Y-81687030D01*
X137299719Y-81807311D01*
X137211711Y-81952893D01*
X137161102Y-82115307D01*
X137154689Y-82185886D01*
X136000500Y-82185886D01*
X136000500Y-76874500D01*
X136020185Y-76807461D01*
X136072989Y-76761706D01*
X136124500Y-76750500D01*
X179375500Y-76750500D01*
X179442539Y-76770185D01*
G37*
%TD.AperFunction*%
%TA.AperFunction,Conductor*%
G36*
X142529336Y-101330704D02*
G01*
X142645583Y-101400978D01*
X142807993Y-101451586D01*
X142878573Y-101458000D01*
X143335092Y-101458000D01*
X143402131Y-101477685D01*
X143422773Y-101494319D01*
X145192828Y-103264374D01*
X145192838Y-103264385D01*
X145197168Y-103268715D01*
X145197169Y-103268716D01*
X145308973Y-103380520D01*
X145395784Y-103430639D01*
X145395786Y-103430641D01*
X145433840Y-103452611D01*
X145445904Y-103459577D01*
X145598632Y-103500501D01*
X145598635Y-103500501D01*
X145764342Y-103500501D01*
X145764358Y-103500500D01*
X150600903Y-103500500D01*
X150667942Y-103520185D01*
X150713697Y-103572989D01*
X150723641Y-103642147D01*
X150694616Y-103705703D01*
X150688587Y-103712177D01*
X150370125Y-104030639D01*
X150131286Y-104269478D01*
X150019481Y-104381282D01*
X150019479Y-104381284D01*
X149994706Y-104424193D01*
X149984235Y-104442331D01*
X149940423Y-104518215D01*
X149899499Y-104670943D01*
X149899499Y-104670945D01*
X149899499Y-104839046D01*
X149899500Y-104839059D01*
X149899500Y-108555951D01*
X149879815Y-108622990D01*
X149827011Y-108668745D01*
X149757853Y-108678689D01*
X149694297Y-108649664D01*
X149659318Y-108599284D01*
X149643797Y-108557671D01*
X149643793Y-108557664D01*
X149557547Y-108442455D01*
X149557544Y-108442452D01*
X149442335Y-108356206D01*
X149442328Y-108356202D01*
X149307482Y-108305908D01*
X149307483Y-108305908D01*
X149247883Y-108299501D01*
X149247881Y-108299500D01*
X149247873Y-108299500D01*
X149247865Y-108299500D01*
X146800097Y-108299500D01*
X146733058Y-108279815D01*
X146712416Y-108263181D01*
X146337590Y-107888355D01*
X146337588Y-107888352D01*
X146251154Y-107801918D01*
X146217669Y-107740595D01*
X146222653Y-107670903D01*
X146264525Y-107614970D01*
X146329989Y-107590553D01*
X146358231Y-107591763D01*
X146413389Y-107600500D01*
X146413390Y-107600500D01*
X146586610Y-107600500D01*
X146586611Y-107600500D01*
X146757701Y-107573402D01*
X146922445Y-107519873D01*
X147076788Y-107441232D01*
X147216928Y-107339414D01*
X147339414Y-107216928D01*
X147441232Y-107076788D01*
X147519873Y-106922445D01*
X147573402Y-106757701D01*
X147600500Y-106586611D01*
X147600500Y-106413389D01*
X147573402Y-106242299D01*
X147519873Y-106077555D01*
X147441232Y-105923212D01*
X147339414Y-105783072D01*
X147216928Y-105660586D01*
X147076788Y-105558768D01*
X146922447Y-105480128D01*
X146922446Y-105480127D01*
X146922445Y-105480127D01*
X146757701Y-105426598D01*
X146757699Y-105426597D01*
X146757698Y-105426597D01*
X146626271Y-105405781D01*
X146586611Y-105399500D01*
X146413389Y-105399500D01*
X146373728Y-105405781D01*
X146242302Y-105426597D01*
X146077552Y-105480128D01*
X145923211Y-105558768D01*
X145843256Y-105616859D01*
X145783072Y-105660586D01*
X145783070Y-105660588D01*
X145783069Y-105660588D01*
X145660588Y-105783069D01*
X145660588Y-105783070D01*
X145660586Y-105783072D01*
X145616859Y-105843256D01*
X145558768Y-105923211D01*
X145480128Y-106077552D01*
X145426597Y-106242302D01*
X145403954Y-106385266D01*
X145399500Y-106413389D01*
X145399500Y-106586611D01*
X145426598Y-106757701D01*
X145480127Y-106922445D01*
X145558768Y-107076788D01*
X145660586Y-107216928D01*
X145783072Y-107339414D01*
X145863992Y-107398206D01*
X145901120Y-107425181D01*
X145943785Y-107480511D01*
X145949764Y-107550125D01*
X145917158Y-107611920D01*
X145856319Y-107646277D01*
X145828234Y-107649499D01*
X145763347Y-107649499D01*
X145763331Y-107649500D01*
X140171765Y-107649500D01*
X140104726Y-107629815D01*
X140058971Y-107577011D01*
X140049027Y-107507853D01*
X140078052Y-107444297D01*
X140098879Y-107425182D01*
X140136008Y-107398206D01*
X140216928Y-107339414D01*
X140339414Y-107216928D01*
X140441232Y-107076788D01*
X140519873Y-106922445D01*
X140573402Y-106757701D01*
X140600500Y-106586611D01*
X140600500Y-106413389D01*
X140573402Y-106242299D01*
X140519873Y-106077555D01*
X140441232Y-105923212D01*
X140339414Y-105783072D01*
X140216928Y-105660586D01*
X140076788Y-105558768D01*
X139922447Y-105480128D01*
X139922446Y-105480127D01*
X139922445Y-105480127D01*
X139757701Y-105426598D01*
X139757699Y-105426597D01*
X139757698Y-105426597D01*
X139626271Y-105405781D01*
X139586611Y-105399500D01*
X139413389Y-105399500D01*
X139373728Y-105405781D01*
X139242302Y-105426597D01*
X139077552Y-105480128D01*
X138923211Y-105558768D01*
X138843256Y-105616859D01*
X138783072Y-105660586D01*
X138783070Y-105660588D01*
X138783069Y-105660588D01*
X138660588Y-105783069D01*
X138660588Y-105783070D01*
X138660586Y-105783072D01*
X138616859Y-105843256D01*
X138558768Y-105923211D01*
X138480128Y-106077552D01*
X138426597Y-106242302D01*
X138403954Y-106385266D01*
X138399500Y-106413389D01*
X138399500Y-106586611D01*
X138426598Y-106757701D01*
X138480127Y-106922445D01*
X138558768Y-107076788D01*
X138598729Y-107131790D01*
X138649577Y-107201775D01*
X138673057Y-107267582D01*
X138657232Y-107335636D01*
X138607126Y-107384331D01*
X138538648Y-107398206D01*
X138473539Y-107372857D01*
X138461578Y-107362342D01*
X138136819Y-107037583D01*
X138103334Y-106976260D01*
X138100500Y-106949902D01*
X138100500Y-101582000D01*
X138120185Y-101514961D01*
X138172989Y-101469206D01*
X138224500Y-101458000D01*
X138675500Y-101458000D01*
X138742539Y-101477685D01*
X138788294Y-101530489D01*
X138799500Y-101582000D01*
X138799500Y-104247870D01*
X138799501Y-104247876D01*
X138805908Y-104307483D01*
X138856202Y-104442328D01*
X138856206Y-104442335D01*
X138942452Y-104557544D01*
X138942455Y-104557547D01*
X139057664Y-104643793D01*
X139057671Y-104643797D01*
X139192517Y-104694091D01*
X139192516Y-104694091D01*
X139199444Y-104694835D01*
X139252127Y-104700500D01*
X141547872Y-104700499D01*
X141607483Y-104694091D01*
X141742331Y-104643796D01*
X141857546Y-104557546D01*
X141943796Y-104442331D01*
X141994091Y-104307483D01*
X142000500Y-104247873D01*
X142000499Y-101575903D01*
X142020184Y-101508865D01*
X142072987Y-101463110D01*
X142113277Y-101452413D01*
X142122385Y-101451586D01*
X142284795Y-101400978D01*
X142401041Y-101330704D01*
X142468593Y-101312869D01*
X142529336Y-101330704D01*
G37*
%TD.AperFunction*%
%TA.AperFunction,Conductor*%
G36*
X159305703Y-97159726D02*
G01*
X159327602Y-97184548D01*
X159378210Y-97260288D01*
X159378213Y-97260292D01*
X159489707Y-97371786D01*
X159489711Y-97371789D01*
X159620814Y-97459390D01*
X159620827Y-97459397D01*
X159708230Y-97495599D01*
X159766503Y-97519737D01*
X159779689Y-97522359D01*
X159841600Y-97554742D01*
X159876176Y-97615457D01*
X159879500Y-97643977D01*
X159879500Y-100126603D01*
X159859815Y-100193642D01*
X159830279Y-100223711D01*
X159830990Y-100224578D01*
X159826278Y-100228444D01*
X159683441Y-100371281D01*
X159571217Y-100539237D01*
X159571212Y-100539247D01*
X159493909Y-100725872D01*
X159493907Y-100725880D01*
X159454500Y-100923992D01*
X159454500Y-101576007D01*
X159493907Y-101774119D01*
X159493909Y-101774127D01*
X159571212Y-101960752D01*
X159571217Y-101960762D01*
X159683441Y-102128718D01*
X159826279Y-102271556D01*
X159867255Y-102298935D01*
X159912060Y-102352547D01*
X159920767Y-102421872D01*
X159890613Y-102484900D01*
X159886045Y-102489718D01*
X159512584Y-102863181D01*
X159451261Y-102896666D01*
X159424903Y-102899500D01*
X156564783Y-102899500D01*
X156497744Y-102879815D01*
X156451989Y-102827011D01*
X156442045Y-102757853D01*
X156471070Y-102694297D01*
X156477102Y-102687819D01*
X157622856Y-101542065D01*
X158980520Y-100184402D01*
X159059577Y-100047470D01*
X159100501Y-99894743D01*
X159100501Y-99736628D01*
X159100501Y-99729033D01*
X159100500Y-99729015D01*
X159100500Y-97253439D01*
X159120185Y-97186400D01*
X159172989Y-97140645D01*
X159242147Y-97130701D01*
X159305703Y-97159726D01*
G37*
%TD.AperFunction*%
%TA.AperFunction,Conductor*%
G36*
X155705300Y-80905727D02*
G01*
X155716104Y-80915339D01*
X157363181Y-82562416D01*
X157396666Y-82623739D01*
X157399500Y-82650097D01*
X157399500Y-99449903D01*
X157379815Y-99516942D01*
X157363181Y-99537584D01*
X155037584Y-101863181D01*
X154976261Y-101896666D01*
X154949903Y-101899500D01*
X150300098Y-101899500D01*
X150233059Y-101879815D01*
X150212417Y-101863181D01*
X149920370Y-101571134D01*
X149886885Y-101509811D01*
X149891869Y-101440119D01*
X149933741Y-101384186D01*
X149943889Y-101377344D01*
X150021040Y-101330704D01*
X150088594Y-101312869D01*
X150149336Y-101330704D01*
X150265583Y-101400978D01*
X150427993Y-101451586D01*
X150498573Y-101458000D01*
X150498576Y-101458000D01*
X152211802Y-101458000D01*
X152211805Y-101458000D01*
X152282385Y-101451586D01*
X152444795Y-101400978D01*
X152561041Y-101330704D01*
X152628593Y-101312869D01*
X152689336Y-101330704D01*
X152805583Y-101400978D01*
X152967993Y-101451586D01*
X153038573Y-101458000D01*
X153038576Y-101458000D01*
X154751802Y-101458000D01*
X154751805Y-101458000D01*
X154822385Y-101451586D01*
X154984795Y-101400978D01*
X155130374Y-101312972D01*
X155250661Y-101192685D01*
X155338667Y-101047106D01*
X155389275Y-100884696D01*
X155395689Y-100814116D01*
X155395689Y-99146800D01*
X155415374Y-99079761D01*
X155468178Y-99034006D01*
X155537336Y-99024062D01*
X155543881Y-99025183D01*
X155671155Y-99050500D01*
X155671158Y-99050500D01*
X155828844Y-99050500D01*
X155828845Y-99050499D01*
X155983497Y-99019737D01*
X156129179Y-98959394D01*
X156260289Y-98871789D01*
X156371789Y-98760289D01*
X156459394Y-98629179D01*
X156519737Y-98483497D01*
X156550500Y-98328842D01*
X156550500Y-98171158D01*
X156550500Y-98171155D01*
X156550499Y-98171153D01*
X156539795Y-98117339D01*
X156519737Y-98016503D01*
X156482522Y-97926657D01*
X156459397Y-97870827D01*
X156459390Y-97870814D01*
X156371789Y-97739711D01*
X156371786Y-97739707D01*
X156260292Y-97628213D01*
X156260288Y-97628210D01*
X156129185Y-97540609D01*
X156129172Y-97540602D01*
X155983501Y-97480264D01*
X155983489Y-97480261D01*
X155828845Y-97449500D01*
X155828842Y-97449500D01*
X155671158Y-97449500D01*
X155671155Y-97449500D01*
X155516510Y-97480261D01*
X155516498Y-97480264D01*
X155370827Y-97540602D01*
X155370814Y-97540609D01*
X155239127Y-97628601D01*
X155172450Y-97649479D01*
X155170236Y-97649499D01*
X155148632Y-97649499D01*
X155072268Y-97669961D01*
X154995903Y-97690423D01*
X154995902Y-97690424D01*
X154956251Y-97713316D01*
X154888351Y-97729786D01*
X154857366Y-97724313D01*
X154822389Y-97713414D01*
X154782053Y-97709748D01*
X154751805Y-97707000D01*
X153038573Y-97707000D01*
X153038572Y-97707000D01*
X153012638Y-97709356D01*
X152944092Y-97695818D01*
X152893748Y-97647370D01*
X152877588Y-97579395D01*
X152900744Y-97513474D01*
X152913732Y-97498190D01*
X155553695Y-94858228D01*
X155553700Y-94858224D01*
X155563903Y-94848020D01*
X155563905Y-94848020D01*
X155675709Y-94736216D01*
X155736291Y-94631284D01*
X155754766Y-94599285D01*
X155795689Y-94446557D01*
X155795689Y-94288443D01*
X155795689Y-82118911D01*
X155795690Y-82118898D01*
X155795690Y-81950797D01*
X155795690Y-81950795D01*
X155754766Y-81798067D01*
X155720804Y-81739243D01*
X155690717Y-81687130D01*
X155675711Y-81661139D01*
X155675710Y-81661138D01*
X155675709Y-81661136D01*
X155563905Y-81549332D01*
X155563904Y-81549331D01*
X155559574Y-81545001D01*
X155559563Y-81544991D01*
X155201241Y-81186669D01*
X155167756Y-81125346D01*
X155172740Y-81055654D01*
X155214612Y-80999721D01*
X155269519Y-80976516D01*
X155351368Y-80963553D01*
X155575992Y-80890568D01*
X155576008Y-80890559D01*
X155580496Y-80888702D01*
X155581389Y-80890859D01*
X155640496Y-80879609D01*
X155705300Y-80905727D01*
G37*
%TD.AperFunction*%
%TD*%
M02*
