%TF.GenerationSoftware,KiCad,Pcbnew,10.0.5-1-g226df246f3*%
%TF.CreationDate,2026-08-24T22:53:28-07:00*%
%TF.ProjectId,micro-keyer,6d696372-6f2d-46b6-9579-65722e6b6963,rev?*%
%TF.SameCoordinates,Original*%
%TF.FileFunction,Soldermask,Bot*%
%TF.FilePolarity,Negative*%
%FSLAX46Y46*%
G04 Gerber Fmt 4.6, Leading zero omitted, Abs format (unit mm)*
G04 Created by KiCad (PCBNEW 10.0.5-1-g226df246f3) date 2026-08-24 22:53:28*
%MOMM*%
%LPD*%
G01*
G04 APERTURE LIST*
G04 Aperture macros list*
%AMRoundRect*
0 Rectangle with rounded corners*
0 $1 Rounding radius*
0 $2 $3 $4 $5 $6 $7 $8 $9 X,Y pos of 4 corners*
0 Add a 4 corners polygon primitive as box body*
4,1,4,$2,$3,$4,$5,$6,$7,$8,$9,$2,$3,0*
0 Add four circle primitives for the rounded corners*
1,1,$1+$1,$2,$3*
1,1,$1+$1,$4,$5*
1,1,$1+$1,$6,$7*
1,1,$1+$1,$8,$9*
0 Add four rect primitives between the rounded corners*
20,1,$1+$1,$2,$3,$4,$5,0*
20,1,$1+$1,$4,$5,$6,$7,0*
20,1,$1+$1,$6,$7,$8,$9,0*
20,1,$1+$1,$8,$9,$2,$3,0*%
%AMFreePoly0*
4,1,6,1.000000,0.000000,0.500000,-0.750000,-0.500000,-0.750000,-0.500000,0.750000,0.500000,0.750000,1.000000,0.000000,1.000000,0.000000,$1*%
%AMFreePoly1*
4,1,6,0.500000,-0.750000,-0.650000,-0.750000,-0.150000,0.000000,-0.650000,0.750000,0.500000,0.750000,0.500000,-0.750000,0.500000,-0.750000,$1*%
G04 Aperture macros list end*
%ADD10RoundRect,0.102000X-0.580000X0.580000X-0.580000X-0.580000X0.580000X-0.580000X0.580000X0.580000X0*%
%ADD11C,1.364000*%
%ADD12R,1.500000X1.050000*%
%ADD13O,1.500000X1.050000*%
%ADD14O,2.200000X3.500000*%
%ADD15R,1.500000X2.500000*%
%ADD16O,1.500000X2.500000*%
%ADD17R,1.050000X1.500000*%
%ADD18O,1.050000X1.500000*%
%ADD19C,1.700000*%
%ADD20R,2.000000X2.000000*%
%ADD21C,2.000000*%
%ADD22R,2.000000X3.200000*%
%ADD23RoundRect,0.190500X-0.444500X-0.444500X0.444500X-0.444500X0.444500X0.444500X-0.444500X0.444500X0*%
%ADD24RoundRect,0.250000X-0.750000X-0.750000X0.750000X-0.750000X0.750000X0.750000X-0.750000X0.750000X0*%
%ADD25O,2.500000X3.500000*%
%ADD26O,3.000000X1.500000*%
%ADD27O,3.500000X2.500000*%
%ADD28O,2.100000X3.100000*%
%ADD29FreePoly0,180.000000*%
%ADD30FreePoly1,180.000000*%
%ADD31RoundRect,0.200000X0.200000X0.450000X-0.200000X0.450000X-0.200000X-0.450000X0.200000X-0.450000X0*%
%ADD32O,0.800000X1.300000*%
G04 APERTURE END LIST*
%TO.C,JP3*%
G36*
X167775000Y-112250000D02*
G01*
X170225000Y-112250000D01*
X170225000Y-113750000D01*
X167775000Y-113750000D01*
X167775000Y-112250000D01*
G37*
%TO.C,JP2*%
G36*
X161775000Y-115250000D02*
G01*
X164225000Y-115250000D01*
X164225000Y-116750000D01*
X161775000Y-116750000D01*
X161775000Y-115250000D01*
G37*
%TO.C,JP1*%
G36*
X161775000Y-112250000D02*
G01*
X164225000Y-112250000D01*
X164225000Y-113750000D01*
X161775000Y-113750000D01*
X161775000Y-112250000D01*
G37*
%TO.C,JP4*%
G36*
X167775000Y-115250000D02*
G01*
X170225000Y-115250000D01*
X170225000Y-116750000D01*
X167775000Y-116750000D01*
X167775000Y-115250000D01*
G37*
%TD*%
D10*
%TO.C,RV1*%
X175130000Y-114210000D03*
D11*
X175130000Y-116750000D03*
X175130000Y-119290000D03*
%TD*%
D12*
%TO.C,Q1*%
X160750000Y-93500000D03*
D13*
X160750000Y-92230000D03*
X160750000Y-90960000D03*
%TD*%
D14*
%TO.C,SW3*%
X157050000Y-120750000D03*
X165250000Y-120750000D03*
D15*
X159150000Y-120750000D03*
D16*
X161150000Y-120750000D03*
X163150000Y-120750000D03*
%TD*%
D17*
%TO.C,Q2*%
X159210000Y-101250000D03*
D18*
X160480000Y-101250000D03*
X161750000Y-101250000D03*
%TD*%
D19*
%TO.C,J3*%
X139500000Y-117700000D03*
X146500000Y-117700000D03*
%TD*%
D20*
%TO.C,SW1*%
X170000000Y-92550000D03*
D21*
X175000000Y-92550000D03*
X172500000Y-92550000D03*
D22*
X166900000Y-85050000D03*
X178100000Y-85050000D03*
D21*
X175000000Y-78050000D03*
X170000000Y-78050000D03*
%TD*%
D23*
%TO.C,BZ1*%
X154750000Y-109750000D03*
X158750000Y-109750000D03*
X161250000Y-109750000D03*
%TD*%
D24*
%TO.C,SSD1*%
X147500000Y-79500000D03*
D21*
X150000000Y-79500000D03*
X152500000Y-79500000D03*
X155000000Y-79500000D03*
%TD*%
D19*
%TO.C,J4*%
X139500000Y-106500000D03*
X146500000Y-106500000D03*
%TD*%
D25*
%TO.C,J2*%
X177700000Y-104000000D03*
D26*
X169400000Y-109000000D03*
D27*
X171100000Y-106500000D03*
X174200000Y-99500000D03*
D28*
X166600000Y-99800000D03*
%TD*%
D21*
%TO.C,TP1*%
X147350000Y-89650000D03*
%TD*%
D29*
%TO.C,JP3*%
X169725000Y-113000000D03*
D30*
X168275000Y-113000000D03*
%TD*%
D21*
%TO.C,TP2*%
X147350000Y-93100000D03*
%TD*%
D31*
%TO.C,J1*%
X162750000Y-82250000D03*
D32*
X161500000Y-82250000D03*
%TD*%
D29*
%TO.C,JP2*%
X163725000Y-116000000D03*
D30*
X162275000Y-116000000D03*
%TD*%
D29*
%TO.C,JP1*%
X163725000Y-113000000D03*
D30*
X162275000Y-113000000D03*
%TD*%
D29*
%TO.C,JP4*%
X169725000Y-116000000D03*
D30*
X168275000Y-116000000D03*
%TD*%
M02*
