M48
; DRILL file KiCad 10.0.5 date 2026-08-09T03:42:03
; FORMAT={-:-/ absolute / metric / decimal}
; #@! TF.CreationDate,2026-08-09T03:42:03-07:00
; #@! TF.GenerationSoftware,Kicad,Pcbnew,10.0.5
; #@! TF.FileFunction,Plated,1,2,PTH
FMAT,2
METRIC
; #@! TA.AperFunction,Plated,PTH,ViaDrill
T1C0.300
; #@! TA.AperFunction,Plated,PTH,ComponentDrill
T2C0.500
; #@! TA.AperFunction,Plated,PTH,ComponentDrill
T3C0.750
; #@! TA.AperFunction,Plated,PTH,ComponentDrill
T4C0.800
; #@! TA.AperFunction,Plated,PTH,ComponentDrill
T5C1.000
; #@! TA.AperFunction,Plated,PTH,ComponentDrill
T6C1.100
; #@! TA.AperFunction,Plated,PTH,ComponentDrill
T7C1.650
%
G90
G05
T1
X141.5Y-91.5
X144.0Y-94.75
X146.25Y-85.5
X146.25Y-85.5
X147.0Y-101.75
X151.25Y-81.25
X151.75Y-85.5
X152.5Y-104.5
X153.5Y-86.0
X153.5Y-90.0
X153.5Y-92.5
X154.25Y-105.0
X156.0Y-96.0
X156.5Y-100.0
X157.25Y-102.5
X159.25Y-84.75
X159.75Y-100.0
X160.75Y-97.0
X163.5Y-96.5
X166.482Y-119.037
X169.75Y-108.25
T2
X161.5Y-80.75
X162.75Y-80.75
T3
X159.21Y-101.25
X160.48Y-101.25
X161.75Y-101.25
X162.5Y-88.96
X162.5Y-90.23
X162.5Y-91.5
T4
X165.85Y-121.5
X167.85Y-121.5
X169.85Y-121.5
X173.85Y-121.5
T5
X147.5Y-79.5
X150.0Y-79.5
X152.5Y-79.5
X155.0Y-79.5
X166.275Y-82.25
X166.275Y-84.75
X166.275Y-87.25
X169.75Y-98.25
X174.75Y-98.25
T6
X153.0Y-107.0
X153.0Y-111.5
X153.0Y-114.5
X153.0Y-119.0
X159.5Y-107.0
X159.5Y-111.5
X159.5Y-114.5
X159.5Y-119.0
T7
X161.95Y-121.5
X177.95Y-121.5
T5
G00X166.65Y-107.3
M15
G01X166.65Y-108.3
M16
G05
G00X169.95Y-117.0
M15
G01X168.95Y-117.0
M16
G05
G00X171.65Y-114.5
M15
G01X170.65Y-114.5
M16
G05
G00X174.75Y-107.5
M15
G01X173.75Y-107.5
M16
G05
G00X177.75Y-112.5
M15
G01X177.75Y-111.5
M16
G05
T6
G00X173.775Y-79.65
M15
G01X173.775Y-80.35
M16
G05
G00X173.775Y-89.15
M15
G01X173.775Y-89.85
M16
G05
M30
