%TF.GenerationSoftware,KiCad,Pcbnew,10.0.5*%
%TF.CreationDate,2026-08-09T03:42:05-07:00*%
%TF.ProjectId,micro-keyer,6d696372-6f2d-46b6-9579-65722e6b6963,rev?*%
%TF.SameCoordinates,Original*%
%TF.FileFunction,Legend,Top*%
%TF.FilePolarity,Positive*%
%FSLAX46Y46*%
G04 Gerber Fmt 4.6, Leading zero omitted, Abs format (unit mm)*
G04 Created by KiCad (PCBNEW 10.0.5) date 2026-08-09 03:42:05*
%MOMM*%
%LPD*%
G01*
G04 APERTURE LIST*
%ADD10C,0.300000*%
%ADD11C,0.100000*%
%ADD12C,0.150000*%
%ADD13C,0.101600*%
%ADD14C,0.120000*%
%ADD15C,0.127000*%
%ADD16C,0.504000*%
G04 APERTURE END LIST*
D10*
X160304510Y-78979400D02*
X161447368Y-78979400D01*
X163054510Y-78979400D02*
X164197368Y-78979400D01*
X163625939Y-79550828D02*
X163625939Y-78407971D01*
D11*
X134561905Y-73359800D02*
X134704762Y-73407419D01*
X134704762Y-73407419D02*
X134942857Y-73407419D01*
X134942857Y-73407419D02*
X135038095Y-73359800D01*
X135038095Y-73359800D02*
X135085714Y-73312180D01*
X135085714Y-73312180D02*
X135133333Y-73216942D01*
X135133333Y-73216942D02*
X135133333Y-73121704D01*
X135133333Y-73121704D02*
X135085714Y-73026466D01*
X135085714Y-73026466D02*
X135038095Y-72978847D01*
X135038095Y-72978847D02*
X134942857Y-72931228D01*
X134942857Y-72931228D02*
X134752381Y-72883609D01*
X134752381Y-72883609D02*
X134657143Y-72835990D01*
X134657143Y-72835990D02*
X134609524Y-72788371D01*
X134609524Y-72788371D02*
X134561905Y-72693133D01*
X134561905Y-72693133D02*
X134561905Y-72597895D01*
X134561905Y-72597895D02*
X134609524Y-72502657D01*
X134609524Y-72502657D02*
X134657143Y-72455038D01*
X134657143Y-72455038D02*
X134752381Y-72407419D01*
X134752381Y-72407419D02*
X134990476Y-72407419D01*
X134990476Y-72407419D02*
X135133333Y-72455038D01*
X135514286Y-73359800D02*
X135657143Y-73407419D01*
X135657143Y-73407419D02*
X135895238Y-73407419D01*
X135895238Y-73407419D02*
X135990476Y-73359800D01*
X135990476Y-73359800D02*
X136038095Y-73312180D01*
X136038095Y-73312180D02*
X136085714Y-73216942D01*
X136085714Y-73216942D02*
X136085714Y-73121704D01*
X136085714Y-73121704D02*
X136038095Y-73026466D01*
X136038095Y-73026466D02*
X135990476Y-72978847D01*
X135990476Y-72978847D02*
X135895238Y-72931228D01*
X135895238Y-72931228D02*
X135704762Y-72883609D01*
X135704762Y-72883609D02*
X135609524Y-72835990D01*
X135609524Y-72835990D02*
X135561905Y-72788371D01*
X135561905Y-72788371D02*
X135514286Y-72693133D01*
X135514286Y-72693133D02*
X135514286Y-72597895D01*
X135514286Y-72597895D02*
X135561905Y-72502657D01*
X135561905Y-72502657D02*
X135609524Y-72455038D01*
X135609524Y-72455038D02*
X135704762Y-72407419D01*
X135704762Y-72407419D02*
X135942857Y-72407419D01*
X135942857Y-72407419D02*
X136085714Y-72455038D01*
X136514286Y-73407419D02*
X136514286Y-72407419D01*
X136514286Y-72407419D02*
X136752381Y-72407419D01*
X136752381Y-72407419D02*
X136895238Y-72455038D01*
X136895238Y-72455038D02*
X136990476Y-72550276D01*
X136990476Y-72550276D02*
X137038095Y-72645514D01*
X137038095Y-72645514D02*
X137085714Y-72835990D01*
X137085714Y-72835990D02*
X137085714Y-72978847D01*
X137085714Y-72978847D02*
X137038095Y-73169323D01*
X137038095Y-73169323D02*
X136990476Y-73264561D01*
X136990476Y-73264561D02*
X136895238Y-73359800D01*
X136895238Y-73359800D02*
X136752381Y-73407419D01*
X136752381Y-73407419D02*
X136514286Y-73407419D01*
X138038095Y-73407419D02*
X137466667Y-73407419D01*
X137752381Y-73407419D02*
X137752381Y-72407419D01*
X137752381Y-72407419D02*
X137657143Y-72550276D01*
X137657143Y-72550276D02*
X137561905Y-72645514D01*
X137561905Y-72645514D02*
X137466667Y-72693133D01*
X156616667Y-112909800D02*
X156759524Y-112957419D01*
X156759524Y-112957419D02*
X156997619Y-112957419D01*
X156997619Y-112957419D02*
X157092857Y-112909800D01*
X157092857Y-112909800D02*
X157140476Y-112862180D01*
X157140476Y-112862180D02*
X157188095Y-112766942D01*
X157188095Y-112766942D02*
X157188095Y-112671704D01*
X157188095Y-112671704D02*
X157140476Y-112576466D01*
X157140476Y-112576466D02*
X157092857Y-112528847D01*
X157092857Y-112528847D02*
X156997619Y-112481228D01*
X156997619Y-112481228D02*
X156807143Y-112433609D01*
X156807143Y-112433609D02*
X156711905Y-112385990D01*
X156711905Y-112385990D02*
X156664286Y-112338371D01*
X156664286Y-112338371D02*
X156616667Y-112243133D01*
X156616667Y-112243133D02*
X156616667Y-112147895D01*
X156616667Y-112147895D02*
X156664286Y-112052657D01*
X156664286Y-112052657D02*
X156711905Y-112005038D01*
X156711905Y-112005038D02*
X156807143Y-111957419D01*
X156807143Y-111957419D02*
X157045238Y-111957419D01*
X157045238Y-111957419D02*
X157188095Y-112005038D01*
X157521429Y-111957419D02*
X157759524Y-112957419D01*
X157759524Y-112957419D02*
X157950000Y-112243133D01*
X157950000Y-112243133D02*
X158140476Y-112957419D01*
X158140476Y-112957419D02*
X158378572Y-111957419D01*
X158711905Y-112052657D02*
X158759524Y-112005038D01*
X158759524Y-112005038D02*
X158854762Y-111957419D01*
X158854762Y-111957419D02*
X159092857Y-111957419D01*
X159092857Y-111957419D02*
X159188095Y-112005038D01*
X159188095Y-112005038D02*
X159235714Y-112052657D01*
X159235714Y-112052657D02*
X159283333Y-112147895D01*
X159283333Y-112147895D02*
X159283333Y-112243133D01*
X159283333Y-112243133D02*
X159235714Y-112385990D01*
X159235714Y-112385990D02*
X158664286Y-112957419D01*
X158664286Y-112957419D02*
X159283333Y-112957419D01*
D12*
X170404761Y-78204819D02*
X170071428Y-77728628D01*
X169833333Y-78204819D02*
X169833333Y-77204819D01*
X169833333Y-77204819D02*
X170214285Y-77204819D01*
X170214285Y-77204819D02*
X170309523Y-77252438D01*
X170309523Y-77252438D02*
X170357142Y-77300057D01*
X170357142Y-77300057D02*
X170404761Y-77395295D01*
X170404761Y-77395295D02*
X170404761Y-77538152D01*
X170404761Y-77538152D02*
X170357142Y-77633390D01*
X170357142Y-77633390D02*
X170309523Y-77681009D01*
X170309523Y-77681009D02*
X170214285Y-77728628D01*
X170214285Y-77728628D02*
X169833333Y-77728628D01*
X170690476Y-77204819D02*
X171023809Y-78204819D01*
X171023809Y-78204819D02*
X171357142Y-77204819D01*
X172214285Y-78204819D02*
X171642857Y-78204819D01*
X171928571Y-78204819D02*
X171928571Y-77204819D01*
X171928571Y-77204819D02*
X171833333Y-77347676D01*
X171833333Y-77347676D02*
X171738095Y-77442914D01*
X171738095Y-77442914D02*
X171642857Y-77490533D01*
X154666667Y-121907200D02*
X154809524Y-121954819D01*
X154809524Y-121954819D02*
X155047619Y-121954819D01*
X155047619Y-121954819D02*
X155142857Y-121907200D01*
X155142857Y-121907200D02*
X155190476Y-121859580D01*
X155190476Y-121859580D02*
X155238095Y-121764342D01*
X155238095Y-121764342D02*
X155238095Y-121669104D01*
X155238095Y-121669104D02*
X155190476Y-121573866D01*
X155190476Y-121573866D02*
X155142857Y-121526247D01*
X155142857Y-121526247D02*
X155047619Y-121478628D01*
X155047619Y-121478628D02*
X154857143Y-121431009D01*
X154857143Y-121431009D02*
X154761905Y-121383390D01*
X154761905Y-121383390D02*
X154714286Y-121335771D01*
X154714286Y-121335771D02*
X154666667Y-121240533D01*
X154666667Y-121240533D02*
X154666667Y-121145295D01*
X154666667Y-121145295D02*
X154714286Y-121050057D01*
X154714286Y-121050057D02*
X154761905Y-121002438D01*
X154761905Y-121002438D02*
X154857143Y-120954819D01*
X154857143Y-120954819D02*
X155095238Y-120954819D01*
X155095238Y-120954819D02*
X155238095Y-121002438D01*
X155571429Y-120954819D02*
X155809524Y-121954819D01*
X155809524Y-121954819D02*
X156000000Y-121240533D01*
X156000000Y-121240533D02*
X156190476Y-121954819D01*
X156190476Y-121954819D02*
X156428572Y-120954819D01*
X156714286Y-120954819D02*
X157333333Y-120954819D01*
X157333333Y-120954819D02*
X157000000Y-121335771D01*
X157000000Y-121335771D02*
X157142857Y-121335771D01*
X157142857Y-121335771D02*
X157238095Y-121383390D01*
X157238095Y-121383390D02*
X157285714Y-121431009D01*
X157285714Y-121431009D02*
X157333333Y-121526247D01*
X157333333Y-121526247D02*
X157333333Y-121764342D01*
X157333333Y-121764342D02*
X157285714Y-121859580D01*
X157285714Y-121859580D02*
X157238095Y-121907200D01*
X157238095Y-121907200D02*
X157142857Y-121954819D01*
X157142857Y-121954819D02*
X156857143Y-121954819D01*
X156857143Y-121954819D02*
X156761905Y-121907200D01*
X156761905Y-121907200D02*
X156714286Y-121859580D01*
X159490057Y-90325238D02*
X159442438Y-90420476D01*
X159442438Y-90420476D02*
X159347200Y-90515714D01*
X159347200Y-90515714D02*
X159204342Y-90658571D01*
X159204342Y-90658571D02*
X159156723Y-90753809D01*
X159156723Y-90753809D02*
X159156723Y-90849047D01*
X159394819Y-90801428D02*
X159347200Y-90896666D01*
X159347200Y-90896666D02*
X159251961Y-90991904D01*
X159251961Y-90991904D02*
X159061485Y-91039523D01*
X159061485Y-91039523D02*
X158728152Y-91039523D01*
X158728152Y-91039523D02*
X158537676Y-90991904D01*
X158537676Y-90991904D02*
X158442438Y-90896666D01*
X158442438Y-90896666D02*
X158394819Y-90801428D01*
X158394819Y-90801428D02*
X158394819Y-90610952D01*
X158394819Y-90610952D02*
X158442438Y-90515714D01*
X158442438Y-90515714D02*
X158537676Y-90420476D01*
X158537676Y-90420476D02*
X158728152Y-90372857D01*
X158728152Y-90372857D02*
X159061485Y-90372857D01*
X159061485Y-90372857D02*
X159251961Y-90420476D01*
X159251961Y-90420476D02*
X159347200Y-90515714D01*
X159347200Y-90515714D02*
X159394819Y-90610952D01*
X159394819Y-90610952D02*
X159394819Y-90801428D01*
X159394819Y-89420476D02*
X159394819Y-89991904D01*
X159394819Y-89706190D02*
X158394819Y-89706190D01*
X158394819Y-89706190D02*
X158537676Y-89801428D01*
X158537676Y-89801428D02*
X158632914Y-89896666D01*
X158632914Y-89896666D02*
X158680533Y-89991904D01*
X161666667Y-110157200D02*
X161809524Y-110204819D01*
X161809524Y-110204819D02*
X162047619Y-110204819D01*
X162047619Y-110204819D02*
X162142857Y-110157200D01*
X162142857Y-110157200D02*
X162190476Y-110109580D01*
X162190476Y-110109580D02*
X162238095Y-110014342D01*
X162238095Y-110014342D02*
X162238095Y-109919104D01*
X162238095Y-109919104D02*
X162190476Y-109823866D01*
X162190476Y-109823866D02*
X162142857Y-109776247D01*
X162142857Y-109776247D02*
X162047619Y-109728628D01*
X162047619Y-109728628D02*
X161857143Y-109681009D01*
X161857143Y-109681009D02*
X161761905Y-109633390D01*
X161761905Y-109633390D02*
X161714286Y-109585771D01*
X161714286Y-109585771D02*
X161666667Y-109490533D01*
X161666667Y-109490533D02*
X161666667Y-109395295D01*
X161666667Y-109395295D02*
X161714286Y-109300057D01*
X161714286Y-109300057D02*
X161761905Y-109252438D01*
X161761905Y-109252438D02*
X161857143Y-109204819D01*
X161857143Y-109204819D02*
X162095238Y-109204819D01*
X162095238Y-109204819D02*
X162238095Y-109252438D01*
X162571429Y-109204819D02*
X162809524Y-110204819D01*
X162809524Y-110204819D02*
X163000000Y-109490533D01*
X163000000Y-109490533D02*
X163190476Y-110204819D01*
X163190476Y-110204819D02*
X163428572Y-109204819D01*
X164333333Y-110204819D02*
X163761905Y-110204819D01*
X164047619Y-110204819D02*
X164047619Y-109204819D01*
X164047619Y-109204819D02*
X163952381Y-109347676D01*
X163952381Y-109347676D02*
X163857143Y-109442914D01*
X163857143Y-109442914D02*
X163761905Y-109490533D01*
X160384761Y-98240057D02*
X160289523Y-98192438D01*
X160289523Y-98192438D02*
X160194285Y-98097200D01*
X160194285Y-98097200D02*
X160051428Y-97954342D01*
X160051428Y-97954342D02*
X159956190Y-97906723D01*
X159956190Y-97906723D02*
X159860952Y-97906723D01*
X159908571Y-98144819D02*
X159813333Y-98097200D01*
X159813333Y-98097200D02*
X159718095Y-98001961D01*
X159718095Y-98001961D02*
X159670476Y-97811485D01*
X159670476Y-97811485D02*
X159670476Y-97478152D01*
X159670476Y-97478152D02*
X159718095Y-97287676D01*
X159718095Y-97287676D02*
X159813333Y-97192438D01*
X159813333Y-97192438D02*
X159908571Y-97144819D01*
X159908571Y-97144819D02*
X160099047Y-97144819D01*
X160099047Y-97144819D02*
X160194285Y-97192438D01*
X160194285Y-97192438D02*
X160289523Y-97287676D01*
X160289523Y-97287676D02*
X160337142Y-97478152D01*
X160337142Y-97478152D02*
X160337142Y-97811485D01*
X160337142Y-97811485D02*
X160289523Y-98001961D01*
X160289523Y-98001961D02*
X160194285Y-98097200D01*
X160194285Y-98097200D02*
X160099047Y-98144819D01*
X160099047Y-98144819D02*
X159908571Y-98144819D01*
X160718095Y-97240057D02*
X160765714Y-97192438D01*
X160765714Y-97192438D02*
X160860952Y-97144819D01*
X160860952Y-97144819D02*
X161099047Y-97144819D01*
X161099047Y-97144819D02*
X161194285Y-97192438D01*
X161194285Y-97192438D02*
X161241904Y-97240057D01*
X161241904Y-97240057D02*
X161289523Y-97335295D01*
X161289523Y-97335295D02*
X161289523Y-97430533D01*
X161289523Y-97430533D02*
X161241904Y-97573390D01*
X161241904Y-97573390D02*
X160670476Y-98144819D01*
X160670476Y-98144819D02*
X161289523Y-98144819D01*
X137166666Y-101954819D02*
X137166666Y-102669104D01*
X137166666Y-102669104D02*
X137119047Y-102811961D01*
X137119047Y-102811961D02*
X137023809Y-102907200D01*
X137023809Y-102907200D02*
X136880952Y-102954819D01*
X136880952Y-102954819D02*
X136785714Y-102954819D01*
X137547619Y-101954819D02*
X138166666Y-101954819D01*
X138166666Y-101954819D02*
X137833333Y-102335771D01*
X137833333Y-102335771D02*
X137976190Y-102335771D01*
X137976190Y-102335771D02*
X138071428Y-102383390D01*
X138071428Y-102383390D02*
X138119047Y-102431009D01*
X138119047Y-102431009D02*
X138166666Y-102526247D01*
X138166666Y-102526247D02*
X138166666Y-102764342D01*
X138166666Y-102764342D02*
X138119047Y-102859580D01*
X138119047Y-102859580D02*
X138071428Y-102907200D01*
X138071428Y-102907200D02*
X137976190Y-102954819D01*
X137976190Y-102954819D02*
X137690476Y-102954819D01*
X137690476Y-102954819D02*
X137595238Y-102907200D01*
X137595238Y-102907200D02*
X137547619Y-102859580D01*
X177119047Y-92681009D02*
X177261904Y-92728628D01*
X177261904Y-92728628D02*
X177309523Y-92776247D01*
X177309523Y-92776247D02*
X177357142Y-92871485D01*
X177357142Y-92871485D02*
X177357142Y-93014342D01*
X177357142Y-93014342D02*
X177309523Y-93109580D01*
X177309523Y-93109580D02*
X177261904Y-93157200D01*
X177261904Y-93157200D02*
X177166666Y-93204819D01*
X177166666Y-93204819D02*
X176785714Y-93204819D01*
X176785714Y-93204819D02*
X176785714Y-92204819D01*
X176785714Y-92204819D02*
X177119047Y-92204819D01*
X177119047Y-92204819D02*
X177214285Y-92252438D01*
X177214285Y-92252438D02*
X177261904Y-92300057D01*
X177261904Y-92300057D02*
X177309523Y-92395295D01*
X177309523Y-92395295D02*
X177309523Y-92490533D01*
X177309523Y-92490533D02*
X177261904Y-92585771D01*
X177261904Y-92585771D02*
X177214285Y-92633390D01*
X177214285Y-92633390D02*
X177119047Y-92681009D01*
X177119047Y-92681009D02*
X176785714Y-92681009D01*
X177690476Y-92204819D02*
X178357142Y-92204819D01*
X178357142Y-92204819D02*
X177690476Y-93204819D01*
X177690476Y-93204819D02*
X178357142Y-93204819D01*
X179261904Y-93204819D02*
X178690476Y-93204819D01*
X178976190Y-93204819D02*
X178976190Y-92204819D01*
X178976190Y-92204819D02*
X178880952Y-92347676D01*
X178880952Y-92347676D02*
X178785714Y-92442914D01*
X178785714Y-92442914D02*
X178690476Y-92490533D01*
D13*
X134678668Y-91933809D02*
X135192715Y-91933809D01*
X135192715Y-91933809D02*
X135253191Y-91903571D01*
X135253191Y-91903571D02*
X135283430Y-91873333D01*
X135283430Y-91873333D02*
X135313668Y-91812857D01*
X135313668Y-91812857D02*
X135313668Y-91691904D01*
X135313668Y-91691904D02*
X135283430Y-91631428D01*
X135283430Y-91631428D02*
X135253191Y-91601190D01*
X135253191Y-91601190D02*
X135192715Y-91570952D01*
X135192715Y-91570952D02*
X134678668Y-91570952D01*
X135313668Y-90935952D02*
X135313668Y-91298809D01*
X135313668Y-91117381D02*
X134678668Y-91117381D01*
X134678668Y-91117381D02*
X134769382Y-91177857D01*
X134769382Y-91177857D02*
X134829858Y-91238333D01*
X134829858Y-91238333D02*
X134860096Y-91298809D01*
D12*
X137166666Y-113204819D02*
X137166666Y-113919104D01*
X137166666Y-113919104D02*
X137119047Y-114061961D01*
X137119047Y-114061961D02*
X137023809Y-114157200D01*
X137023809Y-114157200D02*
X136880952Y-114204819D01*
X136880952Y-114204819D02*
X136785714Y-114204819D01*
X138071428Y-113538152D02*
X138071428Y-114204819D01*
X137833333Y-113157200D02*
X137595238Y-113871485D01*
X137595238Y-113871485D02*
X138214285Y-113871485D01*
X177916666Y-104954819D02*
X177916666Y-105669104D01*
X177916666Y-105669104D02*
X177869047Y-105811961D01*
X177869047Y-105811961D02*
X177773809Y-105907200D01*
X177773809Y-105907200D02*
X177630952Y-105954819D01*
X177630952Y-105954819D02*
X177535714Y-105954819D01*
X178345238Y-105050057D02*
X178392857Y-105002438D01*
X178392857Y-105002438D02*
X178488095Y-104954819D01*
X178488095Y-104954819D02*
X178726190Y-104954819D01*
X178726190Y-104954819D02*
X178821428Y-105002438D01*
X178821428Y-105002438D02*
X178869047Y-105050057D01*
X178869047Y-105050057D02*
X178916666Y-105145295D01*
X178916666Y-105145295D02*
X178916666Y-105240533D01*
X178916666Y-105240533D02*
X178869047Y-105383390D01*
X178869047Y-105383390D02*
X178297619Y-105954819D01*
X178297619Y-105954819D02*
X178916666Y-105954819D01*
%TO.C,SSD1*%
D11*
X137300000Y-77950000D02*
X164600000Y-77950000D01*
X164600000Y-105250000D01*
X137300000Y-105250000D01*
X137300000Y-77950000D01*
%TO.C,SW2*%
X160700000Y-119250000D02*
X179200000Y-119250000D01*
X179200000Y-123750000D01*
X160700000Y-123750000D01*
X160700000Y-119250000D01*
%TO.C,RV1*%
D14*
X167155000Y-78580000D02*
X167155000Y-81050000D01*
X167155000Y-78580000D02*
X171821000Y-78580000D01*
X167155000Y-83450000D02*
X167155000Y-83880000D01*
X167155000Y-85621000D02*
X167155000Y-86380000D01*
X167155000Y-88120000D02*
X167155000Y-90920000D01*
X167155000Y-90920000D02*
X171821000Y-90920000D01*
X175730000Y-78580000D02*
X178745000Y-78580000D01*
X175730000Y-90920000D02*
X178745000Y-90920000D01*
X178745000Y-78580000D02*
X178745000Y-90920000D01*
X168775000Y-82750000D02*
X170275000Y-82750000D01*
X170275000Y-86750000D01*
X168775000Y-86750000D01*
X168775000Y-82750000D01*
X177275000Y-82750000D02*
X178775000Y-82750000D01*
X178775000Y-86750000D01*
X177275000Y-86750000D01*
X177275000Y-82750000D01*
%TO.C,SW3*%
X152750000Y-116000000D02*
X152750000Y-117500000D01*
X154000000Y-120000000D02*
X158500000Y-120000000D01*
X158500000Y-113500000D02*
X154000000Y-113500000D01*
X159750000Y-117500000D02*
X159750000Y-116000000D01*
%TO.C,Q1*%
X164350000Y-92030000D02*
X164350000Y-88430000D01*
X159900000Y-90230000D02*
G75*
G02*
X164338478Y-88391522I2600000J0D01*
G01*
X164338478Y-92068478D02*
G75*
G02*
X159899999Y-90230000I-1838478J1838478D01*
G01*
%TO.C,SW1*%
X152750000Y-108500000D02*
X152750000Y-110000000D01*
X154000000Y-112500000D02*
X158500000Y-112500000D01*
X158500000Y-106000000D02*
X154000000Y-106000000D01*
X159750000Y-110000000D02*
X159750000Y-108500000D01*
%TO.C,Q2*%
X158680000Y-103100000D02*
X162280000Y-103100000D01*
X158641522Y-103088478D02*
G75*
G02*
X160480000Y-98649999I1838478J1838478D01*
G01*
X160480000Y-98650000D02*
G75*
G02*
X162318478Y-103088478I0J-2600000D01*
G01*
%TO.C,J3*%
X133400000Y-103900000D02*
X135900000Y-103900000D01*
X133400000Y-109100000D02*
X133400000Y-103900000D01*
X135900000Y-103400000D02*
X139100000Y-103400000D01*
X135900000Y-103900000D02*
X135900000Y-103400000D01*
X135900000Y-109100000D02*
X133400000Y-109100000D01*
X135900000Y-109600000D02*
X135900000Y-109100000D01*
X137100000Y-109600000D02*
X135900000Y-109600000D01*
X137100000Y-109600000D02*
X137100000Y-111600000D01*
X139700000Y-109600000D02*
X139700000Y-111600000D01*
X141700000Y-103400000D02*
X150600000Y-103400000D01*
X146200000Y-109600000D02*
X139700000Y-109600000D01*
X150600000Y-103400000D02*
X150600000Y-109600000D01*
X150600000Y-109600000D02*
X149400000Y-109600000D01*
%TO.C,BZ1*%
X165850000Y-99749999D02*
G75*
G02*
X165850000Y-96750000I6400000J1499999D01*
G01*
X178480000Y-98250000D02*
G75*
G02*
X166020000Y-98250000I-6230000J0D01*
G01*
X166020000Y-98250000D02*
G75*
G02*
X178480000Y-98250000I6230000J0D01*
G01*
%TO.C,U1*%
D15*
X133681177Y-95497284D02*
X133681177Y-87502012D01*
X134181177Y-87002012D02*
X135725189Y-87001000D01*
X135722189Y-95998000D02*
X134180905Y-95997284D01*
D11*
X135734189Y-84515000D02*
X135734189Y-98485000D01*
X154784189Y-82610000D02*
X137639189Y-82610000D01*
X154784189Y-100390000D02*
X137639189Y-100390000D01*
X156689189Y-98485000D02*
X156689189Y-84515000D01*
D15*
X133681177Y-87502012D02*
G75*
G02*
X134181177Y-87001988I500012J12D01*
G01*
X134180905Y-95997284D02*
G75*
G02*
X133681205Y-95497284I384J500084D01*
G01*
D11*
X135734189Y-84515000D02*
G75*
G02*
X137639189Y-82610000I1905000J0D01*
G01*
X137635189Y-100390000D02*
G75*
G02*
X135730189Y-98485000I0J1905000D01*
G01*
X154784189Y-82610000D02*
G75*
G02*
X156689189Y-84515000I-1J-1905001D01*
G01*
X156689189Y-98485000D02*
G75*
G02*
X154784189Y-100390000I-1905001J1D01*
G01*
D16*
X136390177Y-100616012D02*
G75*
G02*
X135886177Y-100616012I-252000J0D01*
G01*
X135886177Y-100616012D02*
G75*
G02*
X136390177Y-100616012I252000J0D01*
G01*
X137113177Y-99399012D02*
G75*
G02*
X136609177Y-99399012I-252000J0D01*
G01*
X136609177Y-99399012D02*
G75*
G02*
X137113177Y-99399012I252000J0D01*
G01*
%TO.C,J4*%
D14*
X133400000Y-115100000D02*
X135900000Y-115100000D01*
X133400000Y-120300000D02*
X133400000Y-115100000D01*
X135900000Y-114600000D02*
X139100000Y-114600000D01*
X135900000Y-115100000D02*
X135900000Y-114600000D01*
X135900000Y-120300000D02*
X133400000Y-120300000D01*
X135900000Y-120800000D02*
X135900000Y-120300000D01*
X137100000Y-120800000D02*
X135900000Y-120800000D01*
X137100000Y-120800000D02*
X137100000Y-122800000D01*
X139700000Y-120800000D02*
X139700000Y-122800000D01*
X141700000Y-114600000D02*
X150600000Y-114600000D01*
X146200000Y-120800000D02*
X139700000Y-120800000D01*
X150600000Y-114600000D02*
X150600000Y-120800000D01*
X150600000Y-120800000D02*
X149400000Y-120800000D01*
%TO.C,J2*%
X165440000Y-117860000D02*
X165440000Y-109300000D01*
X165440000Y-117860000D02*
X167950000Y-117860000D01*
X167750000Y-106140000D02*
X178969200Y-106140000D01*
X170950000Y-117860000D02*
X178969200Y-117860000D01*
%TD*%
M02*
