%TF.GenerationSoftware,KiCad,Pcbnew,10.0.5*%
%TF.CreationDate,2026-08-09T03:42:05-07:00*%
%TF.ProjectId,micro-keyer,6d696372-6f2d-46b6-9579-65722e6b6963,rev?*%
%TF.SameCoordinates,Original*%
%TF.FileFunction,Copper,L2,Bot*%
%TF.FilePolarity,Positive*%
%FSLAX46Y46*%
G04 Gerber Fmt 4.6, Leading zero omitted, Abs format (unit mm)*
G04 Created by KiCad (PCBNEW 10.0.5) date 2026-08-09 03:42:05*
%MOMM*%
%LPD*%
G01*
G04 APERTURE LIST*
G04 Aperture macros list*
%AMRoundRect*
0 Rectangle with rounded corners*
0 $1 Rounding radius*
0 $2 $3 $4 $5 $6 $7 $8 $9 X,Y pos of 4 corners*
0 Add a 4 corners polygon primitive as box body*
4,1,4,$2,$3,$4,$5,$6,$7,$8,$9,$2,$3,0*
0 Add four circle primitives for the rounded corners*
1,1,$1+$1,$2,$3*
1,1,$1+$1,$4,$5*
1,1,$1+$1,$6,$7*
1,1,$1+$1,$8,$9*
0 Add four rect primitives between the rounded corners*
20,1,$1+$1,$2,$3,$4,$5,0*
20,1,$1+$1,$4,$5,$6,$7,0*
20,1,$1+$1,$6,$7,$8,$9,0*
20,1,$1+$1,$8,$9,$2,$3,0*%
G04 Aperture macros list end*
%TA.AperFunction,ComponentPad*%
%ADD10RoundRect,0.250000X-0.750000X-0.750000X0.750000X-0.750000X0.750000X0.750000X-0.750000X0.750000X0*%
%TD*%
%TA.AperFunction,ComponentPad*%
%ADD11C,2.000000*%
%TD*%
%TA.AperFunction,ComponentPad*%
%ADD12RoundRect,0.300000X-0.700000X-0.700000X0.700000X-0.700000X0.700000X0.700000X-0.700000X0.700000X0*%
%TD*%
%TA.AperFunction,ComponentPad*%
%ADD13RoundRect,0.190500X-0.444500X-0.444500X0.444500X-0.444500X0.444500X0.444500X-0.444500X0.444500X0*%
%TD*%
%TA.AperFunction,ComponentPad*%
%ADD14R,1.800000X1.800000*%
%TD*%
%TA.AperFunction,ComponentPad*%
%ADD15C,1.800000*%
%TD*%
%TA.AperFunction,ComponentPad*%
%ADD16RoundRect,0.500000X-0.500000X-1.000000X0.500000X-1.000000X0.500000X1.000000X-0.500000X1.000000X0*%
%TD*%
%TA.AperFunction,ComponentPad*%
%ADD17R,1.500000X1.050000*%
%TD*%
%TA.AperFunction,ComponentPad*%
%ADD18O,1.500000X1.050000*%
%TD*%
%TA.AperFunction,ComponentPad*%
%ADD19R,1.050000X1.500000*%
%TD*%
%TA.AperFunction,ComponentPad*%
%ADD20O,1.050000X1.500000*%
%TD*%
%TA.AperFunction,ComponentPad*%
%ADD21R,2.000000X2.000000*%
%TD*%
%TA.AperFunction,ComponentPad*%
%ADD22O,2.500000X3.500000*%
%TD*%
%TA.AperFunction,ComponentPad*%
%ADD23O,3.000000X1.500000*%
%TD*%
%TA.AperFunction,ComponentPad*%
%ADD24O,3.500000X2.500000*%
%TD*%
%TA.AperFunction,ComponentPad*%
%ADD25O,2.100000X3.100000*%
%TD*%
%TA.AperFunction,SMDPad,CuDef*%
%ADD26C,2.000000*%
%TD*%
%TA.AperFunction,ComponentPad*%
%ADD27RoundRect,0.200000X0.200000X0.450000X-0.200000X0.450000X-0.200000X-0.450000X0.200000X-0.450000X0*%
%TD*%
%TA.AperFunction,ComponentPad*%
%ADD28O,0.800000X1.300000*%
%TD*%
%TA.AperFunction,ViaPad*%
%ADD29C,0.600000*%
%TD*%
%TA.AperFunction,Conductor*%
%ADD30C,0.200000*%
%TD*%
G04 APERTURE END LIST*
D10*
%TO.P,SSD1,1,GND_1*%
%TO.N,GND*%
X147500000Y-79500000D03*
D11*
%TO.P,SSD1,2,VCC_2*%
%TO.N,+3V3*%
X150000000Y-79500000D03*
%TO.P,SSD1,3,SCL_3*%
%TO.N,Net-(SSD1-SCL)*%
X152500000Y-79500000D03*
%TO.P,SSD1,4,SDA_4*%
%TO.N,Net-(SSD1-SDA)*%
X155000000Y-79500000D03*
%TD*%
D12*
%TO.P,SW2,*%
%TO.N,*%
X161950000Y-121500000D03*
X177950000Y-121500000D03*
D13*
%TO.P,SW2,1,1_1*%
%TO.N,/MIDI*%
X165850000Y-121500000D03*
%TO.P,SW2,2,2_2*%
%TO.N,/HID*%
X167850000Y-121500000D03*
%TO.P,SW2,3,3_3*%
%TO.N,GND*%
X169850000Y-121500000D03*
%TO.P,SW2,4,4_4*%
%TO.N,/SERIAL*%
X173850000Y-121500000D03*
%TD*%
D14*
%TO.P,RV1,1,1_1*%
%TO.N,unconnected-(RV1-Pad1)*%
X166275000Y-82250000D03*
D15*
%TO.P,RV1,2,2_2*%
%TO.N,Net-(Q1-E)*%
X166275000Y-84750000D03*
%TO.P,RV1,3,3_3*%
%TO.N,/AAudio*%
X166275000Y-87250000D03*
D16*
%TO.P,RV1,MP*%
%TO.N,N/C*%
X173775000Y-80000000D03*
X173775000Y-89500000D03*
%TD*%
D11*
%TO.P,SW3,1,1_1*%
%TO.N,Net-(U1-D10)*%
X153000000Y-114500000D03*
X159500000Y-114500000D03*
%TO.P,SW3,2,2_2*%
%TO.N,GND*%
X153000000Y-119000000D03*
X159500000Y-119000000D03*
%TD*%
D17*
%TO.P,Q1,1,E_1*%
%TO.N,Net-(Q1-E)*%
X162500000Y-91500000D03*
D18*
%TO.P,Q1,2,B_2*%
%TO.N,/PWM*%
X162500000Y-90230000D03*
%TO.P,Q1,3,C_3*%
%TO.N,+3V3*%
X162500000Y-88960000D03*
%TD*%
D11*
%TO.P,SW1,1,1_1*%
%TO.N,GND*%
X153000000Y-107000000D03*
X159500000Y-107000000D03*
%TO.P,SW1,2,2_2*%
%TO.N,Net-(U1-D3)*%
X153000000Y-111500000D03*
X159500000Y-111500000D03*
%TD*%
D19*
%TO.P,Q2,1,S_1*%
%TO.N,GND*%
X159210000Y-101250000D03*
D20*
%TO.P,Q2,2,G_2*%
%TO.N,/Radio Controll*%
X160480000Y-101250000D03*
%TO.P,Q2,3,D_3*%
%TO.N,Net-(Q2-D)*%
X161750000Y-101250000D03*
%TD*%
D21*
%TO.P,BZ1,1,+_1*%
%TO.N,Net-(BZ1-+)*%
X169750000Y-98250000D03*
D11*
%TO.P,BZ1,2,-_2*%
%TO.N,GND*%
X174750000Y-98250000D03*
%TD*%
D22*
%TO.P,J2,G*%
%TO.N,GND*%
X177750000Y-112000000D03*
D23*
%TO.P,J2,S1*%
%TO.N,/AAudio*%
X169450000Y-117000000D03*
D24*
%TO.P,J2,SN1*%
%TO.N,Net-(BZ1-+)*%
X171150000Y-114500000D03*
%TO.P,J2,T1*%
%TO.N,/AAudio*%
X174250000Y-107500000D03*
D25*
%TO.P,J2,TN1*%
%TO.N,Net-(BZ1-+)*%
X166650000Y-107800000D03*
%TD*%
D26*
%TO.P,BT1,1,1_1*%
%TO.N,Net-(U1-BOOT)*%
X146750000Y-93300000D03*
%TD*%
D27*
%TO.P,J1,1,Pin_1_1*%
%TO.N,Net-(J1-Pin_1)*%
X162750000Y-80750000D03*
D28*
%TO.P,J1,2,Pin_2_2*%
%TO.N,Net-(J1-Pin_2)*%
X161500000Y-80750000D03*
%TD*%
D26*
%TO.P,EN1,1,1_1*%
%TO.N,Net-(U1-EN)*%
X146750000Y-89000000D03*
%TD*%
%TO.P,GND1,1,1_1*%
%TO.N,GND*%
X150000000Y-91000000D03*
%TD*%
D29*
%TO.N,/MIDI*%
X151750000Y-85500000D03*
%TO.N,Net-(U1-D10)*%
X146250000Y-85500000D03*
X146250000Y-85500000D03*
%TO.N,GND*%
X157250000Y-102500000D03*
X159250000Y-84750000D03*
X156000000Y-96000000D03*
X169750000Y-108250000D03*
X154250000Y-105000000D03*
X163500000Y-96500000D03*
%TO.N,Net-(U1-D3)*%
X147000000Y-101750000D03*
%TO.N,/Radio Controll*%
X151250000Y-81250000D03*
X159750000Y-100000000D03*
%TO.N,/HID*%
X156500000Y-100000000D03*
X166481671Y-119036657D03*
%TO.N,/SERIAL*%
X153500000Y-86000000D03*
X160750000Y-97000000D03*
%TO.N,Net-(U1-EN)*%
X141500000Y-91500000D03*
%TO.N,Net-(U1-BOOT)*%
X144000000Y-94750000D03*
%TO.N,Net-(J1-Pin_2)*%
X153500000Y-90000000D03*
%TO.N,Net-(J1-Pin_1)*%
X153500000Y-92500000D03*
%TO.N,/MIDI*%
X152500000Y-104500000D03*
%TD*%
%TO.N,/MIDI*%
D30*
X151750000Y-85500000D02*
X151750000Y-103750000D01*
X151750000Y-103750000D02*
X152500000Y-104500000D01*
%TO.N,Net-(U1-D10)*%
X154300000Y-110950000D02*
X151650000Y-108300000D01*
X154300000Y-113200000D02*
X154300000Y-110950000D01*
X153000000Y-114500000D02*
X154300000Y-113200000D01*
X148500000Y-101098528D02*
X148500000Y-87750000D01*
X151650000Y-108300000D02*
X151650000Y-104248528D01*
X151650000Y-104248528D02*
X148500000Y-101098528D01*
X148500000Y-87750000D02*
X146250000Y-85500000D01*
%TO.N,Net-(U1-D3)*%
X151250000Y-108750000D02*
X153000000Y-110500000D01*
X153000000Y-110500000D02*
X153000000Y-111500000D01*
X147000000Y-101750000D02*
X151250000Y-106000000D01*
X151250000Y-106000000D02*
X151250000Y-108750000D01*
%TO.N,/Radio Controll*%
X152500000Y-95065686D02*
X152500000Y-81750000D01*
X159750000Y-100000000D02*
X157434314Y-100000000D01*
X157434314Y-100000000D02*
X152500000Y-95065686D01*
X152000000Y-81250000D02*
X151250000Y-81250000D01*
X152500000Y-81750000D02*
X152000000Y-81250000D01*
%TO.N,/HID*%
X163825000Y-106575000D02*
X162500000Y-105250000D01*
X163825000Y-117075000D02*
X163825000Y-106575000D01*
X162500000Y-105250000D02*
X158250000Y-105250000D01*
X156500000Y-103500000D02*
X156500000Y-100000000D01*
X165786657Y-119036657D02*
X163825000Y-117075000D01*
X158250000Y-105250000D02*
X156500000Y-103500000D01*
X166481671Y-119036657D02*
X165786657Y-119036657D01*
%TO.N,/SERIAL*%
X155000000Y-97000000D02*
X152900000Y-94900000D01*
X152900000Y-86600000D02*
X153500000Y-86000000D01*
X152900000Y-94900000D02*
X152900000Y-86600000D01*
X160750000Y-97000000D02*
X155000000Y-97000000D01*
%TO.N,Net-(U1-EN)*%
X146750000Y-89000000D02*
X144250000Y-91500000D01*
X144250000Y-91500000D02*
X141500000Y-91500000D01*
%TO.N,Net-(U1-BOOT)*%
X145300000Y-94750000D02*
X144000000Y-94750000D01*
X146750000Y-93300000D02*
X145300000Y-94750000D01*
%TO.N,Net-(J1-Pin_2)*%
X153500000Y-90000000D02*
X156750000Y-90000000D01*
X161500000Y-85250000D02*
X161500000Y-80750000D01*
X156750000Y-90000000D02*
X161500000Y-85250000D01*
%TO.N,Net-(J1-Pin_1)*%
X156000000Y-92500000D02*
X162750000Y-85750000D01*
X162750000Y-85750000D02*
X162750000Y-80750000D01*
X153500000Y-92500000D02*
X156000000Y-92500000D01*
%TD*%
%TA.AperFunction,Conductor*%
%TO.N,GND*%
G36*
X179442539Y-77020185D02*
G01*
X179488294Y-77072989D01*
X179499500Y-77124500D01*
X179499500Y-120218841D01*
X179479815Y-120285880D01*
X179427011Y-120331635D01*
X179357853Y-120341579D01*
X179294297Y-120312554D01*
X179284770Y-120302631D01*
X179284740Y-120302662D01*
X179152262Y-120170184D01*
X178999523Y-120074211D01*
X178829254Y-120014631D01*
X178829249Y-120014630D01*
X178694960Y-119999500D01*
X178694954Y-119999500D01*
X177205046Y-119999500D01*
X177205039Y-119999500D01*
X177070750Y-120014630D01*
X177070745Y-120014631D01*
X176900476Y-120074211D01*
X176747737Y-120170184D01*
X176620184Y-120297737D01*
X176524211Y-120450476D01*
X176464631Y-120620745D01*
X176464630Y-120620750D01*
X176449500Y-120755039D01*
X176449500Y-122244960D01*
X176464630Y-122379249D01*
X176464631Y-122379254D01*
X176524211Y-122549523D01*
X176620184Y-122702262D01*
X176705741Y-122787819D01*
X176739226Y-122849142D01*
X176734242Y-122918834D01*
X176692370Y-122974767D01*
X176626906Y-122999184D01*
X176618060Y-122999500D01*
X163281940Y-122999500D01*
X163214901Y-122979815D01*
X163169146Y-122927011D01*
X163159202Y-122857853D01*
X163188227Y-122794297D01*
X163194259Y-122787819D01*
X163279816Y-122702262D01*
X163375789Y-122549522D01*
X163435368Y-122379255D01*
X163435986Y-122373777D01*
X163450499Y-122244960D01*
X163450500Y-122244956D01*
X163450500Y-120999655D01*
X164714500Y-120999655D01*
X164714500Y-122000354D01*
X164720825Y-122069966D01*
X164720828Y-122069977D01*
X164770747Y-122230175D01*
X164770749Y-122230179D01*
X164857556Y-122373777D01*
X164857560Y-122373782D01*
X164976217Y-122492439D01*
X164976222Y-122492443D01*
X165096815Y-122565343D01*
X165119822Y-122579251D01*
X165280029Y-122629173D01*
X165349653Y-122635500D01*
X166350346Y-122635499D01*
X166350353Y-122635499D01*
X166419966Y-122629174D01*
X166419969Y-122629173D01*
X166419971Y-122629173D01*
X166580178Y-122579251D01*
X166654089Y-122534570D01*
X166723777Y-122492443D01*
X166723778Y-122492441D01*
X166723783Y-122492439D01*
X166762319Y-122453903D01*
X166823642Y-122420418D01*
X166893334Y-122425402D01*
X166937681Y-122453903D01*
X166976217Y-122492439D01*
X166976222Y-122492443D01*
X167096815Y-122565343D01*
X167119822Y-122579251D01*
X167280029Y-122629173D01*
X167349653Y-122635500D01*
X168350346Y-122635499D01*
X168350353Y-122635499D01*
X168419966Y-122629174D01*
X168419969Y-122629173D01*
X168419971Y-122629173D01*
X168580178Y-122579251D01*
X168654089Y-122534570D01*
X168723777Y-122492443D01*
X168723778Y-122492441D01*
X168723783Y-122492439D01*
X168842439Y-122373783D01*
X168850001Y-122361275D01*
X168870254Y-122327770D01*
X168929251Y-122230178D01*
X168979173Y-122069971D01*
X168985500Y-122000347D01*
X168985499Y-120999655D01*
X172714500Y-120999655D01*
X172714500Y-122000354D01*
X172720825Y-122069966D01*
X172720828Y-122069977D01*
X172770747Y-122230175D01*
X172770749Y-122230179D01*
X172857556Y-122373777D01*
X172857560Y-122373782D01*
X172976217Y-122492439D01*
X172976222Y-122492443D01*
X173096815Y-122565343D01*
X173119822Y-122579251D01*
X173280029Y-122629173D01*
X173349653Y-122635500D01*
X174350346Y-122635499D01*
X174350353Y-122635499D01*
X174419966Y-122629174D01*
X174419969Y-122629173D01*
X174419971Y-122629173D01*
X174580178Y-122579251D01*
X174654089Y-122534570D01*
X174723777Y-122492443D01*
X174723778Y-122492441D01*
X174723783Y-122492439D01*
X174842439Y-122373783D01*
X174850001Y-122361275D01*
X174870254Y-122327770D01*
X174929251Y-122230178D01*
X174979173Y-122069971D01*
X174985500Y-122000347D01*
X174985499Y-120999654D01*
X174985499Y-120999653D01*
X174985499Y-120999645D01*
X174979174Y-120930033D01*
X174979171Y-120930022D01*
X174929252Y-120769824D01*
X174929250Y-120769820D01*
X174842443Y-120626222D01*
X174842439Y-120626217D01*
X174723782Y-120507560D01*
X174723777Y-120507556D01*
X174580180Y-120420750D01*
X174580179Y-120420749D01*
X174580178Y-120420749D01*
X174419971Y-120370827D01*
X174419969Y-120370826D01*
X174419967Y-120370826D01*
X174371221Y-120366396D01*
X174350347Y-120364500D01*
X174350344Y-120364500D01*
X173349645Y-120364500D01*
X173280033Y-120370825D01*
X173280022Y-120370828D01*
X173119824Y-120420747D01*
X173119820Y-120420749D01*
X172976222Y-120507556D01*
X172976217Y-120507560D01*
X172857560Y-120626217D01*
X172857556Y-120626222D01*
X172770750Y-120769819D01*
X172720826Y-120930032D01*
X172714500Y-120999655D01*
X168985499Y-120999655D01*
X168985499Y-120999654D01*
X168985499Y-120999653D01*
X168985499Y-120999645D01*
X168979174Y-120930033D01*
X168979171Y-120930022D01*
X168929252Y-120769824D01*
X168929250Y-120769820D01*
X168842443Y-120626222D01*
X168842439Y-120626217D01*
X168723782Y-120507560D01*
X168723777Y-120507556D01*
X168580180Y-120420750D01*
X168580179Y-120420749D01*
X168580178Y-120420749D01*
X168419971Y-120370827D01*
X168419969Y-120370826D01*
X168419967Y-120370826D01*
X168371221Y-120366396D01*
X168350347Y-120364500D01*
X168350344Y-120364500D01*
X167349645Y-120364500D01*
X167280033Y-120370825D01*
X167280022Y-120370828D01*
X167119824Y-120420747D01*
X167119820Y-120420749D01*
X166976222Y-120507556D01*
X166976216Y-120507561D01*
X166937680Y-120546097D01*
X166876357Y-120579582D01*
X166806665Y-120574596D01*
X166762320Y-120546097D01*
X166723783Y-120507561D01*
X166723777Y-120507556D01*
X166580180Y-120420750D01*
X166580179Y-120420749D01*
X166580178Y-120420749D01*
X166419971Y-120370827D01*
X166419969Y-120370826D01*
X166419967Y-120370826D01*
X166371221Y-120366396D01*
X166350347Y-120364500D01*
X166350344Y-120364500D01*
X165349645Y-120364500D01*
X165280033Y-120370825D01*
X165280022Y-120370828D01*
X165119824Y-120420747D01*
X165119820Y-120420749D01*
X164976222Y-120507556D01*
X164976217Y-120507560D01*
X164857560Y-120626217D01*
X164857556Y-120626222D01*
X164770750Y-120769819D01*
X164720826Y-120930032D01*
X164714500Y-120999655D01*
X163450500Y-120999655D01*
X163450500Y-120755043D01*
X163450499Y-120755039D01*
X163435369Y-120620750D01*
X163435368Y-120620745D01*
X163419220Y-120574596D01*
X163375789Y-120450478D01*
X163279816Y-120297738D01*
X163152262Y-120170184D01*
X162999523Y-120074211D01*
X162829254Y-120014631D01*
X162829249Y-120014630D01*
X162694960Y-119999500D01*
X162694954Y-119999500D01*
X161205046Y-119999500D01*
X161205039Y-119999500D01*
X161070750Y-120014630D01*
X161070745Y-120014631D01*
X160900476Y-120074211D01*
X160747737Y-120170184D01*
X160620184Y-120297737D01*
X160524211Y-120450476D01*
X160464631Y-120620745D01*
X160464630Y-120620750D01*
X160449500Y-120755039D01*
X160449500Y-122244960D01*
X160464630Y-122379249D01*
X160464631Y-122379254D01*
X160524211Y-122549523D01*
X160620184Y-122702262D01*
X160705741Y-122787819D01*
X160739226Y-122849142D01*
X160734242Y-122918834D01*
X160692370Y-122974767D01*
X160626906Y-122999184D01*
X160618060Y-122999500D01*
X136124500Y-122999500D01*
X136057461Y-122979815D01*
X136011706Y-122927011D01*
X136000500Y-122875500D01*
X136000500Y-117613389D01*
X138399500Y-117613389D01*
X138399500Y-117786611D01*
X138403941Y-117814648D01*
X138425984Y-117953828D01*
X138426598Y-117957701D01*
X138480127Y-118122445D01*
X138558768Y-118276788D01*
X138660586Y-118416928D01*
X138783072Y-118539414D01*
X138923212Y-118641232D01*
X139077555Y-118719873D01*
X139242299Y-118773402D01*
X139413389Y-118800500D01*
X139413390Y-118800500D01*
X139586610Y-118800500D01*
X139586611Y-118800500D01*
X139757701Y-118773402D01*
X139922445Y-118719873D01*
X140076788Y-118641232D01*
X140216928Y-118539414D01*
X140339414Y-118416928D01*
X140441232Y-118276788D01*
X140519873Y-118122445D01*
X140573402Y-117957701D01*
X140600500Y-117786611D01*
X140600500Y-117613389D01*
X145399500Y-117613389D01*
X145399500Y-117786611D01*
X145403941Y-117814648D01*
X145425984Y-117953828D01*
X145426598Y-117957701D01*
X145480127Y-118122445D01*
X145558768Y-118276788D01*
X145660586Y-118416928D01*
X145783072Y-118539414D01*
X145923212Y-118641232D01*
X146077555Y-118719873D01*
X146242299Y-118773402D01*
X146413389Y-118800500D01*
X146413390Y-118800500D01*
X146586610Y-118800500D01*
X146586611Y-118800500D01*
X146757701Y-118773402D01*
X146922445Y-118719873D01*
X147076788Y-118641232D01*
X147216928Y-118539414D01*
X147339414Y-118416928D01*
X147441232Y-118276788D01*
X147519873Y-118122445D01*
X147573402Y-117957701D01*
X147600500Y-117786611D01*
X147600500Y-117613389D01*
X147573402Y-117442299D01*
X147519873Y-117277555D01*
X147441232Y-117123212D01*
X147339414Y-116983072D01*
X147216928Y-116860586D01*
X147076788Y-116758768D01*
X146922445Y-116680127D01*
X146757701Y-116626598D01*
X146757699Y-116626597D01*
X146757698Y-116626597D01*
X146626271Y-116605781D01*
X146586611Y-116599500D01*
X146413389Y-116599500D01*
X146373728Y-116605781D01*
X146242302Y-116626597D01*
X146077552Y-116680128D01*
X145923211Y-116758768D01*
X145843256Y-116816859D01*
X145783072Y-116860586D01*
X145783070Y-116860588D01*
X145783069Y-116860588D01*
X145660588Y-116983069D01*
X145660588Y-116983070D01*
X145660586Y-116983072D01*
X145656766Y-116988330D01*
X145558768Y-117123211D01*
X145480128Y-117277552D01*
X145426597Y-117442302D01*
X145407546Y-117562590D01*
X145399500Y-117613389D01*
X140600500Y-117613389D01*
X140573402Y-117442299D01*
X140519873Y-117277555D01*
X140441232Y-117123212D01*
X140339414Y-116983072D01*
X140216928Y-116860586D01*
X140076788Y-116758768D01*
X139922445Y-116680127D01*
X139757701Y-116626598D01*
X139757699Y-116626597D01*
X139757698Y-116626597D01*
X139626271Y-116605781D01*
X139586611Y-116599500D01*
X139413389Y-116599500D01*
X139373728Y-116605781D01*
X139242302Y-116626597D01*
X139077552Y-116680128D01*
X138923211Y-116758768D01*
X138843256Y-116816859D01*
X138783072Y-116860586D01*
X138783070Y-116860588D01*
X138783069Y-116860588D01*
X138660588Y-116983069D01*
X138660588Y-116983070D01*
X138660586Y-116983072D01*
X138656766Y-116988330D01*
X138558768Y-117123211D01*
X138480128Y-117277552D01*
X138426597Y-117442302D01*
X138407546Y-117562590D01*
X138399500Y-117613389D01*
X136000500Y-117613389D01*
X136000500Y-106413389D01*
X138399500Y-106413389D01*
X138399500Y-106586610D01*
X138421277Y-106724109D01*
X138426598Y-106757701D01*
X138480127Y-106922445D01*
X138558768Y-107076788D01*
X138660586Y-107216928D01*
X138783072Y-107339414D01*
X138923212Y-107441232D01*
X139077555Y-107519873D01*
X139242299Y-107573402D01*
X139413389Y-107600500D01*
X139413390Y-107600500D01*
X139586610Y-107600500D01*
X139586611Y-107600500D01*
X139757701Y-107573402D01*
X139922445Y-107519873D01*
X140076788Y-107441232D01*
X140216928Y-107339414D01*
X140339414Y-107216928D01*
X140441232Y-107076788D01*
X140519873Y-106922445D01*
X140573402Y-106757701D01*
X140600500Y-106586611D01*
X140600500Y-106413389D01*
X145399500Y-106413389D01*
X145399500Y-106586610D01*
X145421277Y-106724109D01*
X145426598Y-106757701D01*
X145480127Y-106922445D01*
X145558768Y-107076788D01*
X145660586Y-107216928D01*
X145783072Y-107339414D01*
X145923212Y-107441232D01*
X146077555Y-107519873D01*
X146242299Y-107573402D01*
X146413389Y-107600500D01*
X146413390Y-107600500D01*
X146586610Y-107600500D01*
X146586611Y-107600500D01*
X146757701Y-107573402D01*
X146922445Y-107519873D01*
X147076788Y-107441232D01*
X147216928Y-107339414D01*
X147339414Y-107216928D01*
X147441232Y-107076788D01*
X147519873Y-106922445D01*
X147573402Y-106757701D01*
X147600500Y-106586611D01*
X147600500Y-106413389D01*
X147573402Y-106242299D01*
X147519873Y-106077555D01*
X147441232Y-105923212D01*
X147339414Y-105783072D01*
X147216928Y-105660586D01*
X147076788Y-105558768D01*
X146922445Y-105480127D01*
X146757701Y-105426598D01*
X146757699Y-105426597D01*
X146757698Y-105426597D01*
X146626271Y-105405781D01*
X146586611Y-105399500D01*
X146413389Y-105399500D01*
X146373728Y-105405781D01*
X146242302Y-105426597D01*
X146077552Y-105480128D01*
X145923211Y-105558768D01*
X145843256Y-105616859D01*
X145783072Y-105660586D01*
X145783070Y-105660588D01*
X145783069Y-105660588D01*
X145660588Y-105783069D01*
X145660588Y-105783070D01*
X145660586Y-105783072D01*
X145657240Y-105787678D01*
X145558768Y-105923211D01*
X145480128Y-106077552D01*
X145426597Y-106242302D01*
X145399500Y-106413389D01*
X140600500Y-106413389D01*
X140573402Y-106242299D01*
X140519873Y-106077555D01*
X140441232Y-105923212D01*
X140339414Y-105783072D01*
X140216928Y-105660586D01*
X140076788Y-105558768D01*
X139922445Y-105480127D01*
X139757701Y-105426598D01*
X139757699Y-105426597D01*
X139757698Y-105426597D01*
X139626271Y-105405781D01*
X139586611Y-105399500D01*
X139413389Y-105399500D01*
X139373728Y-105405781D01*
X139242302Y-105426597D01*
X139077552Y-105480128D01*
X138923211Y-105558768D01*
X138843256Y-105616859D01*
X138783072Y-105660586D01*
X138783070Y-105660588D01*
X138783069Y-105660588D01*
X138660588Y-105783069D01*
X138660588Y-105783070D01*
X138660586Y-105783072D01*
X138657240Y-105787678D01*
X138558768Y-105923211D01*
X138480128Y-106077552D01*
X138426597Y-106242302D01*
X138399500Y-106413389D01*
X136000500Y-106413389D01*
X136000500Y-91421153D01*
X140699500Y-91421153D01*
X140699500Y-91578846D01*
X140730261Y-91733489D01*
X140730264Y-91733501D01*
X140790602Y-91879172D01*
X140790609Y-91879185D01*
X140878210Y-92010288D01*
X140878213Y-92010292D01*
X140989707Y-92121786D01*
X140989711Y-92121789D01*
X141120814Y-92209390D01*
X141120827Y-92209397D01*
X141260687Y-92267328D01*
X141266503Y-92269737D01*
X141421153Y-92300499D01*
X141421156Y-92300500D01*
X141421158Y-92300500D01*
X141578844Y-92300500D01*
X141578845Y-92300499D01*
X141733497Y-92269737D01*
X141879179Y-92209394D01*
X141879185Y-92209390D01*
X142010875Y-92121398D01*
X142077553Y-92100520D01*
X142079766Y-92100500D01*
X144163331Y-92100500D01*
X144163347Y-92100501D01*
X144170943Y-92100501D01*
X144329054Y-92100501D01*
X144329057Y-92100501D01*
X144481785Y-92059577D01*
X144531904Y-92030639D01*
X144618716Y-91980520D01*
X144730520Y-91868716D01*
X144730520Y-91868714D01*
X144740728Y-91858507D01*
X144740730Y-91858504D01*
X146146437Y-90452796D01*
X146207758Y-90419313D01*
X146272433Y-90422547D01*
X146398632Y-90463553D01*
X146486110Y-90477408D01*
X146631903Y-90500500D01*
X146631908Y-90500500D01*
X146868097Y-90500500D01*
X147101368Y-90463553D01*
X147134468Y-90452798D01*
X147325992Y-90390568D01*
X147536433Y-90283343D01*
X147702616Y-90162602D01*
X147768420Y-90139124D01*
X147836474Y-90154949D01*
X147885169Y-90205055D01*
X147899500Y-90262922D01*
X147899500Y-92037077D01*
X147879815Y-92104116D01*
X147827011Y-92149871D01*
X147757853Y-92159815D01*
X147702614Y-92137395D01*
X147536433Y-92016657D01*
X147325996Y-91909433D01*
X147101368Y-91836446D01*
X146868097Y-91799500D01*
X146868092Y-91799500D01*
X146631908Y-91799500D01*
X146631903Y-91799500D01*
X146398631Y-91836446D01*
X146174003Y-91909433D01*
X145963566Y-92016657D01*
X145886188Y-92072876D01*
X145772490Y-92155483D01*
X145772488Y-92155485D01*
X145772487Y-92155485D01*
X145605485Y-92322487D01*
X145605485Y-92322488D01*
X145605483Y-92322490D01*
X145561851Y-92382544D01*
X145466657Y-92513566D01*
X145359433Y-92724003D01*
X145286446Y-92948631D01*
X145249500Y-93181902D01*
X145249500Y-93418097D01*
X145286447Y-93651369D01*
X145286447Y-93651372D01*
X145327450Y-93777564D01*
X145329445Y-93847405D01*
X145297200Y-93903563D01*
X145087582Y-94113182D01*
X145026262Y-94146666D01*
X144999903Y-94149500D01*
X144579766Y-94149500D01*
X144512727Y-94129815D01*
X144510875Y-94128602D01*
X144379185Y-94040609D01*
X144379172Y-94040602D01*
X144233501Y-93980264D01*
X144233489Y-93980261D01*
X144078845Y-93949500D01*
X144078842Y-93949500D01*
X143921158Y-93949500D01*
X143921155Y-93949500D01*
X143766510Y-93980261D01*
X143766498Y-93980264D01*
X143620827Y-94040602D01*
X143620814Y-94040609D01*
X143489711Y-94128210D01*
X143489707Y-94128213D01*
X143378213Y-94239707D01*
X143378210Y-94239711D01*
X143290609Y-94370814D01*
X143290602Y-94370827D01*
X143230264Y-94516498D01*
X143230261Y-94516510D01*
X143199500Y-94671153D01*
X143199500Y-94828846D01*
X143230261Y-94983489D01*
X143230264Y-94983501D01*
X143290602Y-95129172D01*
X143290609Y-95129185D01*
X143378210Y-95260288D01*
X143378213Y-95260292D01*
X143489707Y-95371786D01*
X143489711Y-95371789D01*
X143620814Y-95459390D01*
X143620827Y-95459397D01*
X143766498Y-95519735D01*
X143766503Y-95519737D01*
X143921153Y-95550499D01*
X143921156Y-95550500D01*
X143921158Y-95550500D01*
X144078844Y-95550500D01*
X144078845Y-95550499D01*
X144233497Y-95519737D01*
X144379179Y-95459394D01*
X144379185Y-95459390D01*
X144510875Y-95371398D01*
X144577553Y-95350520D01*
X144579766Y-95350500D01*
X145213331Y-95350500D01*
X145213347Y-95350501D01*
X145220943Y-95350501D01*
X145379054Y-95350501D01*
X145379057Y-95350501D01*
X145531785Y-95309577D01*
X145602558Y-95268716D01*
X145668716Y-95230520D01*
X145780520Y-95118716D01*
X145780520Y-95118714D01*
X145790724Y-95108511D01*
X145790728Y-95108506D01*
X146146437Y-94752796D01*
X146207758Y-94719313D01*
X146272433Y-94722547D01*
X146398632Y-94763553D01*
X146486110Y-94777408D01*
X146631903Y-94800500D01*
X146631908Y-94800500D01*
X146868097Y-94800500D01*
X147101368Y-94763553D01*
X147134468Y-94752798D01*
X147325992Y-94690568D01*
X147536433Y-94583343D01*
X147702616Y-94462602D01*
X147768420Y-94439124D01*
X147836474Y-94454949D01*
X147885169Y-94505055D01*
X147899500Y-94562922D01*
X147899500Y-101011858D01*
X147899499Y-101011876D01*
X147899499Y-101177584D01*
X147916145Y-101239711D01*
X147940423Y-101330313D01*
X147943839Y-101336229D01*
X148002516Y-101437861D01*
X148019479Y-101467243D01*
X148138349Y-101586113D01*
X148138355Y-101586118D01*
X151013181Y-104460944D01*
X151046666Y-104522267D01*
X151049500Y-104548625D01*
X151049500Y-104650902D01*
X151029815Y-104717941D01*
X150977011Y-104763696D01*
X150907853Y-104773640D01*
X150844297Y-104744615D01*
X150837819Y-104738583D01*
X147834573Y-101735337D01*
X147801088Y-101674014D01*
X147800637Y-101671847D01*
X147772660Y-101531198D01*
X147769737Y-101516503D01*
X147709394Y-101370821D01*
X147665725Y-101305466D01*
X147621789Y-101239710D01*
X147510292Y-101128213D01*
X147510288Y-101128210D01*
X147379185Y-101040609D01*
X147379172Y-101040602D01*
X147233501Y-100980264D01*
X147233489Y-100980261D01*
X147078845Y-100949500D01*
X147078842Y-100949500D01*
X146921158Y-100949500D01*
X146921155Y-100949500D01*
X146766510Y-100980261D01*
X146766498Y-100980264D01*
X146620827Y-101040602D01*
X146620814Y-101040609D01*
X146489711Y-101128210D01*
X146489707Y-101128213D01*
X146378213Y-101239707D01*
X146378210Y-101239711D01*
X146290609Y-101370814D01*
X146290602Y-101370827D01*
X146230264Y-101516498D01*
X146230261Y-101516510D01*
X146199500Y-101671153D01*
X146199500Y-101828846D01*
X146230261Y-101983489D01*
X146230264Y-101983501D01*
X146290602Y-102129172D01*
X146290609Y-102129185D01*
X146378210Y-102260288D01*
X146378213Y-102260292D01*
X146489707Y-102371786D01*
X146489711Y-102371789D01*
X146620814Y-102459390D01*
X146620827Y-102459397D01*
X146720060Y-102500500D01*
X146766503Y-102519737D01*
X146831147Y-102532595D01*
X146921849Y-102550638D01*
X146983760Y-102583023D01*
X146985339Y-102584574D01*
X150613181Y-106212416D01*
X150646666Y-106273739D01*
X150649500Y-106300097D01*
X150649500Y-108663330D01*
X150649499Y-108663348D01*
X150649499Y-108829054D01*
X150649498Y-108829054D01*
X150690423Y-108981785D01*
X150719358Y-109031900D01*
X150719359Y-109031904D01*
X150719360Y-109031904D01*
X150769479Y-109118714D01*
X150769481Y-109118717D01*
X150888349Y-109237585D01*
X150888355Y-109237590D01*
X151926687Y-110275923D01*
X151960172Y-110337246D01*
X151955188Y-110406938D01*
X151926688Y-110451285D01*
X151855482Y-110522491D01*
X151716657Y-110713566D01*
X151609433Y-110924003D01*
X151536446Y-111148631D01*
X151499500Y-111381902D01*
X151499500Y-111618097D01*
X151536446Y-111851368D01*
X151609433Y-112075996D01*
X151716657Y-112286433D01*
X151855483Y-112477510D01*
X152022490Y-112644517D01*
X152213567Y-112783343D01*
X152300499Y-112827637D01*
X152421941Y-112889515D01*
X152472737Y-112937490D01*
X152489532Y-113005311D01*
X152466995Y-113071446D01*
X152421941Y-113110485D01*
X152213566Y-113216657D01*
X152127684Y-113279055D01*
X152022490Y-113355483D01*
X152022488Y-113355485D01*
X152022487Y-113355485D01*
X151855485Y-113522487D01*
X151855485Y-113522488D01*
X151855483Y-113522490D01*
X151821903Y-113568709D01*
X151716657Y-113713566D01*
X151609433Y-113924003D01*
X151536446Y-114148631D01*
X151499500Y-114381902D01*
X151499500Y-114618097D01*
X151536446Y-114851368D01*
X151609433Y-115075996D01*
X151711278Y-115275876D01*
X151716657Y-115286433D01*
X151855483Y-115477510D01*
X152022490Y-115644517D01*
X152213567Y-115783343D01*
X152283373Y-115818911D01*
X152424003Y-115890566D01*
X152424005Y-115890566D01*
X152424008Y-115890568D01*
X152544412Y-115929689D01*
X152648631Y-115963553D01*
X152881903Y-116000500D01*
X152881908Y-116000500D01*
X153118097Y-116000500D01*
X153351368Y-115963553D01*
X153366590Y-115958607D01*
X153575992Y-115890568D01*
X153786433Y-115783343D01*
X153977510Y-115644517D01*
X154144517Y-115477510D01*
X154283343Y-115286433D01*
X154390568Y-115075992D01*
X154463553Y-114851368D01*
X154465000Y-114842229D01*
X154500500Y-114618097D01*
X154500500Y-114381902D01*
X154464999Y-114157762D01*
X154463553Y-114148632D01*
X154422547Y-114022433D01*
X154420553Y-113952593D01*
X154452794Y-113896439D01*
X154780520Y-113568716D01*
X154859577Y-113431784D01*
X154900501Y-113279057D01*
X154900501Y-113120942D01*
X154900501Y-113113347D01*
X154900500Y-113113329D01*
X154900500Y-111381902D01*
X157999500Y-111381902D01*
X157999500Y-111618097D01*
X158036446Y-111851368D01*
X158109433Y-112075996D01*
X158216657Y-112286433D01*
X158355483Y-112477510D01*
X158522490Y-112644517D01*
X158713567Y-112783343D01*
X158800499Y-112827637D01*
X158921941Y-112889515D01*
X158972737Y-112937490D01*
X158989532Y-113005311D01*
X158966995Y-113071446D01*
X158921941Y-113110485D01*
X158713566Y-113216657D01*
X158627684Y-113279055D01*
X158522490Y-113355483D01*
X158522488Y-113355485D01*
X158522487Y-113355485D01*
X158355485Y-113522487D01*
X158355485Y-113522488D01*
X158355483Y-113522490D01*
X158321903Y-113568709D01*
X158216657Y-113713566D01*
X158109433Y-113924003D01*
X158036446Y-114148631D01*
X157999500Y-114381902D01*
X157999500Y-114618097D01*
X158036446Y-114851368D01*
X158109433Y-115075996D01*
X158211278Y-115275876D01*
X158216657Y-115286433D01*
X158355483Y-115477510D01*
X158522490Y-115644517D01*
X158713567Y-115783343D01*
X158783373Y-115818911D01*
X158924003Y-115890566D01*
X158924005Y-115890566D01*
X158924008Y-115890568D01*
X159044412Y-115929689D01*
X159148631Y-115963553D01*
X159381903Y-116000500D01*
X159381908Y-116000500D01*
X159618097Y-116000500D01*
X159851368Y-115963553D01*
X159866590Y-115958607D01*
X160075992Y-115890568D01*
X160286433Y-115783343D01*
X160477510Y-115644517D01*
X160644517Y-115477510D01*
X160783343Y-115286433D01*
X160890568Y-115075992D01*
X160963553Y-114851368D01*
X160965000Y-114842229D01*
X161000500Y-114618097D01*
X161000500Y-114381902D01*
X160963553Y-114148631D01*
X160899856Y-113952593D01*
X160890568Y-113924008D01*
X160890566Y-113924005D01*
X160890566Y-113924003D01*
X160834002Y-113812991D01*
X160783343Y-113713567D01*
X160644517Y-113522490D01*
X160477510Y-113355483D01*
X160286433Y-113216657D01*
X160078057Y-113110484D01*
X160027262Y-113062511D01*
X160010467Y-112994690D01*
X160033004Y-112928555D01*
X160078057Y-112889515D01*
X160286433Y-112783343D01*
X160477510Y-112644517D01*
X160644517Y-112477510D01*
X160783343Y-112286433D01*
X160890568Y-112075992D01*
X160963553Y-111851368D01*
X161000500Y-111618097D01*
X161000500Y-111381902D01*
X160963553Y-111148631D01*
X160890566Y-110924003D01*
X160785711Y-110718215D01*
X160783343Y-110713567D01*
X160644517Y-110522490D01*
X160477510Y-110355483D01*
X160286433Y-110216657D01*
X160075996Y-110109433D01*
X159851368Y-110036446D01*
X159618097Y-109999500D01*
X159618092Y-109999500D01*
X159381908Y-109999500D01*
X159381903Y-109999500D01*
X159148631Y-110036446D01*
X158924003Y-110109433D01*
X158713566Y-110216657D01*
X158604550Y-110295862D01*
X158522490Y-110355483D01*
X158522488Y-110355485D01*
X158522487Y-110355485D01*
X158355485Y-110522487D01*
X158355485Y-110522488D01*
X158355483Y-110522490D01*
X158312767Y-110581284D01*
X158216657Y-110713566D01*
X158109433Y-110924003D01*
X158036446Y-111148631D01*
X157999500Y-111381902D01*
X154900500Y-111381902D01*
X154900500Y-111039059D01*
X154900501Y-111039046D01*
X154900501Y-110870945D01*
X154900501Y-110870943D01*
X154859577Y-110718215D01*
X154830639Y-110668095D01*
X154780520Y-110581284D01*
X154668716Y-110469480D01*
X154668715Y-110469479D01*
X154664385Y-110465149D01*
X154664374Y-110465139D01*
X152286819Y-108087584D01*
X152253334Y-108026261D01*
X152250500Y-107999903D01*
X152250500Y-105417648D01*
X152270185Y-105350609D01*
X152322989Y-105304854D01*
X152392147Y-105294910D01*
X152398672Y-105296027D01*
X152421158Y-105300500D01*
X152578844Y-105300500D01*
X152578845Y-105300499D01*
X152733497Y-105269737D01*
X152879179Y-105209394D01*
X153010289Y-105121789D01*
X153121789Y-105010289D01*
X153209394Y-104879179D01*
X153269737Y-104733497D01*
X153300500Y-104578842D01*
X153300500Y-104421158D01*
X153300500Y-104421155D01*
X153300499Y-104421153D01*
X153269738Y-104266510D01*
X153269737Y-104266503D01*
X153269735Y-104266498D01*
X153209397Y-104120827D01*
X153209390Y-104120814D01*
X153121789Y-103989711D01*
X153121786Y-103989707D01*
X153010292Y-103878213D01*
X153010288Y-103878210D01*
X152879185Y-103790609D01*
X152879172Y-103790602D01*
X152733501Y-103730264D01*
X152733491Y-103730261D01*
X152578149Y-103699361D01*
X152516238Y-103666976D01*
X152514660Y-103665425D01*
X152386819Y-103537584D01*
X152353334Y-103476261D01*
X152350500Y-103449903D01*
X152350500Y-96064783D01*
X152370185Y-95997744D01*
X152422989Y-95951989D01*
X152492147Y-95942045D01*
X152555703Y-95971070D01*
X152562181Y-95977102D01*
X155888819Y-99303740D01*
X155922304Y-99365063D01*
X155917320Y-99434755D01*
X155888822Y-99479099D01*
X155878213Y-99489708D01*
X155878208Y-99489714D01*
X155790609Y-99620814D01*
X155790602Y-99620827D01*
X155730264Y-99766498D01*
X155730261Y-99766510D01*
X155699500Y-99921153D01*
X155699500Y-100078846D01*
X155730261Y-100233489D01*
X155730264Y-100233501D01*
X155790602Y-100379172D01*
X155790609Y-100379185D01*
X155878602Y-100510874D01*
X155899480Y-100577551D01*
X155899500Y-100579765D01*
X155899500Y-103413330D01*
X155899499Y-103413348D01*
X155899499Y-103579054D01*
X155899498Y-103579054D01*
X155940423Y-103731785D01*
X155961335Y-103768004D01*
X155961336Y-103768008D01*
X156019475Y-103868709D01*
X156019481Y-103868717D01*
X156138349Y-103987585D01*
X156138354Y-103987589D01*
X157881284Y-105730520D01*
X157881286Y-105730521D01*
X157881290Y-105730524D01*
X157980285Y-105787678D01*
X158018216Y-105809577D01*
X158170943Y-105850501D01*
X158170945Y-105850501D01*
X158336654Y-105850501D01*
X158336670Y-105850500D01*
X162199903Y-105850500D01*
X162266942Y-105870185D01*
X162287584Y-105886819D01*
X163188181Y-106787416D01*
X163221666Y-106848739D01*
X163224500Y-106875097D01*
X163224500Y-116988330D01*
X163224499Y-116988348D01*
X163224499Y-117154054D01*
X163224498Y-117154054D01*
X163265423Y-117306785D01*
X163294358Y-117356900D01*
X163294359Y-117356904D01*
X163294360Y-117356904D01*
X163344479Y-117443714D01*
X163344481Y-117443717D01*
X163463349Y-117562585D01*
X163463355Y-117562590D01*
X165301796Y-119401031D01*
X165301806Y-119401042D01*
X165306136Y-119405372D01*
X165306137Y-119405373D01*
X165417941Y-119517177D01*
X165469502Y-119546945D01*
X165504752Y-119567296D01*
X165504754Y-119567298D01*
X165542808Y-119589268D01*
X165554872Y-119596234D01*
X165707600Y-119637158D01*
X165707603Y-119637158D01*
X165873310Y-119637158D01*
X165873326Y-119637157D01*
X165901905Y-119637157D01*
X165968944Y-119656842D01*
X165970796Y-119658055D01*
X166102485Y-119746047D01*
X166102498Y-119746054D01*
X166248169Y-119806392D01*
X166248174Y-119806394D01*
X166402824Y-119837156D01*
X166402827Y-119837157D01*
X166402829Y-119837157D01*
X166560515Y-119837157D01*
X166560516Y-119837156D01*
X166715168Y-119806394D01*
X166860850Y-119746051D01*
X166991960Y-119658446D01*
X167103460Y-119546946D01*
X167191065Y-119415836D01*
X167251408Y-119270154D01*
X167282171Y-119115499D01*
X167282171Y-118957815D01*
X167282171Y-118957812D01*
X167282170Y-118957810D01*
X167251409Y-118803167D01*
X167251408Y-118803160D01*
X167216909Y-118719871D01*
X167191068Y-118657484D01*
X167191061Y-118657471D01*
X167103460Y-118526368D01*
X167103457Y-118526364D01*
X166991963Y-118414870D01*
X166991959Y-118414867D01*
X166860856Y-118327266D01*
X166860843Y-118327259D01*
X166715172Y-118266921D01*
X166715160Y-118266918D01*
X166560516Y-118236157D01*
X166560513Y-118236157D01*
X166402829Y-118236157D01*
X166402826Y-118236157D01*
X166248181Y-118266918D01*
X166248169Y-118266921D01*
X166102499Y-118327259D01*
X166102488Y-118327265D01*
X166081604Y-118341220D01*
X166014926Y-118362097D01*
X165947546Y-118343612D01*
X165925033Y-118325798D01*
X164500812Y-116901577D01*
X167449500Y-116901577D01*
X167449500Y-117098422D01*
X167480290Y-117292826D01*
X167541117Y-117480029D01*
X167609068Y-117613389D01*
X167630476Y-117655405D01*
X167746172Y-117814646D01*
X167885354Y-117953828D01*
X168044595Y-118069524D01*
X168127455Y-118111743D01*
X168219970Y-118158882D01*
X168219972Y-118158882D01*
X168219975Y-118158884D01*
X168320317Y-118191487D01*
X168407173Y-118219709D01*
X168601578Y-118250500D01*
X168601583Y-118250500D01*
X170298422Y-118250500D01*
X170492826Y-118219709D01*
X170680025Y-118158884D01*
X170855405Y-118069524D01*
X171014646Y-117953828D01*
X171153828Y-117814646D01*
X171269524Y-117655405D01*
X171358884Y-117480025D01*
X171419709Y-117292826D01*
X171441688Y-117154057D01*
X171450500Y-117098422D01*
X171450500Y-116901577D01*
X171419709Y-116707173D01*
X171358882Y-116519970D01*
X171313445Y-116430795D01*
X171300549Y-116362125D01*
X171326826Y-116297385D01*
X171383932Y-116257128D01*
X171423930Y-116250500D01*
X171764727Y-116250500D01*
X171764734Y-116250500D01*
X171992238Y-116220548D01*
X172213887Y-116161158D01*
X172425888Y-116073344D01*
X172624612Y-115958611D01*
X172806661Y-115818919D01*
X172806665Y-115818914D01*
X172806670Y-115818911D01*
X172968911Y-115656670D01*
X172968914Y-115656665D01*
X172968919Y-115656661D01*
X173108611Y-115474612D01*
X173223344Y-115275888D01*
X173311158Y-115063887D01*
X173370548Y-114842238D01*
X173400500Y-114614734D01*
X173400500Y-114385266D01*
X173370548Y-114157762D01*
X173311158Y-113936113D01*
X173223344Y-113724112D01*
X173108611Y-113525388D01*
X173108608Y-113525385D01*
X173108607Y-113525382D01*
X172968918Y-113343338D01*
X172968911Y-113343330D01*
X172806670Y-113181089D01*
X172806661Y-113181081D01*
X172624617Y-113041392D01*
X172425890Y-112926657D01*
X172425876Y-112926650D01*
X172213887Y-112838842D01*
X172172069Y-112827637D01*
X171992238Y-112779452D01*
X171954215Y-112774446D01*
X171764741Y-112749500D01*
X171764734Y-112749500D01*
X170535266Y-112749500D01*
X170535258Y-112749500D01*
X170318715Y-112778009D01*
X170307762Y-112779452D01*
X170214076Y-112804554D01*
X170086112Y-112838842D01*
X169874123Y-112926650D01*
X169874109Y-112926657D01*
X169675382Y-113041392D01*
X169493338Y-113181081D01*
X169331081Y-113343338D01*
X169191392Y-113525382D01*
X169076657Y-113724109D01*
X169076650Y-113724123D01*
X168993858Y-113924003D01*
X168988842Y-113936113D01*
X168931899Y-114148632D01*
X168929453Y-114157759D01*
X168929451Y-114157770D01*
X168899500Y-114385258D01*
X168899500Y-114614741D01*
X168924446Y-114804215D01*
X168929452Y-114842238D01*
X168988842Y-115063887D01*
X169076650Y-115275876D01*
X169076656Y-115275888D01*
X169191389Y-115474612D01*
X169193613Y-115477511D01*
X169249247Y-115550013D01*
X169274441Y-115615183D01*
X169260403Y-115683627D01*
X169211589Y-115733617D01*
X169150871Y-115749500D01*
X168601578Y-115749500D01*
X168407173Y-115780290D01*
X168219970Y-115841117D01*
X168044594Y-115930476D01*
X167953741Y-115996485D01*
X167885354Y-116046172D01*
X167885352Y-116046174D01*
X167885351Y-116046174D01*
X167746174Y-116185351D01*
X167746174Y-116185352D01*
X167746172Y-116185354D01*
X167720602Y-116220548D01*
X167630476Y-116344594D01*
X167541117Y-116519970D01*
X167480290Y-116707173D01*
X167449500Y-116901577D01*
X164500812Y-116901577D01*
X164461819Y-116862584D01*
X164428334Y-116801261D01*
X164425500Y-116774903D01*
X164425500Y-107177973D01*
X165099500Y-107177973D01*
X165099500Y-108422027D01*
X165137679Y-108663076D01*
X165213096Y-108895185D01*
X165303872Y-109073344D01*
X165323896Y-109112642D01*
X165467339Y-109310076D01*
X165467343Y-109310081D01*
X165639918Y-109482656D01*
X165639923Y-109482660D01*
X165812136Y-109607779D01*
X165837361Y-109626106D01*
X166054815Y-109736904D01*
X166286924Y-109812321D01*
X166527973Y-109850500D01*
X166527974Y-109850500D01*
X166772026Y-109850500D01*
X166772027Y-109850500D01*
X167013076Y-109812321D01*
X167245185Y-109736904D01*
X167462639Y-109626106D01*
X167660083Y-109482655D01*
X167832655Y-109310083D01*
X167976106Y-109112639D01*
X168086904Y-108895185D01*
X168162321Y-108663076D01*
X168200500Y-108422027D01*
X168200500Y-107385258D01*
X171999500Y-107385258D01*
X171999500Y-107614741D01*
X172024446Y-107804215D01*
X172029452Y-107842238D01*
X172029453Y-107842240D01*
X172088842Y-108063887D01*
X172176650Y-108275876D01*
X172176657Y-108275890D01*
X172291392Y-108474617D01*
X172431081Y-108656661D01*
X172431089Y-108656670D01*
X172593330Y-108818911D01*
X172593338Y-108818918D01*
X172775382Y-108958607D01*
X172775385Y-108958608D01*
X172775388Y-108958611D01*
X172974112Y-109073344D01*
X172974117Y-109073346D01*
X172974123Y-109073349D01*
X173065480Y-109111190D01*
X173186113Y-109161158D01*
X173407762Y-109220548D01*
X173635266Y-109250500D01*
X173635273Y-109250500D01*
X174864727Y-109250500D01*
X174864734Y-109250500D01*
X175092238Y-109220548D01*
X175313887Y-109161158D01*
X175525888Y-109073344D01*
X175724612Y-108958611D01*
X175906661Y-108818919D01*
X175906665Y-108818914D01*
X175906670Y-108818911D01*
X176068911Y-108656670D01*
X176068914Y-108656665D01*
X176068919Y-108656661D01*
X176208611Y-108474612D01*
X176323344Y-108275888D01*
X176411158Y-108063887D01*
X176470548Y-107842238D01*
X176500500Y-107614734D01*
X176500500Y-107385266D01*
X176470548Y-107157762D01*
X176411158Y-106936113D01*
X176361190Y-106815480D01*
X176323349Y-106724123D01*
X176323346Y-106724117D01*
X176323344Y-106724112D01*
X176208611Y-106525388D01*
X176208608Y-106525385D01*
X176208607Y-106525382D01*
X176068918Y-106343338D01*
X176068911Y-106343330D01*
X175906670Y-106181089D01*
X175906661Y-106181081D01*
X175724617Y-106041392D01*
X175525890Y-105926657D01*
X175525876Y-105926650D01*
X175313887Y-105838842D01*
X175092238Y-105779452D01*
X175054215Y-105774446D01*
X174864741Y-105749500D01*
X174864734Y-105749500D01*
X173635266Y-105749500D01*
X173635258Y-105749500D01*
X173418715Y-105778009D01*
X173407762Y-105779452D01*
X173314076Y-105804554D01*
X173186112Y-105838842D01*
X172974123Y-105926650D01*
X172974109Y-105926657D01*
X172775382Y-106041392D01*
X172593338Y-106181081D01*
X172431081Y-106343338D01*
X172291392Y-106525382D01*
X172176657Y-106724109D01*
X172176650Y-106724123D01*
X172088842Y-106936112D01*
X172029453Y-107157759D01*
X172029451Y-107157770D01*
X171999500Y-107385258D01*
X168200500Y-107385258D01*
X168200500Y-107177973D01*
X168162321Y-106936924D01*
X168086904Y-106704815D01*
X167976106Y-106487361D01*
X167957779Y-106462136D01*
X167832660Y-106289923D01*
X167832655Y-106289917D01*
X167660081Y-106117343D01*
X167660076Y-106117339D01*
X167462642Y-105973896D01*
X167462641Y-105973895D01*
X167462639Y-105973894D01*
X167245185Y-105863096D01*
X167013076Y-105787679D01*
X167013074Y-105787678D01*
X167013072Y-105787678D01*
X166844769Y-105761021D01*
X166772027Y-105749500D01*
X166527973Y-105749500D01*
X166472093Y-105758350D01*
X166286927Y-105787678D01*
X166054812Y-105863097D01*
X165837357Y-105973896D01*
X165639923Y-106117339D01*
X165639918Y-106117343D01*
X165467345Y-106289917D01*
X165467339Y-106289923D01*
X165323896Y-106487357D01*
X165213097Y-106704812D01*
X165137678Y-106936927D01*
X165115526Y-107076788D01*
X165099500Y-107177973D01*
X164425500Y-107177973D01*
X164425500Y-106664059D01*
X164425501Y-106664046D01*
X164425501Y-106495945D01*
X164425501Y-106495943D01*
X164384577Y-106343215D01*
X164353805Y-106289917D01*
X164305520Y-106206284D01*
X164193716Y-106094480D01*
X164193715Y-106094479D01*
X164189385Y-106090149D01*
X164189374Y-106090139D01*
X162987590Y-104888355D01*
X162987588Y-104888352D01*
X162868717Y-104769481D01*
X162868716Y-104769480D01*
X162781904Y-104719360D01*
X162781904Y-104719359D01*
X162781900Y-104719358D01*
X162731785Y-104690423D01*
X162579057Y-104649499D01*
X162420943Y-104649499D01*
X162413347Y-104649499D01*
X162413331Y-104649500D01*
X158550098Y-104649500D01*
X158483059Y-104629815D01*
X158462417Y-104613181D01*
X157136819Y-103287583D01*
X157103334Y-103226260D01*
X157100500Y-103199902D01*
X157100500Y-100693838D01*
X157120185Y-100626799D01*
X157172989Y-100581044D01*
X157242147Y-100571100D01*
X157256579Y-100574059D01*
X157355257Y-100600501D01*
X157355260Y-100600501D01*
X157520968Y-100600501D01*
X157520984Y-100600500D01*
X159170234Y-100600500D01*
X159237273Y-100620185D01*
X159239125Y-100621398D01*
X159370817Y-100709392D01*
X159370819Y-100709393D01*
X159370821Y-100709394D01*
X159393549Y-100718808D01*
X159447952Y-100762649D01*
X159470017Y-100828943D01*
X159467714Y-100857558D01*
X159454500Y-100923996D01*
X159454500Y-101576007D01*
X159493907Y-101774119D01*
X159493909Y-101774127D01*
X159571212Y-101960752D01*
X159571217Y-101960762D01*
X159683441Y-102128718D01*
X159826281Y-102271558D01*
X159994237Y-102383782D01*
X159994241Y-102383784D01*
X159994244Y-102383786D01*
X160180873Y-102461091D01*
X160378992Y-102500499D01*
X160378996Y-102500500D01*
X160378997Y-102500500D01*
X160581004Y-102500500D01*
X160581005Y-102500499D01*
X160779127Y-102461091D01*
X160965756Y-102383786D01*
X161046110Y-102330094D01*
X161112786Y-102309217D01*
X161180166Y-102327701D01*
X161183865Y-102330078D01*
X161264244Y-102383786D01*
X161450873Y-102461091D01*
X161648992Y-102500499D01*
X161648996Y-102500500D01*
X161648997Y-102500500D01*
X161851004Y-102500500D01*
X161851005Y-102500499D01*
X162049127Y-102461091D01*
X162235756Y-102383786D01*
X162403718Y-102271558D01*
X162546558Y-102128718D01*
X162658786Y-101960756D01*
X162736091Y-101774127D01*
X162775500Y-101576003D01*
X162775500Y-100923997D01*
X162736091Y-100725873D01*
X162658786Y-100539244D01*
X162658784Y-100539241D01*
X162658782Y-100539237D01*
X162546558Y-100371281D01*
X162403718Y-100228441D01*
X162235762Y-100116217D01*
X162235752Y-100116212D01*
X162049127Y-100038909D01*
X162049119Y-100038907D01*
X161851007Y-99999500D01*
X161851003Y-99999500D01*
X161648997Y-99999500D01*
X161648992Y-99999500D01*
X161450880Y-100038907D01*
X161450872Y-100038909D01*
X161264244Y-100116213D01*
X161183891Y-100169904D01*
X161117213Y-100190782D01*
X161049833Y-100172297D01*
X161046109Y-100169904D01*
X160965755Y-100116213D01*
X160779127Y-100038909D01*
X160779119Y-100038907D01*
X160646731Y-100012573D01*
X160584820Y-99980188D01*
X160550245Y-99919472D01*
X160549305Y-99915147D01*
X160519738Y-99766510D01*
X160519737Y-99766503D01*
X160519735Y-99766498D01*
X160459397Y-99620827D01*
X160459390Y-99620814D01*
X160371789Y-99489711D01*
X160371786Y-99489707D01*
X160260292Y-99378213D01*
X160260288Y-99378210D01*
X160129185Y-99290609D01*
X160129172Y-99290602D01*
X159983501Y-99230264D01*
X159983489Y-99230261D01*
X159828845Y-99199500D01*
X159828842Y-99199500D01*
X159671158Y-99199500D01*
X159671155Y-99199500D01*
X159516510Y-99230261D01*
X159516498Y-99230264D01*
X159370827Y-99290602D01*
X159370814Y-99290609D01*
X159239125Y-99378602D01*
X159172447Y-99399480D01*
X159170234Y-99399500D01*
X157734412Y-99399500D01*
X157667373Y-99379815D01*
X157646731Y-99363181D01*
X156095731Y-97812181D01*
X156062246Y-97750858D01*
X156067230Y-97681166D01*
X156109102Y-97625233D01*
X156174566Y-97600816D01*
X156183412Y-97600500D01*
X160170234Y-97600500D01*
X160237273Y-97620185D01*
X160239125Y-97621398D01*
X160370814Y-97709390D01*
X160370827Y-97709397D01*
X160516498Y-97769735D01*
X160516503Y-97769737D01*
X160671153Y-97800499D01*
X160671156Y-97800500D01*
X160671158Y-97800500D01*
X160828844Y-97800500D01*
X160828845Y-97800499D01*
X160983497Y-97769737D01*
X161129179Y-97709394D01*
X161260289Y-97621789D01*
X161371789Y-97510289D01*
X161459394Y-97379179D01*
X161519737Y-97233497D01*
X161525975Y-97202135D01*
X168249500Y-97202135D01*
X168249500Y-99297870D01*
X168249501Y-99297876D01*
X168255908Y-99357483D01*
X168306202Y-99492328D01*
X168306206Y-99492335D01*
X168392452Y-99607544D01*
X168392455Y-99607547D01*
X168507664Y-99693793D01*
X168507671Y-99693797D01*
X168642517Y-99744091D01*
X168642516Y-99744091D01*
X168649444Y-99744835D01*
X168702127Y-99750500D01*
X170797872Y-99750499D01*
X170857483Y-99744091D01*
X170992331Y-99693796D01*
X171107546Y-99607546D01*
X171193796Y-99492331D01*
X171244091Y-99357483D01*
X171250500Y-99297873D01*
X171250499Y-97202128D01*
X171244091Y-97142517D01*
X171193796Y-97007669D01*
X171193795Y-97007668D01*
X171193793Y-97007664D01*
X171107547Y-96892455D01*
X171107544Y-96892452D01*
X170992335Y-96806206D01*
X170992328Y-96806202D01*
X170857482Y-96755908D01*
X170857483Y-96755908D01*
X170797883Y-96749501D01*
X170797881Y-96749500D01*
X170797873Y-96749500D01*
X170797864Y-96749500D01*
X168702129Y-96749500D01*
X168702123Y-96749501D01*
X168642516Y-96755908D01*
X168507671Y-96806202D01*
X168507664Y-96806206D01*
X168392455Y-96892452D01*
X168392452Y-96892455D01*
X168306206Y-97007664D01*
X168306202Y-97007671D01*
X168255908Y-97142517D01*
X168249501Y-97202116D01*
X168249501Y-97202123D01*
X168249500Y-97202135D01*
X161525975Y-97202135D01*
X161525979Y-97202116D01*
X161531450Y-97174615D01*
X161531450Y-97174614D01*
X161550500Y-97078844D01*
X161550500Y-96921155D01*
X161550499Y-96921153D01*
X161527634Y-96806204D01*
X161519737Y-96766503D01*
X161515349Y-96755909D01*
X161459397Y-96620827D01*
X161459390Y-96620814D01*
X161371789Y-96489711D01*
X161371786Y-96489707D01*
X161260292Y-96378213D01*
X161260288Y-96378210D01*
X161129185Y-96290609D01*
X161129172Y-96290602D01*
X160983501Y-96230264D01*
X160983489Y-96230261D01*
X160828845Y-96199500D01*
X160828842Y-96199500D01*
X160671158Y-96199500D01*
X160671155Y-96199500D01*
X160516510Y-96230261D01*
X160516498Y-96230264D01*
X160370827Y-96290602D01*
X160370814Y-96290609D01*
X160239125Y-96378602D01*
X160172447Y-96399480D01*
X160170234Y-96399500D01*
X155300097Y-96399500D01*
X155233058Y-96379815D01*
X155212416Y-96363181D01*
X153536819Y-94687584D01*
X153503334Y-94626261D01*
X153500500Y-94599903D01*
X153500500Y-93417847D01*
X153520185Y-93350808D01*
X153572989Y-93305053D01*
X153600309Y-93296230D01*
X153616291Y-93293050D01*
X153733497Y-93269737D01*
X153879179Y-93209394D01*
X153920324Y-93181902D01*
X154010875Y-93121398D01*
X154077553Y-93100520D01*
X154079766Y-93100500D01*
X155913331Y-93100500D01*
X155913347Y-93100501D01*
X155920943Y-93100501D01*
X156079054Y-93100501D01*
X156079057Y-93100501D01*
X156231785Y-93059577D01*
X156281904Y-93030639D01*
X156368716Y-92980520D01*
X156480520Y-92868716D01*
X156480520Y-92868714D01*
X156490728Y-92858507D01*
X156490729Y-92858504D01*
X160490243Y-88858992D01*
X161249500Y-88858992D01*
X161249500Y-89061007D01*
X161288907Y-89259119D01*
X161288909Y-89259127D01*
X161366213Y-89445755D01*
X161419904Y-89526109D01*
X161440782Y-89592787D01*
X161422297Y-89660167D01*
X161419904Y-89663891D01*
X161366213Y-89744244D01*
X161288909Y-89930872D01*
X161288907Y-89930880D01*
X161249500Y-90128992D01*
X161249500Y-90331007D01*
X161288907Y-90529119D01*
X161288909Y-90529127D01*
X161322325Y-90609800D01*
X161329794Y-90679270D01*
X161310038Y-90724660D01*
X161310454Y-90724887D01*
X161307919Y-90729528D01*
X161307037Y-90731556D01*
X161306206Y-90732665D01*
X161306202Y-90732672D01*
X161255908Y-90867517D01*
X161249501Y-90927116D01*
X161249501Y-90927123D01*
X161249500Y-90927135D01*
X161249500Y-92072870D01*
X161249501Y-92072876D01*
X161255908Y-92132483D01*
X161306202Y-92267328D01*
X161306206Y-92267335D01*
X161392452Y-92382544D01*
X161392455Y-92382547D01*
X161507664Y-92468793D01*
X161507671Y-92468797D01*
X161642517Y-92519091D01*
X161642516Y-92519091D01*
X161649444Y-92519835D01*
X161702127Y-92525500D01*
X163297872Y-92525499D01*
X163357483Y-92519091D01*
X163492331Y-92468796D01*
X163607546Y-92382546D01*
X163693796Y-92267331D01*
X163744091Y-92132483D01*
X163750500Y-92072873D01*
X163750499Y-90927128D01*
X163744091Y-90867517D01*
X163723452Y-90812182D01*
X163693797Y-90732671D01*
X163693796Y-90732670D01*
X163693796Y-90732669D01*
X163692967Y-90731562D01*
X163692485Y-90730268D01*
X163689546Y-90724886D01*
X163690319Y-90724463D01*
X163668551Y-90666099D01*
X163677675Y-90609798D01*
X163681527Y-90600500D01*
X163711091Y-90529127D01*
X163750500Y-90331003D01*
X163750500Y-90128997D01*
X163711091Y-89930873D01*
X163633786Y-89744244D01*
X163580094Y-89663889D01*
X163559217Y-89597214D01*
X163577701Y-89529834D01*
X163580078Y-89526134D01*
X163633786Y-89445756D01*
X163711091Y-89259127D01*
X163750500Y-89061003D01*
X163750500Y-88858997D01*
X163711091Y-88660873D01*
X163633786Y-88474244D01*
X163633784Y-88474241D01*
X163633782Y-88474237D01*
X163521558Y-88306281D01*
X163378718Y-88163441D01*
X163210762Y-88051217D01*
X163210752Y-88051212D01*
X163024127Y-87973909D01*
X163024119Y-87973907D01*
X162826007Y-87934500D01*
X162826003Y-87934500D01*
X162173997Y-87934500D01*
X162173992Y-87934500D01*
X161975880Y-87973907D01*
X161975872Y-87973909D01*
X161789247Y-88051212D01*
X161789237Y-88051217D01*
X161621281Y-88163441D01*
X161478441Y-88306281D01*
X161366217Y-88474237D01*
X161366212Y-88474247D01*
X161288909Y-88660872D01*
X161288907Y-88660880D01*
X161249500Y-88858992D01*
X160490243Y-88858992D01*
X163230520Y-86118716D01*
X163309577Y-85981784D01*
X163350501Y-85829057D01*
X163350501Y-85670942D01*
X163350501Y-85663347D01*
X163350500Y-85663329D01*
X163350500Y-81841519D01*
X163370185Y-81774480D01*
X163386814Y-81753842D01*
X163505472Y-81635185D01*
X163593478Y-81489606D01*
X163644086Y-81327196D01*
X163646363Y-81302135D01*
X164874500Y-81302135D01*
X164874500Y-83197870D01*
X164874501Y-83197876D01*
X164880908Y-83257483D01*
X164931202Y-83392328D01*
X164931206Y-83392335D01*
X165017452Y-83507544D01*
X165017455Y-83507547D01*
X165132664Y-83593793D01*
X165132671Y-83593797D01*
X165183446Y-83612735D01*
X165239380Y-83654606D01*
X165263797Y-83720070D01*
X165248945Y-83788343D01*
X165227796Y-83816596D01*
X165206757Y-83837635D01*
X165206752Y-83837641D01*
X165077187Y-84015974D01*
X164977104Y-84212393D01*
X164977103Y-84212396D01*
X164908985Y-84422047D01*
X164874500Y-84639778D01*
X164874500Y-84860221D01*
X164908985Y-85077952D01*
X164977103Y-85287603D01*
X164977104Y-85287606D01*
X165077187Y-85484025D01*
X165206752Y-85662358D01*
X165206756Y-85662363D01*
X165362636Y-85818243D01*
X165362641Y-85818247D01*
X165474727Y-85899682D01*
X165517393Y-85955011D01*
X165523372Y-86024625D01*
X165490767Y-86086420D01*
X165474727Y-86100318D01*
X165362641Y-86181752D01*
X165362636Y-86181756D01*
X165206756Y-86337636D01*
X165206752Y-86337641D01*
X165077187Y-86515974D01*
X164977104Y-86712393D01*
X164977103Y-86712396D01*
X164908985Y-86922047D01*
X164874500Y-87139778D01*
X164874500Y-87360221D01*
X164908985Y-87577952D01*
X164977103Y-87787603D01*
X164977104Y-87787606D01*
X165003322Y-87839060D01*
X165072032Y-87973909D01*
X165077187Y-87984025D01*
X165206752Y-88162358D01*
X165206756Y-88162363D01*
X165362636Y-88318243D01*
X165362641Y-88318247D01*
X165508203Y-88424003D01*
X165540978Y-88447815D01*
X165669375Y-88513237D01*
X165737393Y-88547895D01*
X165737396Y-88547896D01*
X165842221Y-88581955D01*
X165947049Y-88616015D01*
X166164778Y-88650500D01*
X166164779Y-88650500D01*
X166385221Y-88650500D01*
X166385222Y-88650500D01*
X166602951Y-88616015D01*
X166812606Y-88547895D01*
X167009022Y-88447815D01*
X167017072Y-88441966D01*
X172274500Y-88441966D01*
X172274500Y-90558028D01*
X172274501Y-90558034D01*
X172285113Y-90677415D01*
X172341089Y-90873045D01*
X172341090Y-90873048D01*
X172341091Y-90873049D01*
X172435302Y-91053407D01*
X172435304Y-91053409D01*
X172563890Y-91211109D01*
X172631820Y-91266498D01*
X172721593Y-91339698D01*
X172901951Y-91433909D01*
X173097582Y-91489886D01*
X173216963Y-91500500D01*
X174333036Y-91500499D01*
X174452418Y-91489886D01*
X174648049Y-91433909D01*
X174828407Y-91339698D01*
X174986109Y-91211109D01*
X175114698Y-91053407D01*
X175208909Y-90873049D01*
X175264886Y-90677418D01*
X175275500Y-90558037D01*
X175275499Y-88441964D01*
X175264886Y-88322582D01*
X175208909Y-88126951D01*
X175114698Y-87946593D01*
X175040408Y-87855483D01*
X174986109Y-87788890D01*
X174828409Y-87660304D01*
X174828410Y-87660304D01*
X174828407Y-87660302D01*
X174648049Y-87566091D01*
X174648048Y-87566090D01*
X174648045Y-87566089D01*
X174530829Y-87532550D01*
X174452418Y-87510114D01*
X174452415Y-87510113D01*
X174452413Y-87510113D01*
X174386102Y-87504217D01*
X174333037Y-87499500D01*
X174333032Y-87499500D01*
X173216971Y-87499500D01*
X173216965Y-87499500D01*
X173216964Y-87499501D01*
X173205316Y-87500536D01*
X173097584Y-87510113D01*
X172901954Y-87566089D01*
X172879246Y-87577951D01*
X172721593Y-87660302D01*
X172721591Y-87660303D01*
X172721590Y-87660304D01*
X172563890Y-87788890D01*
X172435304Y-87946590D01*
X172435302Y-87946593D01*
X172388196Y-88036772D01*
X172341089Y-88126954D01*
X172316307Y-88213566D01*
X172286355Y-88318247D01*
X172285114Y-88322583D01*
X172285113Y-88322586D01*
X172274500Y-88441966D01*
X167017072Y-88441966D01*
X167089973Y-88389000D01*
X167158938Y-88338896D01*
X167158939Y-88338895D01*
X167187361Y-88318245D01*
X167187361Y-88318244D01*
X167187365Y-88318242D01*
X167343242Y-88162365D01*
X167472815Y-87984022D01*
X167572895Y-87787606D01*
X167641015Y-87577951D01*
X167675500Y-87360222D01*
X167675500Y-87139778D01*
X167641015Y-86922049D01*
X167572895Y-86712394D01*
X167572895Y-86712393D01*
X167526727Y-86621786D01*
X167472815Y-86515978D01*
X167373430Y-86379185D01*
X167343247Y-86337641D01*
X167343243Y-86337636D01*
X167187365Y-86181758D01*
X167187357Y-86181752D01*
X167075270Y-86100317D01*
X167032606Y-86044989D01*
X167026627Y-85975376D01*
X167059232Y-85913580D01*
X167075265Y-85899686D01*
X167187365Y-85818242D01*
X167343242Y-85662365D01*
X167472815Y-85484022D01*
X167572895Y-85287606D01*
X167641015Y-85077951D01*
X167675500Y-84860222D01*
X167675500Y-84639778D01*
X167641015Y-84422049D01*
X167572895Y-84212394D01*
X167572895Y-84212393D01*
X167538237Y-84144375D01*
X167472815Y-84015978D01*
X167456260Y-83993192D01*
X167343247Y-83837641D01*
X167343243Y-83837636D01*
X167322205Y-83816598D01*
X167288720Y-83755275D01*
X167293704Y-83685583D01*
X167335576Y-83629650D01*
X167366554Y-83612735D01*
X167417326Y-83593798D01*
X167417326Y-83593797D01*
X167417331Y-83593796D01*
X167532546Y-83507546D01*
X167618796Y-83392331D01*
X167669091Y-83257483D01*
X167675500Y-83197873D01*
X167675499Y-81302128D01*
X167669091Y-81242517D01*
X167643943Y-81175093D01*
X167618797Y-81107671D01*
X167618793Y-81107664D01*
X167532547Y-80992455D01*
X167532544Y-80992452D01*
X167417335Y-80906206D01*
X167417328Y-80906202D01*
X167282482Y-80855908D01*
X167282483Y-80855908D01*
X167222883Y-80849501D01*
X167222881Y-80849500D01*
X167222873Y-80849500D01*
X167222864Y-80849500D01*
X165327129Y-80849500D01*
X165327123Y-80849501D01*
X165267516Y-80855908D01*
X165132671Y-80906202D01*
X165132664Y-80906206D01*
X165017455Y-80992452D01*
X165017452Y-80992455D01*
X164931206Y-81107664D01*
X164931202Y-81107671D01*
X164880908Y-81242517D01*
X164874501Y-81302116D01*
X164874501Y-81302123D01*
X164874500Y-81302135D01*
X163646363Y-81302135D01*
X163650500Y-81256616D01*
X163650500Y-80243384D01*
X163644086Y-80172804D01*
X163593478Y-80010394D01*
X163505472Y-79864815D01*
X163505470Y-79864813D01*
X163505469Y-79864811D01*
X163385188Y-79744530D01*
X163314820Y-79701991D01*
X163239606Y-79656522D01*
X163077196Y-79605914D01*
X163077194Y-79605913D01*
X163077192Y-79605913D01*
X163027778Y-79601423D01*
X163006616Y-79599500D01*
X162493384Y-79599500D01*
X162474145Y-79601248D01*
X162422807Y-79605913D01*
X162260391Y-79656523D01*
X162116875Y-79743281D01*
X162049321Y-79761117D01*
X161983834Y-79740265D01*
X161926555Y-79701991D01*
X161926540Y-79701983D01*
X161762667Y-79634106D01*
X161762658Y-79634103D01*
X161588694Y-79599500D01*
X161588691Y-79599500D01*
X161411309Y-79599500D01*
X161411306Y-79599500D01*
X161237341Y-79634103D01*
X161237332Y-79634106D01*
X161073459Y-79701983D01*
X161073446Y-79701990D01*
X160925965Y-79800535D01*
X160925961Y-79800538D01*
X160800538Y-79925961D01*
X160800535Y-79925965D01*
X160701990Y-80073446D01*
X160701983Y-80073459D01*
X160634106Y-80237332D01*
X160634103Y-80237341D01*
X160599500Y-80411304D01*
X160599500Y-81088695D01*
X160634103Y-81262658D01*
X160634106Y-81262667D01*
X160701983Y-81426540D01*
X160701990Y-81426553D01*
X160800534Y-81574033D01*
X160800535Y-81574034D01*
X160800536Y-81574035D01*
X160863182Y-81636681D01*
X160896666Y-81698002D01*
X160899500Y-81724361D01*
X160899500Y-84949903D01*
X160879815Y-85016942D01*
X160863181Y-85037584D01*
X156537584Y-89363181D01*
X156476261Y-89396666D01*
X156449903Y-89399500D01*
X154079766Y-89399500D01*
X154012727Y-89379815D01*
X154010875Y-89378602D01*
X153879185Y-89290609D01*
X153879172Y-89290602D01*
X153733501Y-89230264D01*
X153733491Y-89230261D01*
X153600308Y-89203769D01*
X153538397Y-89171384D01*
X153503823Y-89110668D01*
X153500500Y-89082152D01*
X153500500Y-86917847D01*
X153520185Y-86850808D01*
X153572989Y-86805053D01*
X153600309Y-86796230D01*
X153616291Y-86793050D01*
X153733497Y-86769737D01*
X153846166Y-86723067D01*
X153879172Y-86709397D01*
X153879172Y-86709396D01*
X153879179Y-86709394D01*
X154010289Y-86621789D01*
X154121789Y-86510289D01*
X154209394Y-86379179D01*
X154269737Y-86233497D01*
X154300500Y-86078842D01*
X154300500Y-85921158D01*
X154300500Y-85921155D01*
X154300499Y-85921153D01*
X154282179Y-85829055D01*
X154269737Y-85766503D01*
X154254833Y-85730521D01*
X154209397Y-85620827D01*
X154209390Y-85620814D01*
X154121789Y-85489711D01*
X154121786Y-85489707D01*
X154010292Y-85378213D01*
X154010288Y-85378210D01*
X153879185Y-85290609D01*
X153879172Y-85290602D01*
X153733501Y-85230264D01*
X153733489Y-85230261D01*
X153578845Y-85199500D01*
X153578842Y-85199500D01*
X153421158Y-85199500D01*
X153421155Y-85199500D01*
X153266510Y-85230261D01*
X153260676Y-85232031D01*
X153259873Y-85229385D01*
X153202056Y-85235396D01*
X153139687Y-85203902D01*
X153104245Y-85143689D01*
X153100500Y-85113444D01*
X153100500Y-81839060D01*
X153100501Y-81839047D01*
X153100501Y-81670944D01*
X153100501Y-81670943D01*
X153059577Y-81518216D01*
X153043059Y-81489606D01*
X152980524Y-81381290D01*
X152980518Y-81381282D01*
X152774329Y-81175093D01*
X152740844Y-81113770D01*
X152745828Y-81044078D01*
X152787700Y-80988145D01*
X152842615Y-80964939D01*
X152851368Y-80963553D01*
X153075992Y-80890568D01*
X153286433Y-80783343D01*
X153477510Y-80644517D01*
X153644517Y-80477510D01*
X153649682Y-80470401D01*
X153705012Y-80427735D01*
X153774625Y-80421756D01*
X153836420Y-80454362D01*
X153850318Y-80470401D01*
X153855483Y-80477510D01*
X154022490Y-80644517D01*
X154213567Y-80783343D01*
X154312991Y-80834002D01*
X154424003Y-80890566D01*
X154424005Y-80890566D01*
X154424008Y-80890568D01*
X154544412Y-80929689D01*
X154648631Y-80963553D01*
X154881903Y-81000500D01*
X154881908Y-81000500D01*
X155118097Y-81000500D01*
X155351368Y-80963553D01*
X155351374Y-80963551D01*
X155575992Y-80890568D01*
X155786433Y-80783343D01*
X155977510Y-80644517D01*
X156144517Y-80477510D01*
X156283343Y-80286433D01*
X156390568Y-80075992D01*
X156463553Y-79851368D01*
X156472570Y-79794436D01*
X156500500Y-79618097D01*
X156500500Y-79381902D01*
X156463553Y-79148631D01*
X156407959Y-78977533D01*
X156396404Y-78941971D01*
X156396402Y-78941966D01*
X172274500Y-78941966D01*
X172274500Y-81058028D01*
X172274501Y-81058034D01*
X172285113Y-81177415D01*
X172341089Y-81373045D01*
X172341090Y-81373048D01*
X172341091Y-81373049D01*
X172435302Y-81553407D01*
X172435304Y-81553409D01*
X172563890Y-81711109D01*
X172624209Y-81760292D01*
X172721593Y-81839698D01*
X172901951Y-81933909D01*
X173097582Y-81989886D01*
X173216963Y-82000500D01*
X174333036Y-82000499D01*
X174452418Y-81989886D01*
X174648049Y-81933909D01*
X174828407Y-81839698D01*
X174986109Y-81711109D01*
X175114698Y-81553407D01*
X175208909Y-81373049D01*
X175264886Y-81177418D01*
X175275500Y-81058037D01*
X175275499Y-78941964D01*
X175264886Y-78822582D01*
X175208909Y-78626951D01*
X175114698Y-78446593D01*
X175040408Y-78355483D01*
X174986109Y-78288890D01*
X174828409Y-78160304D01*
X174828410Y-78160304D01*
X174828407Y-78160302D01*
X174648049Y-78066091D01*
X174648048Y-78066090D01*
X174648045Y-78066089D01*
X174530829Y-78032550D01*
X174452418Y-78010114D01*
X174452415Y-78010113D01*
X174452413Y-78010113D01*
X174386102Y-78004217D01*
X174333037Y-77999500D01*
X174333032Y-77999500D01*
X173216971Y-77999500D01*
X173216965Y-77999500D01*
X173216964Y-77999501D01*
X173205316Y-78000536D01*
X173097584Y-78010113D01*
X172901954Y-78066089D01*
X172818979Y-78109432D01*
X172721593Y-78160302D01*
X172721591Y-78160303D01*
X172721590Y-78160304D01*
X172563890Y-78288890D01*
X172435304Y-78446590D01*
X172341089Y-78626954D01*
X172285114Y-78822583D01*
X172285113Y-78822586D01*
X172274500Y-78941966D01*
X156396402Y-78941966D01*
X156390568Y-78924008D01*
X156390566Y-78924005D01*
X156390566Y-78924003D01*
X156283342Y-78713566D01*
X156144517Y-78522490D01*
X155977510Y-78355483D01*
X155786433Y-78216657D01*
X155575996Y-78109433D01*
X155351368Y-78036446D01*
X155118097Y-77999500D01*
X155118092Y-77999500D01*
X154881908Y-77999500D01*
X154881903Y-77999500D01*
X154648631Y-78036446D01*
X154424003Y-78109433D01*
X154213566Y-78216657D01*
X154114147Y-78288890D01*
X154022490Y-78355483D01*
X154022488Y-78355485D01*
X154022487Y-78355485D01*
X153855482Y-78522490D01*
X153850315Y-78529603D01*
X153794983Y-78572266D01*
X153725370Y-78578242D01*
X153663576Y-78545634D01*
X153649685Y-78529603D01*
X153644517Y-78522490D01*
X153477512Y-78355485D01*
X153477510Y-78355483D01*
X153286433Y-78216657D01*
X153075996Y-78109433D01*
X152851368Y-78036446D01*
X152618097Y-77999500D01*
X152618092Y-77999500D01*
X152381908Y-77999500D01*
X152381903Y-77999500D01*
X152148631Y-78036446D01*
X151924003Y-78109433D01*
X151713566Y-78216657D01*
X151614147Y-78288890D01*
X151522490Y-78355483D01*
X151522488Y-78355485D01*
X151522487Y-78355485D01*
X151355482Y-78522490D01*
X151350315Y-78529603D01*
X151294983Y-78572266D01*
X151225370Y-78578242D01*
X151163576Y-78545634D01*
X151149685Y-78529603D01*
X151144517Y-78522490D01*
X150977512Y-78355485D01*
X150977510Y-78355483D01*
X150786433Y-78216657D01*
X150575996Y-78109433D01*
X150351368Y-78036446D01*
X150118097Y-77999500D01*
X150118092Y-77999500D01*
X149881908Y-77999500D01*
X149881903Y-77999500D01*
X149648631Y-78036446D01*
X149424003Y-78109433D01*
X149213566Y-78216657D01*
X149114147Y-78288890D01*
X149022490Y-78355483D01*
X149022488Y-78355485D01*
X149022487Y-78355485D01*
X148855485Y-78522487D01*
X148855485Y-78522488D01*
X148855483Y-78522490D01*
X148838668Y-78545634D01*
X148716657Y-78713566D01*
X148609433Y-78924003D01*
X148536446Y-79148631D01*
X148499500Y-79381902D01*
X148499500Y-79618097D01*
X148536446Y-79851368D01*
X148609433Y-80075996D01*
X148691639Y-80237332D01*
X148716657Y-80286433D01*
X148855483Y-80477510D01*
X149022490Y-80644517D01*
X149213567Y-80783343D01*
X149312991Y-80834002D01*
X149424003Y-80890566D01*
X149424005Y-80890566D01*
X149424008Y-80890568D01*
X149544412Y-80929689D01*
X149648631Y-80963553D01*
X149881903Y-81000500D01*
X149881908Y-81000500D01*
X150118096Y-81000500D01*
X150202217Y-80987175D01*
X150319607Y-80968583D01*
X150388898Y-80977537D01*
X150442350Y-81022533D01*
X150462990Y-81089285D01*
X150460621Y-81115246D01*
X150449500Y-81171158D01*
X150449500Y-81328846D01*
X150480261Y-81483489D01*
X150480264Y-81483501D01*
X150540602Y-81629172D01*
X150540609Y-81629185D01*
X150628210Y-81760288D01*
X150628213Y-81760292D01*
X150739707Y-81871786D01*
X150739711Y-81871789D01*
X150870814Y-81959390D01*
X150870827Y-81959397D01*
X150970060Y-82000500D01*
X151016503Y-82019737D01*
X151169132Y-82050097D01*
X151171153Y-82050499D01*
X151171156Y-82050500D01*
X151171158Y-82050500D01*
X151328844Y-82050500D01*
X151328845Y-82050499D01*
X151483497Y-82019737D01*
X151629179Y-81959394D01*
X151683028Y-81923412D01*
X151749702Y-81902535D01*
X151817083Y-81921018D01*
X151839599Y-81938834D01*
X151863181Y-81962416D01*
X151896666Y-82023739D01*
X151899500Y-82050097D01*
X151899500Y-84575500D01*
X151879815Y-84642539D01*
X151827011Y-84688294D01*
X151775500Y-84699500D01*
X151671155Y-84699500D01*
X151516510Y-84730261D01*
X151516498Y-84730264D01*
X151370827Y-84790602D01*
X151370814Y-84790609D01*
X151239711Y-84878210D01*
X151239707Y-84878213D01*
X151128213Y-84989707D01*
X151128210Y-84989711D01*
X151040609Y-85120814D01*
X151040602Y-85120827D01*
X150980264Y-85266498D01*
X150980261Y-85266510D01*
X150949500Y-85421153D01*
X150949500Y-85578846D01*
X150980261Y-85733489D01*
X150980264Y-85733501D01*
X151040602Y-85879172D01*
X151040609Y-85879185D01*
X151128602Y-86010874D01*
X151149480Y-86077551D01*
X151149500Y-86079765D01*
X151149500Y-102599430D01*
X151129815Y-102666469D01*
X151077011Y-102712224D01*
X151007853Y-102722168D01*
X150944297Y-102693143D01*
X150937819Y-102687111D01*
X149136819Y-100886111D01*
X149103334Y-100824788D01*
X149100500Y-100798430D01*
X149100500Y-87839060D01*
X149100501Y-87839047D01*
X149100501Y-87670944D01*
X149097650Y-87660304D01*
X149059577Y-87518216D01*
X149048772Y-87499501D01*
X148980524Y-87381290D01*
X148980518Y-87381282D01*
X147084573Y-85485337D01*
X147051088Y-85424014D01*
X147050637Y-85421847D01*
X147024531Y-85290606D01*
X147019737Y-85266503D01*
X147006852Y-85235396D01*
X146959397Y-85120827D01*
X146959390Y-85120814D01*
X146871789Y-84989711D01*
X146871786Y-84989707D01*
X146760292Y-84878213D01*
X146760288Y-84878210D01*
X146629185Y-84790609D01*
X146629172Y-84790602D01*
X146483501Y-84730264D01*
X146483489Y-84730261D01*
X146328845Y-84699500D01*
X146328842Y-84699500D01*
X146171158Y-84699500D01*
X146171155Y-84699500D01*
X146016510Y-84730261D01*
X146016498Y-84730264D01*
X145870827Y-84790602D01*
X145870814Y-84790609D01*
X145739711Y-84878210D01*
X145739707Y-84878213D01*
X145628213Y-84989707D01*
X145628210Y-84989711D01*
X145540609Y-85120814D01*
X145540602Y-85120827D01*
X145480264Y-85266498D01*
X145480261Y-85266510D01*
X145449500Y-85421153D01*
X145449500Y-85578846D01*
X145480261Y-85733489D01*
X145480264Y-85733501D01*
X145540602Y-85879172D01*
X145540609Y-85879185D01*
X145628210Y-86010288D01*
X145628213Y-86010292D01*
X145739707Y-86121786D01*
X145739711Y-86121789D01*
X145870814Y-86209390D01*
X145870827Y-86209397D01*
X146016498Y-86269735D01*
X146016503Y-86269737D01*
X146081147Y-86282595D01*
X146171849Y-86300638D01*
X146233760Y-86333023D01*
X146235339Y-86334574D01*
X147233636Y-87332871D01*
X147267121Y-87394194D01*
X147262137Y-87463886D01*
X147220265Y-87519819D01*
X147154801Y-87544236D01*
X147107640Y-87538484D01*
X147101373Y-87536448D01*
X147101369Y-87536447D01*
X146868097Y-87499500D01*
X146868092Y-87499500D01*
X146631908Y-87499500D01*
X146631903Y-87499500D01*
X146398631Y-87536446D01*
X146174003Y-87609433D01*
X145963566Y-87716657D01*
X145865914Y-87787606D01*
X145772490Y-87855483D01*
X145772488Y-87855485D01*
X145772487Y-87855485D01*
X145605485Y-88022487D01*
X145605485Y-88022488D01*
X145605483Y-88022490D01*
X145584614Y-88051214D01*
X145466657Y-88213566D01*
X145359433Y-88424003D01*
X145286446Y-88648631D01*
X145249500Y-88881902D01*
X145249500Y-89118097D01*
X145286447Y-89351369D01*
X145286447Y-89351372D01*
X145327450Y-89477564D01*
X145329445Y-89547405D01*
X145297200Y-89603563D01*
X144037584Y-90863181D01*
X143976261Y-90896666D01*
X143949903Y-90899500D01*
X142079766Y-90899500D01*
X142012727Y-90879815D01*
X142010875Y-90878602D01*
X141879185Y-90790609D01*
X141879172Y-90790602D01*
X141733501Y-90730264D01*
X141733489Y-90730261D01*
X141578845Y-90699500D01*
X141578842Y-90699500D01*
X141421158Y-90699500D01*
X141421155Y-90699500D01*
X141266510Y-90730261D01*
X141266498Y-90730264D01*
X141120827Y-90790602D01*
X141120814Y-90790609D01*
X140989711Y-90878210D01*
X140989707Y-90878213D01*
X140878213Y-90989707D01*
X140878210Y-90989711D01*
X140790609Y-91120814D01*
X140790602Y-91120827D01*
X140730264Y-91266498D01*
X140730261Y-91266510D01*
X140699500Y-91421153D01*
X136000500Y-91421153D01*
X136000500Y-77124500D01*
X136020185Y-77057461D01*
X136072989Y-77011706D01*
X136124500Y-77000500D01*
X179375500Y-77000500D01*
X179442539Y-77020185D01*
G37*
%TD.AperFunction*%
%TD*%
M02*
