%TF.GenerationSoftware,KiCad,Pcbnew,10.0.5-1-g226df246f3*%
%TF.CreationDate,2026-08-24T22:53:28-07:00*%
%TF.ProjectId,micro-keyer,6d696372-6f2d-46b6-9579-65722e6b6963,rev?*%
%TF.SameCoordinates,Original*%
%TF.FileFunction,Legend,Top*%
%TF.FilePolarity,Positive*%
%FSLAX46Y46*%
G04 Gerber Fmt 4.6, Leading zero omitted, Abs format (unit mm)*
G04 Created by KiCad (PCBNEW 10.0.5-1-g226df246f3) date 2026-08-24 22:53:28*
%MOMM*%
%LPD*%
G01*
G04 APERTURE LIST*
%ADD10C,0.300000*%
%ADD11C,0.150000*%
%ADD12C,0.127000*%
%ADD13C,0.120000*%
%ADD14C,0.100000*%
%ADD15C,0.504000*%
G04 APERTURE END LIST*
D10*
G36*
X142197368Y-111486694D02*
G01*
X142169101Y-111500828D01*
X141882777Y-111500828D01*
X141816314Y-111467597D01*
X141783082Y-111401133D01*
X141783082Y-111329094D01*
X141816313Y-111262631D01*
X141882777Y-111229400D01*
X142197368Y-111229400D01*
X142197368Y-111486694D01*
G37*
G36*
X143554511Y-110814962D02*
G01*
X143554511Y-111486694D01*
X143526244Y-111500828D01*
X143311349Y-111500828D01*
X143221935Y-111456121D01*
X143184930Y-111419116D01*
X143140225Y-111329704D01*
X143140225Y-110971951D01*
X143184930Y-110882540D01*
X143221935Y-110845535D01*
X143311349Y-110800828D01*
X143526243Y-110800828D01*
X143554511Y-110814962D01*
G37*
G36*
X145615658Y-110845535D02*
G01*
X145652662Y-110882539D01*
X145697368Y-110971951D01*
X145697368Y-111329704D01*
X145652661Y-111419117D01*
X145615656Y-111456122D01*
X145526244Y-111500828D01*
X145382778Y-111500828D01*
X145293364Y-111456121D01*
X145256359Y-111419116D01*
X145211654Y-111329704D01*
X145211654Y-110971951D01*
X145256359Y-110882540D01*
X145293364Y-110845535D01*
X145382778Y-110800828D01*
X145526244Y-110800828D01*
X145615658Y-110845535D01*
G37*
G36*
X140829943Y-110345535D02*
G01*
X140866947Y-110382539D01*
X140911653Y-110471951D01*
X140911653Y-110615418D01*
X140866946Y-110704831D01*
X140829941Y-110741836D01*
X140740529Y-110786542D01*
X140354510Y-110786542D01*
X140354510Y-110300828D01*
X140740529Y-110300828D01*
X140829943Y-110345535D01*
G37*
G36*
X146164035Y-111967495D02*
G01*
X139887843Y-111967495D01*
X139887843Y-110150828D01*
X140054510Y-110150828D01*
X140054510Y-111650828D01*
X140057392Y-111680092D01*
X140079790Y-111734164D01*
X140121174Y-111775548D01*
X140175246Y-111797946D01*
X140233774Y-111797946D01*
X140287846Y-111775548D01*
X140329230Y-111734164D01*
X140351628Y-111680092D01*
X140354510Y-111650828D01*
X140354510Y-111086542D01*
X140483555Y-111086542D01*
X140938768Y-111736847D01*
X140957911Y-111759169D01*
X141007268Y-111790622D01*
X141064904Y-111800793D01*
X141122046Y-111788134D01*
X141169994Y-111754570D01*
X141201447Y-111705213D01*
X141211618Y-111647577D01*
X141198959Y-111590435D01*
X141184538Y-111564809D01*
X140994751Y-111293685D01*
X141483082Y-111293685D01*
X141483082Y-111436542D01*
X141485964Y-111465806D01*
X141488026Y-111470784D01*
X141488408Y-111476160D01*
X141498918Y-111503623D01*
X141570346Y-111646482D01*
X141573425Y-111651374D01*
X141574196Y-111653685D01*
X141576691Y-111656562D01*
X141586011Y-111671367D01*
X141600217Y-111683688D01*
X141612543Y-111697900D01*
X141627347Y-111707218D01*
X141630225Y-111709714D01*
X141632536Y-111710484D01*
X141637429Y-111713564D01*
X141780287Y-111784993D01*
X141807750Y-111795502D01*
X141813125Y-111795883D01*
X141818104Y-111797946D01*
X141847368Y-111800828D01*
X142204510Y-111800828D01*
X142233774Y-111797946D01*
X142238752Y-111795883D01*
X142244128Y-111795502D01*
X142271591Y-111784992D01*
X142278496Y-111781539D01*
X142318104Y-111797946D01*
X142376632Y-111797946D01*
X142430704Y-111775548D01*
X142472088Y-111734164D01*
X142494486Y-111680092D01*
X142497368Y-111650828D01*
X142497368Y-110936542D01*
X142840225Y-110936542D01*
X142840225Y-111365114D01*
X142843107Y-111394378D01*
X142845169Y-111399356D01*
X142845551Y-111404732D01*
X142856061Y-111432196D01*
X142927489Y-111575053D01*
X142935416Y-111587646D01*
X142936932Y-111591306D01*
X142940313Y-111595425D01*
X142943154Y-111599939D01*
X142946147Y-111602535D01*
X142955587Y-111614037D01*
X143027016Y-111685466D01*
X143038520Y-111694907D01*
X143041115Y-111697899D01*
X143045624Y-111700737D01*
X143049747Y-111704121D01*
X143053408Y-111705637D01*
X143066000Y-111713564D01*
X143208858Y-111784992D01*
X143236321Y-111795502D01*
X143241696Y-111795883D01*
X143246675Y-111797946D01*
X143275939Y-111800828D01*
X143561653Y-111800828D01*
X143590917Y-111797946D01*
X143595895Y-111795883D01*
X143601271Y-111795502D01*
X143628734Y-111784992D01*
X143635639Y-111781539D01*
X143675247Y-111797946D01*
X143733775Y-111797946D01*
X143787847Y-111775548D01*
X143829231Y-111734164D01*
X143851629Y-111680092D01*
X143854511Y-111650828D01*
X143854511Y-110650828D01*
X144268796Y-110650828D01*
X144268796Y-111650828D01*
X144271678Y-111680092D01*
X144294076Y-111734164D01*
X144335460Y-111775548D01*
X144389532Y-111797946D01*
X144448060Y-111797946D01*
X144502132Y-111775548D01*
X144543516Y-111734164D01*
X144565914Y-111680092D01*
X144568796Y-111650828D01*
X144568796Y-110936542D01*
X144911654Y-110936542D01*
X144911654Y-111365114D01*
X144914536Y-111394378D01*
X144916598Y-111399356D01*
X144916980Y-111404732D01*
X144927490Y-111432196D01*
X144998918Y-111575053D01*
X145006845Y-111587646D01*
X145008361Y-111591306D01*
X145011742Y-111595425D01*
X145014583Y-111599939D01*
X145017576Y-111602535D01*
X145027016Y-111614037D01*
X145098445Y-111685466D01*
X145109949Y-111694907D01*
X145112544Y-111697899D01*
X145117053Y-111700737D01*
X145121176Y-111704121D01*
X145124837Y-111705637D01*
X145137429Y-111713564D01*
X145280287Y-111784992D01*
X145307750Y-111795502D01*
X145313125Y-111795883D01*
X145318104Y-111797946D01*
X145347368Y-111800828D01*
X145561654Y-111800828D01*
X145590918Y-111797946D01*
X145595896Y-111795883D01*
X145601272Y-111795502D01*
X145628736Y-111784992D01*
X145771593Y-111713564D01*
X145784186Y-111705636D01*
X145787846Y-111704121D01*
X145791965Y-111700739D01*
X145796479Y-111697899D01*
X145799075Y-111694905D01*
X145810577Y-111685466D01*
X145882006Y-111614037D01*
X145891447Y-111602532D01*
X145894439Y-111599938D01*
X145897277Y-111595428D01*
X145900661Y-111591306D01*
X145902177Y-111587644D01*
X145910104Y-111575053D01*
X145981532Y-111432195D01*
X145992042Y-111404732D01*
X145992423Y-111399356D01*
X145994486Y-111394378D01*
X145997368Y-111365114D01*
X145997368Y-110936542D01*
X145994486Y-110907278D01*
X145992423Y-110902299D01*
X145992042Y-110896924D01*
X145981532Y-110869461D01*
X145910104Y-110726603D01*
X145902175Y-110714008D01*
X145900660Y-110710349D01*
X145897278Y-110706228D01*
X145894439Y-110701718D01*
X145891447Y-110699123D01*
X145882005Y-110687618D01*
X145810576Y-110616190D01*
X145799076Y-110606752D01*
X145796479Y-110603758D01*
X145791962Y-110600915D01*
X145787845Y-110597536D01*
X145784188Y-110596021D01*
X145771593Y-110588093D01*
X145628736Y-110516664D01*
X145601273Y-110506155D01*
X145595898Y-110505773D01*
X145590918Y-110503710D01*
X145561654Y-110500828D01*
X145347368Y-110500828D01*
X145318104Y-110503710D01*
X145313123Y-110505773D01*
X145307749Y-110506155D01*
X145280285Y-110516664D01*
X145137429Y-110588093D01*
X145124835Y-110596020D01*
X145121176Y-110597536D01*
X145117055Y-110600917D01*
X145112543Y-110603758D01*
X145109946Y-110606751D01*
X145098446Y-110616190D01*
X145027017Y-110687618D01*
X145017577Y-110699120D01*
X145014583Y-110701717D01*
X145011741Y-110706231D01*
X145008362Y-110710349D01*
X145006846Y-110714007D01*
X144998918Y-110726603D01*
X144927490Y-110869460D01*
X144916980Y-110896924D01*
X144916598Y-110902299D01*
X144914536Y-110907278D01*
X144911654Y-110936542D01*
X144568796Y-110936542D01*
X144568796Y-110650828D01*
X144565914Y-110621564D01*
X144543516Y-110567492D01*
X144502132Y-110526108D01*
X144448060Y-110503710D01*
X144389532Y-110503710D01*
X144335460Y-110526108D01*
X144294076Y-110567492D01*
X144271678Y-110621564D01*
X144268796Y-110650828D01*
X143854511Y-110650828D01*
X143854511Y-110192995D01*
X144200250Y-110192995D01*
X144200250Y-110251521D01*
X144205594Y-110264421D01*
X144222647Y-110305592D01*
X144241302Y-110328323D01*
X144312730Y-110399751D01*
X144335460Y-110418406D01*
X144357857Y-110427682D01*
X144389532Y-110440803D01*
X144448060Y-110440803D01*
X144486294Y-110424965D01*
X144502131Y-110418406D01*
X144502135Y-110418401D01*
X144524861Y-110399752D01*
X144596290Y-110328324D01*
X144614945Y-110305593D01*
X144614946Y-110305592D01*
X144637343Y-110251520D01*
X144637343Y-110192994D01*
X144614946Y-110138922D01*
X144596291Y-110116191D01*
X144524862Y-110044762D01*
X144502131Y-110026107D01*
X144470457Y-110012987D01*
X144448060Y-110003710D01*
X144389532Y-110003710D01*
X144367135Y-110012987D01*
X144335461Y-110026107D01*
X144335460Y-110026108D01*
X144312729Y-110044763D01*
X144241301Y-110116192D01*
X144222651Y-110138917D01*
X144222647Y-110138922D01*
X144202477Y-110187619D01*
X144200250Y-110192995D01*
X143854511Y-110192995D01*
X143854511Y-110150828D01*
X143851629Y-110121564D01*
X143829231Y-110067492D01*
X143787847Y-110026108D01*
X143733775Y-110003710D01*
X143675247Y-110003710D01*
X143621175Y-110026108D01*
X143579791Y-110067492D01*
X143557393Y-110121564D01*
X143554511Y-110150828D01*
X143554511Y-110500828D01*
X143275939Y-110500828D01*
X143246675Y-110503710D01*
X143241694Y-110505773D01*
X143236320Y-110506155D01*
X143208856Y-110516664D01*
X143066000Y-110588093D01*
X143053406Y-110596020D01*
X143049747Y-110597536D01*
X143045626Y-110600917D01*
X143041114Y-110603758D01*
X143038517Y-110606751D01*
X143027017Y-110616190D01*
X142955588Y-110687618D01*
X142946148Y-110699120D01*
X142943154Y-110701717D01*
X142940312Y-110706231D01*
X142936933Y-110710349D01*
X142935417Y-110714007D01*
X142927489Y-110726603D01*
X142856061Y-110869460D01*
X142845551Y-110896924D01*
X142845169Y-110902299D01*
X142843107Y-110907278D01*
X142840225Y-110936542D01*
X142497368Y-110936542D01*
X142497368Y-110865114D01*
X142494486Y-110835850D01*
X142492422Y-110830869D01*
X142492041Y-110825495D01*
X142481532Y-110798031D01*
X142410103Y-110655175D01*
X142407022Y-110650280D01*
X142406253Y-110647973D01*
X142403760Y-110645098D01*
X142394438Y-110630289D01*
X142380228Y-110617965D01*
X142367907Y-110603758D01*
X142353101Y-110594438D01*
X142350223Y-110591942D01*
X142347911Y-110591171D01*
X142343021Y-110588093D01*
X142200164Y-110516664D01*
X142172701Y-110506155D01*
X142167326Y-110505773D01*
X142162346Y-110503710D01*
X142133082Y-110500828D01*
X141847368Y-110500828D01*
X141818104Y-110503710D01*
X141813126Y-110505771D01*
X141807749Y-110506154D01*
X141780286Y-110516664D01*
X141637428Y-110588093D01*
X141612542Y-110603758D01*
X141574196Y-110647973D01*
X141555688Y-110703495D01*
X141559836Y-110761876D01*
X141586011Y-110814225D01*
X141630226Y-110852571D01*
X141685748Y-110871079D01*
X141744129Y-110866931D01*
X141771592Y-110856421D01*
X141882778Y-110800828D01*
X142097672Y-110800828D01*
X142164136Y-110834060D01*
X142197368Y-110900524D01*
X142197368Y-110915266D01*
X142169100Y-110929400D01*
X141847368Y-110929400D01*
X141818104Y-110932282D01*
X141813125Y-110934344D01*
X141807750Y-110934726D01*
X141780287Y-110945235D01*
X141637429Y-111016664D01*
X141632535Y-111019744D01*
X141630226Y-111020514D01*
X141627350Y-111023007D01*
X141612543Y-111032328D01*
X141600218Y-111046538D01*
X141586011Y-111058860D01*
X141576690Y-111073666D01*
X141574196Y-111076543D01*
X141573425Y-111078853D01*
X141570346Y-111083746D01*
X141498918Y-111226603D01*
X141488408Y-111254067D01*
X141488026Y-111259442D01*
X141485964Y-111264421D01*
X141483082Y-111293685D01*
X140994751Y-111293685D01*
X140839586Y-111072020D01*
X140843021Y-111070706D01*
X140985878Y-110999278D01*
X140998471Y-110991350D01*
X141002131Y-110989835D01*
X141006250Y-110986453D01*
X141010764Y-110983613D01*
X141013360Y-110980619D01*
X141024862Y-110971180D01*
X141096291Y-110899751D01*
X141105732Y-110888246D01*
X141108724Y-110885652D01*
X141111562Y-110881142D01*
X141114946Y-110877020D01*
X141116462Y-110873358D01*
X141124389Y-110860767D01*
X141195817Y-110717909D01*
X141206327Y-110690446D01*
X141206708Y-110685070D01*
X141208771Y-110680092D01*
X141211653Y-110650828D01*
X141211653Y-110436542D01*
X141208771Y-110407278D01*
X141206708Y-110402299D01*
X141206327Y-110396924D01*
X141195817Y-110369461D01*
X141124389Y-110226603D01*
X141116460Y-110214008D01*
X141114945Y-110210349D01*
X141111563Y-110206228D01*
X141108724Y-110201718D01*
X141105732Y-110199123D01*
X141096290Y-110187618D01*
X141024861Y-110116190D01*
X141013361Y-110106752D01*
X141010764Y-110103758D01*
X141006247Y-110100915D01*
X141002130Y-110097536D01*
X140998473Y-110096021D01*
X140985878Y-110088093D01*
X140843021Y-110016664D01*
X140815558Y-110006155D01*
X140810183Y-110005773D01*
X140805203Y-110003710D01*
X140775939Y-110000828D01*
X140204510Y-110000828D01*
X140175246Y-110003710D01*
X140121174Y-110026108D01*
X140079790Y-110067492D01*
X140057392Y-110121564D01*
X140054510Y-110150828D01*
X139887843Y-110150828D01*
X139887843Y-109834161D01*
X146164035Y-109834161D01*
X146164035Y-111967495D01*
G37*
G36*
X143264136Y-121884060D02*
G01*
X143290311Y-121936411D01*
X142883082Y-122017857D01*
X142883082Y-121950523D01*
X142916313Y-121884060D01*
X142982778Y-121850828D01*
X143197672Y-121850828D01*
X143264136Y-121884060D01*
G37*
G36*
X144976710Y-123516317D02*
G01*
X140987843Y-123516317D01*
X140987843Y-123182066D01*
X143798545Y-123182066D01*
X143802693Y-123240446D01*
X143828868Y-123292795D01*
X143873083Y-123331142D01*
X143928605Y-123349650D01*
X143986985Y-123345502D01*
X144014449Y-123334992D01*
X144157306Y-123263564D01*
X144169899Y-123255636D01*
X144173559Y-123254121D01*
X144177678Y-123250739D01*
X144182192Y-123247899D01*
X144184788Y-123244905D01*
X144196290Y-123235466D01*
X144267719Y-123164037D01*
X144286374Y-123141306D01*
X144286730Y-123140445D01*
X144287380Y-123139780D01*
X144300925Y-123113680D01*
X144443782Y-122756536D01*
X144444568Y-122753824D01*
X144445771Y-122751278D01*
X144802914Y-121751279D01*
X144810043Y-121722750D01*
X144807136Y-121664295D01*
X144782082Y-121611403D01*
X144738693Y-121572123D01*
X144683575Y-121552438D01*
X144625120Y-121555345D01*
X144572228Y-121580399D01*
X144532948Y-121623788D01*
X144520392Y-121650378D01*
X144304510Y-122254847D01*
X144088628Y-121650378D01*
X144076072Y-121623788D01*
X144036792Y-121580399D01*
X143983900Y-121555345D01*
X143925445Y-121552438D01*
X143870327Y-121572123D01*
X143826938Y-121611403D01*
X143801884Y-121664295D01*
X143798977Y-121722750D01*
X143806106Y-121751278D01*
X144144157Y-122697822D01*
X144033815Y-122973676D01*
X144001369Y-123006122D01*
X143880285Y-123066664D01*
X143855400Y-123082329D01*
X143817053Y-123126544D01*
X143798545Y-123182066D01*
X140987843Y-123182066D01*
X140987843Y-121200828D01*
X141154510Y-121200828D01*
X141154510Y-122700828D01*
X141157392Y-122730092D01*
X141179790Y-122784164D01*
X141221174Y-122825548D01*
X141275246Y-122847946D01*
X141333774Y-122847946D01*
X141387846Y-122825548D01*
X141429230Y-122784164D01*
X141451628Y-122730092D01*
X141454510Y-122700828D01*
X141454510Y-122120103D01*
X141502566Y-122072046D01*
X142041653Y-122790828D01*
X142061517Y-122812510D01*
X142111879Y-122842329D01*
X142169816Y-122850606D01*
X142226513Y-122836081D01*
X142273335Y-122800964D01*
X142303154Y-122750603D01*
X142311431Y-122692665D01*
X142296906Y-122635969D01*
X142281653Y-122610828D01*
X141759867Y-121915114D01*
X142583082Y-121915114D01*
X142583082Y-122486542D01*
X142585964Y-122515806D01*
X142588026Y-122520784D01*
X142588408Y-122526160D01*
X142598918Y-122553623D01*
X142670346Y-122696482D01*
X142673425Y-122701374D01*
X142674196Y-122703685D01*
X142676691Y-122706562D01*
X142686011Y-122721367D01*
X142700217Y-122733688D01*
X142712543Y-122747900D01*
X142727347Y-122757218D01*
X142730225Y-122759714D01*
X142732536Y-122760484D01*
X142737429Y-122763564D01*
X142880287Y-122834993D01*
X142907750Y-122845502D01*
X142913125Y-122845883D01*
X142918104Y-122847946D01*
X142947368Y-122850828D01*
X143233082Y-122850828D01*
X143262346Y-122847946D01*
X143267324Y-122845883D01*
X143272700Y-122845502D01*
X143300164Y-122834992D01*
X143443021Y-122763564D01*
X143467907Y-122747899D01*
X143506253Y-122703684D01*
X143524761Y-122648162D01*
X143520613Y-122589782D01*
X143494439Y-122537433D01*
X143450224Y-122499086D01*
X143394701Y-122480578D01*
X143336321Y-122484726D01*
X143308858Y-122495236D01*
X143197672Y-122550828D01*
X142982777Y-122550828D01*
X142916314Y-122517597D01*
X142883082Y-122451133D01*
X142883082Y-122323798D01*
X143476631Y-122205089D01*
X143476632Y-122205089D01*
X143476632Y-122205088D01*
X143476786Y-122205058D01*
X143504916Y-122196493D01*
X143517127Y-122188314D01*
X143530704Y-122182691D01*
X143541205Y-122172189D01*
X143553546Y-122163925D01*
X143561698Y-122151697D01*
X143572088Y-122141307D01*
X143577770Y-122127587D01*
X143586010Y-122115229D01*
X143588862Y-122100811D01*
X143594486Y-122087235D01*
X143597368Y-122057971D01*
X143597368Y-122057819D01*
X143597369Y-122057814D01*
X143597368Y-122057809D01*
X143597368Y-121915114D01*
X143594486Y-121885850D01*
X143592422Y-121880869D01*
X143592041Y-121875495D01*
X143581532Y-121848031D01*
X143510103Y-121705175D01*
X143507022Y-121700280D01*
X143506253Y-121697973D01*
X143503760Y-121695098D01*
X143494438Y-121680289D01*
X143480228Y-121667965D01*
X143467907Y-121653758D01*
X143453101Y-121644438D01*
X143450223Y-121641942D01*
X143447911Y-121641171D01*
X143443021Y-121638093D01*
X143300164Y-121566664D01*
X143272701Y-121556155D01*
X143267326Y-121555773D01*
X143262346Y-121553710D01*
X143233082Y-121550828D01*
X142947368Y-121550828D01*
X142918104Y-121553710D01*
X142913126Y-121555771D01*
X142907749Y-121556154D01*
X142880286Y-121566664D01*
X142737428Y-121638093D01*
X142732533Y-121641173D01*
X142730226Y-121641943D01*
X142727351Y-121644435D01*
X142712542Y-121653758D01*
X142700219Y-121667966D01*
X142686011Y-121680289D01*
X142676688Y-121695098D01*
X142674196Y-121697973D01*
X142673426Y-121700280D01*
X142670346Y-121705175D01*
X142598918Y-121848032D01*
X142588408Y-121875496D01*
X142588026Y-121880871D01*
X142585964Y-121885850D01*
X142583082Y-121915114D01*
X141759867Y-121915114D01*
X141716852Y-121857760D01*
X142267719Y-121306894D01*
X142286374Y-121284164D01*
X142308771Y-121230091D01*
X142308771Y-121171565D01*
X142286374Y-121117493D01*
X142244988Y-121076107D01*
X142190916Y-121053710D01*
X142132390Y-121053710D01*
X142078317Y-121076107D01*
X142055587Y-121094762D01*
X141454510Y-121695839D01*
X141454510Y-121200828D01*
X141451628Y-121171564D01*
X141429230Y-121117492D01*
X141387846Y-121076108D01*
X141333774Y-121053710D01*
X141275246Y-121053710D01*
X141221174Y-121076108D01*
X141179790Y-121117492D01*
X141157392Y-121171564D01*
X141154510Y-121200828D01*
X140987843Y-121200828D01*
X140987843Y-120887043D01*
X144976710Y-120887043D01*
X144976710Y-123516317D01*
G37*
X160454510Y-80179400D02*
X161597368Y-80179400D01*
X162304510Y-80129400D02*
X163447368Y-80129400D01*
X162875939Y-80700828D02*
X162875939Y-79557971D01*
G36*
X168940225Y-110964962D02*
G01*
X168940225Y-111636694D01*
X168911958Y-111650828D01*
X168697063Y-111650828D01*
X168607649Y-111606121D01*
X168570644Y-111569116D01*
X168525939Y-111479704D01*
X168525939Y-111121951D01*
X168570644Y-111032540D01*
X168607649Y-110995535D01*
X168697063Y-110950828D01*
X168911957Y-110950828D01*
X168940225Y-110964962D01*
G37*
G36*
X171001372Y-110995535D02*
G01*
X171038376Y-111032539D01*
X171083082Y-111121951D01*
X171083082Y-111479704D01*
X171038375Y-111569117D01*
X171001370Y-111606122D01*
X170911958Y-111650828D01*
X170768492Y-111650828D01*
X170679078Y-111606121D01*
X170642073Y-111569116D01*
X170597368Y-111479704D01*
X170597368Y-111121951D01*
X170642073Y-111032540D01*
X170679078Y-110995535D01*
X170768492Y-110950828D01*
X170911958Y-110950828D01*
X171001372Y-110995535D01*
G37*
G36*
X173644228Y-110495535D02*
G01*
X173740494Y-110591801D01*
X173797368Y-110819292D01*
X173797368Y-111282363D01*
X173740494Y-111509854D01*
X173644227Y-111606122D01*
X173554815Y-111650828D01*
X173339921Y-111650828D01*
X173250507Y-111606121D01*
X173154240Y-111509854D01*
X173097368Y-111282364D01*
X173097368Y-110819291D01*
X173154240Y-110591802D01*
X173250507Y-110495534D01*
X173339921Y-110450828D01*
X173554815Y-110450828D01*
X173644228Y-110495535D01*
G37*
G36*
X166239255Y-111222257D02*
G01*
X165941196Y-111222257D01*
X166090225Y-110775169D01*
X166239255Y-111222257D01*
G37*
G36*
X176618296Y-112117495D02*
G01*
X165274736Y-112117495D01*
X165274736Y-111782067D01*
X165441403Y-111782067D01*
X165445552Y-111840448D01*
X165471726Y-111892795D01*
X165515940Y-111931142D01*
X165571464Y-111949650D01*
X165629845Y-111945501D01*
X165682192Y-111919327D01*
X165720539Y-111875113D01*
X165732527Y-111848262D01*
X165841196Y-111522257D01*
X166339255Y-111522257D01*
X166447923Y-111848262D01*
X166459911Y-111875113D01*
X166498258Y-111919328D01*
X166550606Y-111945501D01*
X166608986Y-111949651D01*
X166664510Y-111931142D01*
X166708724Y-111892795D01*
X166734898Y-111840448D01*
X166739048Y-111782068D01*
X166732528Y-111753394D01*
X166415005Y-110800828D01*
X166940224Y-110800828D01*
X166940224Y-111586542D01*
X166943106Y-111615806D01*
X166945167Y-111620783D01*
X166945550Y-111626161D01*
X166956060Y-111653624D01*
X167027489Y-111796482D01*
X167030569Y-111801376D01*
X167031339Y-111803684D01*
X167033831Y-111806557D01*
X167043154Y-111821368D01*
X167057365Y-111833692D01*
X167069686Y-111847899D01*
X167084493Y-111857220D01*
X167087369Y-111859714D01*
X167089677Y-111860483D01*
X167094571Y-111863564D01*
X167237429Y-111934992D01*
X167264892Y-111945502D01*
X167270267Y-111945883D01*
X167275246Y-111947946D01*
X167304510Y-111950828D01*
X167518796Y-111950828D01*
X167548060Y-111947946D01*
X167553038Y-111945883D01*
X167558414Y-111945502D01*
X167585878Y-111934992D01*
X167634752Y-111910554D01*
X167649746Y-111925548D01*
X167703818Y-111947946D01*
X167762346Y-111947946D01*
X167816418Y-111925548D01*
X167857802Y-111884164D01*
X167880200Y-111830092D01*
X167883082Y-111800828D01*
X167883082Y-111086542D01*
X168225939Y-111086542D01*
X168225939Y-111515114D01*
X168228821Y-111544378D01*
X168230883Y-111549356D01*
X168231265Y-111554732D01*
X168241775Y-111582196D01*
X168313203Y-111725053D01*
X168321130Y-111737646D01*
X168322646Y-111741306D01*
X168326027Y-111745425D01*
X168328868Y-111749939D01*
X168331861Y-111752535D01*
X168341301Y-111764037D01*
X168412730Y-111835466D01*
X168424234Y-111844907D01*
X168426829Y-111847899D01*
X168431338Y-111850737D01*
X168435461Y-111854121D01*
X168439122Y-111855637D01*
X168451714Y-111863564D01*
X168594572Y-111934992D01*
X168622035Y-111945502D01*
X168627410Y-111945883D01*
X168632389Y-111947946D01*
X168661653Y-111950828D01*
X168947367Y-111950828D01*
X168976631Y-111947946D01*
X168981609Y-111945883D01*
X168986985Y-111945502D01*
X169014448Y-111934992D01*
X169021353Y-111931539D01*
X169060961Y-111947946D01*
X169119489Y-111947946D01*
X169173561Y-111925548D01*
X169214945Y-111884164D01*
X169237343Y-111830092D01*
X169240225Y-111800828D01*
X169240225Y-110800828D01*
X169654510Y-110800828D01*
X169654510Y-111800828D01*
X169657392Y-111830092D01*
X169679790Y-111884164D01*
X169721174Y-111925548D01*
X169775246Y-111947946D01*
X169833774Y-111947946D01*
X169887846Y-111925548D01*
X169929230Y-111884164D01*
X169951628Y-111830092D01*
X169954510Y-111800828D01*
X169954510Y-111086542D01*
X170297368Y-111086542D01*
X170297368Y-111515114D01*
X170300250Y-111544378D01*
X170302312Y-111549356D01*
X170302694Y-111554732D01*
X170313204Y-111582196D01*
X170384632Y-111725053D01*
X170392559Y-111737646D01*
X170394075Y-111741306D01*
X170397456Y-111745425D01*
X170400297Y-111749939D01*
X170403290Y-111752535D01*
X170412730Y-111764037D01*
X170484159Y-111835466D01*
X170495663Y-111844907D01*
X170498258Y-111847899D01*
X170502767Y-111850737D01*
X170506890Y-111854121D01*
X170510551Y-111855637D01*
X170523143Y-111863564D01*
X170666001Y-111934992D01*
X170693464Y-111945502D01*
X170698839Y-111945883D01*
X170703818Y-111947946D01*
X170733082Y-111950828D01*
X170947368Y-111950828D01*
X170976632Y-111947946D01*
X170981610Y-111945883D01*
X170986986Y-111945502D01*
X171014450Y-111934992D01*
X171157307Y-111863564D01*
X171169900Y-111855636D01*
X171173560Y-111854121D01*
X171177679Y-111850739D01*
X171182193Y-111847899D01*
X171184789Y-111844905D01*
X171196291Y-111835466D01*
X171267720Y-111764037D01*
X171277161Y-111752532D01*
X171280153Y-111749938D01*
X171282991Y-111745428D01*
X171286375Y-111741306D01*
X171287891Y-111737644D01*
X171295818Y-111725053D01*
X171367246Y-111582195D01*
X171377756Y-111554732D01*
X171378137Y-111549356D01*
X171380200Y-111544378D01*
X171383082Y-111515114D01*
X171383082Y-111086542D01*
X171380200Y-111057278D01*
X171378137Y-111052299D01*
X171377756Y-111046924D01*
X171367246Y-111019461D01*
X171295818Y-110876603D01*
X171287889Y-110864008D01*
X171286374Y-110860349D01*
X171282992Y-110856228D01*
X171280153Y-110851718D01*
X171277161Y-110849123D01*
X171267719Y-110837618D01*
X171230928Y-110800828D01*
X172797368Y-110800828D01*
X172797368Y-111300828D01*
X172797870Y-111305931D01*
X172797545Y-111308119D01*
X172799164Y-111319069D01*
X172800250Y-111330092D01*
X172801097Y-111332136D01*
X172801847Y-111337208D01*
X172873275Y-111622922D01*
X172883168Y-111650613D01*
X172889807Y-111659573D01*
X172894075Y-111669877D01*
X172912730Y-111692608D01*
X173055588Y-111835466D01*
X173067092Y-111844907D01*
X173069687Y-111847899D01*
X173074196Y-111850737D01*
X173078319Y-111854121D01*
X173081980Y-111855637D01*
X173094572Y-111863564D01*
X173237430Y-111934992D01*
X173264893Y-111945502D01*
X173270268Y-111945883D01*
X173275247Y-111947946D01*
X173304511Y-111950828D01*
X173590225Y-111950828D01*
X173619489Y-111947946D01*
X173624467Y-111945883D01*
X173629843Y-111945502D01*
X173657307Y-111934992D01*
X173800164Y-111863564D01*
X173812755Y-111855637D01*
X173816418Y-111854121D01*
X173820540Y-111850737D01*
X173825050Y-111847899D01*
X173827645Y-111844906D01*
X173839148Y-111835466D01*
X173982005Y-111692608D01*
X174000660Y-111669877D01*
X174004926Y-111659575D01*
X174011567Y-111650614D01*
X174021460Y-111622923D01*
X174092889Y-111337209D01*
X174093639Y-111332136D01*
X174094486Y-111330092D01*
X174095571Y-111319072D01*
X174097191Y-111308120D01*
X174096865Y-111305931D01*
X174097368Y-111300828D01*
X174097368Y-110800828D01*
X174440225Y-110800828D01*
X174440225Y-111586542D01*
X174443107Y-111615806D01*
X174445168Y-111620783D01*
X174445551Y-111626161D01*
X174456061Y-111653624D01*
X174527490Y-111796482D01*
X174530570Y-111801376D01*
X174531340Y-111803684D01*
X174533832Y-111806557D01*
X174543155Y-111821368D01*
X174557366Y-111833692D01*
X174569687Y-111847899D01*
X174584494Y-111857220D01*
X174587370Y-111859714D01*
X174589678Y-111860483D01*
X174594572Y-111863564D01*
X174737430Y-111934992D01*
X174764893Y-111945502D01*
X174770268Y-111945883D01*
X174775247Y-111947946D01*
X174804511Y-111950828D01*
X175018797Y-111950828D01*
X175048061Y-111947946D01*
X175053039Y-111945883D01*
X175058415Y-111945502D01*
X175085879Y-111934992D01*
X175134753Y-111910554D01*
X175149747Y-111925548D01*
X175203819Y-111947946D01*
X175262347Y-111947946D01*
X175316419Y-111925548D01*
X175357803Y-111884164D01*
X175380201Y-111830092D01*
X175383083Y-111800828D01*
X175383083Y-110800828D01*
X175380201Y-110771564D01*
X175585965Y-110771564D01*
X175585965Y-110830092D01*
X175608363Y-110884164D01*
X175649747Y-110925548D01*
X175703819Y-110947946D01*
X175733083Y-110950828D01*
X175797368Y-110950828D01*
X175797368Y-111586542D01*
X175800250Y-111615806D01*
X175802311Y-111620783D01*
X175802694Y-111626161D01*
X175813204Y-111653624D01*
X175884633Y-111796482D01*
X175887713Y-111801376D01*
X175888483Y-111803684D01*
X175890975Y-111806557D01*
X175900298Y-111821368D01*
X175914509Y-111833692D01*
X175926830Y-111847899D01*
X175941637Y-111857220D01*
X175944513Y-111859714D01*
X175946821Y-111860483D01*
X175951715Y-111863564D01*
X176094573Y-111934992D01*
X176122036Y-111945502D01*
X176127411Y-111945883D01*
X176132390Y-111947946D01*
X176161654Y-111950828D01*
X176304511Y-111950828D01*
X176333775Y-111947946D01*
X176387847Y-111925548D01*
X176429231Y-111884164D01*
X176451629Y-111830092D01*
X176451629Y-111771564D01*
X176429231Y-111717492D01*
X176387847Y-111676108D01*
X176333775Y-111653710D01*
X176304511Y-111650828D01*
X176197064Y-111650828D01*
X176130600Y-111617596D01*
X176097368Y-111551132D01*
X176097368Y-110950828D01*
X176304511Y-110950828D01*
X176333775Y-110947946D01*
X176387847Y-110925548D01*
X176429231Y-110884164D01*
X176451629Y-110830092D01*
X176451629Y-110771564D01*
X176429231Y-110717492D01*
X176387847Y-110676108D01*
X176333775Y-110653710D01*
X176304511Y-110650828D01*
X176097368Y-110650828D01*
X176097368Y-110300828D01*
X176094486Y-110271564D01*
X176072088Y-110217492D01*
X176030704Y-110176108D01*
X175976632Y-110153710D01*
X175918104Y-110153710D01*
X175864032Y-110176108D01*
X175822648Y-110217492D01*
X175800250Y-110271564D01*
X175797368Y-110300828D01*
X175797368Y-110650828D01*
X175733083Y-110650828D01*
X175703819Y-110653710D01*
X175649747Y-110676108D01*
X175608363Y-110717492D01*
X175585965Y-110771564D01*
X175380201Y-110771564D01*
X175357803Y-110717492D01*
X175316419Y-110676108D01*
X175262347Y-110653710D01*
X175203819Y-110653710D01*
X175149747Y-110676108D01*
X175108363Y-110717492D01*
X175085965Y-110771564D01*
X175083083Y-110800828D01*
X175083083Y-111595839D01*
X175072799Y-111606122D01*
X174983387Y-111650828D01*
X174839921Y-111650828D01*
X174773457Y-111617596D01*
X174740225Y-111551132D01*
X174740225Y-110800828D01*
X174737343Y-110771564D01*
X174714945Y-110717492D01*
X174673561Y-110676108D01*
X174619489Y-110653710D01*
X174560961Y-110653710D01*
X174506889Y-110676108D01*
X174465505Y-110717492D01*
X174443107Y-110771564D01*
X174440225Y-110800828D01*
X174097368Y-110800828D01*
X174096865Y-110795724D01*
X174097191Y-110793536D01*
X174095571Y-110782583D01*
X174094486Y-110771564D01*
X174093639Y-110769519D01*
X174092889Y-110764447D01*
X174021460Y-110478733D01*
X174011567Y-110451042D01*
X174004927Y-110442081D01*
X174000660Y-110431778D01*
X173982005Y-110409048D01*
X173839148Y-110266191D01*
X173827646Y-110256751D01*
X173825050Y-110253758D01*
X173820536Y-110250917D01*
X173816417Y-110247536D01*
X173812757Y-110246020D01*
X173800164Y-110238093D01*
X173657307Y-110166664D01*
X173629844Y-110156155D01*
X173624469Y-110155773D01*
X173619489Y-110153710D01*
X173590225Y-110150828D01*
X173304511Y-110150828D01*
X173275247Y-110153710D01*
X173270266Y-110155773D01*
X173264892Y-110156155D01*
X173237428Y-110166664D01*
X173094572Y-110238093D01*
X173081978Y-110246020D01*
X173078319Y-110247536D01*
X173074199Y-110250917D01*
X173069686Y-110253758D01*
X173067089Y-110256752D01*
X173055588Y-110266191D01*
X172912730Y-110409048D01*
X172894075Y-110431778D01*
X172889806Y-110442083D01*
X172883168Y-110451043D01*
X172873275Y-110478734D01*
X172801847Y-110764448D01*
X172801097Y-110769519D01*
X172800250Y-110771564D01*
X172799164Y-110782586D01*
X172797545Y-110793537D01*
X172797870Y-110795724D01*
X172797368Y-110800828D01*
X171230928Y-110800828D01*
X171196290Y-110766190D01*
X171184790Y-110756752D01*
X171182193Y-110753758D01*
X171177676Y-110750915D01*
X171173559Y-110747536D01*
X171169902Y-110746021D01*
X171157307Y-110738093D01*
X171014450Y-110666664D01*
X170986987Y-110656155D01*
X170981612Y-110655773D01*
X170976632Y-110653710D01*
X170947368Y-110650828D01*
X170733082Y-110650828D01*
X170703818Y-110653710D01*
X170698837Y-110655773D01*
X170693463Y-110656155D01*
X170665999Y-110666664D01*
X170523143Y-110738093D01*
X170510549Y-110746020D01*
X170506890Y-110747536D01*
X170502769Y-110750917D01*
X170498257Y-110753758D01*
X170495660Y-110756751D01*
X170484160Y-110766190D01*
X170412731Y-110837618D01*
X170403291Y-110849120D01*
X170400297Y-110851717D01*
X170397455Y-110856231D01*
X170394076Y-110860349D01*
X170392560Y-110864007D01*
X170384632Y-110876603D01*
X170313204Y-111019460D01*
X170302694Y-111046924D01*
X170302312Y-111052299D01*
X170300250Y-111057278D01*
X170297368Y-111086542D01*
X169954510Y-111086542D01*
X169954510Y-110800828D01*
X169951628Y-110771564D01*
X169929230Y-110717492D01*
X169887846Y-110676108D01*
X169833774Y-110653710D01*
X169775246Y-110653710D01*
X169721174Y-110676108D01*
X169679790Y-110717492D01*
X169657392Y-110771564D01*
X169654510Y-110800828D01*
X169240225Y-110800828D01*
X169240225Y-110342995D01*
X169585964Y-110342995D01*
X169585964Y-110401521D01*
X169591270Y-110414330D01*
X169608361Y-110455592D01*
X169627016Y-110478323D01*
X169698444Y-110549751D01*
X169721174Y-110568406D01*
X169743571Y-110577682D01*
X169775246Y-110590803D01*
X169833774Y-110590803D01*
X169872008Y-110574965D01*
X169887845Y-110568406D01*
X169887849Y-110568401D01*
X169910575Y-110549752D01*
X169982004Y-110478324D01*
X170000659Y-110455593D01*
X170000660Y-110455592D01*
X170023057Y-110401520D01*
X170023057Y-110342994D01*
X170000660Y-110288922D01*
X169982005Y-110266191D01*
X169910576Y-110194762D01*
X169887845Y-110176107D01*
X169856171Y-110162987D01*
X169833774Y-110153710D01*
X169775246Y-110153710D01*
X169752849Y-110162987D01*
X169721175Y-110176107D01*
X169721174Y-110176108D01*
X169698443Y-110194763D01*
X169627015Y-110266192D01*
X169608365Y-110288917D01*
X169608361Y-110288922D01*
X169588191Y-110337619D01*
X169585964Y-110342995D01*
X169240225Y-110342995D01*
X169240225Y-110300828D01*
X169237343Y-110271564D01*
X169214945Y-110217492D01*
X169173561Y-110176108D01*
X169119489Y-110153710D01*
X169060961Y-110153710D01*
X169006889Y-110176108D01*
X168965505Y-110217492D01*
X168943107Y-110271564D01*
X168940225Y-110300828D01*
X168940225Y-110650828D01*
X168661653Y-110650828D01*
X168632389Y-110653710D01*
X168627408Y-110655773D01*
X168622034Y-110656155D01*
X168594570Y-110666664D01*
X168451714Y-110738093D01*
X168439120Y-110746020D01*
X168435461Y-110747536D01*
X168431340Y-110750917D01*
X168426828Y-110753758D01*
X168424231Y-110756751D01*
X168412731Y-110766190D01*
X168341302Y-110837618D01*
X168331862Y-110849120D01*
X168328868Y-110851717D01*
X168326026Y-110856231D01*
X168322647Y-110860349D01*
X168321131Y-110864007D01*
X168313203Y-110876603D01*
X168241775Y-111019460D01*
X168231265Y-111046924D01*
X168230883Y-111052299D01*
X168228821Y-111057278D01*
X168225939Y-111086542D01*
X167883082Y-111086542D01*
X167883082Y-110800828D01*
X167880200Y-110771564D01*
X167857802Y-110717492D01*
X167816418Y-110676108D01*
X167762346Y-110653710D01*
X167703818Y-110653710D01*
X167649746Y-110676108D01*
X167608362Y-110717492D01*
X167585964Y-110771564D01*
X167583082Y-110800828D01*
X167583082Y-111595839D01*
X167572798Y-111606122D01*
X167483386Y-111650828D01*
X167339920Y-111650828D01*
X167273456Y-111617596D01*
X167240224Y-111551132D01*
X167240224Y-110800828D01*
X167237342Y-110771564D01*
X167214944Y-110717492D01*
X167173560Y-110676108D01*
X167119488Y-110653710D01*
X167060960Y-110653710D01*
X167006888Y-110676108D01*
X166965504Y-110717492D01*
X166943106Y-110771564D01*
X166940224Y-110800828D01*
X166415005Y-110800828D01*
X166232527Y-110253394D01*
X166220539Y-110226543D01*
X166213516Y-110218446D01*
X166208724Y-110208861D01*
X166194515Y-110196537D01*
X166182192Y-110182329D01*
X166172606Y-110177536D01*
X166164510Y-110170514D01*
X166146666Y-110164565D01*
X166129845Y-110156155D01*
X166119156Y-110155395D01*
X166108986Y-110152005D01*
X166090220Y-110153338D01*
X166071464Y-110152006D01*
X166061296Y-110155395D01*
X166050606Y-110156155D01*
X166033782Y-110164566D01*
X166015940Y-110170514D01*
X166007845Y-110177534D01*
X165998258Y-110182328D01*
X165985932Y-110196539D01*
X165971726Y-110208861D01*
X165966933Y-110218445D01*
X165959911Y-110226543D01*
X165947923Y-110253394D01*
X165447923Y-111753394D01*
X165441403Y-111782067D01*
X165274736Y-111782067D01*
X165274736Y-109984161D01*
X176618296Y-109984161D01*
X176618296Y-112117495D01*
G37*
X168911653Y-90800828D02*
X168411653Y-90086542D01*
X168054510Y-90800828D02*
X168054510Y-89300828D01*
X168054510Y-89300828D02*
X168625939Y-89300828D01*
X168625939Y-89300828D02*
X168768796Y-89372257D01*
X168768796Y-89372257D02*
X168840225Y-89443685D01*
X168840225Y-89443685D02*
X168911653Y-89586542D01*
X168911653Y-89586542D02*
X168911653Y-89800828D01*
X168911653Y-89800828D02*
X168840225Y-89943685D01*
X168840225Y-89943685D02*
X168768796Y-90015114D01*
X168768796Y-90015114D02*
X168625939Y-90086542D01*
X168625939Y-90086542D02*
X168054510Y-90086542D01*
X169840225Y-89300828D02*
X170125939Y-89300828D01*
X170125939Y-89300828D02*
X170268796Y-89372257D01*
X170268796Y-89372257D02*
X170411653Y-89515114D01*
X170411653Y-89515114D02*
X170483082Y-89800828D01*
X170483082Y-89800828D02*
X170483082Y-90300828D01*
X170483082Y-90300828D02*
X170411653Y-90586542D01*
X170411653Y-90586542D02*
X170268796Y-90729400D01*
X170268796Y-90729400D02*
X170125939Y-90800828D01*
X170125939Y-90800828D02*
X169840225Y-90800828D01*
X169840225Y-90800828D02*
X169697368Y-90729400D01*
X169697368Y-90729400D02*
X169554510Y-90586542D01*
X169554510Y-90586542D02*
X169483082Y-90300828D01*
X169483082Y-90300828D02*
X169483082Y-89800828D01*
X169483082Y-89800828D02*
X169554510Y-89515114D01*
X169554510Y-89515114D02*
X169697368Y-89372257D01*
X169697368Y-89372257D02*
X169840225Y-89300828D01*
X170911654Y-89300828D02*
X171768797Y-89300828D01*
X171340225Y-90800828D02*
X171340225Y-89300828D01*
X173411653Y-90015114D02*
X173911653Y-90015114D01*
X174125939Y-90800828D02*
X173411653Y-90800828D01*
X173411653Y-90800828D02*
X173411653Y-89300828D01*
X173411653Y-89300828D02*
X174125939Y-89300828D01*
X174768796Y-90800828D02*
X174768796Y-89300828D01*
X174768796Y-89300828D02*
X175625939Y-90800828D01*
X175625939Y-90800828D02*
X175625939Y-89300828D01*
X177197368Y-90657971D02*
X177125940Y-90729400D01*
X177125940Y-90729400D02*
X176911654Y-90800828D01*
X176911654Y-90800828D02*
X176768797Y-90800828D01*
X176768797Y-90800828D02*
X176554511Y-90729400D01*
X176554511Y-90729400D02*
X176411654Y-90586542D01*
X176411654Y-90586542D02*
X176340225Y-90443685D01*
X176340225Y-90443685D02*
X176268797Y-90157971D01*
X176268797Y-90157971D02*
X176268797Y-89943685D01*
X176268797Y-89943685D02*
X176340225Y-89657971D01*
X176340225Y-89657971D02*
X176411654Y-89515114D01*
X176411654Y-89515114D02*
X176554511Y-89372257D01*
X176554511Y-89372257D02*
X176768797Y-89300828D01*
X176768797Y-89300828D02*
X176911654Y-89300828D01*
X176911654Y-89300828D02*
X177125940Y-89372257D01*
X177125940Y-89372257D02*
X177197368Y-89443685D01*
G36*
X176215656Y-121745535D02*
G01*
X176311922Y-121841801D01*
X176368796Y-122069292D01*
X176368796Y-122532363D01*
X176311922Y-122759854D01*
X176215655Y-122856122D01*
X176126243Y-122900828D01*
X175911349Y-122900828D01*
X175821935Y-122856121D01*
X175725668Y-122759854D01*
X175668796Y-122532364D01*
X175668796Y-122069291D01*
X175725668Y-121841802D01*
X175821935Y-121745534D01*
X175911349Y-121700828D01*
X176126243Y-121700828D01*
X176215656Y-121745535D01*
G37*
G36*
X178189724Y-123367495D02*
G01*
X173774736Y-123367495D01*
X173774736Y-121569589D01*
X173941403Y-121569589D01*
X173947923Y-121598262D01*
X174447923Y-123098262D01*
X174459911Y-123125113D01*
X174466933Y-123133210D01*
X174471726Y-123142795D01*
X174485932Y-123155116D01*
X174498258Y-123169328D01*
X174507845Y-123174121D01*
X174515940Y-123181142D01*
X174533782Y-123187089D01*
X174550606Y-123195501D01*
X174561296Y-123196260D01*
X174571464Y-123199650D01*
X174590220Y-123198317D01*
X174608986Y-123199651D01*
X174619156Y-123196260D01*
X174629845Y-123195501D01*
X174646666Y-123187090D01*
X174664510Y-123181142D01*
X174672606Y-123174119D01*
X174682192Y-123169327D01*
X174694515Y-123155118D01*
X174708724Y-123142795D01*
X174713516Y-123133209D01*
X174720539Y-123125113D01*
X174732527Y-123098262D01*
X175081672Y-122050828D01*
X175368796Y-122050828D01*
X175368796Y-122550828D01*
X175369298Y-122555931D01*
X175368973Y-122558119D01*
X175370592Y-122569069D01*
X175371678Y-122580092D01*
X175372525Y-122582136D01*
X175373275Y-122587208D01*
X175444703Y-122872922D01*
X175454596Y-122900613D01*
X175461235Y-122909573D01*
X175465503Y-122919877D01*
X175484158Y-122942608D01*
X175627016Y-123085466D01*
X175638520Y-123094907D01*
X175641115Y-123097899D01*
X175645624Y-123100737D01*
X175649747Y-123104121D01*
X175653408Y-123105637D01*
X175666000Y-123113564D01*
X175808858Y-123184992D01*
X175836321Y-123195502D01*
X175841696Y-123195883D01*
X175846675Y-123197946D01*
X175875939Y-123200828D01*
X176161653Y-123200828D01*
X176190917Y-123197946D01*
X176195895Y-123195883D01*
X176201271Y-123195502D01*
X176228735Y-123184992D01*
X176371592Y-123113564D01*
X176384183Y-123105637D01*
X176387846Y-123104121D01*
X176391968Y-123100737D01*
X176396478Y-123097899D01*
X176399073Y-123094906D01*
X176410576Y-123085466D01*
X176553433Y-122942608D01*
X176572088Y-122919877D01*
X176576354Y-122909575D01*
X176582995Y-122900614D01*
X176592888Y-122872923D01*
X176664317Y-122587209D01*
X176665067Y-122582136D01*
X176665914Y-122580092D01*
X176666999Y-122569072D01*
X176668619Y-122558120D01*
X176668293Y-122555931D01*
X176668796Y-122550828D01*
X176668796Y-122050828D01*
X176668293Y-122045724D01*
X176668619Y-122043536D01*
X176666999Y-122032583D01*
X176665914Y-122021564D01*
X176665067Y-122019519D01*
X176664317Y-122014447D01*
X176592888Y-121728733D01*
X176582995Y-121701042D01*
X176576355Y-121692081D01*
X176572088Y-121681778D01*
X176553433Y-121659048D01*
X176445213Y-121550828D01*
X177011653Y-121550828D01*
X177011653Y-123050828D01*
X177014535Y-123080092D01*
X177036933Y-123134164D01*
X177078317Y-123175548D01*
X177132389Y-123197946D01*
X177161653Y-123200828D01*
X177875939Y-123200828D01*
X177905203Y-123197946D01*
X177959275Y-123175548D01*
X178000659Y-123134164D01*
X178023057Y-123080092D01*
X178023057Y-123021564D01*
X178000659Y-122967492D01*
X177959275Y-122926108D01*
X177905203Y-122903710D01*
X177875939Y-122900828D01*
X177311653Y-122900828D01*
X177311653Y-121550828D01*
X177308771Y-121521564D01*
X177286373Y-121467492D01*
X177244989Y-121426108D01*
X177190917Y-121403710D01*
X177132389Y-121403710D01*
X177078317Y-121426108D01*
X177036933Y-121467492D01*
X177014535Y-121521564D01*
X177011653Y-121550828D01*
X176445213Y-121550828D01*
X176410576Y-121516191D01*
X176399074Y-121506751D01*
X176396478Y-121503758D01*
X176391964Y-121500917D01*
X176387845Y-121497536D01*
X176384185Y-121496020D01*
X176371592Y-121488093D01*
X176228735Y-121416664D01*
X176201272Y-121406155D01*
X176195897Y-121405773D01*
X176190917Y-121403710D01*
X176161653Y-121400828D01*
X175875939Y-121400828D01*
X175846675Y-121403710D01*
X175841694Y-121405773D01*
X175836320Y-121406155D01*
X175808856Y-121416664D01*
X175666000Y-121488093D01*
X175653406Y-121496020D01*
X175649747Y-121497536D01*
X175645627Y-121500917D01*
X175641114Y-121503758D01*
X175638517Y-121506752D01*
X175627016Y-121516191D01*
X175484158Y-121659048D01*
X175465503Y-121681778D01*
X175461234Y-121692083D01*
X175454596Y-121701043D01*
X175444703Y-121728734D01*
X175373275Y-122014448D01*
X175372525Y-122019519D01*
X175371678Y-122021564D01*
X175370592Y-122032586D01*
X175368973Y-122043537D01*
X175369298Y-122045724D01*
X175368796Y-122050828D01*
X175081672Y-122050828D01*
X175232528Y-121598262D01*
X175239048Y-121569588D01*
X175234898Y-121511208D01*
X175208724Y-121458861D01*
X175164510Y-121420514D01*
X175108986Y-121402005D01*
X175050606Y-121406155D01*
X174998258Y-121432328D01*
X174959911Y-121476543D01*
X174947923Y-121503394D01*
X174590225Y-122576486D01*
X174232527Y-121503394D01*
X174220539Y-121476543D01*
X174182192Y-121432329D01*
X174129845Y-121406155D01*
X174071464Y-121402006D01*
X174015940Y-121420514D01*
X173971726Y-121458861D01*
X173945552Y-121511208D01*
X173941403Y-121569589D01*
X173774736Y-121569589D01*
X173774736Y-121234161D01*
X178189724Y-121234161D01*
X178189724Y-123367495D01*
G37*
D11*
X183889819Y-116720238D02*
X183413628Y-117053571D01*
X183889819Y-117291666D02*
X182889819Y-117291666D01*
X182889819Y-117291666D02*
X182889819Y-116910714D01*
X182889819Y-116910714D02*
X182937438Y-116815476D01*
X182937438Y-116815476D02*
X182985057Y-116767857D01*
X182985057Y-116767857D02*
X183080295Y-116720238D01*
X183080295Y-116720238D02*
X183223152Y-116720238D01*
X183223152Y-116720238D02*
X183318390Y-116767857D01*
X183318390Y-116767857D02*
X183366009Y-116815476D01*
X183366009Y-116815476D02*
X183413628Y-116910714D01*
X183413628Y-116910714D02*
X183413628Y-117291666D01*
X182889819Y-116434523D02*
X183889819Y-116101190D01*
X183889819Y-116101190D02*
X182889819Y-115767857D01*
X183889819Y-114910714D02*
X183889819Y-115482142D01*
X183889819Y-115196428D02*
X182889819Y-115196428D01*
X182889819Y-115196428D02*
X183032676Y-115291666D01*
X183032676Y-115291666D02*
X183127914Y-115386904D01*
X183127914Y-115386904D02*
X183175533Y-115482142D01*
X158154761Y-89800057D02*
X158059523Y-89752438D01*
X158059523Y-89752438D02*
X157964285Y-89657200D01*
X157964285Y-89657200D02*
X157821428Y-89514342D01*
X157821428Y-89514342D02*
X157726190Y-89466723D01*
X157726190Y-89466723D02*
X157630952Y-89466723D01*
X157678571Y-89704819D02*
X157583333Y-89657200D01*
X157583333Y-89657200D02*
X157488095Y-89561961D01*
X157488095Y-89561961D02*
X157440476Y-89371485D01*
X157440476Y-89371485D02*
X157440476Y-89038152D01*
X157440476Y-89038152D02*
X157488095Y-88847676D01*
X157488095Y-88847676D02*
X157583333Y-88752438D01*
X157583333Y-88752438D02*
X157678571Y-88704819D01*
X157678571Y-88704819D02*
X157869047Y-88704819D01*
X157869047Y-88704819D02*
X157964285Y-88752438D01*
X157964285Y-88752438D02*
X158059523Y-88847676D01*
X158059523Y-88847676D02*
X158107142Y-89038152D01*
X158107142Y-89038152D02*
X158107142Y-89371485D01*
X158107142Y-89371485D02*
X158059523Y-89561961D01*
X158059523Y-89561961D02*
X157964285Y-89657200D01*
X157964285Y-89657200D02*
X157869047Y-89704819D01*
X157869047Y-89704819D02*
X157678571Y-89704819D01*
X159059523Y-89704819D02*
X158488095Y-89704819D01*
X158773809Y-89704819D02*
X158773809Y-88704819D01*
X158773809Y-88704819D02*
X158678571Y-88847676D01*
X158678571Y-88847676D02*
X158583333Y-88942914D01*
X158583333Y-88942914D02*
X158488095Y-88990533D01*
X141558333Y-81459580D02*
X141510714Y-81507200D01*
X141510714Y-81507200D02*
X141367857Y-81554819D01*
X141367857Y-81554819D02*
X141272619Y-81554819D01*
X141272619Y-81554819D02*
X141129762Y-81507200D01*
X141129762Y-81507200D02*
X141034524Y-81411961D01*
X141034524Y-81411961D02*
X140986905Y-81316723D01*
X140986905Y-81316723D02*
X140939286Y-81126247D01*
X140939286Y-81126247D02*
X140939286Y-80983390D01*
X140939286Y-80983390D02*
X140986905Y-80792914D01*
X140986905Y-80792914D02*
X141034524Y-80697676D01*
X141034524Y-80697676D02*
X141129762Y-80602438D01*
X141129762Y-80602438D02*
X141272619Y-80554819D01*
X141272619Y-80554819D02*
X141367857Y-80554819D01*
X141367857Y-80554819D02*
X141510714Y-80602438D01*
X141510714Y-80602438D02*
X141558333Y-80650057D01*
X142510714Y-81554819D02*
X141939286Y-81554819D01*
X142225000Y-81554819D02*
X142225000Y-80554819D01*
X142225000Y-80554819D02*
X142129762Y-80697676D01*
X142129762Y-80697676D02*
X142034524Y-80792914D01*
X142034524Y-80792914D02*
X141939286Y-80840533D01*
X160384761Y-98240057D02*
X160289523Y-98192438D01*
X160289523Y-98192438D02*
X160194285Y-98097200D01*
X160194285Y-98097200D02*
X160051428Y-97954342D01*
X160051428Y-97954342D02*
X159956190Y-97906723D01*
X159956190Y-97906723D02*
X159860952Y-97906723D01*
X159908571Y-98144819D02*
X159813333Y-98097200D01*
X159813333Y-98097200D02*
X159718095Y-98001961D01*
X159718095Y-98001961D02*
X159670476Y-97811485D01*
X159670476Y-97811485D02*
X159670476Y-97478152D01*
X159670476Y-97478152D02*
X159718095Y-97287676D01*
X159718095Y-97287676D02*
X159813333Y-97192438D01*
X159813333Y-97192438D02*
X159908571Y-97144819D01*
X159908571Y-97144819D02*
X160099047Y-97144819D01*
X160099047Y-97144819D02*
X160194285Y-97192438D01*
X160194285Y-97192438D02*
X160289523Y-97287676D01*
X160289523Y-97287676D02*
X160337142Y-97478152D01*
X160337142Y-97478152D02*
X160337142Y-97811485D01*
X160337142Y-97811485D02*
X160289523Y-98001961D01*
X160289523Y-98001961D02*
X160194285Y-98097200D01*
X160194285Y-98097200D02*
X160099047Y-98144819D01*
X160099047Y-98144819D02*
X159908571Y-98144819D01*
X160718095Y-97240057D02*
X160765714Y-97192438D01*
X160765714Y-97192438D02*
X160860952Y-97144819D01*
X160860952Y-97144819D02*
X161099047Y-97144819D01*
X161099047Y-97144819D02*
X161194285Y-97192438D01*
X161194285Y-97192438D02*
X161241904Y-97240057D01*
X161241904Y-97240057D02*
X161289523Y-97335295D01*
X161289523Y-97335295D02*
X161289523Y-97430533D01*
X161289523Y-97430533D02*
X161241904Y-97573390D01*
X161241904Y-97573390D02*
X160670476Y-98144819D01*
X160670476Y-98144819D02*
X161289523Y-98144819D01*
X161308333Y-85859580D02*
X161260714Y-85907200D01*
X161260714Y-85907200D02*
X161117857Y-85954819D01*
X161117857Y-85954819D02*
X161022619Y-85954819D01*
X161022619Y-85954819D02*
X160879762Y-85907200D01*
X160879762Y-85907200D02*
X160784524Y-85811961D01*
X160784524Y-85811961D02*
X160736905Y-85716723D01*
X160736905Y-85716723D02*
X160689286Y-85526247D01*
X160689286Y-85526247D02*
X160689286Y-85383390D01*
X160689286Y-85383390D02*
X160736905Y-85192914D01*
X160736905Y-85192914D02*
X160784524Y-85097676D01*
X160784524Y-85097676D02*
X160879762Y-85002438D01*
X160879762Y-85002438D02*
X161022619Y-84954819D01*
X161022619Y-84954819D02*
X161117857Y-84954819D01*
X161117857Y-84954819D02*
X161260714Y-85002438D01*
X161260714Y-85002438D02*
X161308333Y-85050057D01*
X161689286Y-85050057D02*
X161736905Y-85002438D01*
X161736905Y-85002438D02*
X161832143Y-84954819D01*
X161832143Y-84954819D02*
X162070238Y-84954819D01*
X162070238Y-84954819D02*
X162165476Y-85002438D01*
X162165476Y-85002438D02*
X162213095Y-85050057D01*
X162213095Y-85050057D02*
X162260714Y-85145295D01*
X162260714Y-85145295D02*
X162260714Y-85240533D01*
X162260714Y-85240533D02*
X162213095Y-85383390D01*
X162213095Y-85383390D02*
X161641667Y-85954819D01*
X161641667Y-85954819D02*
X162260714Y-85954819D01*
X155265350Y-111369819D02*
X155074874Y-111369819D01*
X155074874Y-111369819D02*
X154979636Y-111417438D01*
X154979636Y-111417438D02*
X154932017Y-111465057D01*
X154932017Y-111465057D02*
X154836779Y-111607914D01*
X154836779Y-111607914D02*
X154789160Y-111798390D01*
X154789160Y-111798390D02*
X154789160Y-112179342D01*
X154789160Y-112179342D02*
X154836779Y-112274580D01*
X154836779Y-112274580D02*
X154884398Y-112322200D01*
X154884398Y-112322200D02*
X154979636Y-112369819D01*
X154979636Y-112369819D02*
X155170112Y-112369819D01*
X155170112Y-112369819D02*
X155265350Y-112322200D01*
X155265350Y-112322200D02*
X155312969Y-112274580D01*
X155312969Y-112274580D02*
X155360588Y-112179342D01*
X155360588Y-112179342D02*
X155360588Y-111941247D01*
X155360588Y-111941247D02*
X155312969Y-111846009D01*
X155312969Y-111846009D02*
X155265350Y-111798390D01*
X155265350Y-111798390D02*
X155170112Y-111750771D01*
X155170112Y-111750771D02*
X154979636Y-111750771D01*
X154979636Y-111750771D02*
X154884398Y-111798390D01*
X154884398Y-111798390D02*
X154836779Y-111846009D01*
X154836779Y-111846009D02*
X154789160Y-111941247D01*
X155789160Y-112274580D02*
X155836779Y-112322200D01*
X155836779Y-112322200D02*
X155789160Y-112369819D01*
X155789160Y-112369819D02*
X155741541Y-112322200D01*
X155741541Y-112322200D02*
X155789160Y-112274580D01*
X155789160Y-112274580D02*
X155789160Y-112369819D01*
X156741540Y-111369819D02*
X156265350Y-111369819D01*
X156265350Y-111369819D02*
X156217731Y-111846009D01*
X156217731Y-111846009D02*
X156265350Y-111798390D01*
X156265350Y-111798390D02*
X156360588Y-111750771D01*
X156360588Y-111750771D02*
X156598683Y-111750771D01*
X156598683Y-111750771D02*
X156693921Y-111798390D01*
X156693921Y-111798390D02*
X156741540Y-111846009D01*
X156741540Y-111846009D02*
X156789159Y-111941247D01*
X156789159Y-111941247D02*
X156789159Y-112179342D01*
X156789159Y-112179342D02*
X156741540Y-112274580D01*
X156741540Y-112274580D02*
X156693921Y-112322200D01*
X156693921Y-112322200D02*
X156598683Y-112369819D01*
X156598683Y-112369819D02*
X156360588Y-112369819D01*
X156360588Y-112369819D02*
X156265350Y-112322200D01*
X156265350Y-112322200D02*
X156217731Y-112274580D01*
X157217731Y-112369819D02*
X157217731Y-111703152D01*
X157217731Y-111798390D02*
X157265350Y-111750771D01*
X157265350Y-111750771D02*
X157360588Y-111703152D01*
X157360588Y-111703152D02*
X157503445Y-111703152D01*
X157503445Y-111703152D02*
X157598683Y-111750771D01*
X157598683Y-111750771D02*
X157646302Y-111846009D01*
X157646302Y-111846009D02*
X157646302Y-112369819D01*
X157646302Y-111846009D02*
X157693921Y-111750771D01*
X157693921Y-111750771D02*
X157789159Y-111703152D01*
X157789159Y-111703152D02*
X157932016Y-111703152D01*
X157932016Y-111703152D02*
X158027255Y-111750771D01*
X158027255Y-111750771D02*
X158074874Y-111846009D01*
X158074874Y-111846009D02*
X158074874Y-112369819D01*
X158551064Y-112369819D02*
X158551064Y-111703152D01*
X158551064Y-111798390D02*
X158598683Y-111750771D01*
X158598683Y-111750771D02*
X158693921Y-111703152D01*
X158693921Y-111703152D02*
X158836778Y-111703152D01*
X158836778Y-111703152D02*
X158932016Y-111750771D01*
X158932016Y-111750771D02*
X158979635Y-111846009D01*
X158979635Y-111846009D02*
X158979635Y-112369819D01*
X158979635Y-111846009D02*
X159027254Y-111750771D01*
X159027254Y-111750771D02*
X159122492Y-111703152D01*
X159122492Y-111703152D02*
X159265349Y-111703152D01*
X159265349Y-111703152D02*
X159360588Y-111750771D01*
X159360588Y-111750771D02*
X159408207Y-111846009D01*
X159408207Y-111846009D02*
X159408207Y-112369819D01*
X156765350Y-106453152D02*
X156765350Y-107119819D01*
X156527255Y-106072200D02*
X156289160Y-106786485D01*
X156289160Y-106786485D02*
X156908207Y-106786485D01*
X157289160Y-107119819D02*
X157289160Y-106453152D01*
X157289160Y-106548390D02*
X157336779Y-106500771D01*
X157336779Y-106500771D02*
X157432017Y-106453152D01*
X157432017Y-106453152D02*
X157574874Y-106453152D01*
X157574874Y-106453152D02*
X157670112Y-106500771D01*
X157670112Y-106500771D02*
X157717731Y-106596009D01*
X157717731Y-106596009D02*
X157717731Y-107119819D01*
X157717731Y-106596009D02*
X157765350Y-106500771D01*
X157765350Y-106500771D02*
X157860588Y-106453152D01*
X157860588Y-106453152D02*
X158003445Y-106453152D01*
X158003445Y-106453152D02*
X158098684Y-106500771D01*
X158098684Y-106500771D02*
X158146303Y-106596009D01*
X158146303Y-106596009D02*
X158146303Y-107119819D01*
X158622493Y-107119819D02*
X158622493Y-106453152D01*
X158622493Y-106548390D02*
X158670112Y-106500771D01*
X158670112Y-106500771D02*
X158765350Y-106453152D01*
X158765350Y-106453152D02*
X158908207Y-106453152D01*
X158908207Y-106453152D02*
X159003445Y-106500771D01*
X159003445Y-106500771D02*
X159051064Y-106596009D01*
X159051064Y-106596009D02*
X159051064Y-107119819D01*
X159051064Y-106596009D02*
X159098683Y-106500771D01*
X159098683Y-106500771D02*
X159193921Y-106453152D01*
X159193921Y-106453152D02*
X159336778Y-106453152D01*
X159336778Y-106453152D02*
X159432017Y-106500771D01*
X159432017Y-106500771D02*
X159479636Y-106596009D01*
X159479636Y-106596009D02*
X159479636Y-107119819D01*
X161308333Y-88459580D02*
X161260714Y-88507200D01*
X161260714Y-88507200D02*
X161117857Y-88554819D01*
X161117857Y-88554819D02*
X161022619Y-88554819D01*
X161022619Y-88554819D02*
X160879762Y-88507200D01*
X160879762Y-88507200D02*
X160784524Y-88411961D01*
X160784524Y-88411961D02*
X160736905Y-88316723D01*
X160736905Y-88316723D02*
X160689286Y-88126247D01*
X160689286Y-88126247D02*
X160689286Y-87983390D01*
X160689286Y-87983390D02*
X160736905Y-87792914D01*
X160736905Y-87792914D02*
X160784524Y-87697676D01*
X160784524Y-87697676D02*
X160879762Y-87602438D01*
X160879762Y-87602438D02*
X161022619Y-87554819D01*
X161022619Y-87554819D02*
X161117857Y-87554819D01*
X161117857Y-87554819D02*
X161260714Y-87602438D01*
X161260714Y-87602438D02*
X161308333Y-87650057D01*
X161641667Y-87554819D02*
X162260714Y-87554819D01*
X162260714Y-87554819D02*
X161927381Y-87935771D01*
X161927381Y-87935771D02*
X162070238Y-87935771D01*
X162070238Y-87935771D02*
X162165476Y-87983390D01*
X162165476Y-87983390D02*
X162213095Y-88031009D01*
X162213095Y-88031009D02*
X162260714Y-88126247D01*
X162260714Y-88126247D02*
X162260714Y-88364342D01*
X162260714Y-88364342D02*
X162213095Y-88459580D01*
X162213095Y-88459580D02*
X162165476Y-88507200D01*
X162165476Y-88507200D02*
X162070238Y-88554819D01*
X162070238Y-88554819D02*
X161784524Y-88554819D01*
X161784524Y-88554819D02*
X161689286Y-88507200D01*
X161689286Y-88507200D02*
X161641667Y-88459580D01*
%TO.C,RV1*%
D12*
X172920000Y-112305000D02*
X172920000Y-121195000D01*
X178000000Y-112305000D02*
X172920000Y-112305000D01*
X178000000Y-121195000D02*
X172920000Y-121195000D01*
X178000000Y-112305000D02*
G75*
G02*
X178000000Y-121195000I0J-4445000D01*
G01*
%TO.C,Q1*%
D13*
X162600000Y-94030000D02*
X162600000Y-90430000D01*
X158150000Y-92230000D02*
G75*
G02*
X162588478Y-90391522I2600000J0D01*
G01*
X162588478Y-94068478D02*
G75*
G02*
X158149999Y-92230000I-1838478J1838478D01*
G01*
%TO.C,SW3*%
X156850000Y-118450000D02*
X165450000Y-118450000D01*
X156850000Y-123050000D02*
X159050000Y-123050000D01*
X163150000Y-123050000D02*
X165450000Y-123050000D01*
%TO.C,C1*%
X142436252Y-78340000D02*
X141013748Y-78340000D01*
X142436252Y-80160000D02*
X141013748Y-80160000D01*
%TO.C,Q2*%
X158680000Y-103100000D02*
X162280000Y-103100000D01*
X158641522Y-103088478D02*
G75*
G02*
X160480000Y-98649999I1838478J1838478D01*
G01*
X160480000Y-98650000D02*
G75*
G02*
X162318478Y-103088478I0J-2600000D01*
G01*
%TO.C,J3*%
X133400000Y-115100000D02*
X135900000Y-115100000D01*
X133400000Y-120300000D02*
X133400000Y-115100000D01*
X135900000Y-114600000D02*
X139100000Y-114600000D01*
X135900000Y-115100000D02*
X135900000Y-114600000D01*
X135900000Y-120300000D02*
X133400000Y-120300000D01*
X135900000Y-120800000D02*
X135900000Y-120300000D01*
X137100000Y-120800000D02*
X135900000Y-120800000D01*
X137100000Y-120800000D02*
X137100000Y-122800000D01*
X139700000Y-120800000D02*
X139700000Y-122800000D01*
X141700000Y-114600000D02*
X150600000Y-114600000D01*
X146200000Y-120800000D02*
X139700000Y-120800000D01*
X150600000Y-114600000D02*
X150600000Y-120800000D01*
X150600000Y-120800000D02*
X149400000Y-120800000D01*
%TO.C,C2*%
X160763748Y-84590000D02*
X162186252Y-84590000D01*
X160763748Y-86410000D02*
X162186252Y-86410000D01*
%TO.C,SW1*%
X166600000Y-78950000D02*
X169000000Y-78950000D01*
X166600000Y-83050000D02*
X166600000Y-78950000D01*
X166600000Y-87050000D02*
X166600000Y-91150000D01*
X166600000Y-91150000D02*
X178400000Y-91150000D01*
X168400000Y-92250000D02*
X168700000Y-92550000D01*
X168400000Y-92850000D02*
X168400000Y-92250000D01*
X168700000Y-92550000D02*
X168400000Y-92850000D01*
X171200000Y-78950000D02*
X173800000Y-78950000D01*
X172000000Y-85050000D02*
X173000000Y-85050000D01*
X172500000Y-85550000D02*
X172500000Y-84550000D01*
X176000000Y-78950000D02*
X178400000Y-78950000D01*
X178400000Y-78950000D02*
X178400000Y-83050000D01*
X178400000Y-87050000D02*
X178400000Y-91150000D01*
X175500000Y-85050000D02*
G75*
G02*
X169500000Y-85050000I-3000000J0D01*
G01*
X169500000Y-85050000D02*
G75*
G02*
X175500000Y-85050000I3000000J0D01*
G01*
%TO.C,BZ1*%
D14*
X158250000Y-108250000D02*
X158750000Y-108750000D01*
X158750000Y-107500000D02*
X158750000Y-108750000D01*
X158750000Y-108750000D02*
X158250000Y-108250000D01*
X158750000Y-108750000D02*
X159250000Y-108250000D01*
X159500000Y-111500000D02*
X160500000Y-110500000D01*
X159750000Y-110500000D02*
X160500000Y-110500000D01*
X160500000Y-110500000D02*
X160500000Y-111250000D01*
D11*
X161250000Y-109750000D02*
G75*
G02*
X152250000Y-109750000I-4500000J0D01*
G01*
X152250000Y-109750000D02*
G75*
G02*
X161250000Y-109750000I4500000J0D01*
G01*
X164000000Y-109750000D02*
G75*
G02*
X152000000Y-109750000I-6000000J0D01*
G01*
X152000000Y-109750000D02*
G75*
G02*
X164000000Y-109750000I6000000J0D01*
G01*
%TO.C,U1*%
D12*
X133681177Y-95497284D02*
X133681177Y-87502012D01*
X134181177Y-87002012D02*
X135725189Y-87001000D01*
X135722189Y-95998000D02*
X134180905Y-95997284D01*
D14*
X135734189Y-84515000D02*
X135734189Y-98485000D01*
X154784189Y-82610000D02*
X137639189Y-82610000D01*
X154784189Y-100390000D02*
X137639189Y-100390000D01*
X156689189Y-98485000D02*
X156689189Y-84515000D01*
D12*
X133681177Y-87502012D02*
G75*
G02*
X134181177Y-87001988I500012J12D01*
G01*
X134180905Y-95997284D02*
G75*
G02*
X133681205Y-95497284I384J500084D01*
G01*
D14*
X135734189Y-84515000D02*
G75*
G02*
X137639189Y-82610000I1905000J0D01*
G01*
X137635189Y-100390000D02*
G75*
G02*
X135730189Y-98485000I0J1905000D01*
G01*
X154784189Y-82610000D02*
G75*
G02*
X156689189Y-84515000I-1J-1905001D01*
G01*
X156689189Y-98485000D02*
G75*
G02*
X154784189Y-100390000I-1905001J1D01*
G01*
D15*
X136390177Y-100616012D02*
G75*
G02*
X135886177Y-100616012I-252000J0D01*
G01*
X135886177Y-100616012D02*
G75*
G02*
X136390177Y-100616012I252000J0D01*
G01*
X137113177Y-99399012D02*
G75*
G02*
X136609177Y-99399012I-252000J0D01*
G01*
X136609177Y-99399012D02*
G75*
G02*
X137113177Y-99399012I252000J0D01*
G01*
%TO.C,J4*%
D13*
X133400000Y-103900000D02*
X135900000Y-103900000D01*
X133400000Y-109100000D02*
X133400000Y-103900000D01*
X135900000Y-103400000D02*
X139100000Y-103400000D01*
X135900000Y-103900000D02*
X135900000Y-103400000D01*
X135900000Y-109100000D02*
X133400000Y-109100000D01*
X135900000Y-109600000D02*
X135900000Y-109100000D01*
X137100000Y-109600000D02*
X135900000Y-109600000D01*
X137100000Y-109600000D02*
X137100000Y-111600000D01*
X139700000Y-109600000D02*
X139700000Y-111600000D01*
X141700000Y-103400000D02*
X150600000Y-103400000D01*
X146200000Y-109600000D02*
X139700000Y-109600000D01*
X150600000Y-103400000D02*
X150600000Y-109600000D01*
X150600000Y-109600000D02*
X149400000Y-109600000D01*
%TO.C,J2*%
X165390000Y-109860000D02*
X165390000Y-101300000D01*
X165390000Y-109860000D02*
X167900000Y-109860000D01*
X167700000Y-98140000D02*
X178919200Y-98140000D01*
X170900000Y-109860000D02*
X178919200Y-109860000D01*
%TO.C,C3*%
X160763748Y-87190000D02*
X162186252Y-87190000D01*
X160763748Y-89010000D02*
X162186252Y-89010000D01*
%TD*%
M02*
