%TF.GenerationSoftware,KiCad,Pcbnew,10.0.5*%
%TF.CreationDate,2026-08-09T03:42:05-07:00*%
%TF.ProjectId,micro-keyer,6d696372-6f2d-46b6-9579-65722e6b6963,rev?*%
%TF.SameCoordinates,Original*%
%TF.FileFunction,Copper,L1,Top*%
%TF.FilePolarity,Positive*%
%FSLAX46Y46*%
G04 Gerber Fmt 4.6, Leading zero omitted, Abs format (unit mm)*
G04 Created by KiCad (PCBNEW 10.0.5) date 2026-08-09 03:42:05*
%MOMM*%
%LPD*%
G01*
G04 APERTURE LIST*
G04 Aperture macros list*
%AMRoundRect*
0 Rectangle with rounded corners*
0 $1 Rounding radius*
0 $2 $3 $4 $5 $6 $7 $8 $9 X,Y pos of 4 corners*
0 Add a 4 corners polygon primitive as box body*
4,1,4,$2,$3,$4,$5,$6,$7,$8,$9,$2,$3,0*
0 Add four circle primitives for the rounded corners*
1,1,$1+$1,$2,$3*
1,1,$1+$1,$4,$5*
1,1,$1+$1,$6,$7*
1,1,$1+$1,$8,$9*
0 Add four rect primitives between the rounded corners*
20,1,$1+$1,$2,$3,$4,$5,0*
20,1,$1+$1,$4,$5,$6,$7,0*
20,1,$1+$1,$6,$7,$8,$9,0*
20,1,$1+$1,$8,$9,$2,$3,0*%
G04 Aperture macros list end*
%TA.AperFunction,ComponentPad*%
%ADD10RoundRect,0.250000X-0.750000X-0.750000X0.750000X-0.750000X0.750000X0.750000X-0.750000X0.750000X0*%
%TD*%
%TA.AperFunction,ComponentPad*%
%ADD11C,2.000000*%
%TD*%
%TA.AperFunction,ComponentPad*%
%ADD12RoundRect,0.300000X-0.700000X-0.700000X0.700000X-0.700000X0.700000X0.700000X-0.700000X0.700000X0*%
%TD*%
%TA.AperFunction,ComponentPad*%
%ADD13RoundRect,0.190500X-0.444500X-0.444500X0.444500X-0.444500X0.444500X0.444500X-0.444500X0.444500X0*%
%TD*%
%TA.AperFunction,ComponentPad*%
%ADD14R,1.800000X1.800000*%
%TD*%
%TA.AperFunction,ComponentPad*%
%ADD15C,1.800000*%
%TD*%
%TA.AperFunction,ComponentPad*%
%ADD16RoundRect,0.500000X-0.500000X-1.000000X0.500000X-1.000000X0.500000X1.000000X-0.500000X1.000000X0*%
%TD*%
%TA.AperFunction,ComponentPad*%
%ADD17R,1.500000X1.050000*%
%TD*%
%TA.AperFunction,ComponentPad*%
%ADD18O,1.500000X1.050000*%
%TD*%
%TA.AperFunction,ComponentPad*%
%ADD19R,1.050000X1.500000*%
%TD*%
%TA.AperFunction,ComponentPad*%
%ADD20O,1.050000X1.500000*%
%TD*%
%TA.AperFunction,SMDPad,CuDef*%
%ADD21R,2.200000X2.800000*%
%TD*%
%TA.AperFunction,SMDPad,CuDef*%
%ADD22R,2.800000X2.800000*%
%TD*%
%TA.AperFunction,ComponentPad*%
%ADD23R,2.000000X2.000000*%
%TD*%
%TA.AperFunction,SMDPad,CuDef*%
%ADD24RoundRect,0.200000X-0.800000X1.175000X-0.800000X-1.175000X0.800000X-1.175000X0.800000X1.175000X0*%
%TD*%
%TA.AperFunction,SMDPad,CuDef*%
%ADD25RoundRect,0.200000X0.800000X-1.175000X0.800000X1.175000X-0.800000X1.175000X-0.800000X-1.175000X0*%
%TD*%
%TA.AperFunction,SMDPad,CuDef*%
%ADD26C,1.700000*%
%TD*%
%TA.AperFunction,SMDPad,CuDef*%
%ADD27RoundRect,0.110000X-1.140000X-0.440000X1.140000X-0.440000X1.140000X0.440000X-1.140000X0.440000X0*%
%TD*%
%TA.AperFunction,ComponentPad*%
%ADD28O,2.500000X3.500000*%
%TD*%
%TA.AperFunction,ComponentPad*%
%ADD29O,3.000000X1.500000*%
%TD*%
%TA.AperFunction,ComponentPad*%
%ADD30O,3.500000X2.500000*%
%TD*%
%TA.AperFunction,ComponentPad*%
%ADD31O,2.100000X3.100000*%
%TD*%
%TA.AperFunction,ComponentPad*%
%ADD32RoundRect,0.200000X0.200000X0.450000X-0.200000X0.450000X-0.200000X-0.450000X0.200000X-0.450000X0*%
%TD*%
%TA.AperFunction,ComponentPad*%
%ADD33O,0.800000X1.300000*%
%TD*%
%TA.AperFunction,ViaPad*%
%ADD34C,0.600000*%
%TD*%
%TA.AperFunction,Conductor*%
%ADD35C,0.200000*%
%TD*%
G04 APERTURE END LIST*
D10*
%TO.P,SSD1,1,GND_1*%
%TO.N,GND*%
X147500000Y-79500000D03*
D11*
%TO.P,SSD1,2,VCC_2*%
%TO.N,+3V3*%
X150000000Y-79500000D03*
%TO.P,SSD1,3,SCL_3*%
%TO.N,Net-(SSD1-SCL)*%
X152500000Y-79500000D03*
%TO.P,SSD1,4,SDA_4*%
%TO.N,Net-(SSD1-SDA)*%
X155000000Y-79500000D03*
%TD*%
D12*
%TO.P,SW2,*%
%TO.N,*%
X161950000Y-121500000D03*
X177950000Y-121500000D03*
D13*
%TO.P,SW2,1,1_1*%
%TO.N,/MIDI*%
X165850000Y-121500000D03*
%TO.P,SW2,2,2_2*%
%TO.N,/HID*%
X167850000Y-121500000D03*
%TO.P,SW2,3,3_3*%
%TO.N,GND*%
X169850000Y-121500000D03*
%TO.P,SW2,4,4_4*%
%TO.N,/SERIAL*%
X173850000Y-121500000D03*
%TD*%
D14*
%TO.P,RV1,1,1_1*%
%TO.N,unconnected-(RV1-Pad1)*%
X166275000Y-82250000D03*
D15*
%TO.P,RV1,2,2_2*%
%TO.N,Net-(Q1-E)*%
X166275000Y-84750000D03*
%TO.P,RV1,3,3_3*%
%TO.N,/AAudio*%
X166275000Y-87250000D03*
D16*
%TO.P,RV1,MP*%
%TO.N,N/C*%
X173775000Y-80000000D03*
X173775000Y-89500000D03*
%TD*%
D11*
%TO.P,SW3,1,1_1*%
%TO.N,Net-(U1-D10)*%
X153000000Y-114500000D03*
X159500000Y-114500000D03*
%TO.P,SW3,2,2_2*%
%TO.N,GND*%
X153000000Y-119000000D03*
X159500000Y-119000000D03*
%TD*%
D17*
%TO.P,Q1,1,E_1*%
%TO.N,Net-(Q1-E)*%
X162500000Y-91500000D03*
D18*
%TO.P,Q1,2,B_2*%
%TO.N,/PWM*%
X162500000Y-90230000D03*
%TO.P,Q1,3,C_3*%
%TO.N,+3V3*%
X162500000Y-88960000D03*
%TD*%
D11*
%TO.P,SW1,1,1_1*%
%TO.N,GND*%
X153000000Y-107000000D03*
X159500000Y-107000000D03*
%TO.P,SW1,2,2_2*%
%TO.N,Net-(U1-D3)*%
X153000000Y-111500000D03*
X159500000Y-111500000D03*
%TD*%
D19*
%TO.P,Q2,1,S_1*%
%TO.N,GND*%
X159210000Y-101250000D03*
D20*
%TO.P,Q2,2,G_2*%
%TO.N,/Radio Controll*%
X160480000Y-101250000D03*
%TO.P,Q2,3,D_3*%
%TO.N,Net-(Q2-D)*%
X161750000Y-101250000D03*
%TD*%
D21*
%TO.P,J3,R*%
%TO.N,/Dah*%
X140400000Y-102800000D03*
%TO.P,J3,S*%
%TO.N,GND*%
X138400000Y-110200000D03*
D22*
%TO.P,J3,T*%
%TO.N,/Dit*%
X147800000Y-110200000D03*
%TD*%
D23*
%TO.P,BZ1,1,+_1*%
%TO.N,Net-(BZ1-+)*%
X169750000Y-98250000D03*
D11*
%TO.P,BZ1,2,-_2*%
%TO.N,GND*%
X174750000Y-98250000D03*
%TD*%
D24*
%TO.P,U1,1,D0_1*%
%TO.N,/Dit*%
X138655189Y-99582500D03*
%TO.P,U1,2,D1_2*%
%TO.N,/Dah*%
X141195189Y-99582500D03*
%TO.P,U1,3,D2_3*%
%TO.N,/PWM*%
X143735189Y-99582500D03*
%TO.P,U1,4,D3_4*%
%TO.N,Net-(U1-D3)*%
X146275189Y-99582500D03*
%TO.P,U1,5,D4_5*%
%TO.N,Net-(SSD1-SDA)*%
X148815189Y-99582500D03*
%TO.P,U1,6,D5_6*%
%TO.N,Net-(SSD1-SCL)*%
X151355189Y-99582500D03*
%TO.P,U1,7,D6_7*%
%TO.N,/HID*%
X153895189Y-99582500D03*
D25*
%TO.P,U1,8,D7_8*%
%TO.N,/SERIAL*%
X153895189Y-83417500D03*
%TO.P,U1,9,D8_9*%
%TO.N,/MIDI*%
X151355189Y-83417500D03*
%TO.P,U1,10,D9_10*%
%TO.N,/Radio Controll*%
X148815189Y-83417500D03*
%TO.P,U1,11,D10_11*%
%TO.N,Net-(U1-D10)*%
X146275189Y-83417500D03*
%TO.P,U1,12,3V3_OUT_12*%
%TO.N,+3V3*%
X143735189Y-83417500D03*
%TO.P,U1,13,GND_13*%
%TO.N,GND*%
X141195189Y-83417500D03*
%TO.P,U1,14,VBUS_14*%
%TO.N,unconnected-(U1-VBUS-Pad14)*%
X138655189Y-83417500D03*
D26*
%TO.P,U1,15,D11_15*%
%TO.N,unconnected-(U1-D11-Pad15)*%
X142465189Y-86499006D03*
%TO.P,U1,16,D12_16*%
%TO.N,unconnected-(U1-D12-Pad16)*%
X145005189Y-86499006D03*
%TO.P,U1,17,D13_17*%
%TO.N,unconnected-(U1-D13-Pad17)*%
X147545189Y-86499006D03*
%TO.P,U1,18,D14_18*%
%TO.N,unconnected-(U1-D14-Pad18)*%
X150085189Y-86499006D03*
%TO.P,U1,19,D15_19*%
%TO.N,unconnected-(U1-D15-Pad19)*%
X150085189Y-96659006D03*
%TO.P,U1,20,D16_20*%
%TO.N,unconnected-(U1-D16-Pad20)*%
X147545189Y-96659006D03*
%TO.P,U1,21,D17_21*%
%TO.N,unconnected-(U1-D17-Pad21)*%
X145005189Y-96659006D03*
%TO.P,U1,22,D18_22*%
%TO.N,unconnected-(U1-D18-Pad22)*%
X142465189Y-96659006D03*
%TO.P,U1,23,SWDIO_23*%
%TO.N,unconnected-(U1-SWDIO-Pad23)*%
X137625189Y-92770000D03*
%TO.P,U1,24,SWDCLK_24*%
%TO.N,unconnected-(U1-SWDCLK-Pad24)*%
X137625189Y-90230000D03*
%TO.P,U1,25,EN_25*%
%TO.N,Net-(U1-EN)*%
X140165189Y-92770000D03*
%TO.P,U1,26,GND_26*%
%TO.N,unconnected-(U1-GND-Pad26)*%
X140165189Y-90230000D03*
%TO.P,U1,27,BOOT_27*%
%TO.N,Net-(U1-BOOT)*%
X142705189Y-92770000D03*
%TO.P,U1,28,3V3_OUT_28*%
%TO.N,unconnected-(U1-3V3_OUT-Pad28)*%
X142705189Y-90230000D03*
D27*
%TO.P,U1,29,VBAT_29*%
%TO.N,Net-(J1-Pin_1)*%
X151250000Y-92500000D03*
%TO.P,U1,30,GND_30*%
%TO.N,Net-(J1-Pin_2)*%
X151250000Y-90500000D03*
%TD*%
D21*
%TO.P,J4,R*%
%TO.N,Net-(Q2-D)*%
X140400000Y-114000000D03*
%TO.P,J4,S*%
%TO.N,GND*%
X138400000Y-121400000D03*
D22*
%TO.P,J4,T*%
%TO.N,Net-(Q2-D)*%
X147800000Y-121400000D03*
%TD*%
D28*
%TO.P,J2,G*%
%TO.N,GND*%
X177750000Y-112000000D03*
D29*
%TO.P,J2,S1*%
%TO.N,/AAudio*%
X169450000Y-117000000D03*
D30*
%TO.P,J2,SN1*%
%TO.N,Net-(BZ1-+)*%
X171150000Y-114500000D03*
%TO.P,J2,T1*%
%TO.N,/AAudio*%
X174250000Y-107500000D03*
D31*
%TO.P,J2,TN1*%
%TO.N,Net-(BZ1-+)*%
X166650000Y-107800000D03*
%TD*%
D32*
%TO.P,J1,1,Pin_1_1*%
%TO.N,Net-(J1-Pin_1)*%
X162750000Y-80750000D03*
D33*
%TO.P,J1,2,Pin_2_2*%
%TO.N,Net-(J1-Pin_2)*%
X161500000Y-80750000D03*
%TD*%
D34*
%TO.N,/MIDI*%
X151750000Y-85500000D03*
%TO.N,Net-(U1-D10)*%
X146250000Y-85500000D03*
X146250000Y-85500000D03*
%TO.N,GND*%
X157250000Y-102500000D03*
X159250000Y-84750000D03*
X156000000Y-96000000D03*
X169750000Y-108250000D03*
X154250000Y-105000000D03*
X163500000Y-96500000D03*
%TO.N,Net-(U1-D3)*%
X147000000Y-101750000D03*
%TO.N,/Radio Controll*%
X151250000Y-81250000D03*
X159750000Y-100000000D03*
%TO.N,/HID*%
X156500000Y-100000000D03*
X166481671Y-119036657D03*
%TO.N,/SERIAL*%
X153500000Y-86000000D03*
X160750000Y-97000000D03*
%TO.N,Net-(U1-EN)*%
X141500000Y-91500000D03*
%TO.N,Net-(U1-BOOT)*%
X144000000Y-94750000D03*
%TO.N,Net-(J1-Pin_2)*%
X153500000Y-90000000D03*
%TO.N,Net-(J1-Pin_1)*%
X153500000Y-92500000D03*
%TO.N,/MIDI*%
X152500000Y-104500000D03*
%TD*%
%TO.N,/MIDI*%
D35*
X151355189Y-85105189D02*
X151750000Y-85500000D01*
X151355189Y-83417500D02*
X151355189Y-85105189D01*
%TO.N,Net-(Q1-E)*%
X164225000Y-90000000D02*
X162725000Y-91500000D01*
X166275000Y-84750000D02*
X164250000Y-86775000D01*
X164250000Y-86775000D02*
X164250000Y-90000000D01*
X164250000Y-90000000D02*
X164225000Y-90000000D01*
X162725000Y-91500000D02*
X162500000Y-91500000D01*
%TO.N,/AAudio*%
X174250000Y-107500000D02*
X174250000Y-104500000D01*
X174250000Y-115046016D02*
X174250000Y-107500000D01*
X172000000Y-102250000D02*
X172000000Y-92975000D01*
X169450000Y-117000000D02*
X172296016Y-117000000D01*
X174250000Y-104500000D02*
X172000000Y-102250000D01*
X172000000Y-92975000D02*
X166275000Y-87250000D01*
X172296016Y-117000000D02*
X174250000Y-115046016D01*
%TO.N,Net-(U1-D10)*%
X153000000Y-114500000D02*
X159500000Y-114500000D01*
X146250000Y-85500000D02*
X146275189Y-85474811D01*
X146275189Y-85474811D02*
X146275189Y-83417500D01*
%TO.N,/PWM*%
X162500000Y-90230000D02*
X161895000Y-90230000D01*
X161895000Y-90230000D02*
X159032843Y-93092157D01*
X155415686Y-102900000D02*
X159032843Y-99282843D01*
X143735189Y-100957500D02*
X145677689Y-102900000D01*
X159032843Y-93092157D02*
X159032843Y-99282843D01*
X145677689Y-102900000D02*
X155415686Y-102900000D01*
X143735189Y-99582500D02*
X143735189Y-100957500D01*
%TO.N,+3V3*%
X144117503Y-81660186D02*
X147989814Y-81660186D01*
X162500000Y-88960000D02*
X162500000Y-84750000D01*
X143735189Y-83417500D02*
X143735189Y-82042500D01*
X155950000Y-78200000D02*
X151450000Y-78200000D01*
X151450000Y-78200000D02*
X150150000Y-79500000D01*
X162500000Y-84750000D02*
X155950000Y-78200000D01*
X147989814Y-81660186D02*
X150150000Y-79500000D01*
X143735189Y-82042500D02*
X144117503Y-81660186D01*
%TO.N,Net-(SSD1-SCL)*%
X155195189Y-82029852D02*
X155195189Y-94367500D01*
X151355189Y-98207500D02*
X151355189Y-99582500D01*
X152650000Y-79500000D02*
X152665337Y-79500000D01*
X152665337Y-79500000D02*
X155195189Y-82029852D01*
X155195189Y-94367500D02*
X151355189Y-98207500D01*
%TO.N,Net-(SSD1-SDA)*%
X158000000Y-82350000D02*
X158000000Y-99750000D01*
X150000000Y-102500000D02*
X148815189Y-101315189D01*
X155150000Y-79500000D02*
X158000000Y-82350000D01*
X158000000Y-99750000D02*
X155250000Y-102500000D01*
X148815189Y-101315189D02*
X148815189Y-99582500D01*
X155250000Y-102500000D02*
X150000000Y-102500000D01*
%TO.N,Net-(U1-D3)*%
X153000000Y-111500000D02*
X159500000Y-111500000D01*
X146275189Y-101025189D02*
X147000000Y-101750000D01*
X146275189Y-99582500D02*
X146275189Y-101025189D01*
%TO.N,/Radio Controll*%
X149607689Y-81250000D02*
X148815189Y-82042500D01*
X160480000Y-101250000D02*
X160480000Y-100730000D01*
X160480000Y-100730000D02*
X159750000Y-100000000D01*
X151250000Y-81250000D02*
X149607689Y-81250000D01*
X148815189Y-82042500D02*
X148815189Y-83417500D01*
%TO.N,Net-(Q2-D)*%
X161750000Y-101475000D02*
X159725000Y-103500000D01*
X150500000Y-118950000D02*
X148050000Y-121400000D01*
X151750000Y-103500000D02*
X150500000Y-104750000D01*
X159725000Y-103500000D02*
X151750000Y-103500000D01*
X161750000Y-101250000D02*
X161750000Y-101475000D01*
X150500000Y-104750000D02*
X150500000Y-118950000D01*
X140650000Y-114000000D02*
X148050000Y-121400000D01*
%TO.N,/HID*%
X156082500Y-99582500D02*
X153895189Y-99582500D01*
X167500000Y-120054986D02*
X167500000Y-121150000D01*
X156500000Y-100000000D02*
X156082500Y-99582500D01*
X167850000Y-121500000D02*
X167900000Y-121500000D01*
X166481671Y-119036657D02*
X167500000Y-120054986D01*
X167500000Y-121150000D02*
X167850000Y-121500000D01*
%TO.N,/SERIAL*%
X169000000Y-118500000D02*
X166750000Y-118500000D01*
X153895189Y-85604811D02*
X153500000Y-86000000D01*
X173900000Y-121500000D02*
X172000000Y-121500000D01*
X153895189Y-83417500D02*
X153895189Y-85604811D01*
X172000000Y-121500000D02*
X169000000Y-118500000D01*
X166750000Y-118500000D02*
X163500000Y-115250000D01*
X163500000Y-99750000D02*
X160750000Y-97000000D01*
X163500000Y-115250000D02*
X163500000Y-99750000D01*
%TO.N,/Dah*%
X141195189Y-102004811D02*
X140400000Y-102800000D01*
X141195189Y-99582500D02*
X141195189Y-102004811D01*
%TO.N,/Dit*%
X137500000Y-100737689D02*
X137500000Y-107250000D01*
X138655189Y-99582500D02*
X137500000Y-100737689D01*
X138500000Y-108250000D02*
X145850000Y-108250000D01*
X145850000Y-108250000D02*
X147800000Y-110200000D01*
X137500000Y-107250000D02*
X138500000Y-108250000D01*
%TO.N,Net-(BZ1-+)*%
X166150000Y-101850000D02*
X169750000Y-98250000D01*
X166650000Y-107800000D02*
X166650000Y-110000000D01*
X166150000Y-107300000D02*
X166150000Y-101850000D01*
X166650000Y-110000000D02*
X171150000Y-114500000D01*
X166650000Y-107800000D02*
X166150000Y-107300000D01*
%TO.N,Net-(U1-EN)*%
X141435189Y-91500000D02*
X140165189Y-92770000D01*
X141500000Y-91500000D02*
X141435189Y-91500000D01*
%TO.N,Net-(U1-BOOT)*%
X142705189Y-93705189D02*
X142705189Y-92770000D01*
X144000000Y-94750000D02*
X143750000Y-94750000D01*
X143750000Y-94750000D02*
X142705189Y-93705189D01*
%TO.N,Net-(J1-Pin_2)*%
X153000000Y-90500000D02*
X151250000Y-90500000D01*
X153500000Y-90000000D02*
X153000000Y-90500000D01*
%TO.N,Net-(J1-Pin_1)*%
X153500000Y-92500000D02*
X151250000Y-92500000D01*
%TO.N,/MIDI*%
X162750000Y-116750000D02*
X162750000Y-107411522D01*
X165850000Y-121500000D02*
X165500000Y-121150000D01*
X165900000Y-121500000D02*
X165850000Y-121500000D01*
X162750000Y-107411522D02*
X159738478Y-104400000D01*
X165500000Y-119500000D02*
X162750000Y-116750000D01*
X152600000Y-104400000D02*
X152500000Y-104500000D01*
X165500000Y-121150000D02*
X165500000Y-119500000D01*
X159738478Y-104400000D02*
X152600000Y-104400000D01*
%TD*%
%TA.AperFunction,Conductor*%
%TO.N,GND*%
G36*
X179442539Y-77020185D02*
G01*
X179488294Y-77072989D01*
X179499500Y-77124500D01*
X179499500Y-120218841D01*
X179479815Y-120285880D01*
X179427011Y-120331635D01*
X179357853Y-120341579D01*
X179294297Y-120312554D01*
X179284770Y-120302631D01*
X179284740Y-120302662D01*
X179152262Y-120170184D01*
X178999523Y-120074211D01*
X178829254Y-120014631D01*
X178829249Y-120014630D01*
X178694960Y-119999500D01*
X178694954Y-119999500D01*
X177205046Y-119999500D01*
X177205039Y-119999500D01*
X177070750Y-120014630D01*
X177070745Y-120014631D01*
X176900476Y-120074211D01*
X176747737Y-120170184D01*
X176620184Y-120297737D01*
X176524211Y-120450476D01*
X176464631Y-120620745D01*
X176464630Y-120620750D01*
X176449500Y-120755039D01*
X176449500Y-122244960D01*
X176464630Y-122379249D01*
X176464631Y-122379254D01*
X176524211Y-122549523D01*
X176620184Y-122702262D01*
X176705741Y-122787819D01*
X176739226Y-122849142D01*
X176734242Y-122918834D01*
X176692370Y-122974767D01*
X176626906Y-122999184D01*
X176618060Y-122999500D01*
X163281940Y-122999500D01*
X163214901Y-122979815D01*
X163169146Y-122927011D01*
X163159202Y-122857853D01*
X163188227Y-122794297D01*
X163194259Y-122787819D01*
X163279816Y-122702262D01*
X163375789Y-122549522D01*
X163435368Y-122379255D01*
X163435986Y-122373777D01*
X163450499Y-122244960D01*
X163450500Y-122244956D01*
X163450500Y-120755043D01*
X163450499Y-120755039D01*
X163435369Y-120620750D01*
X163435368Y-120620745D01*
X163375788Y-120450476D01*
X163336582Y-120388080D01*
X163279816Y-120297738D01*
X163152262Y-120170184D01*
X163110643Y-120144033D01*
X162999523Y-120074211D01*
X162829254Y-120014631D01*
X162829249Y-120014630D01*
X162694960Y-119999500D01*
X162694954Y-119999500D01*
X161205046Y-119999500D01*
X161205039Y-119999500D01*
X161070750Y-120014630D01*
X161070745Y-120014631D01*
X160900476Y-120074211D01*
X160747737Y-120170184D01*
X160620184Y-120297737D01*
X160524211Y-120450476D01*
X160464631Y-120620745D01*
X160464630Y-120620750D01*
X160449500Y-120755039D01*
X160449500Y-122244960D01*
X160464630Y-122379249D01*
X160464631Y-122379254D01*
X160524211Y-122549523D01*
X160620184Y-122702262D01*
X160705741Y-122787819D01*
X160739226Y-122849142D01*
X160734242Y-122918834D01*
X160692370Y-122974767D01*
X160626906Y-122999184D01*
X160618060Y-122999500D01*
X149822244Y-122999500D01*
X149755205Y-122979815D01*
X149709450Y-122927011D01*
X149698954Y-122862247D01*
X149700500Y-122847873D01*
X149700499Y-120650095D01*
X149720184Y-120583057D01*
X149736813Y-120562420D01*
X150858506Y-119440728D01*
X150858511Y-119440724D01*
X150868714Y-119430520D01*
X150868716Y-119430520D01*
X150980520Y-119318716D01*
X151033818Y-119226401D01*
X151059577Y-119181785D01*
X151100500Y-119029058D01*
X151100500Y-118870943D01*
X151100500Y-111381902D01*
X151499500Y-111381902D01*
X151499500Y-111618097D01*
X151536446Y-111851368D01*
X151609433Y-112075996D01*
X151694249Y-112242455D01*
X151716657Y-112286433D01*
X151855483Y-112477510D01*
X152022490Y-112644517D01*
X152213567Y-112783343D01*
X152322490Y-112838842D01*
X152421941Y-112889515D01*
X152472737Y-112937490D01*
X152489532Y-113005311D01*
X152466995Y-113071446D01*
X152421941Y-113110485D01*
X152213566Y-113216657D01*
X152104550Y-113295862D01*
X152022490Y-113355483D01*
X152022488Y-113355485D01*
X152022487Y-113355485D01*
X151855485Y-113522487D01*
X151855485Y-113522488D01*
X151855483Y-113522490D01*
X151795862Y-113604550D01*
X151716657Y-113713566D01*
X151609433Y-113924003D01*
X151536446Y-114148631D01*
X151499500Y-114381902D01*
X151499500Y-114618097D01*
X151536446Y-114851368D01*
X151609433Y-115075996D01*
X151711278Y-115275876D01*
X151716657Y-115286433D01*
X151855483Y-115477510D01*
X152022490Y-115644517D01*
X152213567Y-115783343D01*
X152312991Y-115834002D01*
X152424003Y-115890566D01*
X152424005Y-115890566D01*
X152424008Y-115890568D01*
X152533946Y-115926289D01*
X152648631Y-115963553D01*
X152881903Y-116000500D01*
X152881908Y-116000500D01*
X153118097Y-116000500D01*
X153351368Y-115963553D01*
X153393895Y-115949735D01*
X153575992Y-115890568D01*
X153786433Y-115783343D01*
X153977510Y-115644517D01*
X154144517Y-115477510D01*
X154283343Y-115286433D01*
X154343583Y-115168204D01*
X154391558Y-115117409D01*
X154454068Y-115100500D01*
X158045932Y-115100500D01*
X158112971Y-115120185D01*
X158156416Y-115168203D01*
X158216657Y-115286433D01*
X158355483Y-115477510D01*
X158522490Y-115644517D01*
X158713567Y-115783343D01*
X158812991Y-115834002D01*
X158924003Y-115890566D01*
X158924005Y-115890566D01*
X158924008Y-115890568D01*
X159033946Y-115926289D01*
X159148631Y-115963553D01*
X159381903Y-116000500D01*
X159381908Y-116000500D01*
X159618097Y-116000500D01*
X159851368Y-115963553D01*
X159893895Y-115949735D01*
X160075992Y-115890568D01*
X160286433Y-115783343D01*
X160477510Y-115644517D01*
X160644517Y-115477510D01*
X160783343Y-115286433D01*
X160890568Y-115075992D01*
X160963553Y-114851368D01*
X160980255Y-114745918D01*
X161000500Y-114618097D01*
X161000500Y-114381902D01*
X160963553Y-114148631D01*
X160890566Y-113924003D01*
X160834002Y-113812991D01*
X160783343Y-113713567D01*
X160644517Y-113522490D01*
X160477510Y-113355483D01*
X160286433Y-113216657D01*
X160078057Y-113110484D01*
X160027262Y-113062511D01*
X160010467Y-112994690D01*
X160033004Y-112928555D01*
X160078057Y-112889515D01*
X160286433Y-112783343D01*
X160477510Y-112644517D01*
X160644517Y-112477510D01*
X160783343Y-112286433D01*
X160890568Y-112075992D01*
X160963553Y-111851368D01*
X160995783Y-111647876D01*
X161000500Y-111618097D01*
X161000500Y-111381902D01*
X160963553Y-111148631D01*
X160890566Y-110924003D01*
X160783342Y-110713566D01*
X160644517Y-110522490D01*
X160477510Y-110355483D01*
X160286433Y-110216657D01*
X160075996Y-110109433D01*
X159851368Y-110036446D01*
X159618097Y-109999500D01*
X159618092Y-109999500D01*
X159381908Y-109999500D01*
X159381903Y-109999500D01*
X159148631Y-110036446D01*
X158924003Y-110109433D01*
X158713566Y-110216657D01*
X158604550Y-110295862D01*
X158522490Y-110355483D01*
X158522488Y-110355485D01*
X158522487Y-110355485D01*
X158355485Y-110522487D01*
X158355485Y-110522488D01*
X158355483Y-110522490D01*
X158295862Y-110604550D01*
X158216657Y-110713566D01*
X158156417Y-110831795D01*
X158108442Y-110882591D01*
X158045932Y-110899500D01*
X154454068Y-110899500D01*
X154387029Y-110879815D01*
X154343583Y-110831795D01*
X154283342Y-110713566D01*
X154144517Y-110522490D01*
X153977510Y-110355483D01*
X153786433Y-110216657D01*
X153575996Y-110109433D01*
X153351368Y-110036446D01*
X153118097Y-109999500D01*
X153118092Y-109999500D01*
X152881908Y-109999500D01*
X152881903Y-109999500D01*
X152648631Y-110036446D01*
X152424003Y-110109433D01*
X152213566Y-110216657D01*
X152104550Y-110295862D01*
X152022490Y-110355483D01*
X152022488Y-110355485D01*
X152022487Y-110355485D01*
X151855485Y-110522487D01*
X151855485Y-110522488D01*
X151855483Y-110522490D01*
X151795862Y-110604550D01*
X151716657Y-110713566D01*
X151609433Y-110924003D01*
X151536446Y-111148631D01*
X151499500Y-111381902D01*
X151100500Y-111381902D01*
X151100500Y-105050096D01*
X151120185Y-104983057D01*
X151136815Y-104962419D01*
X151505744Y-104593489D01*
X151567067Y-104560005D01*
X151636759Y-104564989D01*
X151692692Y-104606861D01*
X151715042Y-104656979D01*
X151730261Y-104733491D01*
X151730264Y-104733501D01*
X151790602Y-104879172D01*
X151790609Y-104879185D01*
X151878210Y-105010288D01*
X151878213Y-105010292D01*
X151989707Y-105121786D01*
X151989711Y-105121789D01*
X152120814Y-105209390D01*
X152120827Y-105209397D01*
X152266498Y-105269735D01*
X152266503Y-105269737D01*
X152421153Y-105300499D01*
X152421156Y-105300500D01*
X152421158Y-105300500D01*
X152578844Y-105300500D01*
X152578845Y-105300499D01*
X152733497Y-105269737D01*
X152879179Y-105209394D01*
X153010289Y-105121789D01*
X153095260Y-105036817D01*
X153156581Y-105003334D01*
X153182940Y-105000500D01*
X159438381Y-105000500D01*
X159505420Y-105020185D01*
X159526062Y-105036819D01*
X162113181Y-107623938D01*
X162146666Y-107685261D01*
X162149500Y-107711619D01*
X162149500Y-116663330D01*
X162149499Y-116663348D01*
X162149499Y-116829054D01*
X162149498Y-116829054D01*
X162190423Y-116981785D01*
X162219358Y-117031900D01*
X162219359Y-117031904D01*
X162219360Y-117031904D01*
X162257763Y-117098422D01*
X162269479Y-117118714D01*
X162269481Y-117118717D01*
X162388349Y-117237585D01*
X162388355Y-117237590D01*
X164863181Y-119712416D01*
X164896666Y-119773739D01*
X164899500Y-119800097D01*
X164899500Y-120532916D01*
X164879815Y-120599955D01*
X164863181Y-120620597D01*
X164857560Y-120626217D01*
X164857556Y-120626222D01*
X164770750Y-120769819D01*
X164720826Y-120930032D01*
X164714500Y-120999655D01*
X164714500Y-122000354D01*
X164720825Y-122069966D01*
X164720828Y-122069977D01*
X164770747Y-122230175D01*
X164770749Y-122230179D01*
X164857556Y-122373777D01*
X164857560Y-122373782D01*
X164976217Y-122492439D01*
X164976222Y-122492443D01*
X165096815Y-122565343D01*
X165119822Y-122579251D01*
X165280029Y-122629173D01*
X165349653Y-122635500D01*
X166350346Y-122635499D01*
X166350353Y-122635499D01*
X166419966Y-122629174D01*
X166419969Y-122629173D01*
X166419971Y-122629173D01*
X166580178Y-122579251D01*
X166654089Y-122534570D01*
X166723777Y-122492443D01*
X166723778Y-122492441D01*
X166723783Y-122492439D01*
X166762319Y-122453903D01*
X166823642Y-122420418D01*
X166893334Y-122425402D01*
X166937681Y-122453903D01*
X166976217Y-122492439D01*
X166976222Y-122492443D01*
X167096815Y-122565343D01*
X167119822Y-122579251D01*
X167280029Y-122629173D01*
X167349653Y-122635500D01*
X168350346Y-122635499D01*
X168350353Y-122635499D01*
X168419966Y-122629174D01*
X168419969Y-122629173D01*
X168419971Y-122629173D01*
X168580178Y-122579251D01*
X168654089Y-122534570D01*
X168723777Y-122492443D01*
X168723778Y-122492441D01*
X168723783Y-122492439D01*
X168842439Y-122373783D01*
X168850001Y-122361275D01*
X168870254Y-122327770D01*
X168929251Y-122230178D01*
X168979173Y-122069971D01*
X168985500Y-122000347D01*
X168985499Y-120999654D01*
X168985499Y-120999653D01*
X168985499Y-120999645D01*
X168979174Y-120930033D01*
X168979171Y-120930022D01*
X168929252Y-120769824D01*
X168929250Y-120769820D01*
X168842443Y-120626222D01*
X168842439Y-120626217D01*
X168723782Y-120507560D01*
X168723777Y-120507556D01*
X168580180Y-120420750D01*
X168580179Y-120420749D01*
X168580178Y-120420749D01*
X168419971Y-120370827D01*
X168419969Y-120370826D01*
X168419967Y-120370826D01*
X168371221Y-120366396D01*
X168350347Y-120364500D01*
X168350344Y-120364500D01*
X168224500Y-120364500D01*
X168157461Y-120344815D01*
X168111706Y-120292011D01*
X168100500Y-120240500D01*
X168100500Y-120144046D01*
X168100501Y-120144033D01*
X168100501Y-119975930D01*
X168100501Y-119975929D01*
X168059577Y-119823202D01*
X168055026Y-119815320D01*
X167980524Y-119686276D01*
X167980518Y-119686268D01*
X167793750Y-119499500D01*
X167606429Y-119312180D01*
X167572945Y-119250858D01*
X167577929Y-119181167D01*
X167619800Y-119125233D01*
X167685265Y-119100816D01*
X167694111Y-119100500D01*
X168699903Y-119100500D01*
X168766942Y-119120185D01*
X168787583Y-119136818D01*
X171631284Y-121980520D01*
X171631286Y-121980521D01*
X171631290Y-121980524D01*
X171768209Y-122059573D01*
X171768216Y-122059577D01*
X171920943Y-122100501D01*
X171920945Y-122100501D01*
X172086654Y-122100501D01*
X172086670Y-122100500D01*
X172639099Y-122100500D01*
X172706138Y-122120185D01*
X172751893Y-122172989D01*
X172757481Y-122187601D01*
X172770748Y-122230175D01*
X172770750Y-122230180D01*
X172857556Y-122373777D01*
X172857560Y-122373782D01*
X172976217Y-122492439D01*
X172976222Y-122492443D01*
X173096815Y-122565343D01*
X173119822Y-122579251D01*
X173280029Y-122629173D01*
X173349653Y-122635500D01*
X174350346Y-122635499D01*
X174350353Y-122635499D01*
X174419966Y-122629174D01*
X174419969Y-122629173D01*
X174419971Y-122629173D01*
X174580178Y-122579251D01*
X174654089Y-122534570D01*
X174723777Y-122492443D01*
X174723778Y-122492441D01*
X174723783Y-122492439D01*
X174842439Y-122373783D01*
X174850001Y-122361275D01*
X174870254Y-122327770D01*
X174929251Y-122230178D01*
X174979173Y-122069971D01*
X174985500Y-122000347D01*
X174985499Y-120999654D01*
X174985499Y-120999653D01*
X174985499Y-120999645D01*
X174979174Y-120930033D01*
X174979171Y-120930022D01*
X174929252Y-120769824D01*
X174929250Y-120769820D01*
X174842443Y-120626222D01*
X174842439Y-120626217D01*
X174723782Y-120507560D01*
X174723777Y-120507556D01*
X174580180Y-120420750D01*
X174580179Y-120420749D01*
X174580178Y-120420749D01*
X174419971Y-120370827D01*
X174419969Y-120370826D01*
X174419967Y-120370826D01*
X174371221Y-120366396D01*
X174350347Y-120364500D01*
X174350344Y-120364500D01*
X173349645Y-120364500D01*
X173280033Y-120370825D01*
X173280022Y-120370828D01*
X173119824Y-120420747D01*
X173119820Y-120420749D01*
X172976222Y-120507556D01*
X172976217Y-120507560D01*
X172857560Y-120626217D01*
X172857556Y-120626222D01*
X172770750Y-120769819D01*
X172770750Y-120769820D01*
X172770749Y-120769822D01*
X172757483Y-120812391D01*
X172718747Y-120870538D01*
X172654722Y-120898512D01*
X172639099Y-120899500D01*
X172300098Y-120899500D01*
X172233059Y-120879815D01*
X172212417Y-120863181D01*
X169811416Y-118462181D01*
X169777931Y-118400858D01*
X169782915Y-118331166D01*
X169824787Y-118275233D01*
X169890251Y-118250816D01*
X169899097Y-118250500D01*
X170298422Y-118250500D01*
X170492826Y-118219709D01*
X170680025Y-118158884D01*
X170855405Y-118069524D01*
X171014646Y-117953828D01*
X171153828Y-117814646D01*
X171269524Y-117655405D01*
X171269524Y-117655403D01*
X171272278Y-117651614D01*
X171327608Y-117608949D01*
X171372596Y-117600500D01*
X172209347Y-117600500D01*
X172209363Y-117600501D01*
X172216959Y-117600501D01*
X172375070Y-117600501D01*
X172375073Y-117600501D01*
X172527801Y-117559577D01*
X172577920Y-117530639D01*
X172664732Y-117480520D01*
X172776536Y-117368716D01*
X172776536Y-117368714D01*
X172786744Y-117358507D01*
X172786745Y-117358504D01*
X174730520Y-115414732D01*
X174809577Y-115277800D01*
X174850501Y-115125073D01*
X174850501Y-114966958D01*
X174850501Y-114959363D01*
X174850500Y-114959345D01*
X174850500Y-109361118D01*
X174870185Y-109294079D01*
X174922989Y-109248324D01*
X174958311Y-109238180D01*
X175092238Y-109220548D01*
X175313887Y-109161158D01*
X175525888Y-109073344D01*
X175724612Y-108958611D01*
X175906661Y-108818919D01*
X175906665Y-108818914D01*
X175906670Y-108818911D01*
X176068911Y-108656670D01*
X176068914Y-108656665D01*
X176068919Y-108656661D01*
X176208611Y-108474612D01*
X176323344Y-108275888D01*
X176411158Y-108063887D01*
X176470548Y-107842238D01*
X176500500Y-107614734D01*
X176500500Y-107385266D01*
X176470548Y-107157762D01*
X176411158Y-106936113D01*
X176337257Y-106757701D01*
X176323349Y-106724123D01*
X176323346Y-106724117D01*
X176323344Y-106724112D01*
X176208611Y-106525388D01*
X176208608Y-106525385D01*
X176208607Y-106525382D01*
X176068918Y-106343338D01*
X176068911Y-106343330D01*
X175906670Y-106181089D01*
X175906661Y-106181081D01*
X175724617Y-106041392D01*
X175525890Y-105926657D01*
X175525876Y-105926650D01*
X175313887Y-105838842D01*
X175092238Y-105779452D01*
X175036425Y-105772104D01*
X174958314Y-105761820D01*
X174894418Y-105733553D01*
X174855947Y-105675228D01*
X174850500Y-105638881D01*
X174850500Y-104589060D01*
X174850501Y-104589047D01*
X174850501Y-104420944D01*
X174850501Y-104420943D01*
X174809577Y-104268216D01*
X174797832Y-104247873D01*
X174730524Y-104131290D01*
X174730518Y-104131282D01*
X172636819Y-102037583D01*
X172603334Y-101976260D01*
X172600500Y-101949902D01*
X172600500Y-93064060D01*
X172600501Y-93064047D01*
X172600501Y-92895944D01*
X172600501Y-92895943D01*
X172559577Y-92743216D01*
X172553961Y-92733489D01*
X172480524Y-92606290D01*
X172480518Y-92606282D01*
X170496022Y-90621786D01*
X168316201Y-88441966D01*
X172274500Y-88441966D01*
X172274500Y-90558028D01*
X172274501Y-90558034D01*
X172285113Y-90677415D01*
X172341089Y-90873045D01*
X172341090Y-90873048D01*
X172341091Y-90873049D01*
X172435302Y-91053407D01*
X172440333Y-91059577D01*
X172563890Y-91211109D01*
X172657473Y-91287415D01*
X172721593Y-91339698D01*
X172901951Y-91433909D01*
X172901953Y-91433909D01*
X172901954Y-91433910D01*
X172921355Y-91439461D01*
X173097582Y-91489886D01*
X173216963Y-91500500D01*
X174333036Y-91500499D01*
X174452418Y-91489886D01*
X174648049Y-91433909D01*
X174828407Y-91339698D01*
X174986109Y-91211109D01*
X175114698Y-91053407D01*
X175208909Y-90873049D01*
X175264886Y-90677418D01*
X175275500Y-90558037D01*
X175275499Y-88441964D01*
X175264886Y-88322582D01*
X175208909Y-88126951D01*
X175114698Y-87946593D01*
X175035534Y-87849506D01*
X174986109Y-87788890D01*
X174828409Y-87660304D01*
X174828410Y-87660304D01*
X174828407Y-87660302D01*
X174648049Y-87566091D01*
X174648048Y-87566090D01*
X174648045Y-87566089D01*
X174530829Y-87532550D01*
X174452418Y-87510114D01*
X174452415Y-87510113D01*
X174452413Y-87510113D01*
X174386102Y-87504217D01*
X174333037Y-87499500D01*
X174333032Y-87499500D01*
X173216971Y-87499500D01*
X173216965Y-87499500D01*
X173216964Y-87499501D01*
X173205316Y-87500536D01*
X173097584Y-87510113D01*
X172901954Y-87566089D01*
X172879246Y-87577951D01*
X172721593Y-87660302D01*
X172721591Y-87660303D01*
X172721590Y-87660304D01*
X172563890Y-87788890D01*
X172435304Y-87946590D01*
X172435302Y-87946593D01*
X172404509Y-88005544D01*
X172341089Y-88126954D01*
X172319645Y-88201900D01*
X172286355Y-88318247D01*
X172285114Y-88322583D01*
X172285113Y-88322586D01*
X172274500Y-88441966D01*
X168316201Y-88441966D01*
X167648437Y-87774202D01*
X167614953Y-87712880D01*
X167618187Y-87648205D01*
X167641015Y-87577951D01*
X167675500Y-87360222D01*
X167675500Y-87139778D01*
X167641015Y-86922049D01*
X167585114Y-86750000D01*
X168775000Y-86750000D01*
X170275000Y-86750000D01*
X177275000Y-86750000D01*
X178675000Y-86750000D01*
X178675000Y-82750000D01*
X177275000Y-82750000D01*
X177275000Y-86750000D01*
X170275000Y-86750000D01*
X170275000Y-82750000D01*
X168775000Y-82750000D01*
X168775000Y-86750000D01*
X167585114Y-86750000D01*
X167572895Y-86712394D01*
X167572895Y-86712393D01*
X167526727Y-86621786D01*
X167472815Y-86515978D01*
X167373430Y-86379185D01*
X167343247Y-86337641D01*
X167343243Y-86337636D01*
X167187365Y-86181758D01*
X167075270Y-86100317D01*
X167032606Y-86044989D01*
X167026627Y-85975376D01*
X167059232Y-85913580D01*
X167075265Y-85899686D01*
X167187365Y-85818242D01*
X167343242Y-85662365D01*
X167472815Y-85484022D01*
X167572895Y-85287606D01*
X167641015Y-85077951D01*
X167675500Y-84860222D01*
X167675500Y-84639778D01*
X167641015Y-84422049D01*
X167591443Y-84269480D01*
X167572896Y-84212396D01*
X167572895Y-84212393D01*
X167538237Y-84144375D01*
X167472815Y-84015978D01*
X167456260Y-83993192D01*
X167343247Y-83837641D01*
X167343243Y-83837636D01*
X167322205Y-83816598D01*
X167288720Y-83755275D01*
X167293704Y-83685583D01*
X167335576Y-83629650D01*
X167366554Y-83612735D01*
X167417326Y-83593798D01*
X167417326Y-83593797D01*
X167417331Y-83593796D01*
X167532546Y-83507546D01*
X167618796Y-83392331D01*
X167669091Y-83257483D01*
X167675500Y-83197873D01*
X167675499Y-82185886D01*
X167675499Y-81302129D01*
X167675498Y-81302123D01*
X167675497Y-81302116D01*
X167669091Y-81242517D01*
X167645649Y-81179667D01*
X167618797Y-81107671D01*
X167618793Y-81107664D01*
X167532547Y-80992455D01*
X167532544Y-80992452D01*
X167417335Y-80906206D01*
X167417328Y-80906202D01*
X167282482Y-80855908D01*
X167282483Y-80855908D01*
X167222883Y-80849501D01*
X167222881Y-80849500D01*
X167222873Y-80849500D01*
X167222864Y-80849500D01*
X165327129Y-80849500D01*
X165327123Y-80849501D01*
X165267516Y-80855908D01*
X165132671Y-80906202D01*
X165132664Y-80906206D01*
X165017455Y-80992452D01*
X165017452Y-80992455D01*
X164931206Y-81107664D01*
X164931202Y-81107671D01*
X164880908Y-81242517D01*
X164874501Y-81302116D01*
X164874501Y-81302123D01*
X164874500Y-81302135D01*
X164874500Y-83197870D01*
X164874501Y-83197876D01*
X164880908Y-83257483D01*
X164931202Y-83392328D01*
X164931206Y-83392335D01*
X165017452Y-83507544D01*
X165017455Y-83507547D01*
X165132664Y-83593793D01*
X165132671Y-83593797D01*
X165183446Y-83612735D01*
X165239380Y-83654606D01*
X165263797Y-83720070D01*
X165248945Y-83788343D01*
X165227796Y-83816596D01*
X165206757Y-83837635D01*
X165206752Y-83837641D01*
X165077187Y-84015974D01*
X164977104Y-84212393D01*
X164977103Y-84212396D01*
X164908985Y-84422047D01*
X164874500Y-84639778D01*
X164874500Y-84860221D01*
X164908985Y-85077952D01*
X164931811Y-85148203D01*
X164933806Y-85218044D01*
X164901561Y-85274202D01*
X163881286Y-86294478D01*
X163769481Y-86406282D01*
X163769480Y-86406284D01*
X163731042Y-86472861D01*
X163690423Y-86543215D01*
X163649499Y-86695943D01*
X163649499Y-86695945D01*
X163649499Y-86864046D01*
X163649500Y-86864059D01*
X163649500Y-88134861D01*
X163629815Y-88201900D01*
X163577011Y-88247655D01*
X163507853Y-88257599D01*
X163444297Y-88228574D01*
X163437819Y-88222542D01*
X163378718Y-88163441D01*
X163210762Y-88051217D01*
X163210750Y-88051211D01*
X163177045Y-88037249D01*
X163122642Y-87993407D01*
X163100579Y-87927112D01*
X163100500Y-87922689D01*
X163100500Y-84839059D01*
X163100501Y-84839046D01*
X163100501Y-84670945D01*
X163100501Y-84670943D01*
X163059577Y-84518215D01*
X163004055Y-84422049D01*
X162980520Y-84381284D01*
X162868716Y-84269480D01*
X162868715Y-84269479D01*
X162864385Y-84265149D01*
X162864374Y-84265139D01*
X159010539Y-80411304D01*
X160599500Y-80411304D01*
X160599500Y-81088695D01*
X160634103Y-81262658D01*
X160634106Y-81262667D01*
X160701983Y-81426540D01*
X160701990Y-81426553D01*
X160800535Y-81574034D01*
X160800538Y-81574038D01*
X160925961Y-81699461D01*
X160925965Y-81699464D01*
X161073446Y-81798009D01*
X161073459Y-81798016D01*
X161183214Y-81843477D01*
X161237334Y-81865894D01*
X161237336Y-81865894D01*
X161237341Y-81865896D01*
X161411304Y-81900499D01*
X161411307Y-81900500D01*
X161411309Y-81900500D01*
X161588693Y-81900500D01*
X161588694Y-81900499D01*
X161646682Y-81888964D01*
X161762658Y-81865896D01*
X161762661Y-81865894D01*
X161762666Y-81865894D01*
X161926547Y-81798013D01*
X161983838Y-81759731D01*
X162050510Y-81738854D01*
X162116873Y-81756716D01*
X162260394Y-81843478D01*
X162422804Y-81894086D01*
X162493384Y-81900500D01*
X162493387Y-81900500D01*
X163006613Y-81900500D01*
X163006616Y-81900500D01*
X163077196Y-81894086D01*
X163239606Y-81843478D01*
X163385185Y-81755472D01*
X163505472Y-81635185D01*
X163593478Y-81489606D01*
X163644086Y-81327196D01*
X163650500Y-81256616D01*
X163650500Y-80243384D01*
X163644086Y-80172804D01*
X163593478Y-80010394D01*
X163505472Y-79864815D01*
X163505470Y-79864813D01*
X163505469Y-79864811D01*
X163385188Y-79744530D01*
X163383550Y-79743540D01*
X163239606Y-79656522D01*
X163077196Y-79605914D01*
X163077194Y-79605913D01*
X163077192Y-79605913D01*
X163027778Y-79601423D01*
X163006616Y-79599500D01*
X162493384Y-79599500D01*
X162474145Y-79601248D01*
X162422807Y-79605913D01*
X162260391Y-79656523D01*
X162116875Y-79743281D01*
X162049321Y-79761117D01*
X161983834Y-79740265D01*
X161926555Y-79701991D01*
X161926540Y-79701983D01*
X161762667Y-79634106D01*
X161762658Y-79634103D01*
X161588694Y-79599500D01*
X161588691Y-79599500D01*
X161411309Y-79599500D01*
X161411306Y-79599500D01*
X161237341Y-79634103D01*
X161237332Y-79634106D01*
X161073459Y-79701983D01*
X161073446Y-79701990D01*
X160925965Y-79800535D01*
X160925961Y-79800538D01*
X160800538Y-79925961D01*
X160800535Y-79925965D01*
X160701990Y-80073446D01*
X160701983Y-80073459D01*
X160634106Y-80237332D01*
X160634103Y-80237341D01*
X160599500Y-80411304D01*
X159010539Y-80411304D01*
X157541201Y-78941966D01*
X172274500Y-78941966D01*
X172274500Y-81058028D01*
X172274501Y-81058034D01*
X172285113Y-81177415D01*
X172341089Y-81373045D01*
X172341090Y-81373048D01*
X172341091Y-81373049D01*
X172435302Y-81553407D01*
X172469977Y-81595933D01*
X172563890Y-81711109D01*
X172657803Y-81787684D01*
X172721593Y-81839698D01*
X172901951Y-81933909D01*
X173097582Y-81989886D01*
X173216963Y-82000500D01*
X174333036Y-82000499D01*
X174452418Y-81989886D01*
X174648049Y-81933909D01*
X174828407Y-81839698D01*
X174986109Y-81711109D01*
X175114698Y-81553407D01*
X175208909Y-81373049D01*
X175264886Y-81177418D01*
X175275500Y-81058037D01*
X175275499Y-78941964D01*
X175264886Y-78822582D01*
X175208909Y-78626951D01*
X175114698Y-78446593D01*
X175040408Y-78355483D01*
X174986109Y-78288890D01*
X174828409Y-78160304D01*
X174828410Y-78160304D01*
X174828407Y-78160302D01*
X174648049Y-78066091D01*
X174648048Y-78066090D01*
X174648045Y-78066089D01*
X174530829Y-78032550D01*
X174452418Y-78010114D01*
X174452415Y-78010113D01*
X174452413Y-78010113D01*
X174386102Y-78004217D01*
X174333037Y-77999500D01*
X174333032Y-77999500D01*
X173216971Y-77999500D01*
X173216965Y-77999500D01*
X173216964Y-77999501D01*
X173205316Y-78000536D01*
X173097584Y-78010113D01*
X172901954Y-78066089D01*
X172866404Y-78084659D01*
X172721593Y-78160302D01*
X172721591Y-78160303D01*
X172721590Y-78160304D01*
X172563890Y-78288890D01*
X172435304Y-78446590D01*
X172341089Y-78626954D01*
X172285114Y-78822583D01*
X172285113Y-78822586D01*
X172274500Y-78941966D01*
X157541201Y-78941966D01*
X156437590Y-77838355D01*
X156437588Y-77838352D01*
X156318717Y-77719481D01*
X156318716Y-77719480D01*
X156231904Y-77669360D01*
X156231904Y-77669359D01*
X156231900Y-77669358D01*
X156181785Y-77640423D01*
X156029057Y-77599499D01*
X155870943Y-77599499D01*
X155863347Y-77599499D01*
X155863331Y-77599500D01*
X151536670Y-77599500D01*
X151536654Y-77599499D01*
X151529058Y-77599499D01*
X151370943Y-77599499D01*
X151294579Y-77619961D01*
X151218214Y-77640423D01*
X151218209Y-77640426D01*
X151081290Y-77719475D01*
X151081282Y-77719481D01*
X150716103Y-78084659D01*
X150654780Y-78118144D01*
X150585088Y-78113160D01*
X150580544Y-78111163D01*
X150580490Y-78111295D01*
X150575990Y-78109431D01*
X150351370Y-78036447D01*
X150118097Y-77999500D01*
X150118092Y-77999500D01*
X149881908Y-77999500D01*
X149881903Y-77999500D01*
X149648631Y-78036446D01*
X149424003Y-78109433D01*
X149213566Y-78216657D01*
X149114147Y-78288890D01*
X149022490Y-78355483D01*
X149022488Y-78355485D01*
X149022487Y-78355485D01*
X148855485Y-78522487D01*
X148855485Y-78522488D01*
X148855483Y-78522490D01*
X148795862Y-78604550D01*
X148716657Y-78713566D01*
X148609433Y-78924003D01*
X148536446Y-79148631D01*
X148499500Y-79381902D01*
X148499500Y-79618097D01*
X148536446Y-79851368D01*
X148564146Y-79936618D01*
X148609432Y-80075992D01*
X148609434Y-80075996D01*
X148609436Y-80076002D01*
X148611299Y-80080501D01*
X148609200Y-80081370D01*
X148620358Y-80140806D01*
X148594077Y-80205545D01*
X148584659Y-80216104D01*
X147777398Y-81023367D01*
X147716075Y-81056852D01*
X147689717Y-81059686D01*
X144204173Y-81059686D01*
X144204157Y-81059685D01*
X144196561Y-81059685D01*
X144038446Y-81059685D01*
X143962082Y-81080147D01*
X143885717Y-81100609D01*
X143885712Y-81100612D01*
X143748793Y-81179661D01*
X143748785Y-81179667D01*
X143422773Y-81505681D01*
X143361450Y-81539166D01*
X143335092Y-81542000D01*
X142878573Y-81542000D01*
X142859334Y-81543748D01*
X142807996Y-81548413D01*
X142645582Y-81599022D01*
X142500000Y-81687030D01*
X142379719Y-81807311D01*
X142291711Y-81952893D01*
X142241102Y-82115307D01*
X142234689Y-82185886D01*
X142234689Y-84649113D01*
X142241102Y-84719692D01*
X142241102Y-84719694D01*
X142241103Y-84719696D01*
X142291711Y-84882106D01*
X142349173Y-84977160D01*
X142367009Y-85044712D01*
X142345492Y-85111186D01*
X142291451Y-85155474D01*
X142262455Y-85163781D01*
X142148948Y-85181759D01*
X141946774Y-85247450D01*
X141757368Y-85343957D01*
X141585402Y-85468896D01*
X141435079Y-85619219D01*
X141310140Y-85791185D01*
X141213633Y-85980591D01*
X141213632Y-85980593D01*
X141213632Y-85980594D01*
X141202563Y-86014660D01*
X141147942Y-86182766D01*
X141114689Y-86392719D01*
X141114689Y-86605292D01*
X141145606Y-86800499D01*
X141147943Y-86815249D01*
X141163802Y-86864059D01*
X141213633Y-87017420D01*
X141310140Y-87206826D01*
X141435079Y-87378792D01*
X141585402Y-87529115D01*
X141757368Y-87654054D01*
X141757370Y-87654055D01*
X141757373Y-87654057D01*
X141946777Y-87750563D01*
X142148946Y-87816252D01*
X142358902Y-87849506D01*
X142358903Y-87849506D01*
X142571475Y-87849506D01*
X142571476Y-87849506D01*
X142781432Y-87816252D01*
X142983601Y-87750563D01*
X143173005Y-87654057D01*
X143277757Y-87577951D01*
X143344975Y-87529115D01*
X143344977Y-87529112D01*
X143344981Y-87529110D01*
X143495293Y-87378798D01*
X143495295Y-87378794D01*
X143495298Y-87378792D01*
X143620237Y-87206826D01*
X143620236Y-87206826D01*
X143620240Y-87206822D01*
X143624703Y-87198060D01*
X143672677Y-87147265D01*
X143740497Y-87130469D01*
X143806633Y-87153005D01*
X143845675Y-87198062D01*
X143850140Y-87206826D01*
X143975079Y-87378792D01*
X144125402Y-87529115D01*
X144297368Y-87654054D01*
X144297370Y-87654055D01*
X144297373Y-87654057D01*
X144486777Y-87750563D01*
X144688946Y-87816252D01*
X144898902Y-87849506D01*
X144898903Y-87849506D01*
X145111475Y-87849506D01*
X145111476Y-87849506D01*
X145321432Y-87816252D01*
X145523601Y-87750563D01*
X145713005Y-87654057D01*
X145817757Y-87577951D01*
X145884975Y-87529115D01*
X145884977Y-87529112D01*
X145884981Y-87529110D01*
X146035293Y-87378798D01*
X146035295Y-87378794D01*
X146035298Y-87378792D01*
X146160237Y-87206826D01*
X146160236Y-87206826D01*
X146160240Y-87206822D01*
X146164703Y-87198060D01*
X146212677Y-87147265D01*
X146280497Y-87130469D01*
X146346633Y-87153005D01*
X146385675Y-87198062D01*
X146390140Y-87206826D01*
X146515079Y-87378792D01*
X146665402Y-87529115D01*
X146837368Y-87654054D01*
X146837370Y-87654055D01*
X146837373Y-87654057D01*
X147026777Y-87750563D01*
X147228946Y-87816252D01*
X147438902Y-87849506D01*
X147438903Y-87849506D01*
X147651475Y-87849506D01*
X147651476Y-87849506D01*
X147861432Y-87816252D01*
X148063601Y-87750563D01*
X148253005Y-87654057D01*
X148357757Y-87577951D01*
X148424975Y-87529115D01*
X148424977Y-87529112D01*
X148424981Y-87529110D01*
X148575293Y-87378798D01*
X148575295Y-87378794D01*
X148575298Y-87378792D01*
X148700237Y-87206826D01*
X148700236Y-87206826D01*
X148700240Y-87206822D01*
X148704703Y-87198060D01*
X148752677Y-87147265D01*
X148820497Y-87130469D01*
X148886633Y-87153005D01*
X148925675Y-87198062D01*
X148930140Y-87206826D01*
X149055079Y-87378792D01*
X149205402Y-87529115D01*
X149377368Y-87654054D01*
X149377370Y-87654055D01*
X149377373Y-87654057D01*
X149566777Y-87750563D01*
X149768946Y-87816252D01*
X149978902Y-87849506D01*
X149978903Y-87849506D01*
X150191475Y-87849506D01*
X150191476Y-87849506D01*
X150401432Y-87816252D01*
X150603601Y-87750563D01*
X150793005Y-87654057D01*
X150897757Y-87577951D01*
X150964975Y-87529115D01*
X150964977Y-87529112D01*
X150964981Y-87529110D01*
X151115293Y-87378798D01*
X151115295Y-87378794D01*
X151115298Y-87378792D01*
X151240237Y-87206826D01*
X151240236Y-87206826D01*
X151240240Y-87206822D01*
X151336746Y-87017418D01*
X151402435Y-86815249D01*
X151435689Y-86605293D01*
X151435689Y-86404756D01*
X151455374Y-86337717D01*
X151508178Y-86291962D01*
X151577336Y-86282018D01*
X151583866Y-86283136D01*
X151628071Y-86291929D01*
X151671156Y-86300500D01*
X151671158Y-86300500D01*
X151828844Y-86300500D01*
X151828845Y-86300499D01*
X151983497Y-86269737D01*
X152129179Y-86209394D01*
X152260289Y-86121789D01*
X152371789Y-86010289D01*
X152459394Y-85879179D01*
X152460938Y-85875450D01*
X152504778Y-85821047D01*
X152571072Y-85798981D01*
X152638771Y-85816259D01*
X152686383Y-85867395D01*
X152699500Y-85922902D01*
X152699500Y-86078846D01*
X152730261Y-86233489D01*
X152730264Y-86233501D01*
X152790602Y-86379172D01*
X152790609Y-86379185D01*
X152878210Y-86510288D01*
X152878213Y-86510292D01*
X152989707Y-86621786D01*
X152989711Y-86621789D01*
X153120814Y-86709390D01*
X153120827Y-86709397D01*
X153218853Y-86750000D01*
X153266503Y-86769737D01*
X153421153Y-86800499D01*
X153421156Y-86800500D01*
X153421158Y-86800500D01*
X153578844Y-86800500D01*
X153578845Y-86800499D01*
X153733497Y-86769737D01*
X153846166Y-86723067D01*
X153879172Y-86709397D01*
X153879172Y-86709396D01*
X153879179Y-86709394D01*
X154010289Y-86621789D01*
X154121789Y-86510289D01*
X154209394Y-86379179D01*
X154269737Y-86233497D01*
X154300500Y-86078842D01*
X154300500Y-86078840D01*
X154300637Y-86078152D01*
X154333021Y-86016241D01*
X154334575Y-86014660D01*
X154338944Y-86010292D01*
X154368645Y-85980591D01*
X154381458Y-85967779D01*
X154383480Y-85969801D01*
X154428730Y-85936754D01*
X154498476Y-85932592D01*
X154559399Y-85966799D01*
X154592158Y-86028513D01*
X154594689Y-86053439D01*
X154594689Y-94067403D01*
X154575004Y-94134442D01*
X154558370Y-94155084D01*
X151606044Y-97107409D01*
X151544721Y-97140894D01*
X151475029Y-97135910D01*
X151419096Y-97094038D01*
X151394679Y-97028574D01*
X151400434Y-96981405D01*
X151402435Y-96975249D01*
X151435689Y-96765293D01*
X151435689Y-96552719D01*
X151402435Y-96342763D01*
X151336746Y-96140594D01*
X151240240Y-95951190D01*
X151240238Y-95951187D01*
X151240237Y-95951185D01*
X151115298Y-95779219D01*
X150964975Y-95628896D01*
X150793009Y-95503957D01*
X150603603Y-95407450D01*
X150603602Y-95407449D01*
X150603601Y-95407449D01*
X150401432Y-95341760D01*
X150401430Y-95341759D01*
X150401429Y-95341759D01*
X150240146Y-95316214D01*
X150191476Y-95308506D01*
X149978902Y-95308506D01*
X149930231Y-95316214D01*
X149768949Y-95341759D01*
X149566774Y-95407450D01*
X149377368Y-95503957D01*
X149205402Y-95628896D01*
X149055079Y-95779219D01*
X148930138Y-95951188D01*
X148925673Y-95959952D01*
X148877698Y-96010748D01*
X148809877Y-96027542D01*
X148743742Y-96005004D01*
X148704705Y-95959952D01*
X148700239Y-95951188D01*
X148575298Y-95779219D01*
X148424975Y-95628896D01*
X148253009Y-95503957D01*
X148063603Y-95407450D01*
X148063602Y-95407449D01*
X148063601Y-95407449D01*
X147861432Y-95341760D01*
X147861430Y-95341759D01*
X147861429Y-95341759D01*
X147700146Y-95316214D01*
X147651476Y-95308506D01*
X147438902Y-95308506D01*
X147390231Y-95316214D01*
X147228949Y-95341759D01*
X147026774Y-95407450D01*
X146837368Y-95503957D01*
X146665402Y-95628896D01*
X146515079Y-95779219D01*
X146390138Y-95951188D01*
X146385673Y-95959952D01*
X146337698Y-96010748D01*
X146269877Y-96027542D01*
X146203742Y-96005004D01*
X146164705Y-95959952D01*
X146160239Y-95951188D01*
X146035298Y-95779219D01*
X145884975Y-95628896D01*
X145713009Y-95503957D01*
X145523603Y-95407450D01*
X145523602Y-95407449D01*
X145523601Y-95407449D01*
X145321432Y-95341760D01*
X145321430Y-95341759D01*
X145321429Y-95341759D01*
X145160146Y-95316214D01*
X145111476Y-95308506D01*
X144898902Y-95308506D01*
X144832956Y-95318950D01*
X144763663Y-95309995D01*
X144710212Y-95264998D01*
X144689573Y-95198247D01*
X144707191Y-95134912D01*
X144706521Y-95134554D01*
X144708126Y-95131550D01*
X144708298Y-95130933D01*
X144709218Y-95129507D01*
X144709390Y-95129184D01*
X144709394Y-95129179D01*
X144769737Y-94983497D01*
X144800500Y-94828842D01*
X144800500Y-94671158D01*
X144800500Y-94671155D01*
X144800499Y-94671153D01*
X144769738Y-94516510D01*
X144769737Y-94516503D01*
X144740765Y-94446557D01*
X144709397Y-94370827D01*
X144709390Y-94370814D01*
X144621789Y-94239711D01*
X144621786Y-94239707D01*
X144510292Y-94128213D01*
X144510288Y-94128210D01*
X144379185Y-94040609D01*
X144379172Y-94040602D01*
X144233501Y-93980264D01*
X144233489Y-93980261D01*
X144078845Y-93949500D01*
X144078842Y-93949500D01*
X143921158Y-93949500D01*
X143897771Y-93954151D01*
X143884050Y-93956881D01*
X143814458Y-93950652D01*
X143772179Y-93922944D01*
X143704841Y-93855606D01*
X143671356Y-93794283D01*
X143676340Y-93724591D01*
X143704841Y-93680244D01*
X143735293Y-93649792D01*
X143735295Y-93649788D01*
X143735298Y-93649786D01*
X143860237Y-93477820D01*
X143860236Y-93477820D01*
X143860240Y-93477816D01*
X143956746Y-93288412D01*
X144022435Y-93086243D01*
X144055689Y-92876287D01*
X144055689Y-92663713D01*
X144022435Y-92453757D01*
X143956746Y-92251588D01*
X143860240Y-92062184D01*
X143860238Y-92062181D01*
X143860237Y-92062179D01*
X143735298Y-91890213D01*
X143584975Y-91739890D01*
X143413009Y-91614951D01*
X143412304Y-91614591D01*
X143404243Y-91610485D01*
X143353448Y-91562512D01*
X143336652Y-91494692D01*
X143359188Y-91428556D01*
X143404243Y-91389515D01*
X143413005Y-91385051D01*
X143434978Y-91369086D01*
X143584975Y-91260109D01*
X143584977Y-91260106D01*
X143584981Y-91260104D01*
X143735293Y-91109792D01*
X143735295Y-91109788D01*
X143735298Y-91109786D01*
X143860237Y-90937820D01*
X143860236Y-90937820D01*
X143860240Y-90937816D01*
X143956746Y-90748412D01*
X144022435Y-90546243D01*
X144055689Y-90336287D01*
X144055689Y-90123713D01*
X144035832Y-89998342D01*
X149499500Y-89998342D01*
X149499500Y-91001657D01*
X149502223Y-91036260D01*
X149502224Y-91036266D01*
X149545256Y-91184381D01*
X149545257Y-91184384D01*
X149623774Y-91317150D01*
X149623781Y-91317159D01*
X149718941Y-91412319D01*
X149752426Y-91473642D01*
X149747442Y-91543334D01*
X149718941Y-91587681D01*
X149623781Y-91682840D01*
X149623774Y-91682849D01*
X149545257Y-91815615D01*
X149545256Y-91815618D01*
X149502224Y-91963733D01*
X149502223Y-91963739D01*
X149499500Y-91998342D01*
X149499500Y-93001657D01*
X149502223Y-93036260D01*
X149502224Y-93036266D01*
X149545256Y-93184381D01*
X149545257Y-93184384D01*
X149623774Y-93317150D01*
X149623781Y-93317159D01*
X149732840Y-93426218D01*
X149732844Y-93426221D01*
X149732846Y-93426223D01*
X149865614Y-93504742D01*
X149904675Y-93516090D01*
X150013733Y-93547775D01*
X150013736Y-93547775D01*
X150013738Y-93547776D01*
X150048350Y-93550500D01*
X150048358Y-93550500D01*
X152451642Y-93550500D01*
X152451650Y-93550500D01*
X152486262Y-93547776D01*
X152486264Y-93547775D01*
X152486266Y-93547775D01*
X152525323Y-93536427D01*
X152634386Y-93504742D01*
X152767154Y-93426223D01*
X152876223Y-93317154D01*
X152924490Y-93235538D01*
X152975558Y-93187855D01*
X153044300Y-93175351D01*
X153100114Y-93195558D01*
X153110538Y-93202523D01*
X153120816Y-93209391D01*
X153120827Y-93209397D01*
X153266498Y-93269735D01*
X153266503Y-93269737D01*
X153421153Y-93300499D01*
X153421156Y-93300500D01*
X153421158Y-93300500D01*
X153578844Y-93300500D01*
X153578845Y-93300499D01*
X153733497Y-93269737D01*
X153879179Y-93209394D01*
X154010289Y-93121789D01*
X154121789Y-93010289D01*
X154209394Y-92879179D01*
X154269737Y-92733497D01*
X154300500Y-92578842D01*
X154300500Y-92421158D01*
X154300500Y-92421155D01*
X154300499Y-92421153D01*
X154269737Y-92266503D01*
X154214225Y-92132483D01*
X154209397Y-92120827D01*
X154209390Y-92120814D01*
X154121789Y-91989711D01*
X154121786Y-91989707D01*
X154010292Y-91878213D01*
X154010288Y-91878210D01*
X153879185Y-91790609D01*
X153879172Y-91790602D01*
X153733501Y-91730264D01*
X153733489Y-91730261D01*
X153578845Y-91699500D01*
X153578842Y-91699500D01*
X153421158Y-91699500D01*
X153421155Y-91699500D01*
X153266510Y-91730261D01*
X153266498Y-91730264D01*
X153120827Y-91790602D01*
X153120814Y-91790609D01*
X153100113Y-91804442D01*
X153033435Y-91825320D01*
X152966055Y-91806835D01*
X152924490Y-91764461D01*
X152876225Y-91682849D01*
X152876218Y-91682840D01*
X152781059Y-91587681D01*
X152747574Y-91526358D01*
X152752558Y-91456666D01*
X152781059Y-91412319D01*
X152876218Y-91317159D01*
X152876223Y-91317154D01*
X152954742Y-91184386D01*
X152954743Y-91184379D01*
X152957842Y-91177223D01*
X152960502Y-91178374D01*
X152990748Y-91131017D01*
X153054222Y-91101813D01*
X153072215Y-91100501D01*
X153079054Y-91100501D01*
X153079057Y-91100501D01*
X153231785Y-91059577D01*
X153301233Y-91019481D01*
X153368716Y-90980520D01*
X153480520Y-90868716D01*
X153480521Y-90868714D01*
X153514662Y-90834572D01*
X153575983Y-90801089D01*
X153578150Y-90800638D01*
X153636085Y-90789113D01*
X153733497Y-90769737D01*
X153879179Y-90709394D01*
X154010289Y-90621789D01*
X154121789Y-90510289D01*
X154209394Y-90379179D01*
X154213728Y-90368717D01*
X154269735Y-90233501D01*
X154269737Y-90233497D01*
X154300500Y-90078842D01*
X154300500Y-89921158D01*
X154300500Y-89921155D01*
X154300499Y-89921153D01*
X154299028Y-89913757D01*
X154269737Y-89766503D01*
X154246991Y-89711588D01*
X154209397Y-89620827D01*
X154209390Y-89620814D01*
X154121789Y-89489711D01*
X154121786Y-89489707D01*
X154010292Y-89378213D01*
X154010288Y-89378210D01*
X153879185Y-89290609D01*
X153879172Y-89290602D01*
X153733501Y-89230264D01*
X153733489Y-89230261D01*
X153578845Y-89199500D01*
X153578842Y-89199500D01*
X153421158Y-89199500D01*
X153421155Y-89199500D01*
X153266510Y-89230261D01*
X153266498Y-89230264D01*
X153120827Y-89290602D01*
X153120814Y-89290609D01*
X152989711Y-89378210D01*
X152989707Y-89378213D01*
X152878217Y-89489704D01*
X152878211Y-89489711D01*
X152871697Y-89499460D01*
X152818085Y-89544264D01*
X152748759Y-89552971D01*
X152705475Y-89537300D01*
X152634384Y-89495257D01*
X152634381Y-89495256D01*
X152486266Y-89452224D01*
X152486260Y-89452223D01*
X152451657Y-89449500D01*
X152451650Y-89449500D01*
X150048350Y-89449500D01*
X150048342Y-89449500D01*
X150013739Y-89452223D01*
X150013733Y-89452224D01*
X149865618Y-89495256D01*
X149865615Y-89495257D01*
X149732849Y-89573774D01*
X149732840Y-89573781D01*
X149623781Y-89682840D01*
X149623774Y-89682849D01*
X149545257Y-89815615D01*
X149545256Y-89815618D01*
X149502224Y-89963733D01*
X149502223Y-89963739D01*
X149499500Y-89998342D01*
X144035832Y-89998342D01*
X144022435Y-89913757D01*
X143956746Y-89711588D01*
X143860240Y-89522184D01*
X143860238Y-89522181D01*
X143860237Y-89522179D01*
X143735298Y-89350213D01*
X143584975Y-89199890D01*
X143413009Y-89074951D01*
X143223603Y-88978444D01*
X143223602Y-88978443D01*
X143223601Y-88978443D01*
X143021432Y-88912754D01*
X143021430Y-88912753D01*
X143021429Y-88912753D01*
X142860146Y-88887208D01*
X142811476Y-88879500D01*
X142598902Y-88879500D01*
X142550231Y-88887208D01*
X142388949Y-88912753D01*
X142186774Y-88978444D01*
X141997368Y-89074951D01*
X141825402Y-89199890D01*
X141675079Y-89350213D01*
X141550138Y-89522182D01*
X141545673Y-89530946D01*
X141497698Y-89581742D01*
X141429877Y-89598536D01*
X141363742Y-89575998D01*
X141324705Y-89530946D01*
X141320239Y-89522182D01*
X141195298Y-89350213D01*
X141044975Y-89199890D01*
X140873009Y-89074951D01*
X140683603Y-88978444D01*
X140683602Y-88978443D01*
X140683601Y-88978443D01*
X140481432Y-88912754D01*
X140481430Y-88912753D01*
X140481429Y-88912753D01*
X140320146Y-88887208D01*
X140271476Y-88879500D01*
X140058902Y-88879500D01*
X140010231Y-88887208D01*
X139848949Y-88912753D01*
X139646774Y-88978444D01*
X139457368Y-89074951D01*
X139285402Y-89199890D01*
X139135079Y-89350213D01*
X139010138Y-89522182D01*
X139005673Y-89530946D01*
X138957698Y-89581742D01*
X138889877Y-89598536D01*
X138823742Y-89575998D01*
X138784705Y-89530946D01*
X138780239Y-89522182D01*
X138655298Y-89350213D01*
X138504975Y-89199890D01*
X138333009Y-89074951D01*
X138143603Y-88978444D01*
X138143602Y-88978443D01*
X138143601Y-88978443D01*
X137941432Y-88912754D01*
X137941430Y-88912753D01*
X137941429Y-88912753D01*
X137780146Y-88887208D01*
X137731476Y-88879500D01*
X137518902Y-88879500D01*
X137470231Y-88887208D01*
X137308949Y-88912753D01*
X137106774Y-88978444D01*
X136917368Y-89074951D01*
X136745402Y-89199890D01*
X136595079Y-89350213D01*
X136470140Y-89522179D01*
X136373633Y-89711585D01*
X136307942Y-89913760D01*
X136281795Y-90078846D01*
X136274689Y-90123713D01*
X136274689Y-90336287D01*
X136281483Y-90379185D01*
X136301649Y-90506508D01*
X136307943Y-90546243D01*
X136360955Y-90709397D01*
X136373633Y-90748414D01*
X136470140Y-90937820D01*
X136595079Y-91109786D01*
X136745402Y-91260109D01*
X136917371Y-91385050D01*
X136926135Y-91389516D01*
X136976931Y-91437491D01*
X136993725Y-91505312D01*
X136971187Y-91571447D01*
X136926135Y-91610484D01*
X136917371Y-91614949D01*
X136745402Y-91739890D01*
X136595079Y-91890213D01*
X136470140Y-92062179D01*
X136373633Y-92251585D01*
X136307942Y-92453760D01*
X136274689Y-92663713D01*
X136274689Y-92876286D01*
X136304429Y-93064060D01*
X136307943Y-93086243D01*
X136367564Y-93269738D01*
X136373633Y-93288414D01*
X136470140Y-93477820D01*
X136595079Y-93649786D01*
X136745402Y-93800109D01*
X136917368Y-93925048D01*
X136917370Y-93925049D01*
X136917373Y-93925051D01*
X137106777Y-94021557D01*
X137308946Y-94087246D01*
X137518902Y-94120500D01*
X137518903Y-94120500D01*
X137731475Y-94120500D01*
X137731476Y-94120500D01*
X137941432Y-94087246D01*
X138143601Y-94021557D01*
X138333005Y-93925051D01*
X138428589Y-93855606D01*
X138504975Y-93800109D01*
X138504977Y-93800106D01*
X138504981Y-93800104D01*
X138655293Y-93649792D01*
X138655295Y-93649788D01*
X138655298Y-93649786D01*
X138780237Y-93477820D01*
X138780236Y-93477820D01*
X138780240Y-93477816D01*
X138784703Y-93469054D01*
X138832677Y-93418259D01*
X138900497Y-93401463D01*
X138966633Y-93423999D01*
X139005675Y-93469056D01*
X139010140Y-93477820D01*
X139135079Y-93649786D01*
X139285402Y-93800109D01*
X139457368Y-93925048D01*
X139457370Y-93925049D01*
X139457373Y-93925051D01*
X139646777Y-94021557D01*
X139848946Y-94087246D01*
X140058902Y-94120500D01*
X140058903Y-94120500D01*
X140271475Y-94120500D01*
X140271476Y-94120500D01*
X140481432Y-94087246D01*
X140683601Y-94021557D01*
X140873005Y-93925051D01*
X140968589Y-93855606D01*
X141044975Y-93800109D01*
X141044977Y-93800106D01*
X141044981Y-93800104D01*
X141195293Y-93649792D01*
X141195295Y-93649788D01*
X141195298Y-93649786D01*
X141320237Y-93477820D01*
X141320236Y-93477820D01*
X141320240Y-93477816D01*
X141324703Y-93469054D01*
X141372677Y-93418259D01*
X141440497Y-93401463D01*
X141506633Y-93423999D01*
X141545675Y-93469056D01*
X141550140Y-93477820D01*
X141675079Y-93649786D01*
X141825402Y-93800109D01*
X141997371Y-93925050D01*
X141997373Y-93925051D01*
X142164914Y-94010417D01*
X142215711Y-94058391D01*
X142216008Y-94058903D01*
X142224668Y-94073904D01*
X142343538Y-94192774D01*
X142343544Y-94192779D01*
X143265139Y-95114374D01*
X143265160Y-95114397D01*
X143303439Y-95152675D01*
X143318861Y-95171466D01*
X143378210Y-95260288D01*
X143378213Y-95260292D01*
X143489707Y-95371786D01*
X143489711Y-95371789D01*
X143620814Y-95459390D01*
X143620827Y-95459397D01*
X143728406Y-95503957D01*
X143766503Y-95519737D01*
X143824767Y-95531326D01*
X143927132Y-95551689D01*
X143926703Y-95553844D01*
X143982326Y-95576302D01*
X144022687Y-95633334D01*
X144025807Y-95703134D01*
X143993072Y-95761226D01*
X143975079Y-95779219D01*
X143850138Y-95951188D01*
X143845673Y-95959952D01*
X143797698Y-96010748D01*
X143729877Y-96027542D01*
X143663742Y-96005004D01*
X143624705Y-95959952D01*
X143620239Y-95951188D01*
X143495298Y-95779219D01*
X143344975Y-95628896D01*
X143173009Y-95503957D01*
X142983603Y-95407450D01*
X142983602Y-95407449D01*
X142983601Y-95407449D01*
X142781432Y-95341760D01*
X142781430Y-95341759D01*
X142781429Y-95341759D01*
X142620146Y-95316214D01*
X142571476Y-95308506D01*
X142358902Y-95308506D01*
X142310231Y-95316214D01*
X142148949Y-95341759D01*
X141946774Y-95407450D01*
X141757368Y-95503957D01*
X141585402Y-95628896D01*
X141435079Y-95779219D01*
X141310140Y-95951185D01*
X141213633Y-96140591D01*
X141147942Y-96342766D01*
X141114689Y-96552719D01*
X141114689Y-96765292D01*
X141147942Y-96975245D01*
X141147942Y-96975247D01*
X141147943Y-96975249D01*
X141200145Y-97135910D01*
X141213633Y-97177420D01*
X141310140Y-97366825D01*
X141414245Y-97510115D01*
X141437725Y-97575921D01*
X141421899Y-97643975D01*
X141371793Y-97692670D01*
X141313927Y-97707000D01*
X140338573Y-97707000D01*
X140319334Y-97708748D01*
X140267996Y-97713413D01*
X140105582Y-97764022D01*
X139989339Y-97834294D01*
X139921784Y-97852130D01*
X139861039Y-97834294D01*
X139744795Y-97764022D01*
X139582385Y-97713414D01*
X139582383Y-97713413D01*
X139582381Y-97713413D01*
X139532967Y-97708923D01*
X139511805Y-97707000D01*
X137798573Y-97707000D01*
X137779334Y-97708748D01*
X137727996Y-97713413D01*
X137565582Y-97764022D01*
X137420000Y-97852030D01*
X137299719Y-97972311D01*
X137211711Y-98117893D01*
X137161102Y-98280307D01*
X137154689Y-98350886D01*
X137154689Y-100182402D01*
X137135004Y-100249441D01*
X137118370Y-100270083D01*
X137019481Y-100368971D01*
X137019479Y-100368974D01*
X136969361Y-100455783D01*
X136969359Y-100455785D01*
X136940425Y-100505898D01*
X136940424Y-100505899D01*
X136924849Y-100564027D01*
X136899499Y-100658632D01*
X136899499Y-100658634D01*
X136899499Y-100826735D01*
X136899500Y-100826748D01*
X136899500Y-107163330D01*
X136899499Y-107163348D01*
X136899499Y-107329054D01*
X136899498Y-107329054D01*
X136940423Y-107481786D01*
X136940424Y-107481787D01*
X136962413Y-107519873D01*
X137019480Y-107618716D01*
X137019482Y-107618718D01*
X137138349Y-107737585D01*
X137138354Y-107737589D01*
X138131284Y-108730520D01*
X138131286Y-108730521D01*
X138131290Y-108730524D01*
X138168710Y-108752128D01*
X138268216Y-108809577D01*
X138420943Y-108850501D01*
X138420945Y-108850501D01*
X138586654Y-108850501D01*
X138586670Y-108850500D01*
X145549903Y-108850500D01*
X145616942Y-108870185D01*
X145637584Y-108886819D01*
X145863181Y-109112416D01*
X145896666Y-109173739D01*
X145899500Y-109200097D01*
X145899500Y-111647870D01*
X145899501Y-111647876D01*
X145905908Y-111707483D01*
X145956202Y-111842328D01*
X145956206Y-111842335D01*
X146042452Y-111957544D01*
X146042455Y-111957547D01*
X146157664Y-112043793D01*
X146157671Y-112043797D01*
X146292517Y-112094091D01*
X146292516Y-112094091D01*
X146299444Y-112094835D01*
X146352127Y-112100500D01*
X149247872Y-112100499D01*
X149307483Y-112094091D01*
X149442331Y-112043796D01*
X149557546Y-111957546D01*
X149643796Y-111842331D01*
X149659318Y-111800715D01*
X149701189Y-111744781D01*
X149766653Y-111720364D01*
X149834926Y-111735215D01*
X149884332Y-111784620D01*
X149899500Y-111844048D01*
X149899500Y-118649902D01*
X149879815Y-118716941D01*
X149863181Y-118737583D01*
X149137583Y-119463181D01*
X149076260Y-119496666D01*
X149049902Y-119499500D01*
X147050097Y-119499500D01*
X146983058Y-119479815D01*
X146962416Y-119463181D01*
X146510860Y-119011625D01*
X146477375Y-118950302D01*
X146482359Y-118880610D01*
X146524231Y-118824677D01*
X146582054Y-118802874D01*
X146581799Y-118801262D01*
X146586610Y-118800500D01*
X146586611Y-118800500D01*
X146757701Y-118773402D01*
X146922445Y-118719873D01*
X147076788Y-118641232D01*
X147216928Y-118539414D01*
X147339414Y-118416928D01*
X147441232Y-118276788D01*
X147519873Y-118122445D01*
X147573402Y-117957701D01*
X147600500Y-117786611D01*
X147600500Y-117613389D01*
X147573402Y-117442299D01*
X147519873Y-117277555D01*
X147441232Y-117123212D01*
X147339414Y-116983072D01*
X147216928Y-116860586D01*
X147076788Y-116758768D01*
X146922445Y-116680127D01*
X146757701Y-116626598D01*
X146757699Y-116626597D01*
X146757698Y-116626597D01*
X146626271Y-116605781D01*
X146586611Y-116599500D01*
X146413389Y-116599500D01*
X146373728Y-116605781D01*
X146242302Y-116626597D01*
X146077552Y-116680128D01*
X145923211Y-116758768D01*
X145843256Y-116816859D01*
X145783072Y-116860586D01*
X145783070Y-116860588D01*
X145783069Y-116860588D01*
X145660588Y-116983069D01*
X145660588Y-116983070D01*
X145660586Y-116983072D01*
X145625110Y-117031900D01*
X145558768Y-117123211D01*
X145480128Y-117277552D01*
X145426597Y-117442302D01*
X145398738Y-117618201D01*
X145397109Y-117617943D01*
X145374760Y-117676514D01*
X145318512Y-117717963D01*
X145248785Y-117722422D01*
X145188374Y-117689139D01*
X142036818Y-114537583D01*
X142003333Y-114476260D01*
X142000499Y-114449902D01*
X142000499Y-112552129D01*
X142000498Y-112552123D01*
X142000497Y-112552116D01*
X141994091Y-112492517D01*
X141943796Y-112357669D01*
X141943795Y-112357668D01*
X141943793Y-112357664D01*
X141857547Y-112242455D01*
X141857544Y-112242452D01*
X141742335Y-112156206D01*
X141742328Y-112156202D01*
X141607482Y-112105908D01*
X141607483Y-112105908D01*
X141547883Y-112099501D01*
X141547881Y-112099500D01*
X141547873Y-112099500D01*
X141547864Y-112099500D01*
X139252129Y-112099500D01*
X139252123Y-112099501D01*
X139192516Y-112105908D01*
X139057671Y-112156202D01*
X139057664Y-112156206D01*
X138942455Y-112242452D01*
X138942452Y-112242455D01*
X138856206Y-112357664D01*
X138856202Y-112357671D01*
X138805908Y-112492517D01*
X138799501Y-112552116D01*
X138799501Y-112552123D01*
X138799500Y-112552135D01*
X138799500Y-115447870D01*
X138799501Y-115447876D01*
X138805908Y-115507483D01*
X138856202Y-115642328D01*
X138856206Y-115642335D01*
X138942452Y-115757544D01*
X138942455Y-115757547D01*
X139057664Y-115843793D01*
X139057671Y-115843797D01*
X139192517Y-115894091D01*
X139192516Y-115894091D01*
X139199444Y-115894835D01*
X139252127Y-115900500D01*
X141547872Y-115900499D01*
X141598026Y-115895107D01*
X141607484Y-115894091D01*
X141610848Y-115893296D01*
X141613540Y-115893440D01*
X141615197Y-115893262D01*
X141615225Y-115893530D01*
X141680618Y-115897030D01*
X141727054Y-115926289D01*
X145863181Y-120062416D01*
X145896666Y-120123739D01*
X145899500Y-120150097D01*
X145899500Y-122847870D01*
X145899501Y-122847878D01*
X145901046Y-122862248D01*
X145888639Y-122931007D01*
X145841027Y-122982143D01*
X145777756Y-122999500D01*
X136124500Y-122999500D01*
X136057461Y-122979815D01*
X136011706Y-122927011D01*
X136000500Y-122875500D01*
X136000500Y-117613389D01*
X138399500Y-117613389D01*
X138399500Y-117786611D01*
X138403941Y-117814648D01*
X138425984Y-117953828D01*
X138426598Y-117957701D01*
X138480127Y-118122445D01*
X138558768Y-118276788D01*
X138660586Y-118416928D01*
X138783072Y-118539414D01*
X138923212Y-118641232D01*
X139077555Y-118719873D01*
X139242299Y-118773402D01*
X139413389Y-118800500D01*
X139413390Y-118800500D01*
X139586610Y-118800500D01*
X139586611Y-118800500D01*
X139757701Y-118773402D01*
X139922445Y-118719873D01*
X140076788Y-118641232D01*
X140216928Y-118539414D01*
X140339414Y-118416928D01*
X140441232Y-118276788D01*
X140519873Y-118122445D01*
X140573402Y-117957701D01*
X140600500Y-117786611D01*
X140600500Y-117613389D01*
X140573402Y-117442299D01*
X140519873Y-117277555D01*
X140441232Y-117123212D01*
X140339414Y-116983072D01*
X140216928Y-116860586D01*
X140076788Y-116758768D01*
X139922445Y-116680127D01*
X139757701Y-116626598D01*
X139757699Y-116626597D01*
X139757698Y-116626597D01*
X139626271Y-116605781D01*
X139586611Y-116599500D01*
X139413389Y-116599500D01*
X139373728Y-116605781D01*
X139242302Y-116626597D01*
X139077552Y-116680128D01*
X138923211Y-116758768D01*
X138843256Y-116816859D01*
X138783072Y-116860586D01*
X138783070Y-116860588D01*
X138783069Y-116860588D01*
X138660588Y-116983069D01*
X138660588Y-116983070D01*
X138660586Y-116983072D01*
X138625110Y-117031900D01*
X138558768Y-117123211D01*
X138480128Y-117277552D01*
X138426597Y-117442302D01*
X138420544Y-117480520D01*
X138399500Y-117613389D01*
X136000500Y-117613389D01*
X136000500Y-82185886D01*
X137154689Y-82185886D01*
X137154689Y-84649113D01*
X137161102Y-84719692D01*
X137161102Y-84719694D01*
X137161103Y-84719696D01*
X137204892Y-84860222D01*
X137211711Y-84882106D01*
X137299719Y-85027688D01*
X137420000Y-85147969D01*
X137420002Y-85147970D01*
X137420004Y-85147972D01*
X137565583Y-85235978D01*
X137727993Y-85286586D01*
X137798573Y-85293000D01*
X137798576Y-85293000D01*
X139511802Y-85293000D01*
X139511805Y-85293000D01*
X139582385Y-85286586D01*
X139744795Y-85235978D01*
X139890374Y-85147972D01*
X140010661Y-85027685D01*
X140098667Y-84882106D01*
X140149275Y-84719696D01*
X140155689Y-84649116D01*
X140155689Y-82185884D01*
X140149275Y-82115304D01*
X140098667Y-81952894D01*
X140010661Y-81807315D01*
X140010659Y-81807313D01*
X140010658Y-81807311D01*
X139890377Y-81687030D01*
X139861038Y-81669294D01*
X139744795Y-81599022D01*
X139582385Y-81548414D01*
X139582383Y-81548413D01*
X139582381Y-81548413D01*
X139532967Y-81543923D01*
X139511805Y-81542000D01*
X137798573Y-81542000D01*
X137779334Y-81543748D01*
X137727996Y-81548413D01*
X137565582Y-81599022D01*
X137420000Y-81687030D01*
X137299719Y-81807311D01*
X137211711Y-81952893D01*
X137161102Y-82115307D01*
X137154689Y-82185886D01*
X136000500Y-82185886D01*
X136000500Y-77124500D01*
X136020185Y-77057461D01*
X136072989Y-77011706D01*
X136124500Y-77000500D01*
X179375500Y-77000500D01*
X179442539Y-77020185D01*
G37*
%TD.AperFunction*%
%TA.AperFunction,Conductor*%
G36*
X165055703Y-87959937D02*
G01*
X165074818Y-87980765D01*
X165206752Y-88162358D01*
X165206756Y-88162363D01*
X165362636Y-88318243D01*
X165362641Y-88318247D01*
X165518192Y-88431260D01*
X165540978Y-88447815D01*
X165667300Y-88512180D01*
X165737393Y-88547895D01*
X165737396Y-88547896D01*
X165804525Y-88569707D01*
X165947049Y-88616015D01*
X166164778Y-88650500D01*
X166164779Y-88650500D01*
X166385221Y-88650500D01*
X166385222Y-88650500D01*
X166602951Y-88616015D01*
X166673205Y-88593187D01*
X166743044Y-88591192D01*
X166799203Y-88623438D01*
X171363181Y-93187416D01*
X171396666Y-93248739D01*
X171399500Y-93275097D01*
X171399500Y-96909897D01*
X171379815Y-96976936D01*
X171327011Y-97022691D01*
X171257853Y-97032635D01*
X171194297Y-97003610D01*
X171176234Y-96984208D01*
X171107547Y-96892455D01*
X171107544Y-96892452D01*
X170992335Y-96806206D01*
X170992328Y-96806202D01*
X170857482Y-96755908D01*
X170857483Y-96755908D01*
X170797883Y-96749501D01*
X170797881Y-96749500D01*
X170797873Y-96749500D01*
X170797864Y-96749500D01*
X168702129Y-96749500D01*
X168702123Y-96749501D01*
X168642516Y-96755908D01*
X168507671Y-96806202D01*
X168507664Y-96806206D01*
X168392455Y-96892452D01*
X168392452Y-96892455D01*
X168306206Y-97007664D01*
X168306202Y-97007671D01*
X168255908Y-97142517D01*
X168249501Y-97202116D01*
X168249500Y-97202135D01*
X168249500Y-98849902D01*
X168229815Y-98916941D01*
X168213181Y-98937583D01*
X165669481Y-101481282D01*
X165669479Y-101481285D01*
X165646683Y-101520770D01*
X165631555Y-101546974D01*
X165623887Y-101560255D01*
X165623885Y-101560257D01*
X165590425Y-101618209D01*
X165590423Y-101618212D01*
X165572821Y-101683905D01*
X165549499Y-101770943D01*
X165549499Y-101770945D01*
X165549499Y-101939046D01*
X165549500Y-101939059D01*
X165549500Y-106156400D01*
X165529815Y-106223439D01*
X165513181Y-106244081D01*
X165467343Y-106289918D01*
X165467339Y-106289923D01*
X165323896Y-106487357D01*
X165213097Y-106704812D01*
X165137678Y-106936927D01*
X165099500Y-107177973D01*
X165099500Y-108422026D01*
X165135554Y-108649664D01*
X165137679Y-108663076D01*
X165213096Y-108895185D01*
X165323780Y-109112416D01*
X165323896Y-109112642D01*
X165467339Y-109310076D01*
X165467343Y-109310081D01*
X165639918Y-109482656D01*
X165639923Y-109482660D01*
X165834898Y-109624316D01*
X165837361Y-109626106D01*
X165981795Y-109699697D01*
X166032590Y-109747671D01*
X166049500Y-109810182D01*
X166049500Y-109913330D01*
X166049499Y-109913348D01*
X166049499Y-110079054D01*
X166049498Y-110079054D01*
X166090422Y-110231783D01*
X166117715Y-110279055D01*
X166117717Y-110279058D01*
X166169479Y-110368714D01*
X166169481Y-110368717D01*
X166288349Y-110487585D01*
X166288355Y-110487590D01*
X169173435Y-113372670D01*
X169206920Y-113433993D01*
X169201936Y-113503685D01*
X169193142Y-113522350D01*
X169076655Y-113724113D01*
X169076650Y-113724123D01*
X168993858Y-113924003D01*
X168988842Y-113936113D01*
X168931899Y-114148632D01*
X168929453Y-114157759D01*
X168929451Y-114157770D01*
X168899500Y-114385258D01*
X168899500Y-114614741D01*
X168916771Y-114745918D01*
X168929452Y-114842238D01*
X168960835Y-114959363D01*
X168988842Y-115063887D01*
X169076650Y-115275876D01*
X169076656Y-115275888D01*
X169191389Y-115474612D01*
X169193613Y-115477511D01*
X169249247Y-115550013D01*
X169274441Y-115615183D01*
X169260403Y-115683627D01*
X169211589Y-115733617D01*
X169150871Y-115749500D01*
X168601578Y-115749500D01*
X168407173Y-115780290D01*
X168219970Y-115841117D01*
X168044594Y-115930476D01*
X167953741Y-115996485D01*
X167885354Y-116046172D01*
X167885352Y-116046174D01*
X167885351Y-116046174D01*
X167746174Y-116185351D01*
X167746174Y-116185352D01*
X167746172Y-116185354D01*
X167720602Y-116220548D01*
X167630476Y-116344594D01*
X167541117Y-116519970D01*
X167480290Y-116707173D01*
X167449500Y-116901577D01*
X167449500Y-117098422D01*
X167480290Y-117292826D01*
X167541117Y-117480029D01*
X167609068Y-117613389D01*
X167630476Y-117655405D01*
X167654985Y-117689139D01*
X167664776Y-117702614D01*
X167688256Y-117768420D01*
X167672431Y-117836474D01*
X167622326Y-117885169D01*
X167564458Y-117899500D01*
X167050097Y-117899500D01*
X166983058Y-117879815D01*
X166962416Y-117863181D01*
X164136819Y-115037584D01*
X164103334Y-114976261D01*
X164100500Y-114949903D01*
X164100500Y-99670943D01*
X164100499Y-99670939D01*
X164089874Y-99631285D01*
X164087070Y-99620821D01*
X164059577Y-99518215D01*
X164030639Y-99468095D01*
X163980520Y-99381284D01*
X163868716Y-99269480D01*
X163868715Y-99269479D01*
X163864385Y-99265149D01*
X163864374Y-99265139D01*
X161584574Y-96985339D01*
X161551089Y-96924016D01*
X161550638Y-96921849D01*
X161519738Y-96766510D01*
X161519737Y-96766503D01*
X161515349Y-96755909D01*
X161459397Y-96620827D01*
X161459390Y-96620814D01*
X161371789Y-96489711D01*
X161371786Y-96489707D01*
X161260292Y-96378213D01*
X161260288Y-96378210D01*
X161129185Y-96290609D01*
X161129172Y-96290602D01*
X160983501Y-96230264D01*
X160983489Y-96230261D01*
X160828845Y-96199500D01*
X160828842Y-96199500D01*
X160671158Y-96199500D01*
X160671155Y-96199500D01*
X160516510Y-96230261D01*
X160516498Y-96230264D01*
X160370827Y-96290602D01*
X160370814Y-96290609D01*
X160239711Y-96378210D01*
X160239707Y-96378213D01*
X160128213Y-96489707D01*
X160128210Y-96489711D01*
X160040609Y-96620814D01*
X160040602Y-96620827D01*
X159980264Y-96766498D01*
X159980261Y-96766510D01*
X159949500Y-96921153D01*
X159949500Y-97078846D01*
X159980261Y-97233489D01*
X159980264Y-97233501D01*
X160040602Y-97379172D01*
X160040609Y-97379185D01*
X160128210Y-97510288D01*
X160128213Y-97510292D01*
X160239707Y-97621786D01*
X160239711Y-97621789D01*
X160370814Y-97709390D01*
X160370827Y-97709397D01*
X160516498Y-97769735D01*
X160516503Y-97769737D01*
X160581147Y-97782595D01*
X160671849Y-97800638D01*
X160733760Y-97833023D01*
X160735339Y-97834574D01*
X162863181Y-99962416D01*
X162896666Y-100023739D01*
X162899500Y-100050097D01*
X162899500Y-100496988D01*
X162879815Y-100564027D01*
X162827011Y-100609782D01*
X162757853Y-100619726D01*
X162694297Y-100590701D01*
X162660939Y-100544442D01*
X162658786Y-100539244D01*
X162658783Y-100539239D01*
X162658782Y-100539237D01*
X162546558Y-100371281D01*
X162403718Y-100228441D01*
X162235762Y-100116217D01*
X162235752Y-100116212D01*
X162049127Y-100038909D01*
X162049119Y-100038907D01*
X161851007Y-99999500D01*
X161851003Y-99999500D01*
X161648997Y-99999500D01*
X161648992Y-99999500D01*
X161450880Y-100038907D01*
X161450872Y-100038909D01*
X161264244Y-100116213D01*
X161183891Y-100169904D01*
X161117213Y-100190782D01*
X161049833Y-100172297D01*
X161046109Y-100169904D01*
X160965755Y-100116213D01*
X160779127Y-100038909D01*
X160779119Y-100038907D01*
X160646731Y-100012573D01*
X160584820Y-99980188D01*
X160550245Y-99919472D01*
X160549305Y-99915147D01*
X160519738Y-99766510D01*
X160519737Y-99766503D01*
X160510454Y-99744091D01*
X160459397Y-99620827D01*
X160459390Y-99620814D01*
X160371789Y-99489711D01*
X160371786Y-99489707D01*
X160260292Y-99378213D01*
X160260288Y-99378210D01*
X160129185Y-99290609D01*
X160129172Y-99290602D01*
X159983501Y-99230264D01*
X159983489Y-99230261D01*
X159828845Y-99199500D01*
X159828842Y-99199500D01*
X159757343Y-99199500D01*
X159690304Y-99179815D01*
X159644549Y-99127011D01*
X159633343Y-99075500D01*
X159633343Y-93392253D01*
X159653028Y-93325214D01*
X159669657Y-93304577D01*
X161037821Y-91936412D01*
X161099142Y-91902929D01*
X161168834Y-91907913D01*
X161224767Y-91949785D01*
X161249184Y-92015249D01*
X161249500Y-92024093D01*
X161249500Y-92072868D01*
X161249501Y-92072876D01*
X161255908Y-92132483D01*
X161306202Y-92267328D01*
X161306206Y-92267335D01*
X161392452Y-92382544D01*
X161392455Y-92382547D01*
X161507664Y-92468793D01*
X161507671Y-92468797D01*
X161642517Y-92519091D01*
X161642516Y-92519091D01*
X161649444Y-92519835D01*
X161702127Y-92525500D01*
X163297872Y-92525499D01*
X163357483Y-92519091D01*
X163492331Y-92468796D01*
X163607546Y-92382546D01*
X163693796Y-92267331D01*
X163744091Y-92132483D01*
X163750500Y-92072873D01*
X163750499Y-91375095D01*
X163770183Y-91308057D01*
X163786813Y-91287420D01*
X164548021Y-90526212D01*
X164573693Y-90506513D01*
X164618716Y-90480520D01*
X164730520Y-90368716D01*
X164809577Y-90231784D01*
X164850500Y-90079057D01*
X164850500Y-88053650D01*
X164870185Y-87986611D01*
X164922989Y-87940856D01*
X164992147Y-87930912D01*
X165055703Y-87959937D01*
G37*
%TD.AperFunction*%
%TA.AperFunction,Conductor*%
G36*
X171363182Y-99502421D02*
G01*
X171396666Y-99563745D01*
X171399500Y-99590102D01*
X171399500Y-102163330D01*
X171399499Y-102163348D01*
X171399499Y-102329054D01*
X171399498Y-102329054D01*
X171434877Y-102461090D01*
X171440423Y-102481785D01*
X171451528Y-102501018D01*
X171462334Y-102519735D01*
X171462336Y-102519738D01*
X171519479Y-102618714D01*
X171519481Y-102618717D01*
X171638349Y-102737585D01*
X171638355Y-102737590D01*
X173613181Y-104712416D01*
X173646666Y-104773739D01*
X173649500Y-104800097D01*
X173649500Y-105638881D01*
X173629815Y-105705920D01*
X173577011Y-105751675D01*
X173541686Y-105761820D01*
X173430617Y-105776442D01*
X173407762Y-105779452D01*
X173314076Y-105804554D01*
X173186112Y-105838842D01*
X172974123Y-105926650D01*
X172974109Y-105926657D01*
X172775382Y-106041392D01*
X172593338Y-106181081D01*
X172431081Y-106343338D01*
X172291392Y-106525382D01*
X172176657Y-106724109D01*
X172176650Y-106724123D01*
X172088842Y-106936112D01*
X172029453Y-107157759D01*
X172029451Y-107157770D01*
X171999500Y-107385258D01*
X171999500Y-107614741D01*
X172016070Y-107740595D01*
X172029452Y-107842238D01*
X172039915Y-107881286D01*
X172088842Y-108063887D01*
X172176650Y-108275876D01*
X172176657Y-108275890D01*
X172223025Y-108356202D01*
X172272821Y-108442452D01*
X172291392Y-108474617D01*
X172431081Y-108656661D01*
X172431089Y-108656670D01*
X172593330Y-108818911D01*
X172593338Y-108818918D01*
X172775382Y-108958607D01*
X172775385Y-108958608D01*
X172775388Y-108958611D01*
X172974112Y-109073344D01*
X172974117Y-109073346D01*
X172974123Y-109073349D01*
X173065480Y-109111190D01*
X173186113Y-109161158D01*
X173407762Y-109220548D01*
X173541686Y-109238179D01*
X173605582Y-109266445D01*
X173644053Y-109324770D01*
X173649500Y-109361118D01*
X173649500Y-114745918D01*
X173629815Y-114812957D01*
X173613179Y-114833601D01*
X173593369Y-114853410D01*
X173532045Y-114886894D01*
X173462354Y-114881908D01*
X173406421Y-114840035D01*
X173382006Y-114774570D01*
X173382750Y-114749550D01*
X173400500Y-114614734D01*
X173400500Y-114385266D01*
X173370548Y-114157762D01*
X173311158Y-113936113D01*
X173223344Y-113724112D01*
X173108611Y-113525388D01*
X173108608Y-113525385D01*
X173108607Y-113525382D01*
X172968918Y-113343338D01*
X172968911Y-113343330D01*
X172806670Y-113181089D01*
X172806661Y-113181081D01*
X172624617Y-113041392D01*
X172425890Y-112926657D01*
X172425876Y-112926650D01*
X172213887Y-112838842D01*
X171992238Y-112779452D01*
X171954215Y-112774446D01*
X171764741Y-112749500D01*
X171764734Y-112749500D01*
X170535266Y-112749500D01*
X170535260Y-112749500D01*
X170535255Y-112749501D01*
X170342695Y-112774852D01*
X170273660Y-112764086D01*
X170238829Y-112739594D01*
X167359874Y-109860639D01*
X167326389Y-109799316D01*
X167331373Y-109729624D01*
X167373245Y-109673691D01*
X167391244Y-109662482D01*
X167462639Y-109626106D01*
X167660083Y-109482655D01*
X167832655Y-109310083D01*
X167976106Y-109112639D01*
X168086904Y-108895185D01*
X168162321Y-108663076D01*
X168200500Y-108422027D01*
X168200500Y-107177973D01*
X168162321Y-106936924D01*
X168086904Y-106704815D01*
X167976106Y-106487361D01*
X167957779Y-106462136D01*
X167832660Y-106289923D01*
X167832656Y-106289918D01*
X167660081Y-106117343D01*
X167660076Y-106117339D01*
X167462642Y-105973896D01*
X167462641Y-105973895D01*
X167462639Y-105973894D01*
X167245185Y-105863096D01*
X167013076Y-105787679D01*
X167013074Y-105787678D01*
X167013072Y-105787678D01*
X166855102Y-105762658D01*
X166791967Y-105732729D01*
X166755036Y-105673417D01*
X166750500Y-105640185D01*
X166750500Y-102150096D01*
X166770185Y-102083057D01*
X166786814Y-102062420D01*
X169062416Y-99786817D01*
X169123739Y-99753333D01*
X169150097Y-99750499D01*
X170797871Y-99750499D01*
X170797872Y-99750499D01*
X170857483Y-99744091D01*
X170992331Y-99693796D01*
X171107546Y-99607546D01*
X171176234Y-99515789D01*
X171232167Y-99473920D01*
X171301859Y-99468936D01*
X171363182Y-99502421D01*
G37*
%TD.AperFunction*%
%TA.AperFunction,Conductor*%
G36*
X158965748Y-100301685D02*
G01*
X159021681Y-100343557D01*
X159036974Y-100370413D01*
X159040601Y-100379170D01*
X159040609Y-100379185D01*
X159128210Y-100510288D01*
X159128213Y-100510292D01*
X159239707Y-100621786D01*
X159239711Y-100621789D01*
X159370817Y-100709392D01*
X159370819Y-100709393D01*
X159370821Y-100709394D01*
X159393549Y-100718808D01*
X159447952Y-100762649D01*
X159470017Y-100828943D01*
X159467714Y-100857558D01*
X159454500Y-100923996D01*
X159454500Y-101576007D01*
X159493907Y-101774119D01*
X159493909Y-101774127D01*
X159571212Y-101960752D01*
X159571217Y-101960762D01*
X159683441Y-102128718D01*
X159826279Y-102271556D01*
X159867255Y-102298935D01*
X159912060Y-102352547D01*
X159920767Y-102421872D01*
X159890613Y-102484900D01*
X159886045Y-102489718D01*
X159512584Y-102863181D01*
X159451261Y-102896666D01*
X159424903Y-102899500D01*
X156564783Y-102899500D01*
X156497744Y-102879815D01*
X156451989Y-102827011D01*
X156442045Y-102757853D01*
X156471070Y-102694297D01*
X156477102Y-102687819D01*
X157066186Y-102098735D01*
X158834735Y-100330184D01*
X158896056Y-100296701D01*
X158965748Y-100301685D01*
G37*
%TD.AperFunction*%
%TA.AperFunction,Conductor*%
G36*
X155705300Y-80905727D02*
G01*
X155716104Y-80915339D01*
X157363181Y-82562416D01*
X157396666Y-82623739D01*
X157399500Y-82650097D01*
X157399500Y-99449902D01*
X157379815Y-99516941D01*
X157363181Y-99537583D01*
X157344492Y-99556272D01*
X157283169Y-99589757D01*
X157213477Y-99584773D01*
X157157544Y-99542901D01*
X157153709Y-99537482D01*
X157121789Y-99489711D01*
X157121786Y-99489707D01*
X157010292Y-99378213D01*
X157010288Y-99378210D01*
X156879185Y-99290609D01*
X156879172Y-99290602D01*
X156733501Y-99230264D01*
X156733491Y-99230261D01*
X156578151Y-99199362D01*
X156516241Y-99166977D01*
X156514662Y-99165426D01*
X156451217Y-99101981D01*
X156451209Y-99101975D01*
X156363017Y-99051058D01*
X156363016Y-99051058D01*
X156342420Y-99039167D01*
X156314285Y-99022923D01*
X156161557Y-98981999D01*
X156003443Y-98981999D01*
X155995847Y-98981999D01*
X155995831Y-98982000D01*
X155519689Y-98982000D01*
X155452650Y-98962315D01*
X155406895Y-98909511D01*
X155395689Y-98858000D01*
X155395689Y-98350886D01*
X155389275Y-98280307D01*
X155389275Y-98280304D01*
X155338667Y-98117894D01*
X155250661Y-97972315D01*
X155250659Y-97972313D01*
X155250658Y-97972311D01*
X155130377Y-97852030D01*
X155101501Y-97834574D01*
X154984795Y-97764022D01*
X154822385Y-97713414D01*
X154822383Y-97713413D01*
X154822381Y-97713413D01*
X154772967Y-97708923D01*
X154751805Y-97707000D01*
X153038573Y-97707000D01*
X153038572Y-97707000D01*
X153012638Y-97709356D01*
X152944092Y-97695818D01*
X152893748Y-97647370D01*
X152877588Y-97579395D01*
X152900744Y-97513474D01*
X152913732Y-97498190D01*
X155563902Y-94848021D01*
X155563905Y-94848020D01*
X155675709Y-94736216D01*
X155725828Y-94649404D01*
X155754766Y-94599285D01*
X155795689Y-94446557D01*
X155795689Y-94288443D01*
X155795689Y-82118911D01*
X155795690Y-82118898D01*
X155795690Y-81950797D01*
X155795690Y-81950795D01*
X155754766Y-81798067D01*
X155720804Y-81739243D01*
X155675709Y-81661136D01*
X155563905Y-81549332D01*
X155563904Y-81549331D01*
X155559574Y-81545001D01*
X155559563Y-81544991D01*
X155201241Y-81186669D01*
X155167756Y-81125346D01*
X155172740Y-81055654D01*
X155214612Y-80999721D01*
X155269519Y-80976516D01*
X155351368Y-80963553D01*
X155575992Y-80890568D01*
X155576008Y-80890559D01*
X155580496Y-80888702D01*
X155581389Y-80890859D01*
X155640496Y-80879609D01*
X155705300Y-80905727D01*
G37*
%TD.AperFunction*%
%TA.AperFunction,Conductor*%
G36*
X156624033Y-79743540D02*
G01*
X156675093Y-79774328D01*
X161863181Y-84962416D01*
X161896666Y-85023739D01*
X161899500Y-85050097D01*
X161899500Y-87922689D01*
X161879815Y-87989728D01*
X161827011Y-88035483D01*
X161822955Y-88037249D01*
X161789249Y-88051211D01*
X161789237Y-88051217D01*
X161621281Y-88163441D01*
X161478441Y-88306281D01*
X161366217Y-88474237D01*
X161366212Y-88474247D01*
X161288909Y-88660872D01*
X161288907Y-88660880D01*
X161249500Y-88858992D01*
X161249500Y-89061007D01*
X161288907Y-89259119D01*
X161288909Y-89259127D01*
X161366213Y-89445755D01*
X161419904Y-89526109D01*
X161440782Y-89592787D01*
X161422297Y-89660167D01*
X161419904Y-89663891D01*
X161366213Y-89744244D01*
X161288909Y-89930872D01*
X161288907Y-89930878D01*
X161282346Y-89963864D01*
X161249960Y-90025775D01*
X161248410Y-90027353D01*
X158812181Y-92463583D01*
X158750858Y-92497068D01*
X158681166Y-92492084D01*
X158625233Y-92450212D01*
X158600816Y-92384748D01*
X158600500Y-92375902D01*
X158600500Y-82439060D01*
X158600501Y-82439047D01*
X158600501Y-82270944D01*
X158600501Y-82270943D01*
X158559577Y-82118216D01*
X158554204Y-82108909D01*
X158480524Y-81981290D01*
X158480518Y-81981282D01*
X157489715Y-80990479D01*
X156489583Y-79990348D01*
X156456099Y-79929026D01*
X156459334Y-79864349D01*
X156463553Y-79851368D01*
X156464939Y-79842616D01*
X156494862Y-79779484D01*
X156554170Y-79742548D01*
X156624033Y-79743540D01*
G37*
%TD.AperFunction*%
%TD*%
M02*
