M48
; DRILL file KiCad 10.0.5 date 2026-08-09T20:37:59
; FORMAT={-:-/ absolute / metric / decimal}
; #@! TF.CreationDate,2026-08-09T20:37:59-07:00
; #@! TF.GenerationSoftware,Kicad,Pcbnew,10.0.5
; #@! TF.FileFunction,Plated,1,2,PTH
FMAT,2
METRIC
; #@! TA.AperFunction,Plated,PTH,ViaDrill
T1C0.300
; #@! TA.AperFunction,Plated,PTH,ComponentDrill
T2C0.500
; #@! TA.AperFunction,Plated,PTH,ComponentDrill
T3C0.750
; #@! TA.AperFunction,Plated,PTH,ComponentDrill
T4C0.760
; #@! TA.AperFunction,Plated,PTH,ComponentDrill
T5C0.800
; #@! TA.AperFunction,Plated,PTH,ComponentDrill
T6C1.000
; #@! TA.AperFunction,Plated,PTH,ComponentDrill
T7C1.500
; #@! TA.AperFunction,Plated,PTH,ComponentDrill
T8C1.650
%
G90
G05
T1
X143.75Y-104.25
X146.5Y-85.25
X147.25Y-94.25
X148.5Y-94.25
X148.75Y-85.5
X150.75Y-94.75
X152.0Y-96.5
X153.5Y-90.5
X153.5Y-92.5
X155.75Y-98.25
X156.0Y-96.0
X157.0Y-102.5
X160.0Y-96.75
X162.25Y-95.75
X163.5Y-96.5
X163.75Y-94.0
T2
X161.5Y-80.25
X162.75Y-80.25
T3
X159.21Y-101.25
X160.48Y-101.25
X160.75Y-90.96
X160.75Y-92.23
X160.75Y-93.5
X161.75Y-101.25
T4
X175.38Y-114.21
X175.38Y-116.75
X175.38Y-119.29
T5
X156.75Y-111.25
X157.75Y-120.5
X159.75Y-120.5
X160.75Y-111.25
X161.75Y-120.5
X165.75Y-120.5
T6
X147.5Y-79.5
X150.0Y-79.5
X152.5Y-79.5
X155.0Y-79.5
X170.0Y-78.5
X170.0Y-93.0
X172.5Y-93.0
X175.0Y-78.5
X175.0Y-93.0
T8
X153.85Y-120.5
X169.85Y-120.5
T6
G00X166.75Y-99.3
M15
G01X166.75Y-100.3
M16
G05
G00X170.05Y-109.0
M15
G01X169.05Y-109.0
M16
G05
G00X171.75Y-106.5
M15
G01X170.75Y-106.5
M16
G05
G00X174.85Y-99.5
M15
G01X173.85Y-99.5
M16
G05
G00X177.85Y-104.5
M15
G01X177.85Y-103.5
M16
G05
T7
G00X166.9Y-86.15
M15
G01X166.9Y-84.85
M16
G05
G00X178.1Y-86.15
M15
G01X178.1Y-84.85
M16
G05
M30
